<svg xmlns="http://www.w3.org/2000/svg" xmlns:xlink="http://www.w3.org/1999/xlink" width="80.044" height="79.965" viewBox="0 0 80.044 79.965"><defs><clipPath id="a"><rect width="80.044" height="79.965" fill="#acda53"/></clipPath></defs><g clip-path="url(#a)"><path d="M36.534,263.71C17.179,262.185.86,245.34.035,225.966c-.027-.629-.169-2.7.4-2.943a47.89,47.89,0,0,1,6.86-.116c.254.026.65.06.8.29.27.425.241,3.2.337,3.98A31.843,31.843,0,0,0,46.143,254.91,32.308,32.308,0,0,0,67.082,240.43c-.63-.681-4.392-1.76-3.059-3.061,3.785-1.469,7.641-2.869,11.524-4,.44.06.622.453.748.836,1.075,3.272,1.1,7.594,2.133,10.967-.092,2.866-3.925-.966-4.353-.639A38.224,38.224,0,0,1,61.486,257.5a41.3,41.3,0,0,1-18.318,6.2,52.789,52.789,0,0,1-6.635,0M6.5,224.651H1.788A38.257,38.257,0,0,0,70.9,246.328c.395-.541,2.235-3.609,2.424-3.725,1.015-.625,2.6,1.156,2.845.88l-1.4-8.02-7.855,2.618c.338.741,2.164,1.023,2.277,1.839.082.593-1.518,2.831-1.961,3.445A33.545,33.545,0,0,1,6.5,224.651" transform="translate(0 -183.849)" fill="#acda53"/><path d="M87.541,40.585c-.229.229-.772.2-1.087.223a46.271,46.271,0,0,1-5.776,0c-.27-.023-.718-.03-.911-.223-.309-.309-.3-3.326-.392-4.055A31.829,31.829,0,0,0,20.717,23.279c.017.236,2.8,1.432,3.148,1.9.817,1.12-.907,1.552-1.667,1.847-3.146,1.22-6.468,2.106-9.628,3.306-.594.109-.93-.3-1.066-.827L9.391,18.086c.627-1.953,3.909,1.416,4.333,1.093A37.824,37.824,0,0,1,24.95,7.109C48.533-9.221,81.561,4.033,87.007,32.046c.252,1.294,1.242,7.831.533,8.539m-1.53-1.528A38.257,38.257,0,0,0,16.9,17.38c-.405.555-2.234,3.609-2.424,3.726-.988.608-1.883-.782-2.845-.88l1.4,8.021,7.855-2.618c-.338-.741-2.164-1.023-2.277-1.839-.082-.6,1.518-2.828,1.96-3.445A33.545,33.545,0,0,1,81.3,39.057Z" transform="translate(-7.748 0.001)" fill="#acda53"/><path d="M142.327,143.646a88.157,88.157,0,0,0-18.3-6.4c-.793-.171-4.441-1.041-4.891-.607a12.337,12.337,0,0,1,.714,3.05c-.04,1.609-1.756,2.645-1.334,4.632.1.484.6,1.092.6,1.469,0,.331-.295.772-.334,1.223a13.807,13.807,0,0,0,.342,2.8c.166,3.295-8.118,3.5-8.537.848-.227-1.438,0-3.425-.187-5.044-.214-1.833-.9-3.785-1.042-5.585-.1-1.241.352-3.054.174-4.013-.044-.235-1.031-1.1-1.262-1.7-.72-1.866-.773-8.044.238-9.777,1.309-2.243,5.446-2.529,7.742-2.378,1.219.08,3,.719,4.009.7a30.6,30.6,0,0,0,4.08-.821,84.856,84.856,0,0,0,17.907-6.314c.165-4.512,5.815-5.647,7.1-1.156L149.33,144.9c-1.317,4.353-7.049,3.136-7-1.258m3.481-30.164a1.932,1.932,0,0,0-1.686,1.986c-.021.284.161.55.143.837-.49,8.1-.487,17.86-.167,26.006.019.487.009,1.306.05,1.693.263,2.489,3.229,2.334,3.454.4l-.1-29.9a1.824,1.824,0,0,0-1.7-1.019m-3.447,28.212V117.63l-9.579,3.861-.036,16.112Zm-11.349-19.529-10.452,2.466a28.132,28.132,0,0,0,.076,10.11l10.375,2.42Zm-12.221,12.9-.539-5.318.466-5.33a13.166,13.166,0,0,0-6.912-.076,2.406,2.406,0,0,0-1.874,1.441c-.549,1.526-.684,7.073.3,8.328,1.5,1.918,6.432,1.22,8.561.955m-1.4,1.917a16.707,16.707,0,0,1-6.106-.174c-.57,3.486.817,6.738,1.054,10.194a18.331,18.331,0,0,0,.073,3.24c.381.578,4.506.61,4.791-.3.117-.375-.336-1.506-.345-2.064-.011-.676.346-1.37.334-1.922-.019-.848-.606-1.468-.492-2.783s1.343-2.879,1.388-3.5a13.762,13.762,0,0,0-.7-2.7" transform="translate(-88.891 -92.173)" fill="#acda53"/></g></svg>