<svg xmlns="http://www.w3.org/2000/svg" xmlns:xlink="http://www.w3.org/1999/xlink" width="1030" height="236.239" viewBox="0 0 1030 236.239"><defs><clipPath id="a"><path d="M14.826,0H1015.174C1023.362,0,1030,3.964,1030,8.853V227.386c0,4.889-6.638,8.853-14.826,8.853H14.826C6.638,236.239,0,232.276,0,227.386V8.853C0,3.964,6.638,0,14.826,0Z" transform="translate(-12635 -12925.021)" fill="#ecf5ff"/></clipPath><clipPath id="b"><rect width="687.91" height="581.925" fill="#ecf5ff" stroke="#e2c6fe" stroke-width="1"/></clipPath></defs><g transform="translate(-11605 -12688.782) rotate(180)" opacity="0.78" clip-path="url(#a)"><path d="M19.3,0H1321.668c10.66,0,19.3,6.252,19.3,13.965v344.72c0,7.713-8.642,13.965-19.3,13.965H19.3C8.642,372.651,0,366.4,0,358.686V13.965C0,6.252,8.642,0,19.3,0Z" transform="translate(-11309.081 -12560.03) rotate(180)" fill="#ecf5ff"/><g transform="translate(-11170.861 -12567.508) rotate(180)" opacity="0.12"><g opacity="0.76" clip-path="url(#b)" style="mix-blend-mode:multiply;isolation:isolate"><path d="M343.953,290.961C343.953,451.4,189.657,581.921,0,581.921v-5.759c185.9,0,337.141-127.941,337.141-285.2S185.9,5.759,0,5.759V0C189.657,0,343.953,130.524,343.953,290.961" transform="translate(0 0.004)" fill="#ecf5ff"/><path d="M0,582.421H-.5v-6.759H0c185.624,0,336.641-127.717,336.641-284.7S185.624,6.259,0,6.259H-.5V-.5H0c189.932,0,344.453,130.749,344.453,291.461S189.932,582.421,0,582.421Zm.5-5.759v4.759c189.158-.222,342.953-130.437,342.953-290.46S189.658.723.5.5V5.259c185.942.234,337.141,128.309,337.141,285.7S186.442,576.428.5,576.662Z" transform="translate(0 0.004)" fill="#e2c6fe"/><path d="M298.548,252.551C298.548,391.807,164.618,505.1,0,505.1V499.34c160.863,0,291.736-110.709,291.736-246.789S160.863,5.763,0,5.763V0C164.618,0,298.548,113.3,298.548,252.551" transform="translate(0 38.413)" fill="#ecf5ff"/><path d="M0,505.6H-.5V498.84H0c160.588,0,291.236-110.485,291.236-246.289S160.588,6.263,0,6.263H-.5V-.5H0c164.9,0,299.048,113.518,299.048,253.051S164.9,505.6,0,505.6Zm.5-5.763V504.6c164.11-.234,297.548-113.214,297.548-252.051S164.61.735.5.5V5.263c160.91.23,291.736,111.074,291.736,247.288S161.41,499.61.5,499.84Z" transform="translate(0 38.413)" fill="#e2c6fe"/><path d="M253.143,214.138C253.143,332.216,139.583,428.28,0,428.28v-5.763c135.828,0,246.331-93.478,246.331-208.379S135.828,5.759,0,5.759V0C139.583,0,253.143,96.06,253.143,214.138" transform="translate(0 76.826)" fill="#ecf5ff"/><path d="M0,428.78H-.5v-6.763H0c135.552,0,245.831-93.254,245.831-207.879S135.552,6.259,0,6.259H-.5V-.5H0c139.859,0,253.643,96.286,253.643,214.638S139.859,428.78,0,428.78Zm.5-5.763v4.763c139.074-.234,252.143-95.983,252.143-213.641S139.574.734.5.5V5.26C136.375,5.488,246.831,99.1,246.831,214.138S136.375,422.789.5,423.017Z" transform="translate(0 76.826)" fill="#e2c6fe"/><path d="M207.734,175.729c0,96.9-93.19,175.729-207.734,175.729V345.7c110.789,0,200.922-76.25,200.922-169.97S110.789,5.763,0,5.763V0C114.544,0,207.734,78.832,207.734,175.729" transform="translate(0 115.235)" fill="#ecf5ff"/><path d="M0,351.958H-.5V345.2H0c110.513,0,200.422-76.024,200.422-169.47S110.513,6.263,0,6.263H-.5V-.5H0c114.821,0,208.234,79.056,208.234,176.229S114.821,351.958,0,351.958Zm.5-5.76v4.759c114.039-.23,206.734-78.748,206.734-175.229S114.539.73.5.5V5.263C111.332,5.5,201.422,81.877,201.422,175.729S111.332,345.965.5,346.2Z" transform="translate(0 115.235)" fill="#e2c6fe"/><path d="M162.329,137.32c0,75.719-72.82,137.32-162.329,137.32v-5.763c85.755,0,155.517-59.014,155.517-131.557S85.755,5.763,0,5.763V0C89.51,0,162.329,61.6,162.329,137.32" transform="translate(0 153.645)" fill="#ecf5ff"/><path d="M0,275.139H-.5v-6.763H0c85.477,0,155.017-58.792,155.017-131.057S85.477,6.263,0,6.263H-.5V-.5H0c89.784,0,162.829,61.826,162.829,137.82S89.784,275.139,0,275.139Zm.5-5.763v4.763c89-.232,161.329-61.519,161.329-136.819S89.5.732.5.5V5.263c85.8.231,155.517,59.382,155.517,132.056S86.3,269.145.5,269.376Z" transform="translate(0 153.645)" fill="#e2c6fe"/><path d="M116.92,98.907c0,54.538-52.454,98.907-116.92,98.907v-5.759c60.712,0,110.108-41.786,110.108-93.148S60.712,5.759,0,5.759V0C64.467,0,116.92,44.369,116.92,98.907" transform="translate(0 192.058)" fill="#ecf5ff"/><path d="M0,198.313H-.5v-6.759H0c60.438,0,109.608-41.561,109.608-92.648S60.438,6.259,0,6.259H-.5V-.5H0c64.746,0,117.42,44.594,117.42,99.407S64.746,198.313,0,198.313Zm.5-5.76v4.759c63.963-.231,115.92-44.287,115.92-98.406S64.463.732.5.5V5.26c60.759.23,110.108,42.151,110.108,93.647S61.259,192.323.5,192.553Z" transform="translate(0 192.058)" fill="#e2c6fe"/><path d="M71.515,60.5c0,33.357-32.084,60.5-71.515,60.5v-5.763c35.677,0,64.7-24.555,64.7-54.735S35.677,5.763,0,5.763V0C39.432,0,71.515,27.141,71.515,60.5" transform="translate(0 230.467)" fill="#ecf5ff"/><path d="M0,121.494H-.5v-6.763H0c35.4,0,64.2-24.33,64.2-54.235S35.4,6.263,0,6.263H-.5V-.5H0c39.709,0,72.015,27.363,72.015,61S39.709,121.494,0,121.494Zm.5-5.764v4.763c38.928-.229,70.515-27.055,70.515-60S39.428.73.5.5V5.264C36.224,5.493,65.2,30.182,65.2,60.5S36.224,115.5.5,115.73Z" transform="translate(0 230.467)" fill="#e2c6fe"/><path d="M26.111,22.084C26.111,34.263,14.4,44.172,0,44.172V38.409c10.642,0,19.294-7.323,19.294-16.325S10.642,5.759,0,5.759V0C14.4,0,26.111,9.905,26.111,22.084" transform="translate(0 268.88)" fill="#ecf5ff"/><path d="M0,44.672H-.5V37.909H0c10.363,0,18.794-7.1,18.794-15.825S10.363,6.259,0,6.259H-.5V-.5H0C14.673-.5,26.611,9.631,26.611,22.084S14.673,44.672,0,44.672ZM.5,38.9v4.764c13.892-.226,25.111-9.821,25.111-21.584S14.392.73.5.5v4.76c10.684.226,19.294,7.685,19.294,16.82S11.184,38.678.5,38.9Z" transform="translate(0 268.88)" fill="#e2c6fe"/><path d="M343.953,290.961C343.953,130.524,189.653,0,0,0V5.759c185.9,0,337.141,127.941,337.141,285.2S185.9,576.162,0,576.162v5.759c189.653,0,343.953-130.524,343.953-290.961" transform="translate(343.957 0.004)" fill="#ecf5ff"/><path d="M0,582.421H-.5v-6.759H0c185.624,0,336.641-127.717,336.641-284.7S185.624,6.259,0,6.259H-.5V-.5H0c189.932,0,344.453,130.749,344.453,291.461S189.932,582.421,0,582.421Zm.5-5.759v4.759c189.158-.222,342.953-130.437,342.953-290.46S189.658.723.5.5V5.259c185.942.234,337.141,128.309,337.141,285.7S186.442,576.428.5,576.662Z" transform="translate(343.957 0.004)" fill="#e2c6fe"/><path d="M298.548,252.551C298.548,113.3,164.618,0,0,0V5.763c160.863,0,291.736,110.71,291.736,246.789S160.863,499.34,0,499.34V505.1c164.618,0,298.548-113.3,298.548-252.551" transform="translate(343.953 38.413)" fill="#ecf5ff"/><path d="M0,505.6H-.5V498.84H0c160.588,0,291.236-110.485,291.236-246.289S160.588,6.263,0,6.263H-.5V-.5H0c164.9,0,299.048,113.518,299.048,253.051S164.9,505.6,0,505.6Zm.5-5.763V504.6c164.11-.234,297.548-113.214,297.548-252.051S164.61.735.5.5V5.263c160.91.23,291.736,111.074,291.736,247.288S161.41,499.61.5,499.84Z" transform="translate(343.953 38.413)" fill="#e2c6fe"/><path d="M253.143,214.138C253.143,96.06,139.583,0,0,0V5.759c135.828,0,246.331,93.478,246.331,208.379S135.828,422.518,0,422.518v5.763c139.583,0,253.143-96.064,253.143-214.142" transform="translate(343.953 76.826)" fill="#ecf5ff"/><path d="M0,428.78H-.5v-6.763H0c135.552,0,245.831-93.254,245.831-207.879S135.552,6.259,0,6.259H-.5V-.5H0c139.859,0,253.643,96.286,253.643,214.638S139.859,428.78,0,428.78Zm.5-5.763v4.763c139.074-.234,252.143-95.983,252.143-213.641S139.574.734.5.5V5.26C136.375,5.488,246.831,99.1,246.831,214.138S136.375,422.789.5,423.017Z" transform="translate(343.953 76.826)" fill="#e2c6fe"/><path d="M207.734,175.729C207.734,78.832,114.544,0,0,0V5.763c110.789,0,200.922,76.246,200.922,169.966S110.789,345.7,0,345.7v5.759c114.544,0,207.734-78.832,207.734-175.729" transform="translate(343.957 115.235)" fill="#ecf5ff"/><path d="M0,351.958H-.5V345.2H0c110.513,0,200.422-76.024,200.422-169.47S110.513,6.263,0,6.263H-.5V-.5H0c114.821,0,208.234,79.056,208.234,176.229S114.821,351.958,0,351.958Zm.5-5.76v4.759c114.039-.23,206.734-78.748,206.734-175.229S114.539.73.5.5V5.263C111.332,5.5,201.422,81.877,201.422,175.729S111.332,345.965.5,346.2Z" transform="translate(343.957 115.235)" fill="#e2c6fe"/><path d="M162.329,137.32C162.329,61.6,89.51,0,0,0V5.763c85.75,0,155.517,59.014,155.517,131.557S85.75,268.877,0,268.877v5.763c89.51,0,162.329-61.6,162.329-137.32" transform="translate(343.953 153.645)" fill="#ecf5ff"/><path d="M0,275.139H-.5v-6.763H0c85.477,0,155.017-58.792,155.017-131.057S85.477,6.263,0,6.263H-.5V-.5H0c89.784,0,162.829,61.826,162.829,137.82S89.784,275.139,0,275.139Zm.5-5.763v4.763c89-.232,161.329-61.519,161.329-136.819S89.5.732.5.5V5.263c85.8.231,155.517,59.382,155.517,132.056S86.3,269.145.5,269.376Z" transform="translate(343.953 153.645)" fill="#e2c6fe"/><path d="M116.92,98.907C116.92,44.369,64.471,0,0,0V5.759c60.712,0,110.108,41.786,110.108,93.147S60.712,192.054,0,192.054v5.759c64.471,0,116.92-44.369,116.92-98.907" transform="translate(343.957 192.058)" fill="#ecf5ff"/><path d="M0,198.313H-.5v-6.759H0c60.438,0,109.608-41.561,109.608-92.648S60.438,6.259,0,6.259H-.5V-.5H0c64.746,0,117.42,44.594,117.42,99.407S64.746,198.313,0,198.313Zm.5-5.76v4.759c63.963-.231,115.92-44.287,115.92-98.406S64.463.732.5.5V5.26c60.759.23,110.108,42.151,110.108,93.647S61.259,192.323.5,192.553Z" transform="translate(343.957 192.058)" fill="#e2c6fe"/><path d="M71.515,60.5C71.515,27.141,39.432,0,0,0V5.763c35.677,0,64.7,24.555,64.7,54.735S35.677,115.232,0,115.232v5.763c39.432,0,71.515-27.141,71.515-60.5" transform="translate(343.953 230.467)" fill="#ecf5ff"/><path d="M0,121.494H-.5v-6.763H0c35.4,0,64.2-24.33,64.2-54.235S35.4,6.263,0,6.263H-.5V-.5H0c39.709,0,72.015,27.363,72.015,61S39.709,121.494,0,121.494Zm.5-5.764v4.763c38.928-.229,70.515-27.055,70.515-60S39.428.73.5.5V5.264C36.224,5.493,65.2,30.182,65.2,60.5S36.224,115.5.5,115.73Z" transform="translate(343.953 230.467)" fill="#e2c6fe"/><path d="M26.111,22.084C26.111,9.905,14.4,0,0,0V5.759c10.642,0,19.3,7.323,19.3,16.325S10.642,38.409,0,38.409v5.763c14.4,0,26.111-9.909,26.111-22.088" transform="translate(343.953 268.88)" fill="#ecf5ff"/><path d="M0,44.672H-.5V37.909H0c10.365,0,18.8-7.1,18.8-15.825S10.365,6.259,0,6.259H-.5V-.5H0C14.673-.5,26.611,9.631,26.611,22.084S14.673,44.672,0,44.672ZM.5,38.9v4.764c13.892-.226,25.111-9.821,25.111-21.584S14.392.73.5.5v4.76c10.687.226,19.3,7.685,19.3,16.82S11.187,38.678.5,38.9Z" transform="translate(343.953 268.88)" fill="#e2c6fe"/></g></g><path d="M84.188,0C37.693,0,0,52.651,0,117.6S37.693,235.2,84.188,235.2" transform="translate(-12467.925 -12688.782) rotate(180)" fill="#a4ceff" opacity="0.71"/><path d="M84.188,0C37.693,0,0,52.651,0,117.6S37.693,235.2,84.188,235.2" transform="translate(-12299.551 -12688.782) rotate(180)" fill="#a4ceff" opacity="0.13" style="mix-blend-mode:multiply;isolation:isolate"/><path d="M84.188,0C37.693,0,0,52.651,0,117.6S37.693,235.2,84.188,235.2" transform="translate(-12550.812 -12688.782) rotate(180)" fill="#a4ceff"/><path d="M84.188,0C37.693,0,0,52.651,0,117.6S37.693,235.2,84.188,235.2" transform="translate(-12383.738 -12688.782) rotate(180)" fill="#a4ceff" opacity="0.38"/><g transform="translate(-11487.718 -12696.216) rotate(180)" opacity="0.4" style="mix-blend-mode:multiply;isolation:isolate"><path d="M181.741,28.874c-8.286,0-12.376-6.951-15.662-12.538-3.328-5.653-5.583-9.118-9.825-9.118s-6.493,3.465-9.814,9.118c-3.286,5.588-7.376,12.538-15.658,12.538s-12.377-6.951-15.662-12.538c-3.325-5.653-5.579-9.118-9.818-9.118s-6.489,3.465-9.814,9.118C92.2,21.924,88.112,28.874,79.83,28.874S67.457,21.924,64.176,16.336c-3.325-5.653-5.575-9.118-9.81-9.118s-6.485,3.465-9.81,9.118C41.271,21.924,37.184,28.874,28.9,28.874S16.533,21.924,13.248,16.336c-3.325-5.653-5.575-9.118-9.81-9.118A3.525,3.525,0,0,1,0,3.609,3.528,3.528,0,0,1,3.438,0c8.278,0,12.369,6.955,15.654,12.542,3.321,5.649,5.575,9.114,9.81,9.114s6.485-3.465,9.81-9.114C42,6.955,46.088,0,54.366,0s12.369,6.955,15.65,12.538c3.325,5.653,5.575,9.118,9.814,9.118s6.489-3.465,9.814-9.118C92.929,6.955,97.02,0,105.3,0s12.373,6.955,15.662,12.538c3.321,5.653,5.575,9.118,9.818,9.118s6.489-3.465,9.814-9.118C143.877,6.955,147.971,0,156.254,0s12.38,6.955,15.666,12.538c3.329,5.653,5.583,9.118,9.821,9.118s6.5-3.465,9.825-9.118C194.852,6.955,198.946,0,207.232,0a3.525,3.525,0,0,1,3.434,3.609,3.522,3.522,0,0,1-3.434,3.609c-4.243,0-6.5,3.465-9.825,9.118C194.121,21.924,190.031,28.874,181.741,28.874Z" transform="translate(210.666 129.458) rotate(180)" fill="#ecf5ff"/><path d="M181.741,28.874c-8.286,0-12.376-6.951-15.662-12.538-3.328-5.653-5.583-9.118-9.825-9.118s-6.493,3.465-9.814,9.118c-3.286,5.588-7.376,12.538-15.658,12.538s-12.377-6.951-15.662-12.538c-3.325-5.653-5.579-9.118-9.818-9.118s-6.489,3.465-9.814,9.118C92.2,21.924,88.112,28.874,79.83,28.874S67.457,21.924,64.176,16.336c-3.325-5.653-5.575-9.118-9.81-9.118s-6.485,3.465-9.81,9.118C41.271,21.924,37.184,28.874,28.9,28.874S16.533,21.924,13.248,16.336c-3.325-5.653-5.575-9.118-9.81-9.118A3.525,3.525,0,0,1,0,3.609,3.528,3.528,0,0,1,3.438,0c8.278,0,12.369,6.955,15.654,12.542,3.321,5.649,5.575,9.114,9.81,9.114s6.485-3.465,9.81-9.114C42,6.955,46.088,0,54.366,0s12.369,6.955,15.65,12.538c3.325,5.653,5.575,9.118,9.814,9.118s6.489-3.465,9.814-9.118C92.929,6.955,97.02,0,105.3,0s12.373,6.955,15.662,12.538c3.321,5.653,5.575,9.118,9.818,9.118s6.489-3.465,9.814-9.118C143.877,6.955,147.971,0,156.254,0s12.38,6.955,15.666,12.538c3.329,5.653,5.583,9.118,9.821,9.118s6.5-3.465,9.825-9.118C194.852,6.955,198.946,0,207.232,0a3.525,3.525,0,0,1,3.434,3.609,3.522,3.522,0,0,1-3.434,3.609c-4.243,0-6.5,3.465-9.825,9.118C194.121,21.924,190.031,28.874,181.741,28.874Z" transform="translate(210.666 62.402) rotate(180)" fill="#ecf5ff"/><path d="M181.741,28.874c-8.286,0-12.376-6.951-15.662-12.538-3.328-5.653-5.583-9.118-9.825-9.118s-6.493,3.465-9.814,9.118c-3.286,5.588-7.376,12.538-15.658,12.538s-12.377-6.951-15.662-12.538c-3.325-5.653-5.579-9.118-9.818-9.118s-6.489,3.465-9.814,9.118C92.2,21.924,88.112,28.874,79.83,28.874S67.457,21.924,64.176,16.336c-3.325-5.653-5.575-9.118-9.81-9.118s-6.485,3.465-9.81,9.118C41.271,21.924,37.184,28.874,28.9,28.874S16.533,21.924,13.248,16.336c-3.325-5.653-5.575-9.118-9.81-9.118A3.525,3.525,0,0,1,0,3.609,3.528,3.528,0,0,1,3.438,0c8.278,0,12.369,6.955,15.654,12.542,3.321,5.649,5.575,9.114,9.81,9.114s6.485-3.465,9.81-9.114C42,6.955,46.088,0,54.366,0s12.369,6.955,15.65,12.538c3.325,5.653,5.575,9.118,9.814,9.118s6.489-3.465,9.814-9.118C92.929,6.955,97.02,0,105.3,0s12.373,6.955,15.662,12.538c3.321,5.653,5.575,9.118,9.818,9.118s6.489-3.465,9.814-9.118C143.877,6.955,147.971,0,156.254,0s12.38,6.955,15.666,12.538c3.329,5.653,5.583,9.118,9.821,9.118s6.5-3.465,9.825-9.118C194.852,6.955,198.946,0,207.232,0a3.525,3.525,0,0,1,3.434,3.609,3.522,3.522,0,0,1-3.434,3.609c-4.243,0-6.5,3.465-9.825,9.118C194.121,21.924,190.031,28.874,181.741,28.874Z" transform="translate(210.666 160.406) rotate(180)" fill="#ecf5ff"/><path d="M181.741,28.874c-8.286,0-12.376-6.951-15.662-12.538-3.328-5.653-5.583-9.118-9.825-9.118s-6.493,3.465-9.814,9.118c-3.286,5.588-7.376,12.538-15.658,12.538s-12.377-6.951-15.662-12.538c-3.325-5.653-5.579-9.118-9.818-9.118s-6.489,3.465-9.814,9.118C92.2,21.924,88.112,28.874,79.83,28.874S67.457,21.924,64.176,16.336c-3.325-5.653-5.575-9.118-9.81-9.118s-6.485,3.465-9.81,9.118C41.271,21.924,37.184,28.874,28.9,28.874S16.533,21.924,13.248,16.336c-3.325-5.653-5.575-9.118-9.81-9.118A3.525,3.525,0,0,1,0,3.609,3.528,3.528,0,0,1,3.438,0c8.278,0,12.369,6.955,15.654,12.542,3.321,5.649,5.575,9.114,9.81,9.114s6.485-3.465,9.81-9.114C42,6.955,46.088,0,54.366,0s12.369,6.955,15.65,12.538c3.325,5.653,5.575,9.118,9.814,9.118s6.489-3.465,9.814-9.118C92.929,6.955,97.02,0,105.3,0s12.373,6.955,15.662,12.538c3.321,5.653,5.575,9.118,9.818,9.118s6.489-3.465,9.814-9.118C143.877,6.955,147.971,0,156.254,0s12.38,6.955,15.666,12.538c3.329,5.653,5.583,9.118,9.821,9.118s6.5-3.465,9.825-9.118C194.852,6.955,198.946,0,207.232,0a3.525,3.525,0,0,1,3.434,3.609,3.522,3.522,0,0,1-3.434,3.609c-4.243,0-6.5,3.465-9.825,9.118C194.121,21.924,190.031,28.874,181.741,28.874Z" transform="translate(210.666 95.93) rotate(180)" fill="#ecf5ff"/><path d="M181.741,28.874c-8.286,0-12.376-6.951-15.662-12.538-3.328-5.653-5.583-9.118-9.825-9.118s-6.493,3.465-9.814,9.118c-3.286,5.588-7.376,12.538-15.658,12.538s-12.377-6.951-15.662-12.538c-3.325-5.653-5.579-9.118-9.818-9.118s-6.489,3.465-9.814,9.118C92.2,21.924,88.112,28.874,79.83,28.874S67.457,21.924,64.176,16.336c-3.325-5.653-5.575-9.118-9.81-9.118s-6.485,3.465-9.81,9.118C41.271,21.924,37.184,28.874,28.9,28.874S16.533,21.924,13.248,16.336c-3.325-5.653-5.575-9.118-9.81-9.118A3.525,3.525,0,0,1,0,3.609,3.528,3.528,0,0,1,3.438,0c8.278,0,12.369,6.955,15.654,12.542,3.321,5.649,5.575,9.114,9.81,9.114s6.485-3.465,9.81-9.114C42,6.955,46.088,0,54.366,0s12.369,6.955,15.65,12.538c3.325,5.653,5.575,9.118,9.814,9.118s6.489-3.465,9.814-9.118C92.929,6.955,97.02,0,105.3,0s12.373,6.955,15.662,12.538c3.321,5.653,5.575,9.118,9.818,9.118s6.489-3.465,9.814-9.118C143.877,6.955,147.971,0,156.254,0s12.38,6.955,15.666,12.538c3.329,5.653,5.583,9.118,9.821,9.118s6.5-3.465,9.825-9.118C194.852,6.955,198.946,0,207.232,0a3.525,3.525,0,0,1,3.434,3.609,3.522,3.522,0,0,1-3.434,3.609c-4.243,0-6.5,3.465-9.825,9.118C194.121,21.924,190.031,28.874,181.741,28.874Z" transform="translate(210.666 193.934) rotate(180)" fill="#ecf5ff"/><path d="M181.741,28.874c-8.286,0-12.376-6.951-15.662-12.538-3.328-5.653-5.583-9.118-9.825-9.118s-6.493,3.465-9.814,9.118c-3.286,5.588-7.376,12.538-15.658,12.538s-12.377-6.951-15.662-12.538c-3.325-5.653-5.579-9.118-9.818-9.118s-6.489,3.465-9.814,9.118C92.2,21.924,88.112,28.874,79.83,28.874S67.457,21.924,64.176,16.336c-3.325-5.653-5.575-9.118-9.81-9.118s-6.485,3.465-9.81,9.118C41.271,21.924,37.184,28.874,28.9,28.874S16.533,21.924,13.248,16.336c-3.325-5.653-5.575-9.118-9.81-9.118A3.525,3.525,0,0,1,0,3.609,3.528,3.528,0,0,1,3.438,0c8.278,0,12.369,6.955,15.654,12.542,3.321,5.649,5.575,9.114,9.81,9.114s6.485-3.465,9.81-9.114C42,6.955,46.088,0,54.366,0s12.369,6.955,15.65,12.538c3.325,5.653,5.575,9.118,9.814,9.118s6.489-3.465,9.814-9.118C92.929,6.955,97.02,0,105.3,0s12.373,6.955,15.662,12.538c3.321,5.653,5.575,9.118,9.818,9.118s6.489-3.465,9.814-9.118C143.877,6.955,147.971,0,156.254,0s12.38,6.955,15.666,12.538c3.329,5.653,5.583,9.118,9.821,9.118s6.5-3.465,9.825-9.118C194.852,6.955,198.946,0,207.232,0a3.525,3.525,0,0,1,3.434,3.609,3.522,3.522,0,0,1-3.434,3.609c-4.243,0-6.5,3.465-9.825,9.118C194.121,21.924,190.031,28.874,181.741,28.874Z" transform="translate(210.666 28.874) rotate(180)" fill="#ecf5ff"/></g></g></svg>