<svg xmlns="http://www.w3.org/2000/svg" xmlns:xlink="http://www.w3.org/1999/xlink" width="1030" height="214.675" viewBox="0 0 1030 214.675">
  <defs>
    <clipPath id="clip-path">
      <path id="Trazado_1015745" data-name="Trazado 1015745" d="M14.826,0H1015.174C1023.362,0,1030,3.6,1030,8.045V206.63c0,4.443-6.638,8.045-14.826,8.045H14.826C6.638,214.675,0,211.073,0,206.63V8.045C0,3.6,6.638,0,14.826,0Z" transform="translate(-83.147 5394.326)" fill="#b671fc"/>
    </clipPath>
  </defs>
  <g id="Enmascarar_grupo_1158936" data-name="Enmascarar grupo 1158936" transform="translate(83.147 -5394.326)" opacity="0.43" clip-path="url(#clip-path)">
    <path id="Trazado_1015732" data-name="Trazado 1015732" d="M296.905,0C460.882,0,593.811,132.128,593.811,295.117S460.882,590.233,296.905,590.233,0,458.105,0,295.117,132.929,0,296.905,0Z" transform="translate(0.257 4907.326)" fill="#ff966d" opacity="0.11"/>
    <path id="Trazado_1015733" data-name="Trazado 1015733" d="M14.826,0H1015.174C1023.362,0,1030,6.91,1030,15.434V396.407c0,8.524-6.638,15.434-14.826,15.434H14.826C6.638,411.841,0,404.931,0,396.407V15.434C0,6.91,6.638,0,14.826,0Z" transform="translate(-83.147 5383.399)" fill="#f7f0fe"/>
    <g id="Grupo_1159310" data-name="Grupo 1159310" transform="translate(731.741 5428.035)" opacity="0.2">
      <path id="Trazado_1015734" data-name="Trazado 1015734" d="M314.563,48.026c-14.342,0-21.422-11.561-27.108-20.855C281.693,17.768,277.792,12,270.448,12s-11.238,5.763-16.986,15.166c-5.687,9.294-12.766,20.855-27.1,20.855s-21.422-11.561-27.108-20.855C193.5,17.768,189.6,12,182.26,12s-11.232,5.763-16.986,15.166c-5.687,9.294-12.766,20.855-27.1,20.855s-21.415-11.561-27.095-20.855C105.323,17.768,101.428,12,94.1,12S82.874,17.768,77.119,27.171c-5.687,9.294-12.76,20.855-27.095,20.855S28.616,36.465,22.929,27.171C17.175,17.768,13.28,12,5.95,12a6,6,0,0,1,0-12C20.279,0,27.359,11.568,33.045,20.862c5.747,9.4,9.649,15.16,16.979,15.16S61.249,30.258,67,20.862C72.69,11.568,79.77,0,94.1,0s21.408,11.568,27.088,20.855c5.754,9.4,9.649,15.167,16.986,15.167s11.231-5.763,16.986-15.167C160.845,11.568,167.925,0,182.26,0s21.415,11.568,27.108,20.855c5.748,9.4,9.649,15.167,16.993,15.167s11.232-5.763,16.986-15.167C249.027,11.568,256.113,0,270.448,0s21.428,11.568,27.115,20.855c5.761,9.4,9.663,15.167,17,15.167s11.245-5.763,17.006-15.167C337.256,11.568,344.342,0,358.684,0a5.973,5.973,0,0,1,5.944,6,5.969,5.969,0,0,1-5.944,6c-7.343,0-11.245,5.763-17.006,15.166C335.991,36.465,328.912,48.026,314.563,48.026Z" transform="translate(364.628 215.326) rotate(180)" fill="#b671fc"/>
      <path id="Trazado_1015735" data-name="Trazado 1015735" d="M314.563,48.026c-14.342,0-21.422-11.561-27.108-20.855C281.693,17.768,277.792,12,270.448,12s-11.238,5.763-16.986,15.166c-5.687,9.294-12.766,20.855-27.1,20.855s-21.422-11.561-27.108-20.855C193.5,17.768,189.6,12,182.26,12s-11.232,5.763-16.986,15.166c-5.687,9.294-12.766,20.855-27.1,20.855s-21.415-11.561-27.095-20.855C105.323,17.768,101.428,12,94.1,12S82.874,17.768,77.119,27.171c-5.687,9.294-12.76,20.855-27.095,20.855S28.616,36.465,22.929,27.171C17.175,17.768,13.28,12,5.95,12a6,6,0,0,1,0-12C20.279,0,27.359,11.568,33.045,20.862c5.747,9.4,9.649,15.16,16.979,15.16S61.249,30.258,67,20.862C72.69,11.568,79.77,0,94.1,0s21.408,11.568,27.088,20.855c5.754,9.4,9.649,15.167,16.986,15.167s11.231-5.763,16.986-15.167C160.845,11.568,167.925,0,182.26,0s21.415,11.568,27.108,20.855c5.748,9.4,9.649,15.167,16.993,15.167s11.232-5.763,16.986-15.167C249.027,11.568,256.113,0,270.448,0s21.428,11.568,27.115,20.855c5.761,9.4,9.663,15.167,17,15.167s11.245-5.763,17.006-15.167C337.256,11.568,344.342,0,358.684,0a5.973,5.973,0,0,1,5.944,6,5.969,5.969,0,0,1-5.944,6c-7.343,0-11.245,5.763-17.006,15.166C335.991,36.465,328.912,48.026,314.563,48.026Z" transform="translate(364.628 103.793) rotate(180)" fill="#b671fc"/>
      <path id="Trazado_1015736" data-name="Trazado 1015736" d="M314.563,48.026c-14.342,0-21.422-11.561-27.108-20.855C281.693,17.768,277.792,12,270.448,12s-11.238,5.763-16.986,15.166c-5.687,9.294-12.766,20.855-27.1,20.855s-21.422-11.561-27.108-20.855C193.5,17.768,189.6,12,182.26,12s-11.232,5.763-16.986,15.166c-5.687,9.294-12.766,20.855-27.1,20.855s-21.415-11.561-27.095-20.855C105.323,17.768,101.428,12,94.1,12S82.874,17.768,77.119,27.171c-5.687,9.294-12.76,20.855-27.095,20.855S28.616,36.465,22.929,27.171C17.175,17.768,13.28,12,5.95,12a6,6,0,0,1,0-12C20.279,0,27.359,11.568,33.045,20.862c5.747,9.4,9.649,15.16,16.979,15.16S61.249,30.258,67,20.862C72.69,11.568,79.77,0,94.1,0s21.408,11.568,27.088,20.855c5.754,9.4,9.649,15.167,16.986,15.167s11.231-5.763,16.986-15.167C160.845,11.568,167.925,0,182.26,0s21.415,11.568,27.108,20.855c5.748,9.4,9.649,15.167,16.993,15.167s11.232-5.763,16.986-15.167C249.027,11.568,256.113,0,270.448,0s21.428,11.568,27.115,20.855c5.761,9.4,9.663,15.167,17,15.167s11.245-5.763,17.006-15.167C337.256,11.568,344.342,0,358.684,0a5.973,5.973,0,0,1,5.944,6,5.969,5.969,0,0,1-5.944,6c-7.343,0-11.245,5.763-17.006,15.166C335.991,36.465,328.912,48.026,314.563,48.026Z" transform="translate(364.628 266.803) rotate(180)" fill="#b671fc"/>
      <path id="Trazado_1015737" data-name="Trazado 1015737" d="M314.563,48.026c-14.342,0-21.422-11.561-27.108-20.855C281.693,17.768,277.792,12,270.448,12s-11.238,5.763-16.986,15.166c-5.687,9.294-12.766,20.855-27.1,20.855s-21.422-11.561-27.108-20.855C193.5,17.768,189.6,12,182.26,12s-11.232,5.763-16.986,15.166c-5.687,9.294-12.766,20.855-27.1,20.855s-21.415-11.561-27.095-20.855C105.323,17.768,101.428,12,94.1,12S82.874,17.768,77.119,27.171c-5.687,9.294-12.76,20.855-27.095,20.855S28.616,36.465,22.929,27.171C17.175,17.768,13.28,12,5.95,12a6,6,0,0,1,0-12C20.279,0,27.359,11.568,33.045,20.862c5.747,9.4,9.649,15.16,16.979,15.16S61.249,30.258,67,20.862C72.69,11.568,79.77,0,94.1,0s21.408,11.568,27.088,20.855c5.754,9.4,9.649,15.167,16.986,15.167s11.231-5.763,16.986-15.167C160.845,11.568,167.925,0,182.26,0s21.415,11.568,27.108,20.855c5.748,9.4,9.649,15.167,16.993,15.167s11.232-5.763,16.986-15.167C249.027,11.568,256.113,0,270.448,0s21.428,11.568,27.115,20.855c5.761,9.4,9.663,15.167,17,15.167s11.245-5.763,17.006-15.167C337.256,11.568,344.342,0,358.684,0a5.973,5.973,0,0,1,5.944,6,5.969,5.969,0,0,1-5.944,6c-7.343,0-11.245,5.763-17.006,15.166C335.991,36.465,328.912,48.026,314.563,48.026Z" transform="translate(364.628 159.56) rotate(180)" fill="#b671fc"/>
      <path id="Trazado_1015738" data-name="Trazado 1015738" d="M314.563,48.026c-14.342,0-21.422-11.561-27.108-20.855C281.693,17.768,277.792,12,270.448,12s-11.238,5.763-16.986,15.166c-5.687,9.294-12.766,20.855-27.1,20.855s-21.422-11.561-27.108-20.855C193.5,17.768,189.6,12,182.26,12s-11.232,5.763-16.986,15.166c-5.687,9.294-12.766,20.855-27.1,20.855s-21.415-11.561-27.095-20.855C105.323,17.768,101.428,12,94.1,12S82.874,17.768,77.119,27.171c-5.687,9.294-12.76,20.855-27.095,20.855S28.616,36.465,22.929,27.171C17.175,17.768,13.28,12,5.95,12a6,6,0,0,1,0-12C20.279,0,27.359,11.568,33.045,20.862c5.747,9.4,9.649,15.16,16.979,15.16S61.249,30.258,67,20.862C72.69,11.568,79.77,0,94.1,0s21.408,11.568,27.088,20.855c5.754,9.4,9.649,15.167,16.986,15.167s11.231-5.763,16.986-15.167C160.845,11.568,167.925,0,182.26,0s21.415,11.568,27.108,20.855c5.748,9.4,9.649,15.167,16.993,15.167s11.232-5.763,16.986-15.167C249.027,11.568,256.113,0,270.448,0s21.428,11.568,27.115,20.855c5.761,9.4,9.663,15.167,17,15.167s11.245-5.763,17.006-15.167C337.256,11.568,344.342,0,358.684,0a5.973,5.973,0,0,1,5.944,6,5.969,5.969,0,0,1-5.944,6c-7.343,0-11.245,5.763-17.006,15.166C335.991,36.465,328.912,48.026,314.563,48.026Z" transform="translate(364.628 322.569) rotate(180)" fill="#b671fc"/>
      <path id="Trazado_1015739" data-name="Trazado 1015739" d="M314.563,48.026c-14.342,0-21.422-11.561-27.108-20.855C281.693,17.768,277.792,12,270.448,12s-11.238,5.763-16.986,15.166c-5.687,9.294-12.766,20.855-27.1,20.855s-21.422-11.561-27.108-20.855C193.5,17.768,189.6,12,182.26,12s-11.232,5.763-16.986,15.166c-5.687,9.294-12.766,20.855-27.1,20.855s-21.415-11.561-27.095-20.855C105.323,17.768,101.428,12,94.1,12S82.874,17.768,77.119,27.171c-5.687,9.294-12.76,20.855-27.095,20.855S28.616,36.465,22.929,27.171C17.175,17.768,13.28,12,5.95,12a6,6,0,0,1,0-12C20.279,0,27.359,11.568,33.045,20.862c5.747,9.4,9.649,15.16,16.979,15.16S61.249,30.258,67,20.862C72.69,11.568,79.77,0,94.1,0s21.408,11.568,27.088,20.855c5.754,9.4,9.649,15.167,16.986,15.167s11.231-5.763,16.986-15.167C160.845,11.568,167.925,0,182.26,0s21.415,11.568,27.108,20.855c5.748,9.4,9.649,15.167,16.993,15.167s11.232-5.763,16.986-15.167C249.027,11.568,256.113,0,270.448,0s21.428,11.568,27.115,20.855c5.761,9.4,9.663,15.167,17,15.167s11.245-5.763,17.006-15.167C337.256,11.568,344.342,0,358.684,0a5.973,5.973,0,0,1,5.944,6,5.969,5.969,0,0,1-5.944,6c-7.343,0-11.245,5.763-17.006,15.166C335.991,36.465,328.912,48.026,314.563,48.026Z" transform="translate(364.628 48.026) rotate(180)" fill="#b671fc"/>
    </g>
    <path id="Trazado_1015740" data-name="Trazado 1015740" d="M72.312,0C32.375,0,0,33.638,0,75.133s32.375,75.132,72.312,75.132" transform="translate(-116.503 5681.335) rotate(-90)" fill="#b671fc" opacity="0.22"/>
    <path id="Trazado_1015741" data-name="Trazado 1015741" d="M72.312,0C32.375,0,0,33.638,0,75.133s32.375,75.132,72.312,75.132" transform="translate(-111.776 5537.831) rotate(-90)" fill="#b671fc" opacity="0.22"/>
    <path id="Trazado_1015742" data-name="Trazado 1015742" d="M72.312,0C32.375,0,0,33.638,0,75.133s32.375,75.132,72.312,75.132" transform="translate(-116.503 5610.143) rotate(-90)" fill="#b671fc" opacity="0.22"/>
    <path id="Trazado_1015743" data-name="Trazado 1015743" d="M72.312,0C32.375,0,0,33.638,0,75.133s32.375,75.132,72.312,75.132" transform="translate(-111.776 5466.638) rotate(-90)" fill="#b671fc" opacity="0.22"/>
    <path id="Trazado_1015744" data-name="Trazado 1015744" d="M296.905,0C460.882,0,593.811,132.128,593.811,295.117S460.882,590.233,296.905,590.233,0,458.105,0,295.117,132.929,0,296.905,0Z" transform="translate(98.674 5550.941)" fill="#ff966d" opacity="0.11"/>
  </g>
</svg>
