<svg xmlns="http://www.w3.org/2000/svg" xmlns:xlink="http://www.w3.org/1999/xlink" width="611.867" height="35.879" viewBox="0 0 611.867 35.879"><defs><clipPath id="a"><path d="M6.83,0H605.037c3.772,0,6.83,1.564,6.83,3.493V32.386c0,1.929-3.058,3.493-6.83,3.493H6.83C3.058,35.879,0,34.315,0,32.386V3.493C0,1.564,3.058,0,6.83,0Z" transform="translate(0 17.944)" fill="#e6e3fe"/></clipPath><clipPath id="b"><path d="M0,0H925.876V101.3H0Z" fill="#e6e3fe" opacity="0.41"/></clipPath></defs><g transform="translate(0 -17.944)" clip-path="url(#a)"><g transform="translate(-38.752 -18.577)" clip-path="url(#b)"><path d="M14.668,0h989.706c8.1,0,14.668,3.917,14.668,8.749V224.7c0,4.832-6.567,8.749-14.668,8.749H14.668C6.567,233.45,0,229.533,0,224.7V8.749C0,3.917,6.567,0,14.668,0Z" transform="translate(-61.557 -58.057)" fill="#e8e8e8"/><path d="M31.849,0C14.26,0,0,11.86,0,26.491S14.26,52.982,31.849,52.982" transform="translate(638.572 82.865) rotate(180)" fill="#b0c0d2" opacity="0.67"/><path d="M87.812,0C39.315,0,0,32.7,0,73.038s39.315,73.038,87.812,73.038" transform="translate(165.095 130.404) rotate(180)" fill="#dee4f0" opacity="0.381"/><path d="M0,0H87.416V146.839H0Z" transform="translate(78.244 130.786) rotate(180)" fill="#b0c0d2" opacity="0.381"/><path d="M37.962,0h0C17,0,0,13.524,0,30.207V147.879H75.925V30.207C75.925,13.524,58.928,0,37.962,0" transform="translate(447.964 61.268) rotate(180)" fill="#b0c0d2" opacity="0.381"/><path d="M96.311,40.053C96.311,17.933,74.752,0,48.155,0S0,17.933,0,40.053,21.56,80.107,48.155,80.107,96.311,62.174,96.311,40.053" transform="translate(554.468 190.729) rotate(180)" fill="#f8f5f4" opacity="0.381"/><path d="M96.311,40.053C96.311,17.933,74.752,0,48.155,0S0,17.933,0,40.053,21.56,80.107,48.155,80.107,96.311,62.175,96.311,40.053" transform="translate(458.156 -22.591) rotate(180)" fill="#f7f0fe"/><path d="M35.264,14.666C35.264,6.566,27.37,0,17.632,0S0,6.566,0,14.666,7.894,29.331,17.632,29.331s17.632-6.566,17.632-14.666" transform="translate(675.754 71.74) rotate(180)" fill="#728fb1"/><path d="M71.128,29.58C71.128,13.244,55.206,0,35.564,0S0,13.244,0,29.58s15.922,29.58,35.564,29.58S71.128,45.918,71.128,29.58" transform="translate(529.284 109.54) rotate(180)" fill="#f5f9ff" opacity="0.381"/><path d="M31.849,0C14.26,0,0,11.86,0,26.491S14.26,52.982,31.849,52.982" transform="translate(607.216 82.865) rotate(180)" fill="#b0c0d2" opacity="0.4"/><rect width="471.997" height="318.145" transform="translate(833.841 215.447) rotate(180)" fill="none"/></g></g></svg>