<svg xmlns="http://www.w3.org/2000/svg" xmlns:xlink="http://www.w3.org/1999/xlink" width="294.949" height="384.314" viewBox="0 0 294.949 384.314"><defs><clipPath id="a"><rect width="294.949" height="384.314" transform="translate(0)" fill="#fbfbfb"/></clipPath></defs><g clip-path="url(#a)"><rect width="294.949" height="420.314" rx="14" transform="translate(0)" fill="#fbfbfb"/><g transform="translate(-249.331 -6289.467)" opacity="0.22"><path d="M377.966,57.706c-17.233,0-25.739-13.891-32.572-25.058-6.922-11.3-11.61-18.223-20.434-18.223s-13.5,6.925-20.41,18.223c-6.833,11.167-15.34,25.058-32.564,25.058s-25.739-13.891-32.572-25.058C232.5,21.35,227.812,14.425,219,14.425s-13.5,6.925-20.41,18.223c-6.833,11.167-15.34,25.058-32.564,25.058s-25.731-13.891-32.556-25.058c-6.914-11.3-11.594-18.223-20.4-18.223s-13.487,6.925-20.4,18.223C85.83,43.815,77.332,57.706,60.107,57.706S34.384,43.815,27.551,32.648c-6.914-11.3-11.594-18.223-20.4-18.223A7.213,7.213,0,0,1,7.15,0C24.366,0,32.873,13.9,39.706,25.067c6.906,11.29,11.594,18.215,20.4,18.215s13.487-6.925,20.4-18.215C87.342,13.9,95.848,0,113.065,0s25.723,13.9,32.548,25.058c6.914,11.3,11.594,18.224,20.41,18.224s13.5-6.925,20.41-18.224C193.265,13.9,201.772,0,219,0s25.731,13.9,32.572,25.058c6.906,11.3,11.594,18.224,20.418,18.224,8.807,0,13.5-6.925,20.41-18.224C299.22,13.9,307.735,0,324.96,0s25.748,13.9,32.581,25.058c6.922,11.3,11.61,18.224,20.426,18.224s13.512-6.925,20.434-18.224C405.233,13.9,413.748,0,430.981,0a7.177,7.177,0,0,1,7.142,7.212,7.172,7.172,0,0,1-7.142,7.212c-8.824,0-13.512,6.925-20.434,18.223C403.714,43.815,395.207,57.706,377.966,57.706Z" transform="translate(615.867 6853.729) rotate(180)" fill="#e8e8e8"/><path d="M377.966,57.706c-17.233,0-25.739-13.891-32.572-25.058-6.922-11.3-11.61-18.223-20.434-18.223s-13.5,6.925-20.41,18.223c-6.833,11.167-15.34,25.058-32.564,25.058s-25.739-13.891-32.572-25.058C232.5,21.35,227.812,14.425,219,14.425s-13.5,6.925-20.41,18.223c-6.833,11.167-15.34,25.058-32.564,25.058s-25.731-13.891-32.556-25.058c-6.914-11.3-11.594-18.223-20.4-18.223s-13.487,6.925-20.4,18.223C85.83,43.815,77.332,57.706,60.107,57.706S34.384,43.815,27.551,32.648c-6.914-11.3-11.594-18.223-20.4-18.223A7.213,7.213,0,0,1,7.15,0C24.366,0,32.873,13.9,39.706,25.067c6.906,11.29,11.594,18.215,20.4,18.215s13.487-6.925,20.4-18.215C87.342,13.9,95.848,0,113.065,0s25.723,13.9,32.548,25.058c6.914,11.3,11.594,18.224,20.41,18.224s13.5-6.925,20.41-18.224C193.265,13.9,201.772,0,219,0s25.731,13.9,32.572,25.058c6.906,11.3,11.594,18.224,20.418,18.224,8.807,0,13.5-6.925,20.41-18.224C299.22,13.9,307.735,0,324.96,0s25.748,13.9,32.581,25.058c6.922,11.3,11.61,18.224,20.426,18.224s13.512-6.925,20.434-18.224C405.233,13.9,413.748,0,430.981,0a7.177,7.177,0,0,1,7.142,7.212,7.172,7.172,0,0,1-7.142,7.212c-8.824,0-13.512,6.925-20.434,18.223C403.714,43.815,395.207,57.706,377.966,57.706Z" transform="translate(615.867 6719.714) rotate(180)" fill="#e8e8e8"/><path d="M377.966,57.706c-17.233,0-25.739-13.891-32.572-25.058-6.922-11.3-11.61-18.223-20.434-18.223s-13.5,6.925-20.41,18.223c-6.833,11.167-15.34,25.058-32.564,25.058s-25.739-13.891-32.572-25.058C232.5,21.35,227.812,14.425,219,14.425s-13.5,6.925-20.41,18.223c-6.833,11.167-15.34,25.058-32.564,25.058s-25.731-13.891-32.556-25.058c-6.914-11.3-11.594-18.223-20.4-18.223s-13.487,6.925-20.4,18.223C85.83,43.815,77.332,57.706,60.107,57.706S34.384,43.815,27.551,32.648c-6.914-11.3-11.594-18.223-20.4-18.223A7.213,7.213,0,0,1,7.15,0C24.366,0,32.873,13.9,39.706,25.067c6.906,11.29,11.594,18.215,20.4,18.215s13.487-6.925,20.4-18.215C87.342,13.9,95.848,0,113.065,0s25.723,13.9,32.548,25.058c6.914,11.3,11.594,18.224,20.41,18.224s13.5-6.925,20.41-18.224C193.265,13.9,201.772,0,219,0s25.731,13.9,32.572,25.058c6.906,11.3,11.594,18.224,20.418,18.224,8.807,0,13.5-6.925,20.41-18.224C299.22,13.9,307.735,0,324.96,0s25.748,13.9,32.581,25.058c6.922,11.3,11.61,18.224,20.426,18.224s13.512-6.925,20.434-18.224C405.233,13.9,413.748,0,430.981,0a7.177,7.177,0,0,1,7.142,7.212,7.172,7.172,0,0,1-7.142,7.212c-8.824,0-13.512,6.925-20.434,18.223C403.714,43.815,395.207,57.706,377.966,57.706Z" transform="translate(615.867 6915.581) rotate(180)" fill="#e8e8e8"/><path d="M377.966,57.706c-17.233,0-25.739-13.891-32.572-25.058-6.922-11.3-11.61-18.223-20.434-18.223s-13.5,6.925-20.41,18.223c-6.833,11.167-15.34,25.058-32.564,25.058s-25.739-13.891-32.572-25.058C232.5,21.35,227.812,14.425,219,14.425s-13.5,6.925-20.41,18.223c-6.833,11.167-15.34,25.058-32.564,25.058s-25.731-13.891-32.556-25.058c-6.914-11.3-11.594-18.223-20.4-18.223s-13.487,6.925-20.4,18.223C85.83,43.815,77.332,57.706,60.107,57.706S34.384,43.815,27.551,32.648c-6.914-11.3-11.594-18.223-20.4-18.223A7.213,7.213,0,0,1,7.15,0C24.366,0,32.873,13.9,39.706,25.067c6.906,11.29,11.594,18.215,20.4,18.215s13.487-6.925,20.4-18.215C87.342,13.9,95.848,0,113.065,0s25.723,13.9,32.548,25.058c6.914,11.3,11.594,18.224,20.41,18.224s13.5-6.925,20.41-18.224C193.265,13.9,201.772,0,219,0s25.731,13.9,32.572,25.058c6.906,11.3,11.594,18.224,20.418,18.224,8.807,0,13.5-6.925,20.41-18.224C299.22,13.9,307.735,0,324.96,0s25.748,13.9,32.581,25.058c6.922,11.3,11.61,18.224,20.426,18.224s13.512-6.925,20.434-18.224C405.233,13.9,413.748,0,430.981,0a7.177,7.177,0,0,1,7.142,7.212,7.172,7.172,0,0,1-7.142,7.212c-8.824,0-13.512,6.925-20.434,18.223C403.714,43.815,395.207,57.706,377.966,57.706Z" transform="translate(615.867 6786.721) rotate(180)" fill="#e8e8e8"/><path d="M377.966,57.706c-17.233,0-25.739-13.891-32.572-25.058-6.922-11.3-11.61-18.223-20.434-18.223s-13.5,6.925-20.41,18.223c-6.833,11.167-15.34,25.058-32.564,25.058s-25.739-13.891-32.572-25.058C232.5,21.35,227.812,14.425,219,14.425s-13.5,6.925-20.41,18.223c-6.833,11.167-15.34,25.058-32.564,25.058s-25.731-13.891-32.556-25.058c-6.914-11.3-11.594-18.223-20.4-18.223s-13.487,6.925-20.4,18.223C85.83,43.815,77.332,57.706,60.107,57.706S34.384,43.815,27.551,32.648c-6.914-11.3-11.594-18.223-20.4-18.223A7.213,7.213,0,0,1,7.15,0C24.366,0,32.873,13.9,39.706,25.067c6.906,11.29,11.594,18.215,20.4,18.215s13.487-6.925,20.4-18.215C87.342,13.9,95.848,0,113.065,0s25.723,13.9,32.548,25.058c6.914,11.3,11.594,18.224,20.41,18.224s13.5-6.925,20.41-18.224C193.265,13.9,201.772,0,219,0s25.731,13.9,32.572,25.058c6.906,11.3,11.594,18.224,20.418,18.224,8.807,0,13.5-6.925,20.41-18.224C299.22,13.9,307.735,0,324.96,0s25.748,13.9,32.581,25.058c6.922,11.3,11.61,18.224,20.426,18.224s13.512-6.925,20.434-18.224C405.233,13.9,413.748,0,430.981,0a7.177,7.177,0,0,1,7.142,7.212,7.172,7.172,0,0,1-7.142,7.212c-8.824,0-13.512,6.925-20.434,18.223C403.714,43.815,395.207,57.706,377.966,57.706Z" transform="translate(615.867 6982.588) rotate(180)" fill="#e8e8e8"/><path d="M377.966,57.706c-17.233,0-25.739-13.891-32.572-25.058-6.922-11.3-11.61-18.223-20.434-18.223s-13.5,6.925-20.41,18.223c-6.833,11.167-15.34,25.058-32.564,25.058s-25.739-13.891-32.572-25.058C232.5,21.35,227.812,14.425,219,14.425s-13.5,6.925-20.41,18.223c-6.833,11.167-15.34,25.058-32.564,25.058s-25.731-13.891-32.556-25.058c-6.914-11.3-11.594-18.223-20.4-18.223s-13.487,6.925-20.4,18.223C85.83,43.815,77.332,57.706,60.107,57.706S34.384,43.815,27.551,32.648c-6.914-11.3-11.594-18.223-20.4-18.223A7.213,7.213,0,0,1,7.15,0C24.366,0,32.873,13.9,39.706,25.067c6.906,11.29,11.594,18.215,20.4,18.215s13.487-6.925,20.4-18.215C87.342,13.9,95.848,0,113.065,0s25.723,13.9,32.548,25.058c6.914,11.3,11.594,18.224,20.41,18.224s13.5-6.925,20.41-18.224C193.265,13.9,201.772,0,219,0s25.731,13.9,32.572,25.058c6.906,11.3,11.594,18.224,20.418,18.224,8.807,0,13.5-6.925,20.41-18.224C299.22,13.9,307.735,0,324.96,0s25.748,13.9,32.581,25.058c6.922,11.3,11.61,18.224,20.426,18.224s13.512-6.925,20.434-18.224C405.233,13.9,413.748,0,430.981,0a7.177,7.177,0,0,1,7.142,7.212,7.172,7.172,0,0,1-7.142,7.212c-8.824,0-13.512,6.925-20.434,18.223C403.714,43.815,395.207,57.706,377.966,57.706Z" transform="translate(615.867 6652.708) rotate(180)" fill="#e8e8e8"/></g></g></svg>