<svg xmlns="http://www.w3.org/2000/svg" xmlns:xlink="http://www.w3.org/1999/xlink" width="91" height="91" viewBox="0 0 91 91"><defs><linearGradient id="a" x1="-0.79" y1="0.438" x2="1.168" y2="0.5" gradientUnits="objectBoundingBox"><stop offset="0" stop-color="#8477fc"/><stop offset="1" stop-color="#cdc8fd"/></linearGradient><clipPath id="b"><rect width="43.817" height="43.802" fill="#8477fc"/></clipPath></defs><g transform="translate(-792.051 -1355.8)"><g transform="translate(792.051 1355.8)"><path d="M45.5,0A45.5,45.5,0,1,1,0,45.5,45.5,45.5,0,0,1,45.5,0Z" transform="translate(0)" fill="url(#a)"/><circle cx="37.853" cy="37.853" r="37.853" transform="translate(7.647 7.647)" fill="#fff"/></g><g transform="translate(813.804 1378.103)"><g clip-path="url(#b)"><path d="M10.945,0l.849.434a100.318,100.318,0,0,1,6.047,9.171,2.026,2.026,0,0,1-.255,1.909c-.726,1.171-2.972,2.574-3.571,3.61-.428.74.225,2.618.518,3.434a19,19,0,0,0,11.332,10.9c.755.229,2.1.7,2.791.306,1.036-.6,2.439-2.845,3.61-3.571a2.02,2.02,0,0,1,1.779-.3c2.439,1.459,4.924,2.923,7.259,4.539,1.423.985,2.93,1.574,2.265,3.642A65.665,65.665,0,0,1,39.937,41.9c-1.226,2.321-1.978,2.006-4.4,1.656-15.6-2.254-30.543-16.413-34.5-31.516C.633,10.492.427,8.9,0,7.354V5.644A2.593,2.593,0,0,1,1.313,4.135C3.985,2.613,7.278,1.656,9.919,0ZM36.768,42.241a7.992,7.992,0,0,0,1.341-.028l4.052-8.518.053-.739-8.867-5.593c-1.85.873-3.291,4.2-5.531,4.091-5.466-.277-11.931-6.262-14.111-11.041-.69-1.513-1.923-4.558-.957-6.039.718-1.1,2.914-2.494,3.507-3.5a.915.915,0,0,0,.132-.825L10.946,1.622l-.86,0L1.7,5.716c-.456.632.245,3.668.439,4.547C5.388,25.027,21.219,41.237,36.768,42.241" fill="#8477fc"/><path d="M126.254,46.547a.879.879,0,0,1-1.433.405c-2.909-2.726-6.934-4.966-9.763-7.679-.5-.477-.973-.819-.269-1.456,3.336-2.26,6.451-5.475,9.771-7.672.378-.25.872-.692,1.359-.366.623.417.215,4.183.333,5.053,4.873-.007,10.213,1.429,11.8,6.581.247.8.868,3.529.343,4.109-.851.941-1.527-.831-1.964-1.291-2.341-2.466-7.062-2.163-10.182-2.217-.187,1.309.253,3.319,0,4.532m-3.249-13.254c-2.154,1.694-4.339,3.357-6.5,5.047-.056.218.737.755.947.932,1.781,1.5,3.717,2.851,5.551,4.282a19.959,19.959,0,0,0,1.708,1.368c.126-1.1-.166-2.535,0-3.591.062-.392.185-.6.6-.68a39.519,39.519,0,0,1,5.816-.011,14.8,14.8,0,0,1,3.841.862c.521.22,1.179.756,1.708,1.026-.3-2.634-2.125-4.162-4.445-5.13-.062-.026-.159-.194-.334-.258a24.3,24.3,0,0,0-6.729-.973.685.685,0,0,1-.462-.651c-.168-1.056.125-2.487,0-3.591-.574.446-1.137.919-1.708,1.368" transform="translate(-94.788 -24.571)" fill="#8477fc"/></g></g></g></svg>