<svg xmlns="http://www.w3.org/2000/svg" xmlns:xlink="http://www.w3.org/1999/xlink" width="91" height="91" viewBox="0 0 91 91"><defs><linearGradient id="a" x1="-0.79" y1="0.438" x2="1.168" y2="0.5" gradientUnits="objectBoundingBox"><stop offset="0" stop-color="#8477fc"/><stop offset="1" stop-color="#cdc8fd"/></linearGradient><clipPath id="b"><rect width="47.363" height="48.106" fill="#8477fc"/></clipPath></defs><g transform="translate(-792.051 -1355.8)"><g transform="translate(792.051 1355.8)"><path d="M45.5,0A45.5,45.5,0,1,1,0,45.5,45.5,45.5,0,0,1,45.5,0Z" transform="translate(0)" fill="url(#a)"/><circle cx="37.853" cy="37.853" r="37.853" transform="translate(7.647 7.647)" fill="#fff"/></g><g transform="translate(815.42 1375.224)"><g clip-path="url(#b)"><path d="M.127,88.513A5.375,5.375,0,0,1,.484,87.23,4.055,4.055,0,0,1,3.4,84.948,5.535,5.535,0,0,1,8.561,75.6c4.6,1.056,5.578,7.4,1.666,9.961a4.272,4.272,0,0,1,1.2,1.331,5.431,5.431,0,0,1,.486,1.389v6.049h3.179V89.5c0-.064.251-.873.3-1.01a5.509,5.509,0,0,1,4.467-3.539,5.534,5.534,0,0,1,4.352-9.476c4.67.327,6.6,6.228,3.315,9.476a5.509,5.509,0,0,1,4.467,3.539c.05.137.3.946.3,1.01v4.83h3.179V88.279a5.431,5.431,0,0,1,.486-1.389,4.273,4.273,0,0,1,1.2-1.331,5.528,5.528,0,0,1,3.788-10.082,5.655,5.655,0,0,1,3.93,2.624,5.572,5.572,0,0,1-.89,6.847,4.033,4.033,0,0,1,3.155,2.979c-.015,4.1.419,8.665.121,12.735a3.938,3.938,0,0,1-3.183,3.795v11.911h-1.59V104.551H35.473v11.208c0,.318-.587.587-.884.614a32.215,32.215,0,0,1-4.588,0c-.232-.026-.793-.279-.793-.518v-12.9H24.579l-.14.141v11.677h3.179v1.594H19.763v-1.594h3.179V103.1l-.14-.141H18.174v12.9c0,.239-.561.492-.793.518a32.215,32.215,0,0,1-4.588,0c-.3-.027-.884-.3-.884-.614V104.551H4.9v11.818H3.306V104.457a3.98,3.98,0,0,1-3.179-3.47c.3-3.983-.4-8.561,0-12.474M7.124,77c-5.3.112-4.9,8.4.53,7.855,4.831-.482,4.433-7.961-.53-7.855m16.457,0c-5.239.153-4.9,8.361.53,7.855,4.9-.455,4.426-8-.53-7.855m16.457,0c-5.233.169-4.873,8.4.623,7.855,4.75-.471,4.412-8.018-.623-7.855M19.015,95.922H11.021c-.354,0-.649-.572-.693-.9-.268-2,.219-4.533-.008-6.557a2.419,2.419,0,0,0-2.1-2.017,29.344,29.344,0,0,0-4.3,0,2.465,2.465,0,0,0-2.2,2.109l.043,12.526a2.4,2.4,0,0,0,1.8,1.849c2.874.251,6.125-.26,8.953.024.378.038.983.238.983.7v11.114h3.086V101.6c0-.661-1.21-1.612-1.846-1.712-2.134-.338-5.039.179-7.275-.019-.769-.068-1.007-.3-1.075-1.079-.2-2.334.164-4.958,0-7.324l.145-.324H7.982v7.128H19.015ZM30.8,94.328V90.436a5.835,5.835,0,0,0-.451-1.8,4.011,4.011,0,0,0-3.7-2.175l-2.284,5.869a.762.762,0,0,1-1.237.169L20.8,86.493a3.923,3.923,0,0,0-4.1,3.12l-.115.822v3.892H20a1.166,1.166,0,0,1,.514.516v3.423H26.87V94.844a1.166,1.166,0,0,1,.514-.516ZM24.906,86.45H22.475l1.261,3.189Zm8.977,28.325V103.66c0-.464.6-.664.983-.7,2.829-.283,6.079.227,8.953-.024a2.4,2.4,0,0,0,1.8-1.849l.043-12.526a2.465,2.465,0,0,0-2.2-2.109,29.342,29.342,0,0,0-4.3,0,2.419,2.419,0,0,0-2.1,2.017c-.227,2.025.26,4.562-.008,6.557-.044.327-.339.9-.693.9H28.366v2.345H39.4V91.139h1.449l.145.324c-.165,2.366.2,4.991,0,7.324-.068.778-.307,1.011-1.075,1.079-2.236.2-5.141-.319-7.275.019-.636.1-1.846,1.052-1.846,1.712v13.178ZM29.956,99.862H17.426a5.781,5.781,0,0,1,.485.874c.12.26.111.668.4.722l10.666,0c.385.024.358-.435.492-.726a5.785,5.785,0,0,1,.485-.874" transform="translate(0 -68.348)" fill="#8477fc"/><path d="M96.329,0a.891.891,0,0,1,.47.7,28.016,28.016,0,0,1,0,4.131.648.648,0,0,1-.192.464c-.592.526-3.357.075-4.229.26-.77.331-2.554,2.194-3.226,2.306-.325.054-.958-.294-.958-.593V5.534H84.968c-.462,0-.67-.6-.7-.981A24.672,24.672,0,0,1,84.275.806,1.087,1.087,0,0,1,84.828,0ZM95.3,1.594H85.856V3.939h3.32c.54,0,.675,1.112.655,1.5l2.056-1.5H95.3Z" transform="translate(-76.285)" fill="#8477fc"/><rect width="1.59" height="1.594" transform="translate(27.618 2.345)" fill="#8477fc"/><rect width="1.59" height="1.594" transform="translate(33.883 2.345)" fill="#8477fc"/><rect width="1.496" height="1.594" transform="translate(30.797 2.345)" fill="#8477fc"/><rect width="1.496" height="1.594" transform="translate(22.942 25.98)" fill="#8477fc"/></g></g></g></svg>