<svg xmlns="http://www.w3.org/2000/svg" xmlns:xlink="http://www.w3.org/1999/xlink" width="91" height="91" viewBox="0 0 91 91"><defs><linearGradient id="a" x1="-0.79" y1="0.438" x2="1.168" y2="0.5" gradientUnits="objectBoundingBox"><stop offset="0" stop-color="#8477fc"/><stop offset="1" stop-color="#cdc8fd"/></linearGradient><clipPath id="b"><rect width="47.836" height="47.82" fill="#8477fc"/></clipPath></defs><g transform="translate(-792.051 -1355.8)"><g transform="translate(792.051 1355.8)"><path d="M45.5,0A45.5,45.5,0,1,1,0,45.5,45.5,45.5,0,0,1,45.5,0Z" transform="translate(0)" fill="url(#a)"/><circle cx="37.853" cy="37.853" r="37.853" transform="translate(7.647 7.647)" fill="#fff"/></g><g transform="translate(813.324 1377.436)"><g clip-path="url(#b)"><path d="M3.8,266v1.385l-.1.1H2.684a3.167,3.167,0,0,0-.5.241,1.577,1.577,0,0,0-.613,1.55l.069.133L23.9,285.916l22.31-16.507.069-.133a1.577,1.577,0,0,0-.613-1.55,3.165,3.165,0,0,0-.5-.241H44.153l-.1-.1V266h1.317c1.17,0,2.52,1.72,2.464,2.871l0,23.91a3.06,3.06,0,0,1-3.073,3.073H2.952a3.08,3.08,0,0,1-2.837-2.3c-.229-8.19-.03-16.419-.1-24.624a3.161,3.161,0,0,1,1.578-2.61A8.788,8.788,0,0,1,2.414,266ZM1.57,271.268v21.984c0,.264.7.967,1.011,1.015H45.269c.309-.048,1.011-.751,1.011-1.015V271.268l-14.452,10.7L45,290.281l.059.186-.705,1.135L30.5,282.963l-6.543,4.786-6.648-4.771-13.84,8.614L2.8,290.467l.059-.186,13.168-8.308Z" transform="translate(0 -248.035)" fill="#8477fc"/><path d="M115.52,0V22.051L96.91,36l-.163-.039L78.239,22.051V0Zm-1.486,1.553H79.725V21.342L96.548,33.932l.36.177,17.126-12.8Z" transform="translate(-72.955)" fill="#8477fc"/><path d="M163.092,177v8.24h-7.767c.069.422.206.831.262,1.258a7.484,7.484,0,1,1-14.58-1.258H133.24V177Zm-8.409,6.754H161.5l.1-.1v-5.065l-.1-.1H134.827l-.1.1v5.065l.1.1h6.821a7.553,7.553,0,0,1,13.035,0M145.459,188a4.381,4.381,0,0,1-.081-2.275,2.841,2.841,0,0,1,4.508-1.634,3.477,3.477,0,0,1,1.01,3.848,7.764,7.764,0,0,1,2.775,1.686,5.533,5.533,0,0,0,.2-3.916,6,6,0,0,0-7.914-3.795,5.918,5.918,0,0,0-3.3,7.71,6.886,6.886,0,0,1,2.8-1.626m2.558-3.017a1.683,1.683,0,0,0-1.261,1.9c.143,1.389,1.713,2.081,2.548.806.676-1.032.09-2.859-1.287-2.708m-1.691,4.248c-.663.314-2.764,1.029-2.757,1.918,0,.268.821.921,1.065,1.1a5.953,5.953,0,0,0,7.452-.29,5.756,5.756,0,0,0,.661-.691c.157-.523-.617-1.044-1-1.27a7.88,7.88,0,0,0-1.843-.766c-.092.025-.463.331-.671.415a2.732,2.732,0,0,1-2.183-.018c-.194-.084-.594-.417-.724-.4" transform="translate(-124.241 -165.046)" fill="#8477fc"/><path d="M371.182,52.332H369.7v-4.39c-.414.359-.839,1.421-1.452,1.419-.725,0-.995-1.064-1.519-1.419v4.39h-1.486V45.41c0-.381.938-.72,1.24-.362l1.766,2.285c.149-.005,1.44-2.154,1.832-2.354.336-.172,1.106-.007,1.106.363Z" transform="translate(-340.571 -41.864)" fill="#8477fc"/><path d="M166.239,45.313a.814.814,0,0,1,1.251-.44l2.464,3.851V44.739h1.553v6.72a.792.792,0,0,1-1.318.507c-.848-1.111-1.468-2.612-2.31-3.7-.044-.057,0-.122-.155-.085v3.985h-1.486Z" transform="translate(-155.011 -41.7)" fill="#8477fc"/><path d="M271.439,52.187h-1.486V49.959h-2.229v2.229h-1.486V46.818a2.824,2.824,0,0,1,.418-.933,2.628,2.628,0,0,1,4.5.27,3.663,3.663,0,0,1,.282.8Zm-1.486-3.715V47.156a1.96,1.96,0,0,0-.335-.61,1.142,1.142,0,0,0-1.691.138,3.1,3.1,0,0,0-.2.338v1.452Z" transform="translate(-248.258 -41.719)" fill="#8477fc"/><path d="M479.764,45v1.486h-2.972v1.486h2.972v1.486h-2.972v1.486h2.972v1.486H475.34l-.1-.1V45Z" transform="translate(-443.142 -41.96)" fill="#8477fc"/><path d="M169.954,322.486h-3.715V321h3.681a3.172,3.172,0,0,1,.034,1.486" transform="translate(-155.011 -299.32)" fill="#8477fc"/><path d="M490.021,321v1.486H486.34c-.2-.423-.016-1.014-.1-1.486Z" transform="translate(-453.399 -299.32)" fill="#8477fc"/><rect width="1.486" height="1.486" transform="translate(8.256 6.011)" fill="#8477fc"/><rect width="1.486" height="1.486" transform="translate(38.108 6.011)" fill="#8477fc"/></g></g></g></svg>