<svg xmlns="http://www.w3.org/2000/svg" xmlns:xlink="http://www.w3.org/1999/xlink" width="119" height="119" viewBox="0 0 119 119"><defs><linearGradient id="a" x1="-0.79" y1="0.438" x2="1.168" y2="0.5" gradientUnits="objectBoundingBox"><stop offset="0" stop-color="#8477fc"/><stop offset="1" stop-color="#cdc8fd"/></linearGradient><clipPath id="b"><rect width="76.258" height="56.703" fill="#8477fc"/></clipPath></defs><g transform="translate(0.442)"><path d="M59.5,0A59.5,59.5,0,1,1,0,59.5,59.5,59.5,0,0,1,59.5,0Z" transform="translate(-0.442)" fill="url(#a)"/><circle cx="49.5" cy="49.5" r="49.5" transform="translate(9.558 10)" fill="#fff"/><g transform="translate(22.14 31.148)"><g clip-path="url(#b)"><path d="M0,161.094c.17-.17.312-.439.536-.54a22.749,22.749,0,0,1,6.134.087c1.055.386,1.283,1.462,1.478,1.587.214.136,1.861-.03,2.363.041a2.362,2.362,0,0,1,2.015,2.148c2.211-.109,4.418-.514,6.621-.671,11.536-.818,20.555,5.42,31.025,9.08a3.623,3.623,0,0,1,1.882,2.183l19.3-5.307c5.248-.048,6.821,5.853,2.058,8.515-7.254,4.055-15.563,7.08-22.909,11.064a12.81,12.81,0,0,1-8.983.637c-6.342-1.812-12.926-5.6-19.267-7.746-3.478-1.175-6.151-.782-9.633.146.006,1.233-.548,2.733-1.939,2.948-.53.082-2.3-.111-2.533.037-.063.04-.136.454-.28.628a2.817,2.817,0,0,1-1.692,1.128,30.669,30.669,0,0,1-5.64-.083c-.224-.1-.366-.37-.536-.54Zm1.823,24.183H6.05a1.479,1.479,0,0,0,.329-.334V162.588a1.481,1.481,0,0,0-.329-.334H1.823Zm8.785-21.2H8.288v19.38h2.321Zm1.989,2.153v14.245a16.143,16.143,0,0,1,10.318.042c6.133,2.078,12.262,5.472,18.4,7.457a11.319,11.319,0,0,0,8.641-.4c7.719-3.26,15.288-7.752,22.984-11.155a2.628,2.628,0,0,0-2.028-4.843L52.4,176.684a4.156,4.156,0,0,1-4.391,3.776l-15.442-4.785a.841.841,0,0,1,.658-1.5l14.78,4.47a2.264,2.264,0,0,0,1.616-4.107c-9.423-3.172-18.433-9.277-28.659-9.141Z" transform="translate(0 -133.741)" fill="#8477fc"/><path d="M213.043.072c12.41-1.154,21.191,11.617,14.98,22.589A15.217,15.217,0,0,1,201,21.449c-4.172-9.213,1.892-20.433,12.044-21.377m1.774,1.7c-18.231,0-17.344,28.1,1.167,26.747C232.555,27.306,232,1.772,214.817,1.772" transform="translate(-166.498 0)" fill="#8477fc"/><path d="M392.712,50.015a.961.961,0,0,1,1.213.725c-.115,1.024-3.28,4.183-3.628,1.942-.09-.578,1.867-2.552,2.415-2.667" transform="translate(-325.458 -41.68)" fill="#8477fc"/><path d="M158.956,85.875a.972.972,0,0,1-.576,1.582,11.9,11.9,0,0,1-2.747,0,.91.91,0,0,1-.032-1.783,10.251,10.251,0,0,1,3.355.2" transform="translate(-129.159 -71.402)" fill="#8477fc"/><path d="M401.693,85.547c.637-.183,3.311-.206,3.613.467.724,1.615-2.611,1.468-3.447,1.284a.9.9,0,0,1-.166-1.752" transform="translate(-334.442 -71.244)" fill="#8477fc"/><path d="M172.482,111.268a.9.9,0,0,1,.914.853.622.622,0,0,1-.082.393,30.538,30.538,0,0,1-2.243,2.239.9.9,0,0,1-1.3-.7c-.1-.634,2.084-2.784,2.708-2.787" transform="translate(-141.569 -92.784)" fill="#8477fc"/><path d="M391.145,111.21c.478-.022,2.322,1.759,2.551,2.195a.892.892,0,0,1-1.136,1.3,13.891,13.891,0,0,1-2.3-2.521c-.058-.394.5-.955.887-.973" transform="translate(-325.424 -92.736)" fill="#8477fc"/><path d="M170.653,49.9a1.239,1.239,0,0,1,.876.056,25.719,25.719,0,0,1,1.9,1.909c.61.947-.2,1.8-1.066,1.4a28.666,28.666,0,0,1-2.067-2.079.809.809,0,0,1,.356-1.284" transform="translate(-141.861 -41.569)" fill="#8477fc"/><path d="M20.171,284.369c1.227-.231,1.387,1.687.285,1.8a.914.914,0,0,1-.285-1.8" transform="translate(-16.235 -237.113)" fill="#8477fc"/><path d="M226.61,26.943a11.259,11.259,0,1,1,4.383,18.611c-7.821-2.528-10.194-12.8-4.383-18.611m7.2-1.5c-13.763,1.277-9.693,22.714,3.84,18.413,10.444-3.319,7.153-19.433-3.84-18.413" transform="translate(-186.272 -19.74)" fill="#8477fc"/><path d="M259.855,52.831c1.21.576,3.959-.049,4.24,1.658.178,1.078-2.037,2.379-2.584,3.289.116,1.051.881,3.155.208,4.038-1.034,1.357-3.172-.82-4.309-1.1-1.181.35-2.941,2.243-4.149,1.268-.951-.767,0-3.131.061-4.2-.515-.856-2.631-2.163-2.576-3.154.1-1.735,2.97-1.326,4.151-1.751.715-.916,1.1-3.29,2.41-3.408,1.481-.133,1.9,2.4,2.548,3.352m-1.15,1.481-1.375-2.432c-.443.943-.752,2.415-1.817,2.74-.38.116-2.227.27-2.329.408.468.817,1.973,1.577,1.992,2.56.008.428-.528,2.191-.334,2.406l2.568-1.168,2.735,1.167a10.43,10.43,0,0,1-.434-2.654c.144-.785,1.434-1.585,1.922-2.231.007-.312-2.4-.312-2.929-.8" transform="translate(-209.091 -41.255)" fill="#8477fc"/></g></g></g></svg>