<svg xmlns="http://www.w3.org/2000/svg" xmlns:xlink="http://www.w3.org/1999/xlink" width="119" height="119" viewBox="0 0 119 119"><defs><linearGradient id="a" x1="-0.79" y1="0.438" x2="1.168" y2="0.5" gradientUnits="objectBoundingBox"><stop offset="0" stop-color="#8477fc"/><stop offset="1" stop-color="#cdc8fd"/></linearGradient><clipPath id="b"><rect width="64.083" height="64.705" fill="#8477fc"/></clipPath></defs><g transform="translate(0.442)"><path d="M59.5,0A59.5,59.5,0,1,1,0,59.5,59.5,59.5,0,0,1,59.5,0Z" transform="translate(-0.442)" fill="url(#a)"/><circle cx="49.5" cy="49.5" r="49.5" transform="translate(9.558 10)" fill="#fff"/><g transform="translate(27.016 27.148)"><g transform="translate(0 -0.001)" clip-path="url(#b)"><path d="M56.559,78.168H55.378l-3.6-.9a1.609,1.609,0,0,1-1.388.772c-4.859.413-10.689-.064-15.683,0-.222,0-.583-.084-.72.133h-.131c-.415-.274-1.053-.537-1.3-1a12.91,12.91,0,0,1-.083-5.3c.153-.414.881-1.179,1.313-1.179h2.821V66.5H34.186a2.188,2.188,0,0,1-1.666-1.22,12.2,12.2,0,0,1,0-5.169,1.816,1.816,0,0,1,1.663-1.091c3.429-.323,7.439.162,10.962.005.217-.01.438.008.656,0-1.4-4.22-3.062-8.4-4.592-12.589-2.938-8.039-5.824-16.1-8.793-24.129l-1.985,4.767a46.3,46.3,0,0,1-7.067,10.444c-1.359,1.448-2.958,2.679-4.438,4a5.771,5.771,0,0,1,.7,1.249c.939,2.281,1.933,5.055,2.695,7.405a5.23,5.23,0,0,1,.392,1.772A40.136,40.136,0,0,1,38.353,54.6c.665.252,3.588,1.338,3.75,1.9a.85.85,0,0,1-.109.692.745.745,0,0,1-.793.337,33.8,33.8,0,0,1-3.11-1.354,37.822,37.822,0,0,0-14.6-2.654c2.64,2.238,4.724,5.36,4.459,8.98a13.081,13.081,0,0,1-.429,2.064c-.072.283-.358.785-.354.958.007.356,1.063,1.017,1.364,1.385,1.537,1.884.623,4.665-1.115,6.076a4.256,4.256,0,0,1-4.843.471c-.116.644-.22,2.8-.881,2.988-3.462.02-6.955.1-10.4-.041a.832.832,0,0,1-.367-1.014c.322-1.669,1.953-4,2.273-5.731.523-2.824-1.716-4.283-2.263-6.8a11.468,11.468,0,0,1,.039-4.23,4.419,4.419,0,0,1-2.494-1.448c-.176-.217-.492-.908-.6-.974-.237-.145-.755-.027-1.087-.094-1.43-.29-1.843-1.337-2.329-2.524-.8-1.951-1.742-3.819,0-5.517a2.372,2.372,0,0,1,.383-.21c.04-.07-.238-1.066-.235-1.343A4.115,4.115,0,0,1,7,43a55.294,55.294,0,0,1,8.219-2.933c1.19-.189,1.327.176,2.2.311.479.074,2.275-1.533,2.727-1.941a40.374,40.374,0,0,0,10.431-15.8,17.579,17.579,0,0,0,.89-2.795c.03-.414-.136-.766-.092-1.258a3.4,3.4,0,0,1,6.358-1.268l5.632,15.354c.239.244,1.575.095,2.069.161,4.1.551,5.845,5.938,2.985,8.948-.3.313-1.288.845-1.305,1.175l4.915,13.581.254.128A11.059,11.059,0,1,1,59.549,77.55ZM33.99,17.317a1.745,1.745,0,0,0-.881,2.388L47.4,58.8c.62,1.021,2.446-1.065,3.13-1.294l.109-.231L46.98,47.218Q41.7,32.678,36.375,18.146a1.678,1.678,0,0,0-2.386-.829M44.618,34.366c-.191,0-.516-.059-.655.064l2.493,6.887a3.729,3.729,0,0,0-1.839-6.951M9.189,43.94c-1.53.6-2.9.62-3.01,2.8l3.176,8.9a2.35,2.35,0,0,0,2.909,1.273c2.505-.634,5.243-2.093,7.747-2.88,1.665-1.133,1.07-2.433.565-3.975-.056-.172-.216-.3-.234-.35a60,60,0,0,0-2.337-6.648,2.372,2.372,0,0,0-2.789-1.425,48.761,48.761,0,0,0-6.028,2.3M5.514,49.448c-.613.071-.544.749-.465,1.186a27.473,27.473,0,0,0,1.2,3.263c.107.183.758.86.974.665Zm15.747,6.295c-.81,2.619-1.784,7.057-5.307,6.955a3.728,3.728,0,0,1-2.695-1.515l-.922-1.505V62.1c0,1.1,1.595,3.155,2.031,4.264,1.322,3.357-.558,5.451-1.506,8.521,1.747-.008,3.5.014,5.248,0,.867-.006,1.74.021,2.607-.017.268-.831.3-1.715.525-2.557.7-2.667,2.578-3.839,3.845-6.124,2.264-4.087,1.419-7.95-2.053-10.976-.224-.2-.99-.907-1.233-.765-.035.02-.458.606-.474.643-.12.259-.021.5-.067.651m-1.838.263-5.9,2.1c.5,1.518,1.45,3.6,3.414,2.82,1.213-.479,2.365-3.653,2.49-4.919m30.837,3.54A9.466,9.466,0,1,0,65.089,69.775c2.635-8.9-7.684-15.869-14.828-10.229M37.139,60.595a23.416,23.416,0,0,0-2.952,0c-.109.02-.328.1-.328.2v3.8a1.172,1.172,0,0,0,.264.26c.6.278,3.5-.019,4.372-.014,2.228.013,4.471.154,6.7.089a12.176,12.176,0,0,0,.338-1.319c.1-.321.237-.7.37-1.008.3-.7.791-1.3,1.073-2.008-3.278.021-6.563-.031-9.841,0m7.873,5.9H38.189v4a1.313,1.313,0,0,0,.2.2h7.151a3.41,3.41,0,0,0-.262-1.18,11.405,11.405,0,0,1-.262-3.016m-18.553.662c-.8,1.329-2.215,2.57-2.97,3.859-.51.87-.414,1.2.733,1.372,2.763.422,5.112-3.69,2.237-5.231m10.68,5.109a23.39,23.39,0,0,0-2.952,0c-.109.02-.328.1-.328.2v3.8a2.191,2.191,0,0,0,.328.328H50.392c-.578-.527-1.257-.913-1.837-1.443a17.143,17.143,0,0,1-2.318-2.863c-3.031-.019-6.068-.049-9.1-.022" transform="translate(-3.022 -13.501)" fill="#8477fc"/><path d="M0,11.028c.186-.649,1.677-1.608,1.813-2.061C2.088,8.049.782,7.049,1.548,5.69,2.2,4.53,4.04,4.934,4.472,4.416c.409-.49.168-1.977.972-2.7C6.685.6,8.107,2.073,8.959,1.826,9.74,1.6,10.035-.085,11.617,0,13.017.08,13.45,1.667,14,1.826c.733.21,1.929-.9,3.152-.4,1.325.537.917,2.469,1.375,3.018.228.273,2.2.3,2.817.988A3,3,0,0,1,21.76,6.5c.017.675-.734,2.017-.614,2.466.138.517,1.952,1.181,1.952,2.521,0,1.322-1.721,1.919-1.92,2.553-.253.809,1.3,2.268.132,3.531-.674.727-2.564.707-2.778.962-.386.462-.061,2.219-1.116,2.884-1.281.808-2.49-.473-3.385-.24-.516.135-1.192,1.834-2.439,1.87-1.395.04-1.97-1.723-2.633-1.9-.724-.2-2.294,1.2-3.454.183-.876-.769-.626-2.364-1.045-2.758-.559-.525-2.159-.11-2.864-1.2-.84-1.3.5-2.416.216-3.359C1.664,13.513.133,12.71,0,11.946Zm19.814,4.459c-.6-2.289.226-2.494,1.7-4-.5-.641-1.776-1.464-1.937-2.26-.181-.9.457-1.918.627-2.787-.83-.2-2.114-.253-2.743-.867-.7-.681-.681-2.444-.924-2.62-.289-.21-1.949.645-2.9.413-.862-.209-1.764-1.892-2.26-1.765-.369.095-1.081,1.6-2.025,1.791-1.139.235-1.855-.5-2.913-.483-.215.867-.252,2.319-1.059,2.875a9.569,9.569,0,0,1-2.489.661c.089,1.084.753,1.9.492,3.049-.157.691-1.815,1.673-1.814,1.994,0,.381,1.623,1.213,1.812,2.129.229,1.111-.311,1.88-.492,2.916,2.417.266,3.413,1.02,3.55,3.535,1.01.039,1.859-.7,2.912-.483.914.184,1.75,1.811,2.13,1.81.4,0,1.433-1.643,2.26-1.81.933-.188,2.323.613,2.708.485.274-.092.426-1.512.581-1.918.536-1.4,1.916-1.293,3.176-1.614.107-.117-.351-.886-.394-1.048" transform="translate(0 0.001)" fill="#8477fc"/><path d="M251.92,490.7v.131h-16.4c.136-.217.5-.131.72-.133,4.993-.062,10.823.415,15.683,0" transform="translate(-204.55 -426.161)" fill="#8477fc"/><path d="M347.9,7.193a.943.943,0,0,1,.9.629l-3.655,14.591c-.247,1.149-1.53,1.12-1.642-.059l3.681-14.427a1.015,1.015,0,0,1,.717-.734" transform="translate(-298.338 -6.241)" fill="#8477fc"/><path d="M371.741,202.621a.833.833,0,0,1,.756.242c3.207,3.179,6.719,6.053,9.976,9.176a8.379,8.379,0,0,1,1.086,1.146.8.8,0,0,1-1.281.884c-3.171-3.082-6.6-5.913-9.785-8.974a12.417,12.417,0,0,1-1.348-1.408.789.789,0,0,1,.6-1.067" transform="translate(-322.305 -175.966)" fill="#8477fc"/><path d="M376.464,105.871a.792.792,0,0,1,.549,1.474l-8.162,4.7c-1.093.433-1.719-.738-.744-1.4Z" transform="translate(-319.286 -91.932)" fill="#8477fc"/><path d="M384.659,162.532a10.755,10.755,0,0,1,2.522.026c.512.3.3,1.532-.469,1.5l-9.184.542c-.936.041-1.349-1.287-.357-1.553,2.488-.183,4.995-.422,7.488-.516" transform="translate(-327.081 -141.104)" fill="#8477fc"/><path d="M357.552,357.187a7.743,7.743,0,0,1-2.714,3.254c-.478.32-1.392,1.021-1.868.342-.664-.947.877-1.486,1.434-1.955a5.925,5.925,0,0,0,1.048-1.248c5.19-7.1-5.828-14.569-10.629-7.344a6.5,6.5,0,0,0,3.8,9.906c.711.173,2.2.007,2.345.814.292,1.591-2.644.732-3.386.488a8.163,8.163,0,0,1-3.155-13.306c6.112-6.269,16.829.657,13.122,9.049" transform="translate(-297.191 -300.258)" fill="#8477fc"/><path d="M384.347,372.631c1.119-.806,1.213.759,1.511,1.178.683.961,2.144-.057,1.515-1.122-.344-.582-1.474-.354-2.174-.843a2.5,2.5,0,0,1-.13-4.067c.18-.161.574-.25.658-.391.212-.358-.122-1.121.685-1.29,1.182-.247.8.977,1.013,1.294.107.159,1.073.563,1.41,1.214.27.522.476,1.7-.253,1.905-1.132.315-.9-.968-1.286-1.417a.977.977,0,0,0-1.611.354c-.332,1.5,1.319,1.148,2.166,1.583a2.639,2.639,0,0,1,.564,3.961,4.9,4.9,0,0,1-1.031.542c-.159.19.279,1.224-.67,1.372-1.02.16-.8-1.128-.945-1.369a8.319,8.319,0,0,1-.962-.546c-.477-.457-1.121-1.884-.46-2.36" transform="translate(-333.565 -317.932)" fill="#8477fc"/><path d="M63.255,279.363c.412.514.6.923-.036,1.341l-7.567,2.8c-.864.4-1.614-.436-1.068-1.2.336-.469,2.748-.852,3.29-1.367a38.869,38.869,0,0,1,5.38-1.574" transform="translate(-47.246 -242.63)" fill="#8477fc"/><path d="M47.8,258.539a51.942,51.942,0,0,1,6-2.2c1.085-.215,1.581.3.993,1.288-2.013.768-4.04,1.514-6.075,2.222-.73.254-2.363,1.244-2.82.26s1.23-1.311,1.9-1.572" transform="translate(-39.796 -222.593)" fill="#8477fc"/><path d="M40.3,237.238c-.6.206-2.185,1.03-2.559.263-.539-1.107,1.195-1.431,1.9-1.706a47.944,47.944,0,0,1,6.134-2.2c1.131-.163,1.533.859.518,1.438a49.4,49.4,0,0,1-6,2.2" transform="translate(-32.694 -202.866)" fill="#8477fc"/><path d="M46.736,59.294c-2.515.883-3.531-2.136-2.493-4.065a2,2,0,0,1,2.8-.9c1.582.869,1.469,4.342-.311,4.966M45.59,55.4c-.421.387-.486,2.5.1,2.784,1.663.81,1.2-3.978-.1-2.784" transform="translate(-38.076 -46.954)" fill="#8477fc"/><path d="M101.62,84.231c-.857.37-1.17.093-1.968-.131-1.317-1.131-1.26-4.043.345-4.836,3.045-1.5,4.2,3.856,1.624,4.967m-1.147-3.9c-.593.55-.518,2.934.425,2.935,1.262,0,.78-4.054-.425-2.935" transform="translate(-85.742 -68.612)" fill="#8477fc"/><path d="M65.182,60.14c1.152-2.043,2.47-4.008,3.536-6.105.33-.337.884-.15,1.319-.189.082.074-.293.727-.37.874-1.051,1.995-2.3,4.115-3.434,6.076-.151.261-.96,1.719-1.048,1.772-.291.177-.958.01-1.314.063.471-.8.856-1.681,1.312-2.49" transform="translate(-55.472 -46.751)" fill="#8477fc"/></g></g></g></svg>