<svg xmlns="http://www.w3.org/2000/svg" xmlns:xlink="http://www.w3.org/1999/xlink" width="119" height="119" viewBox="0 0 119 119"><defs><linearGradient id="a" x1="-0.79" y1="0.438" x2="1.168" y2="0.5" gradientUnits="objectBoundingBox"><stop offset="0" stop-color="#8477fc"/><stop offset="1" stop-color="#cdc8fd"/></linearGradient><clipPath id="b"><rect width="66.611" height="68.652" fill="#8477fc"/></clipPath></defs><g transform="translate(0.442)"><path d="M59.5,0A59.5,59.5,0,1,1,0,59.5,59.5,59.5,0,0,1,59.5,0Z" transform="translate(-0.442)" fill="url(#a)"/><circle cx="49.5" cy="49.5" r="49.5" transform="translate(9.558 10)" fill="#fff"/><g transform="translate(26.864 23.558)"><g clip-path="url(#b)"><path d="M267.322,309.2H254.589a2.34,2.34,0,0,1-1.417-1.465,20.22,20.22,0,0,1-.049-3.821c.152-.985,1.249-1.451,1.311-1.639a13.437,13.437,0,0,0,.038-1.7c.41-3.709,2.025-7.6,5.473-9.406,1.512-.79,3.832-1.137,5.145-1.96,1.872-1.174,4.077-3.624,5.923-5.069,1.176-.921,2.225-1.573,3.674-.6,1.212.816,1.1,1.694.98,2.974-.012.126-.12.42.167.3a41.931,41.931,0,0,0,3.133-3.7c.85-1.466,1.046-4.11,2.713-4.928a2.771,2.771,0,0,1,3.948,3.144c-.781,4.308-6.027,12.2-9.817,14.444-2.251,1.335-6.491,2.858-7.645,5.357a5.981,5.981,0,0,0-.387,1.31c.015.1.688.721.849,1.24a9.261,9.261,0,0,1-.173,4.576c-.234.422-.778.656-1.129.949m-10.857-6.97h9.249c1.041-6.253,8.819-6.641,12.253-10.869a52.134,52.134,0,0,0,4.166-6.423c.617-1.273.966-2.914,1.534-4.235.124-.638-.751-.932-1.2-.659-.3.185-1.362,3.461-1.765,4.133a35.169,35.169,0,0,1-3.187,3.917c-1.136,1.092-4,1.769-5.419,2.624l-2.847,3.184c-1.025.506-1.824-.234-1.451-1.317L273.687,286c.282-.787-.288-1.106-.938-.67-2.258,1.516-4.451,4.131-6.72,5.746-2.2.98-4.955,1.319-6.753,3.032-2.026,1.93-2.807,5.41-2.811,8.113m10.187,2.011H255.125v2.949h11.527Z" transform="translate(-219.068 -240.544)" fill="#8477fc"/><path d="M0,279.989a2.862,2.862,0,0,1,3.919-1.842c1.713.772,2,3.547,2.856,5.053.741.566,2.42,3.348,3.079,3.624.286.12.178-.174.167-.3-.121-1.281-.232-2.159.98-2.974,1.451-.977,2.5-.321,3.674.6,1.838,1.439,4.065,3.9,5.923,5.069,1.255.787,3.511,1.146,4.963,1.873,3.637,1.82,5.264,5.74,5.67,9.611a10.98,10.98,0,0,0,.023,1.586c.071.216,1.086.527,1.289,1.526a20.108,20.108,0,0,1-.027,3.933,2.341,2.341,0,0,1-1.417,1.465H18.5a2.463,2.463,0,0,1-1.608-2.078v-2.815a5.861,5.861,0,0,1,.326-1.014c.149-.3.676-.722.7-.858a6.892,6.892,0,0,0-.419-1.412c-1.22-2.633-6.585-4.368-8.9-6.11-2.277-1.712-5.486-6.323-6.785-8.9-.727-1.441-1.049-3.248-1.8-4.7ZM29.22,302.24c.037-2.761-.849-6.43-3.02-8.307-1.778-1.538-4.434-1.91-6.545-2.838-2.259-1.621-4.464-4.231-6.72-5.746-.65-.436-1.22-.117-.938.67l5.889,6.576c.368,1.068-.431,1.844-1.451,1.317l-2.848-3.183c-1.318-.818-4.213-1.531-5.285-2.489a37.342,37.342,0,0,1-3.321-4.051c-.385-.655-1.467-3.952-1.764-4.133-.45-.274-1.324.021-1.2.659.568,1.321.916,2.962,1.534,4.235,1.059,2.184,4.281,6.876,6.189,8.288,1.59,1.177,3.491,1.841,5.179,2.864,2.337,1.416,4.678,3.238,5.052,6.14Zm1.34,2.011H19.033V307.2H30.561Z" transform="translate(0 -240.559)" fill="#8477fc"/><path d="M136.852,111.718c12.959-1.19,22.718,11.335,17.611,23.51-5.4,12.876-23.46,13.936-30.387,1.788-5.935-10.41.8-24.2,12.776-25.3m.4,2.011c-11.045,1.006-17.03,13.884-10.884,23.138a14.946,14.946,0,1,0,10.884-23.138" transform="translate(-105.515 -96.645)" fill="#8477fc"/><path d="M205.783.048c2.158-.49,1.969,2.911,2.8,3.444.9.575,3.679-.578,4.047,1.319C212.923,6.325,210.753,7,210,8.026c.044,1.163,1.126,2.742.5,3.84-1,1.753-3.237-.561-4.338-1.078-1.141.49-2.447,2.139-3.786,1.6-1.586-.642-.1-3.231-.054-4.359-.781-1.054-3.027-1.724-2.6-3.318.487-1.808,3.31-.6,4.089-1.273.653-.565.642-3.084,1.976-3.387m3.791,5.6c-2.28.23-2.8-.358-3.417-2.416-.631,2.136-1.129,2.539-3.419,2.481.538.419,1.9,1.235,1.85,1.974-.023.329-.6,1.862-.507,1.98.564-.264,1.483-1.215,2.076-1.215s1.512.95,2.076,1.215c-.149-1.156-1.05-2.221.2-3.086Z" transform="translate(-172.848 0)" fill="#8477fc"/><path d="M377.241,91.246c1.43.31,4.506-.44,4.127,1.957-.147.93-2.1,1.781-2.643,2.572.09,1.171,1.257,2.92.433,3.932-1.247,1.531-3.02-.712-4.262-1.179-1.155.42-2.494,2.218-3.758,1.569-1.538-.79-.24-3.119.019-4.344-.933-.95-3.7-2.164-2.446-3.812.642-.844,2.926-.451,3.939-.686.493-1.3.829-4.035,2.835-3.412.91.283,1.3,2.61,1.756,3.4m1.051,2.168c-.616-.09-1.95-.006-2.409-.34-.566-.412-.534-1.629-1.074-2.075-.159.594-.455,1.844-1,2.152a11.621,11.621,0,0,1-2.219.262c.376.59,1.576.988,1.72,1.706.108.539-.6,2.2-.513,2.314.565-.265,1.481-1.213,2.076-1.214.7,0,1.4.917,2.077,1.079-.254-1.565-.961-1.943.4-3.151a6.647,6.647,0,0,0,.939-.734" transform="translate(-318.913 -75.966)" fill="#8477fc"/><path d="M39.382,91.141c1.3.3,4.038-.416,4.252,1.456.137,1.2-1.9,2.213-2.663,2.941-.008,1.178,1.134,2.856.47,3.92-1.141,1.829-3.065-.561-4.3-1.044-1.206.468-2.756,2.461-4.061,1.38-1.169-.969.125-2.907.242-4.122-.815-1.092-3.536-1.966-2.453-3.707.711-1.142,2.8-.453,3.954-.872.668-1.225.832-4.167,2.908-3.323.88.358,1.36,2.505,1.655,3.371m1.06,2.159c-.988-.2-2.07.21-2.647-.773-.28-.476-.386-1.144-.636-1.641-.428.513-.482,1.691-1.009,2.074-.459.333-1.669.227-2.276.339.3.577,1.431.959,1.572,1.573.195.845-.311,1.495-.365,2.313.679-.163,1.374-1.08,2.077-1.08.595,0,1.511.95,2.076,1.214.088-.11-.62-1.774-.512-2.314.133-.668,1.362-1.125,1.72-1.706" transform="translate(-26.502 -75.852)" fill="#8477fc"/><path d="M171.341,252.32A12,12,0,0,0,174,247.947c.337-1.01.284-2.989,1.846-2.522,1.179.353.245,2.74-.037,3.527-4.335,12.106-22.084,11.348-25.4-1.006-.267-.992-.749-2.791.93-2.542.935.139.87,1.5,1.115,2.24,2.69,8.086,12.809,10.843,18.887,4.677" transform="translate(-129.97 -212.401)" fill="#8477fc"/><path d="M176.2,150.843a1.051,1.051,0,0,1-1.576-.158c-.3-.454-.554-2.083-.83-2.789-3.672-9.386-17.308-9.387-20.981,0-.412,1.053-.492,3.488-1.91,3.191-1.348-.282-.5-2.53-.194-3.419a13.393,13.393,0,0,1,23.6-3.106c.811,1.19,2.176,4.055,2.185,5.464a1.615,1.615,0,0,1-.3.816" transform="translate(-129.995 -120.164)" fill="#8477fc"/><path d="M224.154,183.186v3.485c3.264.378,4.177,5.182,1.3,6.592-.27.132-1.24.342-1.282.394-.111.139.169.826-.492.924-.708.105-.62-.4-.6-.941-1.147.287-4.171-1.01-3.336-2.464.625-1.088,1.463.23,2.213.571a2.286,2.286,0,0,0,1.122.285v-3.82c-1.122-.684-2.457-.87-2.979-2.249a3.094,3.094,0,0,1,2.976-4.254c-.022-.32-.017-.826.365-.918.729-.176.679.752.834.863.248.176,1.584.057,2.224.591a.91.91,0,0,1-.3,1.59c-.348.052-1.529-.676-2.047-.649m-.938.134c-2.249.015-2.007,2.557,0,2.949Zm.8,8.713a1.778,1.778,0,0,0,0-3.485Z" transform="translate(-190.108 -156.49)" fill="#8477fc"/></g></g></g></svg>