<svg xmlns="http://www.w3.org/2000/svg" xmlns:xlink="http://www.w3.org/1999/xlink" width="190" height="172" viewBox="0 0 190 172"><defs><clipPath id="a"><rect width="144.26" height="144.333" fill="none"/></clipPath></defs><g transform="translate(-180.051 -2269)"><rect width="190" height="172" rx="32" transform="translate(180.051 2269)" fill="#f7f0fe"/><g transform="translate(202.92 2289.131)"><rect width="18.514" height="11.389" transform="matrix(0.143, -0.99, 0.99, 0.143, 72.648, 99.225)"/><g clip-path="url(#a)"><path d="M218.214,284.639l-4.713-4.07-3.637-7.35-7.332,1.022a5.62,5.62,0,0,1-4.347-1.227l-.209-.172a4.129,4.129,0,0,1-1.385-4.172l.1-.389a.765.765,0,0,0-1.3-.7L185.138,278.55l3.654,3.435a26.041,26.041,0,0,0,6.541,4.49l.961.462a63.888,63.888,0,0,0,18.5,5.654l4.6.671,1.883-1.6.073-.151a4.152,4.152,0,0,0,.072-3.442l-.006-.015a4.151,4.151,0,0,0-1.022-1.432Z" transform="translate(-122.721 -177.204)" fill="#4ada85"/><path d="M249.251,285.231l3.112-.434,3.637,7.35-2.881-1.387a4.785,4.785,0,0,1-2.214-2.189Z" transform="translate(-165.219 -188.782)" fill="#fff"/><path d="M255.658,291.979a.174.174,0,0,1-.075-.017l-2.881-1.387a4.984,4.984,0,0,1-2.294-2.269l-1.654-3.34a.173.173,0,0,1,.132-.249l3.112-.434a.173.173,0,0,1,.18.095l3.637,7.35a.174.174,0,0,1-.156.251m-6.486-6.951,1.547,3.124a4.633,4.633,0,0,0,2.133,2.11l2.426,1.168-3.357-6.785Z" transform="translate(-164.878 -188.44)"/><path d="M199.786,290.554l-.845,1.756-5-6.366-1.652,3.15-2.9-6.587-1.052-.214-5.185,5.618,4.363,4.057a26.044,26.044,0,0,0,6.439,4.394l1.025.493a63.9,63.9,0,0,0,18.5,5.654l4.6.671,1.882-1.6-2.26-.606a27.637,27.637,0,0,1-12.637-7.337l-.639,1.423Z" transform="translate(-121.404 -187.121)" fill="#fff"/><path d="M217.735,303.011l-.025,0-4.605-.671a63.993,63.993,0,0,1-18.546-5.67l-1.025-.493a26.179,26.179,0,0,1-6.481-4.424L182.69,287.7a.174.174,0,0,1-.009-.245l5.185-5.618a.175.175,0,0,1,.162-.052l1.052.214a.174.174,0,0,1,.124.1l2.752,6.257,1.484-2.83a.173.173,0,0,1,.138-.092.17.17,0,0,1,.153.065l4.832,6.146.724-1.5a.174.174,0,0,1,.126-.1.171.171,0,0,1,.151.047l4.46,4.33.536-1.2a.174.174,0,0,1,.29-.043,27.735,27.735,0,0,0,12.554,7.283l2.258.606a.174.174,0,0,1,.068.3l-1.883,1.6a.173.173,0,0,1-.113.041m-34.682-15.453,4.235,3.939a25.838,25.838,0,0,0,6.4,4.365l1.025.494a63.643,63.643,0,0,0,18.445,5.638l4.527.66,1.571-1.337-1.941-.52a28.6,28.6,0,0,1-12.541-7.194l-.531,1.183a.174.174,0,0,1-.279.054L199.5,290.5l-.74,1.538a.174.174,0,0,1-.293.032l-4.839-6.155-1.527,2.912a.179.179,0,0,1-.16.093.173.173,0,0,1-.153-.1l-2.861-6.5-.868-.177Z" transform="translate(-121.062 -186.78)"/><path d="M121.392,185.7l46.205-.5a7.3,7.3,0,0,1,7.278,8.514l-4.1,24.325-15.16.162,2.448-17.254-26.76.287a9.746,9.746,0,0,1-9.85-9.64Z" transform="translate(-80.466 -122.768)" fill="#fed101"/><path d="M35.413,286.227s-9.859-.267-13.885,4.343c-4.534,5.193-1.812,10.013-4.324,14.43-1.306,2.3-5.614,5.182-8.563,5.289,0,0,15.324,9.708,24.3,4.979a30.321,30.321,0,0,0,12.594-12.393Z" transform="translate(-5.728 -189.728)" fill="#ff7dce"/><path d="M66.678,300.37s-5.058.119-7.361,2.65c-2.015,2.214-1.487,4.3-1.317,7.352.113,2.009-.984,4.279-2.956,4.882a10.835,10.835,0,0,0,11.076.1c5.736-3.1,6.218-5.671,6.218-5.671Z" transform="translate(-36.487 -199.104)" fill="#fff"/><path d="M84.956,348.835a.174.174,0,0,1-.151-.26l19.938-34.815a.172.172,0,0,1,.161-.087l8.615.536a.174.174,0,0,1,.163.18l-.558,14.22a5.892,5.892,0,0,1-2.826,4.811l-25.252,15.39a.174.174,0,0,1-.09.025m20.035-34.809L85.443,348.161l24.674-15.038a5.546,5.546,0,0,0,2.66-4.527l.552-14.05Z" transform="translate(-56.199 -207.922)"/><path d="M44.039,236.416l-3.482,7.909L.516,246.065l25.251-15.39a5.715,5.715,0,0,1,5.4-.295Z" transform="translate(-0.342 -152.353)" fill="#fff"/><path d="M.174,245.893a.174.174,0,0,1-.09-.322l25.251-15.39a5.876,5.876,0,0,1,5.566-.3l12.869,6.036a.174.174,0,0,1,.085.228l-3.481,7.909a.175.175,0,0,1-.152.1L.182,245.893H.174M28.4,229.666a5.533,5.533,0,0,0-2.884.812L.841,245.517,40.1,243.811l3.37-7.655-12.717-5.964a5.535,5.535,0,0,0-2.353-.526" transform="translate(0 -152.007)"/><path d="M92.2,223.3,80.881,204.682s15.9-29.136,54.315-38.532a107.394,107.394,0,0,1,33.66-2.541c.107.011.211.019.316.025l.039.006-.02.035a107.639,107.639,0,0,1-17.843,29.048C125.362,222.56,92.2,223.3,92.2,223.3" transform="translate(-53.613 -108.226)" fill="#8c7bff"/><path d="M147.059,266.248a8.731,8.731,0,1,1,2.919-12,8.717,8.717,0,0,1-2.919,12" transform="translate(-88.69 -165.75)" fill="#fed101"/><path d="M151.948,270.011a5.35,5.35,0,1,1,1.789-7.355,5.341,5.341,0,0,1-1.789,7.355" transform="translate(-95.335 -172.402)" fill="#fff"/><path d="M148.84,270.622a5.545,5.545,0,0,1-1.313-.158,5.481,5.481,0,0,1-3.41-2.5,5.537,5.537,0,0,1,1.846-7.593,5.515,5.515,0,0,1,7.585,1.846,5.529,5.529,0,0,1-4.707,8.4m-.016-10.708a5.183,5.183,0,1,0,1.231.148,5.213,5.213,0,0,0-1.231-.148" transform="translate(-94.997 -172.057)"/><path d="M222.79,222.809a7.369,7.369,0,1,1,2.463-10.131,7.357,7.357,0,0,1-2.463,10.131" transform="translate(-140.26 -138.631)" fill="#fed101"/><path d="M226.915,225.984a4.515,4.515,0,1,1,1.509-6.207,4.508,4.508,0,0,1-1.509,6.207" transform="translate(-145.868 -144.245)" fill="#fff"/><path d="M224.239,226.475a4.712,4.712,0,0,1-1.115-.135,4.652,4.652,0,0,1-2.895-2.119,4.7,4.7,0,0,1,1.568-6.446,4.682,4.682,0,0,1,6.439,1.567,4.7,4.7,0,0,1-1.568,6.446,4.652,4.652,0,0,1-2.428.686m-.013-9.038a4.344,4.344,0,1,0,2.261,8.055,4.345,4.345,0,0,0-2.261-8.055m2.352,8.2h0Z" transform="translate(-145.53 -143.901)"/><path d="M258.053,192.753,241.74,165.914a107.1,107.1,0,0,1,34.056-2.384l.039.006-.02.036a107.237,107.237,0,0,1-17.763,29.18" transform="translate(-160.241 -108.128)" fill="#fed101"/><path d="M274.3,193.973l-8.115-13.351,25.623-15.764c.107.011.211.019.316.026l.039.006-.02.036A107.643,107.643,0,0,1,274.3,193.973" transform="translate(-176.443 -109.278)" fill="#fcb503"/><path d="M87.914,91.051a5.649,5.649,0,1,0,5.772-5.533,5.655,5.655,0,0,0-5.772,5.533" transform="translate(-58.274 -56.686)"/><path d="M67.408,76.09a5.114,5.114,0,1,0,5.225-5.008,5.119,5.119,0,0,0-5.225,5.008" transform="translate(-44.682 -47.117)"/><path d="M64.141,55.333a3.853,3.853,0,1,0,3.937-3.774,3.857,3.857,0,0,0-3.937,3.774" transform="translate(-42.516 -34.176)"/><path d="M70.56,38.584a3.085,3.085,0,1,0,3.152-3.021,3.089,3.089,0,0,0-3.152,3.021" transform="translate(-46.771 -23.573)"/><path d="M84.187,31.1a2.18,2.18,0,1,0,2.228-2.135A2.182,2.182,0,0,0,84.187,31.1" transform="translate(-55.804 -19.2)"/><rect width="5.762" height="4.451" transform="matrix(0.022, -1, 1, 0.022, 35.025, 41.852)" fill="#955b50"/><path d="M104.155,108.742l.037-1.69,4.45.1-.082,3.73a4.178,4.178,0,0,1-2.119-.169,4.322,4.322,0,0,1-2.286-1.969" transform="translate(-69.041 -70.961)"/><path d="M102.122,95.463a3.6,3.6,0,1,0,3.666-3.883,3.786,3.786,0,0,0-3.666,3.883" transform="translate(-67.692 -60.704)" fill="#955b50"/><path d="M105.7,91.366a3.349,3.349,0,0,1,1.065.2,6.8,6.8,0,0,1-4.677,5.063,4.466,4.466,0,0,1-.156-1.272,3.891,3.891,0,0,1,3.768-3.991" transform="translate(-67.564 -60.563)"/><path d="M108.011,106.409a2.251,2.251,0,0,0,3.726-1.008Z" transform="translate(-71.597 -69.867)" fill="#fff"/><rect width="11.389" height="12.346" transform="translate(60.198 121.314) rotate(-0.616)"/><path d="M193.864,379.693l-6.029-1.561-6.519-4.985-6.119,4.174a5.61,5.61,0,0,1-4.441.829l-.264-.062a4.133,4.133,0,0,1-3.092-3.131l-.087-.391a.764.764,0,0,0-1.479-.054l-4.319,14.4,4.8,1.461a25.992,25.992,0,0,0,7.853,1.126l1.066-.011a63.782,63.782,0,0,0,19.085-3.137l4.425-1.443.977-2.275,0-.168a4.162,4.162,0,0,0-1.461-3.123l-.013-.011a4.15,4.15,0,0,0-1.551-.832Z" transform="translate(-107.064 -247.346)" fill="#4ada85"/><path d="M212.543,374.92l2.6-1.772,6.519,4.985-3.2.034a4.784,4.784,0,0,1-2.955-.983Z" transform="translate(-140.887 -247.346)" fill="#fff"/><path d="M218.07,378a4.981,4.981,0,0,1-3.01-1.018l-2.963-2.265a.174.174,0,0,1,.008-.282l2.6-1.772a.175.175,0,0,1,.2.005l6.519,4.985a.174.174,0,0,1-.1.312l-3.2.034h-.052m-5.571-3.413,2.773,2.119a4.624,4.624,0,0,0,2.847.947l2.693-.029-6.018-4.6Z" transform="translate(-140.546 -247.005)"/><path d="M175.085,399.316l.021,1.952-7.308-3.493-.084,3.562-5.518-4.628-1.038.275L159,404.33l5.709,1.705a26,26,0,0,0,7.72,1.086l1.137-.013a63.782,63.782,0,0,0,19.085-3.137l4.425-1.443.977-2.275-2.294.46a27.6,27.6,0,0,1-14.581-.975l.059,1.561Z" transform="translate(-105.396 -262.964)" fill="#fff"/><path d="M171.807,406.956a26.142,26.142,0,0,1-7.489-1.095l-5.709-1.705a.174.174,0,0,1-.117-.215l2.157-7.347a.174.174,0,0,1,.122-.119l1.038-.274a.173.173,0,0,1,.156.035l5.241,4.4.076-3.2a.174.174,0,0,1,.249-.153l7.056,3.373-.018-1.673a.175.175,0,0,1,.071-.142.173.173,0,0,1,.156-.025l5.917,1.907-.05-1.313a.173.173,0,0,1,.241-.167,27.691,27.691,0,0,0,14.481.965l2.293-.459a.174.174,0,0,1,.194.239l-.977,2.275a.172.172,0,0,1-.106.1l-4.425,1.443a63.888,63.888,0,0,1-19.137,3.146l-1.138.012-.282,0m-12.932-3.084,5.543,1.656a25.823,25.823,0,0,0,7.668,1.079l1.138-.012a63.547,63.547,0,0,0,19.033-3.129l4.35-1.418.816-1.9-1.97.394a28.545,28.545,0,0,1-14.431-.89l.049,1.3a.174.174,0,0,1-.227.172l-5.924-1.909.018,1.711a.174.174,0,0,1-.249.158l-7.066-3.377L167.545,401a.174.174,0,0,1-.286.129l-5.448-4.57-.856.227Z" transform="translate(-105.054 -262.623)"/><path d="M91.639,190.846l-2.275-8.6,17.523-.188,22.006,16.633a11.9,11.9,0,0,1,4.721,9.367l.39,36.286-17.4.187-.361-33.624-11.8-11.45-1.578.007a11.573,11.573,0,0,1-11.235-8.62" transform="translate(-59.236 -120.682)" fill="#fed101"/><path d="M116.267,244.535a.174.174,0,0,1-.174-.172l-.362-33.721-11.692-11.35-1.507.006h-.053a11.749,11.749,0,0,1-11.35-8.749l-2.274-8.6a.174.174,0,0,1,.166-.218l17.522-.188a.174.174,0,0,1,.107.035l22.006,16.633a12.153,12.153,0,0,1,4.79,9.5l.391,36.456a.174.174,0,0,1-.172.176l-17.4.187ZM104.11,198.944a.174.174,0,0,1,.121.049l11.795,11.451a.174.174,0,0,1,.053.123l.361,33.62L133.488,244l-.39-36.282a11.8,11.8,0,0,0-4.652-9.23l-21.958-16.6-17.24.185,2.217,8.381a11.4,11.4,0,0,0,11.014,8.491h.052l1.578-.007Z" transform="translate(-58.895 -120.34)"/><path d="M59.389,215.787l-.234,2.345a2.741,2.741,0,0,0,.624,2.058c1.367,1.691-.544,4.877-.4,7.182.036.827.1,2.127-1.08,2.075a1,1,0,0,1-1.039-.94L57.042,225l-1.579.635c-1.6.581-2.536,3.7-3.775,4.811a1.207,1.207,0,0,1-2-.182s-1.2,2.687-2.412,1.93a1.048,1.048,0,0,1-.391-1.373l6.154-12.049.562-3.138Z" transform="translate(-31.004 -142.936)" fill="#955b50"/><path d="M66.386,215.635l-.33,1.843,5.872,1.153a2.516,2.516,0,0,1,.01-.5l.233-2.345Z" transform="translate(-43.786 -142.937)" fill="#020202"/><path d="M55.071,246.695a.174.174,0,0,1-.153-.257l1.392-2.563c.255-.469.452-.872.643-1.263a21.65,21.65,0,0,1,1.315-2.389.174.174,0,1,1,.293.186,21.381,21.381,0,0,0-1.3,2.356c-.192.393-.391.8-.65,1.276L55.224,246.6a.174.174,0,0,1-.153.091" transform="translate(-36.389 -159.181)"/><path d="M76.595,237.137a.174.174,0,0,1-.173-.166l-.151-3.108a.174.174,0,1,1,.347-.017l.151,3.108a.174.174,0,0,1-.165.182h-.009" transform="translate(-50.557 -154.899)"/><path d="M47.384,232.162a1,1,0,0,1-.537-.161,1.225,1.225,0,0,1-.453-1.6l6.142-12.026.558-3.113a.169.169,0,0,1,.176-.143l5.785.153a.172.172,0,0,1,.126.059.173.173,0,0,1,.043.132l-.234,2.345a2.56,2.56,0,0,0,.587,1.932c.892,1.1.479,2.778.08,4.4a10.325,10.325,0,0,0-.443,2.882v.025a2.658,2.658,0,0,1-.394,1.94,1.108,1.108,0,0,1-.868.295,1.175,1.175,0,0,1-1.2-1.1l-.2-3.267-1.356.545c-.9.325-1.591,1.527-2.263,2.689a8.936,8.936,0,0,1-1.46,2.09,1.552,1.552,0,0,1-1.274.483,1.407,1.407,0,0,1-.807-.465c-.264.513-.915,1.625-1.694,1.863a1.039,1.039,0,0,1-.305.047m6.025-16.691-.536,2.991a.175.175,0,0,1-.016.049L46.7,230.559a.876.876,0,0,0,.326,1.145.645.645,0,0,0,.559.078c.848-.258,1.6-1.913,1.6-1.93a.174.174,0,0,1,.149-.1.168.168,0,0,1,.159.086,1.21,1.21,0,0,0,.746.539,1.234,1.234,0,0,0,.986-.4,8.754,8.754,0,0,0,1.392-2.005c.7-1.216,1.43-2.473,2.44-2.839l1.573-.633a.174.174,0,0,1,.238.151l.217,3.507a.84.84,0,0,0,.858.777.779.779,0,0,0,.622-.194c.35-.35.317-1.118.293-1.679v-.021a10.541,10.541,0,0,1,.453-2.984c.4-1.608.771-3.127-.013-4.1a2.9,2.9,0,0,1-.662-2.189l.215-2.155Z" transform="translate(-30.665 -142.595)"/><path d="M152.488,142.755l-1.39-.837,11.9-16.5,5.726,4.022-6.546,10.9a7.054,7.054,0,0,1-9.69,2.416" transform="translate(-100.157 -83.132)" fill="#955b50"/><path d="M189.156,99.4l5-8.814a1.046,1.046,0,1,0-1.82-1.034l-5,8.812Z" transform="translate(-124.179 -59.01)" fill="#955b50"/><path d="M198.489,112.77a.821.821,0,0,0,1.122-.3l1.28-2.252.932.536.311-.543a2.029,2.029,0,0,0,.147-1.69,1.174,1.174,0,0,0-2.093-.384l-2,3.515a.824.824,0,0,0,.3,1.124" transform="translate(-131.298 -71.336)" fill="#955b50"/><path d="M204.736,113.949a.821.821,0,0,0,1.122-.3l.59-1.038.932.536.311-.543a2.028,2.028,0,0,0,.147-1.69,1.174,1.174,0,0,0-2.093-.384l-1.313,2.3a.824.824,0,0,0,.3,1.124" transform="translate(-135.438 -72.923)" fill="#955b50"/><path d="M179.6,108.426a22.909,22.909,0,0,0,1.34,3.528l.874,1.831,3.654.657,4.107-7.236-5.825-3.317-2.1,3.7-.937-3.264a2.676,2.676,0,0,0-1.247-1.587l-1.067-.608a.977.977,0,0,0-1.334.367l-.058.1a.981.981,0,0,0,.367,1.336l.168.1a2.675,2.675,0,0,1,1.247,1.585Z" transform="translate(-117.25 -67.612)" fill="#955b50"/><path d="M193.076,111.073a.821.821,0,0,0,1.122-.3l1.681-2.96.932.536.311-.543a2.028,2.028,0,0,0,.147-1.69,1.174,1.174,0,0,0-2.093-.384l-2.4,4.222a.824.824,0,0,0,.3,1.124" transform="translate(-127.709 -69.743)" fill="#955b50"/><path d="M193.142,111.014a1,1,0,0,1-.862-1.494l2.4-4.222a1.144,1.144,0,0,1,1.1-.6,1.521,1.521,0,0,1,1.278.925.174.174,0,0,1-.322.132,1.181,1.181,0,0,0-.979-.711.8.8,0,0,0-.774.423l-2.4,4.222a.648.648,0,0,0,1.108.674l.419-.74a.174.174,0,0,1,.3.172l-.424.747a1,1,0,0,1-.845.468" transform="translate(-127.368 -69.401)"/><path d="M198.556,112.711a.987.987,0,0,1-.494-.133,1,1,0,0,1-.368-1.361l2-3.515a1.141,1.141,0,0,1,1.1-.6,1.519,1.519,0,0,1,1.278.926.174.174,0,1,1-.321.132,1.181,1.181,0,0,0-.979-.712.8.8,0,0,0-.774.422l-2,3.515a.651.651,0,0,0,.239.887.647.647,0,0,0,.885-.24l.607-1.068a.174.174,0,1,1,.3.172l-.607,1.068a1,1,0,0,1-.865.5" transform="translate(-130.956 -70.995)"/><path d="M205.749,115.305a.174.174,0,0,1-.151-.26c.061-.107.138-.237.226-.384.582-.978,1.792-3.013,1.453-4.112a.961.961,0,0,0-.546-.609c-.739-.345-1.09.161-1.542.972l-.1.182c-.068.119-.161.259-.26.407-.319.477-.755,1.131-.641,1.551a.575.575,0,0,0,.453.449.778.778,0,0,0,.747-.315,4.721,4.721,0,0,0,.36-.616c.058-.111.115-.22.175-.326a.174.174,0,1,1,.3.172c-.058.1-.113.207-.168.314a5.014,5.014,0,0,1-.388.661,1.131,1.131,0,0,1-1.091.451.917.917,0,0,1-.725-.7c-.155-.573.312-1.273.687-1.835.1-.143.185-.278.247-.386l.1-.178c.382-.686.9-1.625,1.992-1.118a1.306,1.306,0,0,1,.731.822c.384,1.247-.832,3.293-1.486,4.393-.086.145-.162.272-.222.378a.175.175,0,0,1-.151.088" transform="translate(-135.105 -72.571)"/><path d="M179.788,100.94a.175.175,0,0,1-.163-.112A20.493,20.493,0,0,1,178.536,97a4.753,4.753,0,0,0-1.146-1.673,10.446,10.446,0,0,1-.709-.836,1.041,1.041,0,0,1-.136-1.152,1.311,1.311,0,0,1,1.3-.614.158.158,0,0,1,.031.005c1.47.377,2.456,1.5,3.006,3.416l.262-.448c.89-1.519,2.546-4.348,3.539-6.421a.2.2,0,0,1,.017-.029c.031-.041.063-.087.1-.135a1.763,1.763,0,0,1,1.106-.877.163.163,0,0,1,.046,0,1.744,1.744,0,0,1,1.238.648.853.853,0,0,1,.082.746,14.233,14.233,0,0,1-1.655,3.185c-.365.575-.743,1.17-1.055,1.784a.174.174,0,0,1-.31-.158c.32-.628.7-1.23,1.071-1.812a13.941,13.941,0,0,0,1.619-3.107.5.5,0,0,0-.044-.451,1.421,1.421,0,0,0-.963-.486c-.386.069-.643.434-.85.729l-.091.128c-1,2.085-2.655,4.912-3.545,6.432-.211.36-.376.641-.472.811a.174.174,0,0,1-.32-.045c-.5-2.057-1.4-3.191-2.847-3.569a.967.967,0,0,0-.949.432.7.7,0,0,0,.106.778,10.211,10.211,0,0,0,.689.812,5.056,5.056,0,0,1,1.224,1.814.169.169,0,0,1,.005.023,20.122,20.122,0,0,0,1.074,3.78.174.174,0,0,1-.162.236" transform="translate(-116.949 -58.485)"/><path d="M85.373,149.378l22.588-4.852-4.482-5.508-1.293-9.555a5.272,5.272,0,0,0-4.386-5.83l-6.719-.8a1.79,1.79,0,0,0-1.977,1.491Z" transform="translate(-56.591 -81.415)" fill="#fda4ff"/><path d="M71.422,155.11l2.879-19.6,4.212-5.883-.8-6.729c-2.464-.413-3.418.381-4.62,2.169l-4.319,5.606a12.091,12.091,0,0,0-2.038,5.99l-2.6,18.2Z" transform="translate(-42.516 -81.394)" fill="#fda4ff"/><path d="M71.08,154.943h-.006l-7.281-.248a.175.175,0,0,1-.127-.062.173.173,0,0,1-.039-.136l2.6-18.2a12.256,12.256,0,0,1,2.066-6.063l4.325-5.615c1.24-1.847,2.275-2.656,4.786-2.235a.174.174,0,1,1-.057.343c-2.352-.394-3.237.294-4.447,2.095L68.57,130.44a11.919,11.919,0,0,0-2,5.9L64,154.354l6.933.236,2.856-19.446a.177.177,0,0,1,.03-.076l4.212-5.883a.174.174,0,0,1,.283.2l-4.187,5.849-2.873,19.559a.174.174,0,0,1-.172.148" transform="translate(-42.175 -81.053)"/><path d="M121.759,135.667l5.23-6.545,6.729,4.851-6.129,8.751a6.064,6.064,0,0,1-7.2,2.161L100.1,136.842l6.121-7.75c1.069-1.354,2.361-2.467,3.776-1.481,3.779,2.632,11.759,8.057,11.759,8.057" transform="translate(-66.355 -84.339)" fill="#fda4ff"/><path d="M314.251,22.067a10.447,10.447,0,1,0-14.575,2.416,10.447,10.447,0,0,0,14.575-2.416" transform="translate(-195.749 -3.672)" fill="#fed101"/><path d="M315.068,24.623c-2.241,0-7.67-4.828-12.2-10.141C297.8,8.536,293.5,1.574,295.093.217c.893-.761,3.073.622,4.746,1.915a.174.174,0,0,1-.213.275C297.471.74,295.86.02,295.319.481c-1.1.938,1.777,6.7,7.813,13.775,5.423,6.358,10.2,10.031,11.909,10.031a.687.687,0,0,0,.46-.142c.529-.451.1-2.1-1.146-4.417a.174.174,0,0,1,.306-.165c.969,1.8,1.941,4.1,1.065,4.846a.981.981,0,0,1-.658.213" transform="translate(-195.383 0)"/><path d="M259.886,56.209a29.491,29.491,0,0,1-28.317-37.645.174.174,0,0,1,.334.1,29.14,29.14,0,0,0,37.862,35.483.174.174,0,0,1,.118.327,29.382,29.382,0,0,1-10,1.739" transform="translate(-152.736 -12.222)"/><path d="M365.405,141.024a18.5,18.5,0,0,1-6.873-1.3c-9.977-3.967-11.96-14.75-12.04-15.207a.174.174,0,1,1,.343-.059c.078.449,2.027,11.048,11.825,14.944a19.837,19.837,0,0,0,15.03-.477.174.174,0,0,1,.143.317,21.181,21.181,0,0,1-8.428,1.783" transform="translate(-229.676 -82.403)"/><path d="M170.751,25.693a8.031,8.031,0,1,1,8.031-8.031,8.04,8.04,0,0,1-8.031,8.031m0-15.714a7.683,7.683,0,1,0,7.683,7.683,7.692,7.692,0,0,0-7.683-7.683" transform="translate(-107.861 -6.385)"/><path d="M132.954,41.206a4.3,4.3,0,1,1,4.3-4.3,4.305,4.305,0,0,1-4.3,4.3m0-8.253a3.953,3.953,0,1,0,3.953,3.953,3.957,3.957,0,0,0-3.953-3.953" transform="translate(-85.279 -21.613)"/><path d="M115.328,72.423a2.83,2.83,0,1,1,2.831-2.831,2.834,2.834,0,0,1-2.831,2.831m0-5.313a2.483,2.483,0,1,0,2.483,2.483,2.486,2.486,0,0,0-2.483-2.483" transform="translate(-74.571 -44.254)"/><path d="M386.5,85.993a8.14,8.14,0,1,0-8.141,8.14,8.14,8.14,0,0,0,8.141-8.14" transform="translate(-245.402 -51.606)" fill="#ff7dce"/><path d="M387.061,85.672a4.467,4.467,0,1,0-4.467,4.467,4.467,4.467,0,0,0,4.467-4.467" transform="translate(-250.647 -53.828)" fill="#fda4ff"/><path d="M394.867,52.456a5.378,5.378,0,0,0-1.145-2.253,5.375,5.375,0,0,0,1.145-2.253,5.375,5.375,0,0,0,1.145,2.253,5.378,5.378,0,0,0-1.145,2.253" transform="translate(-260.984 -31.784)" fill="#fed101"/><path d="M406.046,10.1A5.379,5.379,0,0,0,404.9,7.843a5.377,5.377,0,0,0,1.145-2.253,5.377,5.377,0,0,0,1.145,2.253,5.379,5.379,0,0,0-1.145,2.253" transform="translate(-268.394 -3.705)" fill="#fed101"/><path d="M380.69,20.642a8.608,8.608,0,0,0-1.832,3.6,8.608,8.608,0,0,0-1.832-3.6,8.608,8.608,0,0,0,1.832-3.6,8.608,8.608,0,0,0,1.832,3.6" transform="translate(-249.917 -11.294)" fill="#fed101"/><path d="M312.636,88.946a8.608,8.608,0,0,0-1.832,3.6,8.608,8.608,0,0,0-1.832-3.6,8.608,8.608,0,0,0,1.832-3.6,8.608,8.608,0,0,0,1.832,3.6" transform="translate(-204.806 -56.57)" fill="#fed101"/><path d="M45,141.545a8.608,8.608,0,0,0-1.832,3.6,8.608,8.608,0,0,0-1.832-3.6,8.608,8.608,0,0,0,1.832-3.6,8.608,8.608,0,0,0,1.832,3.6" transform="translate(-27.399 -91.436)" fill="#fed101"/><path d="M300.584,363.809a4.925,4.925,0,0,0-1.049,2.064,4.925,4.925,0,0,0-1.049-2.064,4.926,4.926,0,0,0,1.049-2.064,4.925,4.925,0,0,0,1.049,2.064" transform="translate(-197.856 -239.788)" fill="#fed101"/><path d="M358.428,212.992a8.608,8.608,0,0,0-1.832,3.6,8.608,8.608,0,0,0-1.832-3.6,8.608,8.608,0,0,0,1.832-3.6,8.607,8.607,0,0,0,1.832,3.6" transform="translate(-235.16 -138.796)" fill="#fed101"/><path d="M392.993,237.325a4.925,4.925,0,0,0-1.049,2.064,4.926,4.926,0,0,0-1.049-2.064,4.926,4.926,0,0,0,1.049-2.064,4.925,4.925,0,0,0,1.049,2.064" transform="translate(-259.11 -155.946)" fill="#fed101"/><path d="M348.542,276.155a15.6,15.6,0,0,0-31.188-.439,15.177,15.177,0,0,0,5.8,12.357,7.743,7.743,0,0,1,2.9,6.08,6.9,6.9,0,0,0,13.8,0h0A7.9,7.9,0,0,1,342.827,288a15.178,15.178,0,0,0,5.715-11.848" transform="translate(-210.358 -172.899)" fill="#fed101"/><path d="M353.656,385.92a5.177,5.177,0,0,1-5.223-5.13H358.88a5.177,5.177,0,0,1-5.223,5.13" transform="translate(-230.964 -252.412)" fill="#fff"/><path d="M353.314,385.751a5.357,5.357,0,0,1-5.4-5.3.174.174,0,0,1,.174-.174h10.447a.174.174,0,0,1,.174.174,5.357,5.357,0,0,1-5.4,5.3m-5.046-5.13a5.054,5.054,0,0,0,10.093,0Z" transform="translate(-230.622 -252.07)"/><rect width="14.807" height="3.499" transform="translate(115.183 121.523)" fill="#fff"/><path d="M356.117,363.79H341.31a.174.174,0,0,1-.174-.174v-3.5a.174.174,0,0,1,.174-.174h14.807a.174.174,0,0,1,.174.174v3.5a.174.174,0,0,1-.174.174m-14.633-.348h14.459v-3.152H341.484Z" transform="translate(-226.127 -238.593)"/><rect width="14.807" height="3.499" transform="translate(115.183 124.879)" fill="#fff"/><path d="M356.117,373.741H341.31a.174.174,0,0,1-.174-.174v-3.5a.174.174,0,0,1,.174-.174h14.807a.174.174,0,0,1,.174.174v3.5a.174.174,0,0,1-.174.174m-14.633-.348h14.459v-3.152H341.484Z" transform="translate(-226.127 -245.189)"/><path d="M356.346,331.393H350.9a.174.174,0,0,1-.172-.149l-2.041-14.418a.174.174,0,0,1,.2-.2l1.286.242,1.071-.48a.173.173,0,0,1,.138,0l1.137.476,1.156-.475a.174.174,0,0,1,.125,0l1.332.482,1.31-.481a.176.176,0,0,1,.125,0l1.2.483,1.082-.24a.174.174,0,0,1,.209.2l-2.545,14.417a.174.174,0,0,1-.171.144m-5.291-.349H356.2l2.474-14.018-.881.2a.176.176,0,0,1-.1-.008l-1.183-.478-1.306.48a.174.174,0,0,1-.119,0l-1.329-.481-1.161.477a.173.173,0,0,1-.133,0l-1.134-.474-1.052.472a.175.175,0,0,1-.1.012l-1.1-.207Z" transform="translate(-231.134 -209.714)"/></g></g></g></svg>