<svg xmlns="http://www.w3.org/2000/svg" xmlns:xlink="http://www.w3.org/1999/xlink" width="119" height="119" viewBox="0 0 119 119"><defs><linearGradient id="a" x1="-0.79" y1="0.438" x2="1.168" y2="0.5" gradientUnits="objectBoundingBox"><stop offset="0" stop-color="#8477fc"/><stop offset="1" stop-color="#cdc8fd"/></linearGradient><clipPath id="b"><rect width="63.336" height="60.497" fill="#8477fc"/></clipPath></defs><g transform="translate(-792.051 -1355.8)"><g transform="translate(792.493 1355.8)"><path d="M59.5,0A59.5,59.5,0,1,1,0,59.5,59.5,59.5,0,0,1,59.5,0Z" transform="translate(-0.442)" fill="url(#a)"/><circle cx="49.5" cy="49.5" r="49.5" transform="translate(9.558 10)" fill="#fff"/></g><g transform="translate(819.883 1385.051)"><g clip-path="url(#b)"><path d="M13.7,0h33.82a3.151,3.151,0,0,1,2.467,2.656c.363,3.619-.274,7.806.008,11.486a.9.9,0,0,1-.87.8c-.571.03-.845-.275-.98-.809l0-11.23c.058-.416-.582-1.047-.929-1.047H36.782V18.826a2.451,2.451,0,0,1-.695.787c-1.383.707-2.126-1.052-2.939-.973-.684.066-1.21,1.329-2.727,1.242-1.117-.064-2.028-1.328-2.581-1.246-.749.112-1.094,1.442-2.541,1.057a1.6,1.6,0,0,1-.984-1.237V1.852c-1.479,0-2.964.006-4.444,0a48.752,48.752,0,0,0-5.728.011c-.346.049-1.06.436-1.06.791V19.505c2.372-.9,3.712-4.059,6.542-1.852a3.526,3.526,0,0,1,0,4.691c-.253.3-1.474,1.207-1.482,1.542a6.427,6.427,0,0,0,1.482.063c3.048.053,6.9-.317,9.813,0a3.1,3.1,0,0,1,2.53,4.32,3.1,3.1,0,1,1,.123,6.174,6.311,6.311,0,0,1,0,2.468H47.459c.1,0,.793-.792.682-1.047L48.135,18.33a.928.928,0,0,1,1.857,0l0,17.9c.027.859-1.352,2.53-2.16,2.53H29.253a3.147,3.147,0,0,1-1.817,4.17,21.6,21.6,0,0,1-5.886.263c-.613-.086-.954-.349-.937-.976.013-.48.191-.779.687-.856,1.458-.229,4.362.358,5.573-.228,1.285-.622.826-2.208-.643-2.372-2.571-.288-5.62.237-8.244-.026-1.108-.658-.705-1.71.586-1.83,3.442-.32,7.367.254,10.86,0a1.252,1.252,0,0,0-.364-2.463l-11.082-.027a.942.942,0,0,1,.029-1.77l14.626-.062a1.251,1.251,0,0,0-.363-2.462c-4.492-.307-9.525.408-13.953.006a.925.925,0,0,1-.215-1.832l11.2-.034a1.241,1.241,0,0,0,0-2.454l-12.648-.065c-3.07-1.736,1.608-3.827,1.952-5.338.191-.835-.346-1.942-1.3-1.547-.7.288-1.9,1.62-2.831,2.106-1.516.79-2.688.981-4.114,2.181-.547.46-1.1,1.267-1.6,1.668a5.8,5.8,0,0,1-2.3.974c-1.135.131-3.382-.226-4.282.038a.47.47,0,0,0-.272.221V39.628c.114.206.278.225.489.252,2.082.268,4.16-.275,6.362.241,1.745.409,2.955,1.123,4.87,1.24,1.127.069,2.816-.19,3.828,0a1.09,1.09,0,0,1,.682.861,1.213,1.213,0,0,1-.828.962,25.045,25.045,0,0,1-4.046.025c-2.207-.152-3.951-1.281-5.942-1.464-1.712-.157-3.892.226-5.509-.045A2.574,2.574,0,0,1,0,40.122V25.554c1.048-2.435,3.883-1.394,5.985-1.606s3.192-2.855,5.187-3.577l.071-17.953A3.385,3.385,0,0,1,13.454,0Zm21.23,1.852H26.352a1.241,1.241,0,0,0-.185.185v15.37c.431-.084.771-.5,1.2-.589,1.689-.347,1.834.643,2.905,1.114.707.311,1.383-.727,2.036-.986a2.553,2.553,0,0,1,2.622.462Z" fill="#8477fc"/><path d="M144.451,0h0Z" transform="translate(-97.054)" fill="#8477fc"/><path d="M206.217,362.965c.415-2.215,3.207-2.9,5.07-3.636a17.1,17.1,0,0,1,9.069-1.544c3.9.251,5.4,1.991,8.536,3.561,1.346.675,2.715.6,2.888,2.543a59.868,59.868,0,0,1,0,8.034,2.157,2.157,0,0,1-2.4,2.022c-3.975-1.085-7.84-3.977-12.11-2.832-3.409.914-5.033,2.927-8.977,1.575-4.582-1.57-9.2-4.391-13.8-6.074-3.767-2.1-2.165-7.241,2.11-6.431Zm10.005.992c0,.162-.011.332,0,.494-.135.489-.45.536-.863.679a33.36,33.36,0,0,1-6.733,1.424c-1.457-.123-1.5-1.2-2.276-1.549-2.933-1.3-7.052-1.721-10.091-2.992-2.378-.268-2.749,1.928-.7,3.041,4.34,2.353,9.722,4,14.209,6.158,3.021.391,5.386-1.773,8.3-2.193,3.974-.572,7.793,1.864,11.474,3.038.127.109.375-.057.375-.137V363.9a14.279,14.279,0,0,0-2.181-1.028c-4.409-2.393-5.005-3.423-10.532-3.231a10.125,10.125,0,0,0-3.857.9,39.812,39.812,0,0,0-4.5,1.8c-1.012.575-1.164,2.028.023,2.381l6.434-1.486a.944.944,0,0,1,.911.734" transform="translate(-168.579 -313.465)" fill="#8477fc"/><path d="M305.811,186.17a33.018,33.018,0,0,1,5.005,0,.983.983,0,0,1-.1,1.942,30.952,30.952,0,0,1-4.9-.022.962.962,0,0,1,0-1.917" transform="translate(-267.21 -163.055)" fill="#8477fc"/><path d="M305.814,220.147a38.036,38.036,0,0,1,5.132,0c.988.222,1.07,1.649.146,1.823a31.736,31.736,0,0,1-4.075,0,5.542,5.542,0,0,1-.949.106.979.979,0,0,1-.255-1.926" transform="translate(-267.339 -192.838)" fill="#8477fc"/><path d="M311.5,254.119a.925.925,0,0,1-.523,1.559,34.495,34.495,0,0,1-5.169,0,.934.934,0,0,1,.123-1.837,33.065,33.065,0,0,1,4.935-.012,1.157,1.157,0,0,1,.634.291" transform="translate(-267.351 -222.353)" fill="#8477fc"/></g></g></g></svg>