<svg xmlns="http://www.w3.org/2000/svg" xmlns:xlink="http://www.w3.org/1999/xlink" width="119" height="119" viewBox="0 0 119 119"><defs><linearGradient id="a" x1="-0.79" y1="0.438" x2="1.168" y2="0.5" gradientUnits="objectBoundingBox"><stop offset="0" stop-color="#8477fc"/><stop offset="1" stop-color="#cdc8fd"/></linearGradient><clipPath id="b"><rect width="71.82" height="71.973" fill="#8477fc"/></clipPath></defs><g transform="translate(-792.051 -1355.8)"><g transform="translate(792.493 1355.8)"><path d="M59.5,0A59.5,59.5,0,1,1,0,59.5,59.5,59.5,0,0,1,59.5,0Z" transform="translate(-0.442)" fill="url(#a)"/><circle cx="49.5" cy="49.5" r="49.5" transform="translate(9.558 10)" fill="#fff"/></g><g transform="translate(815.086 1376.422)"><g clip-path="url(#b)"><path d="M73.591,71.973c-.383-.307-.755-.57-.752-1.119l0-24.708a10.536,10.536,0,0,1,1.926-5.384,9.657,9.657,0,0,1,.1-14.3c.909-.805,4.678-3.342,5.142-1.084.282,1.373-2.248,1.837-3.269,2.658a7.136,7.136,0,0,0-.372,10.848,10.846,10.846,0,0,1,4.417-2.462,12.142,12.142,0,0,1,1.72-.376H88.41c.182-1.2-.141-.944-.82-1.5-4.226-3.46-5.539-7.8-5.2-13.213a11.316,11.316,0,0,1-2.92-12.112c.338-1.033,1.3-3.265,2.585-1.775.734.855-.221,2.095-.459,3a9.687,9.687,0,0,0,.677,7.035l.367-2.549A9.82,9.82,0,0,1,91.786,7.3c1.349-.05,1.921,1.785,2.831,2.7a11.929,11.929,0,0,0,7.193,3.285c1.843.141,4.247-.26,5.977.011.336.052.982.5.982.814v3.368a2.754,2.754,0,0,0,.6-1.119c2.1-5.623-1.689-12-7.34-13.475-3.053-.8-11.765-.7-14.622.645-.816.383-2.712,1.96-3.269,1.984a1.192,1.192,0,0,1-.917-2.053c1.06-1.257,4.147-2.63,5.755-3C91.853-.2,100.1-.161,102.929.646c8.781,2.505,12.9,14.1,5.87,20.687.341,5.409-.972,9.753-5.2,13.213-.68.557-1,.3-.82,1.5h5.913a13.162,13.162,0,0,1,2.507.637c1.06.367,4.793,2.1,3.146,3.56-.994.883-2.071-.425-2.979-.882a8.106,8.106,0,0,0-4.221-.9L102.41,48.924l-1.038.293-4.579-3.44V69.952c0,1.044-2.4,1.044-2.4,0V45.777l-4.229,3.329a1.283,1.283,0,0,1-1.307-.114L83.969,38.436a8.5,8.5,0,0,0-8.729,7.717c-.114,8.416.217,16.907-.168,25.28l-.583.54Zm32.783-46.779c.279-3.02-.208-6.443,0-9.505h-5.015a15.8,15.8,0,0,1-3.6-.895,13.7,13.7,0,0,1-6.315-4.948,7.093,7.093,0,0,0-6.627,6.519c-.293,3.492-.349,9.725,1.267,12.8,4.922,9.361,19.327,6.4,20.286-3.97m-5.989,11.153a13.227,13.227,0,0,1-9.579,0l0,1.54,4.5,3.624.364.082,4.69-3.632ZM88.394,38.458a8.7,8.7,0,0,0-1.409-.017c-.207.029-.257-.083-.223.224l3.369,7.408,3.422-2.68.095-.309a.663.663,0,0,1-.368-.15c-1.007-.884-4.238-3.1-4.756-3.938-.092-.149-.079-.493-.13-.538m16.033-.016-1.63.016-.312.811-4.847,3.8-.095.309,3.517,2.695Z" transform="translate(-60.899 0)" fill="#8477fc"/><path d="M302.355,289.106l-7.008,6.993c.093,2.966,1.289,6.182,1.467,9.1.075,1.225-.509,1.869-1.753,1.452l-8.226-4.346-8.323,4.346c-1.141.4-1.79-.159-1.763-1.308.063-2.678,1.374-6.016,1.491-8.7a1.219,1.219,0,0,0-.014-.542c-2.229-2.452-4.968-4.484-6.982-7.1a1.291,1.291,0,0,1,1.134-1.5l9.171-1.307,4.409-8.764a1.227,1.227,0,0,1,1.852.251l4.639,9.446a1.2,1.2,0,0,1-1.919,1.156l-2.548-4.712V291.5l12.535-3.855c.926-.147,1.318-.084,1.836.712ZM285.589,291.5v-7.934l-2.547,4.713c-.435.432-5.085.641-5.089.9Zm-.749,2.247-7.784-2.246c.561,1.008,3.39,2.985,3.676,3.883.339,1.064-.788,3.829-.681,5.1Zm11.676-2.246-7.784,2.246,4.642,6.733c.267.035.146-.337.129-.5-.107-1.054-.921-3.79-.664-4.593.288-.9,3.114-2.873,3.676-3.883m-4.79,10.625-4.88-6.729L282,302.052c1.2-.233,3.679-2.245,4.726-2.314.839-.056,4.8,2.574,5.005,2.389" transform="translate(-230.534 -235.545)" fill="#8477fc"/><path d="M136.185,364.223h-.9c-.382-.306-.755-.569-.752-1.119.4-5.785-.524-12.272,0-17.973a1.208,1.208,0,1,1,2.409,0c.518,5.7-.4,12.186,0,17.973,0,.55-.369.813-.752,1.119" transform="translate(-114.212 -292.25)" fill="#8477fc"/><path d="M364.828,109.1a1.253,1.253,0,0,1,2.363.032c-.154,1.992.322,4.633.023,6.546a1.145,1.145,0,0,1-.846.95l-12.955,0a3.728,3.728,0,0,1-2.962-3.475c-.313-4.037.236-8.487.019-12.568a3.855,3.855,0,0,1,3.069-3.069c.615-.08,1.549.113,2.052-.01.064-.016.505-.683.925-.9a9.633,9.633,0,0,1,4.131-.231c.794.184,1.352,1.114,1.442,1.136,1.391.34,4.9-.876,5.137,1.117a42.043,42.043,0,0,1-.012,6.282,1.237,1.237,0,0,1-1.976.685,3.558,3.558,0,0,1-.41-.527V99.889h-2.395v3.967c0,.365-.735.819-1.126.834-.841.032-1.814-.973-2.416-1.025-.756-.065-1.923,1.526-3.1.848a1.8,1.8,0,0,1-.54-.657V99.889c-.971-.005-2.143-.232-2.386.982.316,3.869-.452,8.491-.012,12.269.045.39.43,1.119.827,1.119h11.152c.216-1.471-.29-3.806,0-5.164m-4.79-10.4h-2.4v2.844a1.855,1.855,0,0,1,2.4,0Z" transform="translate(-297.798 -81.806)" fill="#8477fc"/><path d="M5.881,125.06a1.509,1.509,0,0,1,.7.643,10.011,10.011,0,0,1,1.024,3.025c-.1,1.048-2.467,2.542-2.391,2.973l4.161,4.231c.683,1.42-.563,2.445-1.852,1.553L2.28,132.1c-.558-1.533,2.264-2.746,2.708-3.748.074-.166-.279-.623-.247-.883C3.583,127.206.336,128.1,0,126.6l.035-10.38c.408-1.3,3.527-.545,4.632-.731a4.9,4.9,0,0,0,.348-.836c-.038-.581-3.625-2.661-2.688-3.926l6.919-7c1.435-1.688,3.527,2.35,4.266,2.423a4.411,4.411,0,0,0,.806-.27c.2-.309-.376-3.194,1.779-2.261.843.365.82,2.9.523,3.591-.229.538-2.945,1.6-3.556,1.547-.989-.086-2.565-2.468-2.972-2.4l-4.745,4.7c-.146.129-.165.2-.075.378.412.8,2.262,1.68,2.338,2.773a11.636,11.636,0,0,1-1.025,3.023c-.11.2-.522.642-.705.642H2.363v7.185c1.015.147,2.58-.2,3.518,0" transform="translate(0 -87.816)" fill="#8477fc"/><path d="M232.168,32.8c1.067-.233,2.149,1.318,3.106,1.921a11.859,11.859,0,0,0,4.663,1.624c.756.121,1.882-.227,2.122.876.6,2.765-4.835,1.087-6.105.562-1.011-.417-4.137-2.3-4.529-3.254a1.223,1.223,0,0,1,.743-1.729" transform="translate(-196.614 -27.858)" fill="#8477fc"/><path d="M383.812,176.145a25.74,25.74,0,0,1,4.277,0,1.213,1.213,0,0,1-.126,2.354,25.066,25.066,0,0,1-4.151-.023,1.219,1.219,0,0,1,0-2.331" transform="translate(-325.506 -149.647)" fill="#8477fc"/><path d="M181.88,124.7c-1.035,1.034-2.079-.673-3.3-.65-1.2.023-2.169,1.678-3.2.65-1.644-1.638,2.109-3.159,3.452-3.09,1.245.064,4.58,1.562,3.051,3.09" transform="translate(-148.723 -103.369)" fill="#8477fc"/><path d="M245.747,124.7c-1.035,1.034-2.079-.673-3.3-.65-1.2.023-2.169,1.678-3.2.65-1.644-1.638,2.108-3.159,3.452-3.09,1.245.064,4.58,1.562,3.051,3.09" transform="translate(-203.009 -103.369)" fill="#8477fc"/></g></g></g></svg>