<svg xmlns="http://www.w3.org/2000/svg" xmlns:xlink="http://www.w3.org/1999/xlink" width="925" height="169.765" viewBox="0 0 925 169.765"><defs><clipPath id="a"><rect width="925" height="169.765" rx="26" transform="translate(925 169.765) rotate(180)" fill="#e6e3fe"/></clipPath></defs><g clip-path="url(#a)"><rect width="1231.135" height="259.757" rx="26" transform="translate(947.561 193.595) rotate(180)" fill="#f1e2ff"/><path d="M38.963,0h0C17.445,0,0,15.749,0,35.177V172.211H77.926V35.177C77.926,15.749,60.481,0,38.963,0" transform="translate(907.043 120.765) rotate(180)" fill="#e2c6fe"/><path d="M78.351,0h0C35.08,0,0,35.247,0,78.729V385.42H156.7V78.729C156.7,35.247,121.622,0,78.351,0" transform="translate(236.89 6.531) rotate(90)" fill="#f7f0fe"/><path d="M77.2,36.539C77.2,16.36,59.922,0,38.6,0S0,16.36,0,36.539,17.283,73.079,38.6,73.079,77.2,56.72,77.2,36.539" transform="translate(906.322 208.311) rotate(180)" fill="#b671fc"/></g></svg>