<svg xmlns="http://www.w3.org/2000/svg" xmlns:xlink="http://www.w3.org/1999/xlink" width="1030" height="393.23" viewBox="0 0 1030 393.23"><defs><clipPath id="a"><path d="M14.826,0H1015.174A14.781,14.781,0,0,1,1030,14.736V378.494a14.781,14.781,0,0,1-14.826,14.736H14.826A14.781,14.781,0,0,1,0,378.494V14.736A14.781,14.781,0,0,1,14.826,0Z" fill="#fef9ed"/></clipPath><clipPath id="b"><rect width="636.458" height="535.894" fill="none"/></clipPath></defs><g clip-path="url(#a)"><path d="M14.826,0H1015.174A14.781,14.781,0,0,1,1030,14.736V378.494a14.781,14.781,0,0,1-14.826,14.736H14.826A14.781,14.781,0,0,1,0,378.494V14.736A14.781,14.781,0,0,1,14.826,0Z" fill="#f6fbec"/><g transform="translate(404.466 -73.753)"><g clip-path="url(#b)"><path d="M189.851,50.63C85,50.63,0,138.944,0,247.887S85,445.142,189.851,445.142" transform="translate(0 23.284)" fill="#eff8dc"/><rect width="129.839" height="396.572" transform="translate(506.603 72.883)" fill="#8477fc"/><path d="M0,0H129.839V158.462H0Z" transform="translate(376.764 72.883)" fill="#a4ceff"/><rect width="129.839" height="159.491" transform="translate(377.341 309.965)" fill="#789739"/><path d="M409.844,105.182h0c-35.853,0-64.92,28.89-64.92,64.528V421.084H474.764V169.71c0-35.639-29.066-64.528-64.919-64.528" transform="translate(161.678 48.372)" fill="#b671fc"/><path d="M386.372,67.467C386.372,30.207,357.3,0,321.436,0S256.5,30.207,256.5,67.467s29.072,67.467,64.934,67.467,64.936-30.207,64.936-67.467" transform="translate(120.264 -32.575)" fill="#f8f5f4"/><path d="M386.372,160.786c0-37.261-29.072-67.467-64.936-67.467S256.5,123.526,256.5,160.786s29.072,67.467,64.934,67.467,64.936-30.205,64.936-67.467" transform="translate(120.232 344.625)" fill="#ff966d"/><path d="M317.113,50.63c-104.851,0-189.851,88.314-189.851,197.257s85,197.255,189.851,197.255" transform="translate(59.652 23.284)" fill="#acda53"/></g></g><path d="M296.905,0C460.882,0,593.811,132.128,593.811,295.117S460.882,590.233,296.905,590.233,0,458.105,0,295.117,132.929,0,296.905,0Z" transform="translate(-178.039 -414.559)" fill="#acda53" opacity="0.11"/><path d="M296.905,0C460.882,0,593.811,132.128,593.811,295.117S460.882,590.233,296.905,590.233,0,458.105,0,295.117,132.929,0,296.905,0Z" transform="translate(-221.606 295.117)" fill="#acda53" opacity="0.11"/><path d="M121.6,0c67.156,0,121.6,54.113,121.6,120.865S188.754,241.73,121.6,241.73,0,187.617,0,120.865,54.441,0,121.6,0Z" transform="translate(919.327 -29.602)" fill="#e8e8e8" opacity="0.38" style="mix-blend-mode:luminosity;isolation:isolate"/><path d="M474.785,342.118c0-37.261-29.072-67.467-64.936-67.467s-64.934,30.207-64.934,67.467,29.072,67.467,64.934,67.467,64.936-30.205,64.936-67.467" transform="translate(-307.8 85.13)" fill="#acda53" opacity="0.27"/><path d="M474.785,342.118c0-37.261-29.072-67.467-64.936-67.467s-64.934,30.207-64.934,67.467,29.072,67.467,64.934,67.467,64.936-30.205,64.936-67.467" transform="translate(-177.931 85.13)" fill="#acda53" opacity="0.29"/><path d="M474.785,342.118c0-37.261-29.072-67.467-64.936-67.467s-64.934,30.207-64.934,67.467,29.072,67.467,64.934,67.467,64.936-30.205,64.936-67.467" transform="translate(-48.061 85.13)" fill="#acda53" opacity="0.12"/></g></svg>