<svg xmlns="http://www.w3.org/2000/svg" xmlns:xlink="http://www.w3.org/1999/xlink" width="119" height="119" viewBox="0 0 119 119"><defs><linearGradient id="a" x1="-0.79" y1="0.438" x2="1.168" y2="0.5" gradientUnits="objectBoundingBox"><stop offset="0" stop-color="#8477fc"/><stop offset="1" stop-color="#cdc8fd"/></linearGradient><clipPath id="b"><rect width="74.912" height="63.919" fill="#8477fc"/></clipPath></defs><g transform="translate(0.442)"><path d="M59.5,0A59.5,59.5,0,1,1,0,59.5,59.5,59.5,0,0,1,59.5,0Z" transform="translate(-0.442)" fill="url(#a)"/><circle cx="49.5" cy="49.5" r="49.5" transform="translate(9.558 10)" fill="#fff"/><g transform="translate(21.696 31.348)"><g clip-path="url(#b)"><path d="M0,6.444A7.6,7.6,0,0,1,7.091.149c6.471-.477,13.52.368,20.052.005,2.241.191,1.989,3.01-.166,3.053L6.511,3.226a4.483,4.483,0,0,0-3.59,4.163l.007,33.2A4.466,4.466,0,0,0,6.8,44.62l35.78-.007C44.166,33.962,56.65,27.875,66.136,33.061V6.956c0-1.425-1.97-3.6-3.476-3.691l-21.908-.04c-2.2-.06-2.531-2.676-.3-3.073L62.24.174A7.43,7.43,0,0,1,69.069,7.1l0,27.791c.059.3,1.2,1.158,1.536,1.536a16.45,16.45,0,0,1-11.049,27.5H57.5c-.748-.219-1.548-.225-2.317-.39a16.272,16.272,0,0,1-12.9-15.844l-34.319.008c-.6-.148-1.314-.074-1.88-.168A7.632,7.632,0,0,1,0,41.4Zm56.741,27.83c-5.92.6-11.057,6.14-11.527,12.025A13.454,13.454,0,0,0,65.155,59.209c12.542-7.02,6.671-26.475-8.414-24.936" transform="translate(0 0)" fill="#8477fc"/><path d="M52.838,69.048A13.773,13.773,0,1,1,42.714,91.219,13.814,13.814,0,0,1,52.838,69.048m9.689,19.7a10.658,10.658,0,0,0-3.232-15.125,10.891,10.891,0,0,0-14.739,3.234A10.781,10.781,0,0,0,44.6,88.747a7.221,7.221,0,0,1,4.462-4.1,11.627,11.627,0,0,1-.663-1.6c-2.439-9.8,11.137-11.193,10.62-1.533a9.093,9.093,0,0,1-.222,1.533,11.645,11.645,0,0,1-.663,1.6,6.835,6.835,0,0,1,4.391,4.1M52.975,77.96c-1.881.35-1.939,2.769-1.707,4.271.374,2.422,4.367,2.446,4.676-.134.263-2.189-.164-4.659-2.969-4.137m-1.6,9.074a5.032,5.032,0,0,0-4.09,2.932c-.626,1.6.19,1.9,1.579,2.567a11.023,11.023,0,0,0,9.268.086c1.849-.838,2.71-1.312,1.444-3.335-1.614-2.579-5.48-2.575-8.2-2.25" transform="translate(-33.993 -58.905)" fill="#8477fc"/><path d="M274.238,94.266a1.8,1.8,0,0,1-.5.3l-24.8,0a1.562,1.562,0,0,1-.974-1.366,38.781,38.781,0,0,1,.021-6.1,1.7,1.7,0,0,1,1.5-1.28l23.966.037c.931.256,1.186.9,1.275,1.8a27.7,27.7,0,0,1-.193,6.1,1.524,1.524,0,0,1-.3.505m-2.583-5.507H251.024v2.925h20.631Z" transform="translate(-211.518 -73.248)" fill="#8477fc"/><path d="M274.774,175.205a2.579,2.579,0,0,1-1.481.494c-7.381-.482-15.547.624-22.836,0-2.408-.206-2.685-2.491-.437-3.08h23.71a1.543,1.543,0,0,1,1.044,2.585" transform="translate(-212.054 -147.313)" fill="#8477fc"/><path d="M250.1,219.147a29.354,29.354,0,0,1,5.316.028,1.515,1.515,0,0,1-.393,2.991,22.411,22.411,0,0,1-5.358-.168,1.474,1.474,0,0,1,.435-2.851" transform="translate(-212.245 -186.928)" fill="#8477fc"/><path d="M222.055,1.1c1.858-.306,2.169,2.467.811,2.869a1.5,1.5,0,1,1-.811-2.869" transform="translate(-188.437 -0.915)" fill="#8477fc"/><path d="M342.681,252.82c2.82-.054,2.726,3.5,3.705,5.285,1.911.383,5.456-.852,6.084,1.815s-2.437,3.383-3.868,4.94c.172,1.875,2.169,4.37.5,6.044-2.162,2.167-4.43-.894-6.3-1.858-1.9.911-3.679,3.738-5.975,2.121-2.174-1.531-.108-4.344.176-6.31-1.532-1.629-4.614-2.214-3.863-5.077.64-2.44,4.3-1.324,6.083-1.671.847-1.764.858-5.239,3.456-5.289m5.756,8.281H345c-1.219,0-1.853-3.15-2.123-4.095-.228.022-.222.222-.281.375-.346.883-.789,3.72-1.985,3.72h-3.585l2.411,1.758c1.8,1.2.056,3.35-.216,4.968a29.61,29.61,0,0,0,2.736-1.87c.864-.461.954-.413,1.787.056.9.5,1.664,1.318,2.572,1.817-.08-1.021-1.209-2.875-1.04-3.808.219-1.205,2.464-1.943,3.163-2.92" transform="translate(-284.204 -215.756)" fill="#8477fc"/></g></g></g></svg>