<svg xmlns="http://www.w3.org/2000/svg" xmlns:xlink="http://www.w3.org/1999/xlink" width="190" height="167" viewBox="0 0 190 167"><defs><clipPath id="a"><rect width="113.01" height="113.888" fill="none"/></clipPath><clipPath id="c"><rect width="109.889" height="110.767" fill="none"/></clipPath><clipPath id="d"><rect width="14.75" height="26.436" fill="none"/></clipPath><clipPath id="e"><rect width="2.313" height="3.513" fill="none"/></clipPath><clipPath id="f"><rect width="4.299" height="11.461" fill="none"/></clipPath><clipPath id="g"><rect width="12.503" height="2.152" fill="none"/></clipPath></defs><g transform="translate(9439.721 11824.128)"><rect width="89.816" height="190" transform="translate(-9249.722 -11824.128) rotate(90)" fill="#ecf5ff"/><rect width="89.816" height="190" transform="translate(-9249.722 -11746.944) rotate(90)" fill="#ecf5ff"/><path d="M95,0C42.533,0,0,37.093,0,82.851S42.533,165.7,95,165.7" transform="translate(-9344.722 -11658.426) rotate(180)" fill="#daebff"/><path d="M95,0C42.533,0,0,37.093,0,82.851S42.533,165.7,95,165.7" transform="translate(-9249.722 -11657.128) rotate(180)" fill="#daebff"/><g transform="translate(-9401.227 -11798.22)" clip-path="url(#a)"><g clip-path="url(#a)"><g transform="translate(3.121 3.121)" opacity="0.2"><g clip-path="url(#c)"><path d="M26.1,125.028c4.618.925,11.167.8,16.268.54,5.4-.227,16.108-1.007,19.913-1.395a44.106,44.106,0,0,0,15.481,3.27c8.033-.005,14.495-3.591,19.744-9.913,13.139-15.946,12.047-40.4,3.891-59.667q1.366-.9,2.729-1.813a26.976,26.976,0,0,0,7.66,1.715,11.938,11.938,0,0,0,5.141-1.43,55.023,55.023,0,0,0,5.477-2.429c5.848-3.215,5.316-10.219-.192-12.911.669-2.326-1.1-6.358-4.062-8.166.924-3.581-.728-8.284-5.556-8.307-2.5.043-4.421,1.24-6.1,2.113a32.689,32.689,0,0,0-9.065,6.38c-2.675,2.773-2.876,6.556-2.927,9.468l-.764.491C72.535,7.361,19.64,3.719,20.295,58.348a65.312,65.312,0,0,0,2.192,17.885c-1.333,5.586-4.063,18.786-4.725,23.743-.76,5.147-1.621,10.982-.656,16.583,1.212,7.037,7.066,8.114,8.99,8.469" transform="translate(-16.677 -16.677)" fill="#603226"/></g></g><path d="M105.53,24.32c.669-2.327-1.1-6.358-4.062-8.166.924-3.581-.728-8.284-5.556-8.307-2.5.044-4.421,1.24-6.1,2.113a32.693,32.693,0,0,0-9.065,6.38c-2.675,2.773-2.876,6.556-2.927,9.468l-.764.491C55.858-9.316,2.963-12.957,3.617,41.671A65.312,65.312,0,0,0,5.809,59.556C4.476,65.142,1.746,78.342,1.084,83.3.324,88.447-.536,94.281.428,99.882c1.212,7.037,7.066,8.115,8.99,8.469,4.618.925,11.167.8,16.268.54,5.4-.227,16.108-1.007,19.913-1.394a44.107,44.107,0,0,0,15.481,3.27c8.033-.005,14.495-3.591,19.744-9.913,13.139-15.946,12.047-40.4,3.891-59.668q1.366-.9,2.729-1.813a26.97,26.97,0,0,0,7.66,1.715,11.936,11.936,0,0,0,5.141-1.43,55.023,55.023,0,0,0,5.477-2.429c5.848-3.214,5.316-10.219-.192-12.91" transform="translate(0 0)" fill="#fffeee"/><path d="M160.4,170.926c-13.466-.545-24.829-11.7-30.737-23.875a43.151,43.151,0,0,1-2.638-32.742c2.514-6.986,8.164-12.256,16.2-12.043,10.967,0,20.911,9.2,25.9,18.325a.344.344,0,0,1-.1.447c-1.864,1.322-3.72,2.67-5.518,4.005a.347.347,0,0,1-.486-.076c-3.488-4.872-8.352-7.781-13.012-7.781-8.685-.366-10.364,9.691-10.325,13.757a25.4,25.4,0,0,0,7.29,17.546c3.607,3.887,11.759,8.571,16.928,4.06,6.907-5.841,4.006-16.984,2.952-20.261a.344.344,0,0,1,.116-.454c1.514-.968,3.027-1.947,4.535-2.923l1.539-1a.345.345,0,0,1,.3-.037c7.09,15.772,4.794,41.934-12.94,43.049" transform="translate(-101.573 -83.122)" fill="#faf8f5"/><path d="M160.4,244.213c13.494-.848,18.048-16.2,16.332-30.437A38.379,38.379,0,0,1,173,228.614c-2.135,4.322-5.461,8.172-10.216,9.572-5.932,1.746-12.638-.818-17.54-4.11-8.942-6-14.42-16.382-17.347-26.5a51.028,51.028,0,0,1-2.136-15.154,43.364,43.364,0,0,0,3.9,27.918c5.908,12.18,17.271,23.33,30.737,23.875" transform="translate(-101.574 -156.409)" fill="#e0e0e0"/><g transform="translate(13.57 10.688)" opacity="0.5"><g clip-path="url(#d)"><path d="M74.177,82.392c.665-2.566.911-5.2,1.65-7.762.75-2.594,3.162-10.724,11.152-16.126.584-.395.184-1.34-.575-1.385-6.705-.4-15.253,16.222-13.716,25.274.312,1.839,1.175,1.209,1.488,0" transform="translate(-72.508 -57.111)" fill="#fff"/></g></g><g transform="translate(13.472 38.343)" opacity="0.5"><g clip-path="url(#e)"><path d="M73.214,208.4a1.084,1.084,0,0,0,1.082-1.082,5.124,5.124,0,0,0-.551-2.016.859.859,0,0,0-1.471,0,2.95,2.95,0,0,0-.1,2.3,1.107,1.107,0,0,0,1.044.795" transform="translate(-71.986 -204.884)" fill="#fff"/></g></g><g transform="translate(41.828 39.952)" opacity="0.5"><g clip-path="url(#f)"><path d="M226.845,213.5c-3.876.886-4.15,8.742-2,11.22a.708.708,0,0,0,1.2-.318,59.575,59.575,0,0,1,1.714-9.981.756.756,0,0,0-.921-.921" transform="translate(-223.505 -213.481)" fill="#fff"/></g></g><g transform="translate(12.967 98.729)" opacity="0.5"><g clip-path="url(#g)"><path d="M81.258,529.5a.737.737,0,0,0,.175-1.338c-1.655-.773-9.128-.694-11.06-.424-1.88.262-.935,1.079,0,1.334,1.652.452,9,.9,10.885.428" transform="translate(-69.289 -527.551)" fill="#fff"/></g></g><path d="M122.673,47.012c-.851-1.7-3.617-2.737-5.835-3.432.046-.037.094-.072.14-.11,2.154-1.776,2.175-3.883.257-5.873-.01-.01-.02-.016-.031-.026a3.14,3.14,0,0,0-3.237-1.1c.217-.936.316-1.914.438-2.842.142-1.074.616-2.778-.047-3.767-1.284-1.914-4.47.21-5.917.928a29.143,29.143,0,0,0-7.993,5.6c-2.139,2.218-1.745,6-1.884,8.939-.688.435-1.376.867-2.06,1.307q-1.951,1.253-3.883,2.537C84.08,32.92,67.337,19.2,48.1,21.613,30.244,23.855,24.792,39.885,24.409,59.091A61.723,61.723,0,0,0,26.72,76.819c-.041.082-3.6,15.628-4.74,23.416-.771,5.269-1.73,11.016-.814,16.33.585,3.4,2.589,4.7,5.858,5.3,5.032.927,10.316.694,15.4.48,6.714-.282,19.464-1.28,20.624-1.487a44.947,44.947,0,0,0,8.253,2.59c4.49.938,9.114,1.235,13.49-.378a23.461,23.461,0,0,0,9.922-7.34c11.73-14.321,10.752-35.535,4.614-52.463-.749-2.066-2.539-6.126-2.582-6.186q3.517-2.316,7.016-4.657c1.453.42,2.553.919,3.87,1.254a16.929,16.929,0,0,0,4.634.855,9.846,9.846,0,0,0,3.335-1.1c1.688-.73,3.518-1.358,5.123-2.254,1.445-.807,2.8-2.469,1.949-4.162M107.633,34.946c.282-1.7.592-2.137,1.539-2.645,1.351-.724,2.867-1.344,3.286-.628.39.665-.418,3.163-.532,3.885a17.824,17.824,0,0,0-.249,1.837c-.812.447-1.6.965-2.342,1.393q-1.336.776-2.663,1.567c.312-1.8.662-3.608.961-5.411m-5.962,2.663a15.368,15.368,0,0,1,4.014-3.261,18.5,18.5,0,0,0-.425,6.853q-2.459,1.474-4.893,2.99c.036-2.261,0-4.924,1.3-6.582M31.309,119.8c-2.652-.161-6.827-.015-7.578-3.16-1.127-4.724-.142-10.278.5-15,.937-6.885,2.3-13.714,3.851-20.49a74.283,74.283,0,0,0,18.3,28.477c.233.225.472.443.709.665-.556,1.188-1.144,2.36-1.695,3.552-.2.423.433.795.63.368.526-1.14,1.087-2.262,1.621-3.4.363.332.731.655,1.1.977-.584,1.378-1.185,2.749-1.814,4.108q-.544,1.176-1.1,2.347-.273.58-.544,1.159c-.051.107-.1.214-.15.321a116.036,116.036,0,0,1-13.833.072m20.28-.558c.487-1.035,1.25-2.73,1.75-3.83q.751.533,1.519,1.039-.611,1.273-1.121,2.589-1.074.1-2.148.2m-.066-1.636c-.222.526-.536,1.115-.759,1.708q-.937.081-1.874.155l2.375-5.6q.721.562,1.459,1.1c-.419.871-.825,1.748-1.2,2.639m-3.445,1.926q-1.046.077-2.092.143c.04-.105.08-.206.122-.294.459-.978.92-1.955,1.376-2.935.636-1.375,1.245-2.761,1.839-4.154q.669.568,1.351,1.116-1.3,3.062-2.6,6.124m6.475-.573q.425-1.071.922-2.11c.94.6,1.895,1.178,2.87,1.718q-1.892.2-3.792.392M95.6,109.856c-4.065,7.009-10.759,12.289-19.223,11.646-9.111-.692-17.767-4.976-24.681-10.8A70.325,70.325,0,0,1,34.5,88.7,63.5,63.5,0,0,1,29.5,75.363a55.775,55.775,0,0,1-2.031-9.67c-.556-8.116-.01-16.7,2.576-24.458,2.167-6.5,7.372-13.267,13.345-15.588C51.993,22.3,62.476,24.434,70.13,29.1A55.055,55.055,0,0,1,90.148,50.688c.018.034.04.06.06.091q-2.177,1.471-4.327,2.98c-5.908-10.741-17.046-19.975-29.9-18.708-5.755.567-9.288,3.486-12.75,7.957-3.569,4.608-4.345,11.3-4.6,16.935-.6,13.317,5.247,26.5,14.54,35.913,8.26,8.371,24.208,16.478,33.859,5.75s7.911-27.689,3.058-40.172c.743-.482,1.49-.958,2.232-1.441.847-.551,1.687-1.112,2.531-1.666a1.028,1.028,0,0,0,.035.109c6.7,15.739,9.709,35.918.719,51.419M66,70.729c.375,2.567,3.86,2.558,5.74,2.03,2.043-.575,3.8-1.978,5.566-3.1q1.8-1.149,3.6-2.3c1.69,5.875,2.608,15.889-4.057,19.077-3.567,1.705-8.344-.656-11.138-2.877a24.785,24.785,0,0,1-6.849-8.932c-2.5-5.333-3.566-13.709.5-18.536,5.335-6.334,13.668-1.259,17.583,4.167q-2.119,1.6-4.215,3.226c-.017.013-.035.021-.052.035a48.928,48.928,0,0,0-5.514,4.562A3.235,3.235,0,0,0,66,70.729M62.435,51.412c-5.924,1.442-7.669,8.5-7.773,13.744a25.621,25.621,0,0,0,7.386,17.792c4.108,4.276,12.009,8.643,17.4,4.085C85.3,82.084,84.612,72.95,82.505,66.4c-.007-.021-.017-.038-.025-.059l.472-.3q2.807-1.8,5.6-3.617c3.988,10.721,5.625,24.081-.379,34.335-2.949,5.035-7.769,8.6-13.842,7.969A31.6,31.6,0,0,1,57.118,96.78,49.81,49.81,0,0,1,45.295,81.12a43.452,43.452,0,0,1-4.516-15.507,44.172,44.172,0,0,1,1.894-16.97c1.468-4.237,5.183-9.2,9.557-10.73,13.119-4.592,26.01,6.27,31.918,17.065q-2.784,1.975-5.524,4.01c-3.663-5.117-9.661-9.164-16.189-7.575M93.556,56.6q-6.494,4.251-13.036,8.426c-2.663,1.707-5.331,3.809-8.181,5.18-1.853.891-6.045.914-2.812-1.769C70.933,67.272,72.442,66.2,73.9,65.1c.014-.01.023-.022.037-.033C80.4,60.158,87,55.437,93.783,50.97q4.937-3.254,9.986-6.332c1.308-.8,7.948-5.459,10.688-5.923,1.552-.262,2.089,1.724,1.9,2.213-.251.648-1.11,1.108-1.842,1.606l-3.4,2.319q-3.17,2.156-6.348,4.3Q99.183,52.914,93.556,56.6m15.985-4.576c-1.258-.245-2.573-.65-3.883-.872.952-.639,1.907-1.273,2.858-1.915.464-.314.938-.623,1.414-.931a39,39,0,0,0,4.358,1.611c.707.236,1.432.529,2.168.769-2.439,1.062-4.161,1.874-6.915,1.338M120.5,48.8q-.576.345-1.181.637c-.173.085-.349.165-.524.246a16.6,16.6,0,0,0-3.4-1.235c-1.283-.4-2.564-.843-3.871-1.165,1.083-.692,2.167-1.393,3.215-2.127.972.4,1.951.78,2.919,1.191a17.432,17.432,0,0,1,2.144.839c.879.52,1.4.63.7,1.615" transform="translate(-16.9 -17.343)" fill="#603226"/><path d="M205.749,45.875A31.3,31.3,0,0,1,219.243,51c.392.262.758-.371.369-.63a31.491,31.491,0,0,0-13.8-4.995c-.465-.056-.523.442-.062.5" transform="translate(-166.986 -36.882)" fill="#603226"/><path d="M284.149,75.924c.083-.133-.1-.446-.277-.616-.34-.323-.857.192-.516.516.238.226.682.276.793.1" transform="translate(-230.236 -61.131)" fill="#603226"/><path d="M244.145,521.189c-4.606-1.149-9.147-2.348-13.229-4.824-.54-.327-.789.218-.264.557a34.911,34.911,0,0,0,13.217,5.268c.644.1.938-.836.276-1" transform="translate(-187.251 -419.647)" fill="#603226"/><path d="M309.388,543.546a.577.577,0,0,0,0,1.154c.327,0,.8-.137.836-.387.05-.319-.419-.767-.836-.767" transform="translate(-251.034 -441.823)" fill="#603226"/><path d="M149.021,521.42a.365.365,0,0,0-.631-.369c-.25.439-.239.967-.077,1.052s.473-.272.708-.684" transform="translate(-120.462 -423.394)" fill="#603226"/></g></g></g></svg>