<svg xmlns="http://www.w3.org/2000/svg" xmlns:xlink="http://www.w3.org/1999/xlink" width="119" height="119" viewBox="0 0 119 119"><defs><linearGradient id="a" x1="-0.79" y1="0.438" x2="1.168" y2="0.5" gradientUnits="objectBoundingBox"><stop offset="0" stop-color="#8477fc"/><stop offset="1" stop-color="#cdc8fd"/></linearGradient><clipPath id="b"><rect width="74.205" height="63.618" fill="#8477fc"/></clipPath></defs><g transform="translate(-792.051 -1355.8)"><g transform="translate(792.493 1355.8)"><path d="M59.5,0A59.5,59.5,0,1,1,0,59.5,59.5,59.5,0,0,1,59.5,0Z" transform="translate(-0.442)" fill="url(#a)"/><circle cx="49.5" cy="49.5" r="49.5" transform="translate(9.558 10)" fill="#fff"/></g><g transform="translate(815.345 1381.776)"><g clip-path="url(#b)"><path d="M336.121,64.82c-2.461-4.369-7.362-6.6-12.22-7.053-1.862-.176-3.64-.02-5.5-.022a.916.916,0,0,1,.084-1.714c6.834-.9,14.844,1.025,18.764,7.1.354.55,1.041,1.57.869,2.2-.226.836-2.242,1.63-2.917,2.195l11.2,7.311.971-13.8c-.123-.1-2.248,1.7-2.59,1.857-1.36.625-1.808-1.029-2.44-1.89a21.11,21.11,0,0,0-5.471-5.163c-.73-.489-2.449-.969-1.859-2.1.513-.986,1.713-.122,2.37.262a22.052,22.052,0,0,1,7.074,6.826c.207.018,2.554-2.05,3.029-2.285a1.182,1.182,0,0,1,1.81,1.011l-1.111,16.662a1.188,1.188,0,0,1-1.767.86L333,68.3a1.227,1.227,0,0,1,.052-1.59Z" transform="translate(-285.346 -47.836)" fill="#8477fc"/><path d="M106.7,338.562l-3.031,1.925a14.544,14.544,0,0,0,9.895,6.668,32.283,32.283,0,0,0,7.719.359.928.928,0,0,1-.124,1.775,14.677,14.677,0,0,1-1.792.151c-6.421.3-13.635-1.9-17.073-7.681-.346-.582-.824-1.218-.6-1.918.233-.742,2.258-1.611,2.9-2.112l-11.2-7.311-.97,13.8c.1.121,2.281-1.716,2.589-1.857,1.375-.632,1.995,1.327,2.685,2.258a20.853,20.853,0,0,0,5.1,4.715c.758.511,2.571,1.053,1.983,2.184-.427.822-1.2.384-1.794.082a21.488,21.488,0,0,1-7.655-7.176c-.2-.048-2.65,2.178-3.245,2.375a1.18,1.18,0,0,1-1.618-1.2c.055-2.679.439-5.585.621-8.284.162-2.407.169-4.861.411-7.258.13-1.291.264-2.445,1.931-1.831l13.2,8.585a1.2,1.2,0,0,1,.074,1.749" transform="translate(-81.219 -294.512)" fill="#8477fc"/><path d="M262.419,219.22a11.984,11.984,0,1,1-8.668,19.446,12.018,12.018,0,0,1,8.668-19.446m8.465,18.537a10.167,10.167,0,1,0-17.154-2.648,10.177,10.177,0,0,0,17.154,2.648" transform="translate(-225.469 -196.784)" fill="#8477fc"/><path d="M10.568,126.1c4.6-.377,11.526,2.193,12.365,7.309.393,2.4.648,5.4.846,7.846.149,1.846.278,3.452-1.989,3.838H2.148a2.3,2.3,0,0,1-1.728-.931,3.262,3.262,0,0,1-.364-2.4c.167-2.486.478-5.5.83-7.964.6-4.222,5.681-7.375,9.681-7.7M2.05,143.246H21.786c.418,0,.221-.793.255-1.073-.558-2.748-.361-5.988-.927-8.685-.422-2.01-3.376-4.2-5.209-4.914a11.728,11.728,0,0,0-7.441-.184c-2.179.7-5.336,3.029-5.738,5.408-.391,2.32-.636,5.382-.828,7.762-.026.324-.191,1.582.153,1.687" transform="translate(0 -113.171)" fill="#8477fc"/><path d="M502.242,436.028c4.269-.349,8.859,1.382,11.31,4.989,1.8,2.651,1.138,8.226,1.9,11.393a2.3,2.3,0,0,1-2.091,2.611H493.618a2.341,2.341,0,0,1-2.1-2.3c.432-2.98.524-6.02.925-9,.57-4.245,5.809-7.365,9.795-7.691m8.75,4.839c-5.029-4.874-13.575-3.917-16.661,2.487-.107,2.954-.886,6.144-.968,9.061a.992.992,0,0,0,.154.663l19.89.047c.306-.2.2-.6.2-.918-.517-2.8-.363-6.017-.947-8.766a5.2,5.2,0,0,0-1.672-2.573" transform="translate(-441.263 -391.402)" fill="#8477fc"/><path d="M559.142,309.988c7.652-.861,8.6,10.58,1.391,11.31-7.666.775-8.606-10.5-1.391-11.31m-1.576,8.829a3.924,3.924,0,0,0,6.07-2.392,3.884,3.884,0,0,0-5.889-4.048,3.952,3.952,0,0,0-.181,6.44" transform="translate(-497.551 -278.249)" fill="#8477fc"/><path d="M67.3.042c7.167-.779,8.769,9.5,2.146,11.145C61.512,13.151,59.566.883,67.3.042m3.461,2.869C67.288-.617,61.671,4.7,65.171,8.35c3.615,3.773,9.2-1.773,5.593-5.439" transform="translate(-56.018 0)" fill="#8477fc"/><path d="M321.232,294.387a.984.984,0,0,1,.19,1L313.7,303.2a.817.817,0,0,1-1.133,0c-1.233-1.361-2.723-2.516-3.948-3.875-.853-.946-.58-1.965.756-1.727l3.551,3.509.188.081c2.441-2.148,4.6-4.607,6.972-6.837a.868.868,0,0,1,1.144.033" transform="translate(-276.625 -264.075)" fill="#8477fc"/></g></g></g></svg>