<svg xmlns="http://www.w3.org/2000/svg" xmlns:xlink="http://www.w3.org/1999/xlink" width="295" height="160.432" viewBox="0 0 295 160.432"><defs><clipPath id="a"><rect width="295" height="127.14" fill="none"/></clipPath><clipPath id="c"><rect width="32.817" height="32.817" fill="none"/></clipPath><clipPath id="d"><rect width="89.313" height="49.507" fill="none"/></clipPath><clipPath id="f"><rect width="55.385" height="28.917" fill="none"/></clipPath><clipPath id="g"><rect width="7.281" height="7.321" fill="none"/></clipPath><clipPath id="h"><rect width="57.391" height="24.927" fill="none"/></clipPath><clipPath id="i"><rect width="71.011" height="42.186" fill="none"/></clipPath><clipPath id="j"><rect width="59.106" height="43.851" fill="none"/></clipPath><clipPath id="k"><path d="M.5,22.2A21.7,21.7,0,1,0,22.2.5,21.7,21.7,0,0,0,.5,22.2" transform="translate(-0.5 -0.5)" fill="#ff966d"/></clipPath><linearGradient id="m" x1="-0.005" y1="1.005" x2="0.005" y2="1.005" gradientUnits="objectBoundingBox"><stop offset="0" stop-color="#ffa975"/><stop offset="1" stop-color="#d43420"/></linearGradient><clipPath id="n"><path d="M13.266,29.225a15.959,15.959,0,1,0,15.959-15.96,15.959,15.959,0,0,0-15.959,15.96" transform="translate(-13.266 -13.265)" fill="none"/></clipPath><radialGradient id="o" cx="0.209" cy="0.256" r="0.5" gradientTransform="matrix(1, 0, 0, -1, 0, 2.374)" gradientUnits="objectBoundingBox"><stop offset="0" stop-color="#fff"/><stop offset="1" stop-color="#d4d4d4"/></radialGradient><clipPath id="p"><path d="M26.032,36.249A10.218,10.218,0,1,0,36.25,26.031,10.217,10.217,0,0,0,26.032,36.249" transform="translate(-26.032 -26.031)" fill="none"/></clipPath><clipPath id="q"><path d="M38.8,43.274A4.476,4.476,0,1,0,43.274,38.8,4.476,4.476,0,0,0,38.8,43.274" transform="translate(-38.798 -38.798)" fill="none"/></clipPath><radialGradient id="r" cx="0.317" cy="0.334" r="0.5" gradientTransform="matrix(1, 0, 0, -1, 0, 5.898)" xlink:href="#o"/><clipPath id="t"><path d="M99.094,7.95l-.754,3.03,3,.855,7.465-3.894-3.222-1.146.554-3.679Z" transform="translate(-98.34 -3.116)" fill="#12263f"/></clipPath></defs><g transform="translate(-180 -973.764)"><g transform="translate(397.785 973.764)"><path d="M53.672,8.195c-2.447,0-3.655-1.973-4.625-3.558-.983-1.6-1.649-2.588-2.9-2.588s-1.918.983-2.9,2.588c-.97,1.586-2.178,3.558-4.624,3.558S34.968,6.222,34,4.636c-.982-1.6-1.648-2.588-2.9-2.588s-1.916.983-2.9,2.588c-.97,1.586-2.178,3.558-4.624,3.558s-3.654-1.973-4.623-3.558c-.982-1.6-1.646-2.588-2.9-2.588s-1.915.983-2.9,2.588c-.97,1.586-2.177,3.558-4.623,3.558S4.883,6.222,3.912,4.636c-.982-1.6-1.646-2.588-2.9-2.588A1.024,1.024,0,0,1,1.015,0C3.46,0,4.668,1.974,5.638,3.56c.981,1.6,1.646,2.587,2.9,2.587s1.915-.983,2.9-2.587C12.4,1.974,13.611,0,16.056,0s3.653,1.974,4.622,3.558c.982,1.6,1.646,2.588,2.9,2.588s1.916-.983,2.9-2.588C27.444,1.974,28.652,0,31.1,0s3.654,1.974,4.625,3.558c.981,1.6,1.646,2.588,2.9,2.588s1.916-.983,2.9-2.588C42.49,1.974,43.7,0,46.145,0S49.8,1.974,50.772,3.558c.983,1.6,1.649,2.588,2.9,2.588s1.919-.983,2.9-2.588C57.544,1.974,58.754,0,61.2,0a1.019,1.019,0,0,1,1.014,1.024A1.018,1.018,0,0,1,61.2,2.048c-1.253,0-1.919.983-2.9,2.588C57.329,6.222,56.121,8.195,53.672,8.195Z" transform="translate(62.215 36.74) rotate(180)" fill="#e6e3fe"/><path d="M53.672,8.195c-2.447,0-3.655-1.973-4.625-3.558-.983-1.6-1.649-2.588-2.9-2.588s-1.918.983-2.9,2.588c-.97,1.586-2.178,3.558-4.624,3.558S34.968,6.222,34,4.636c-.982-1.6-1.648-2.588-2.9-2.588s-1.916.983-2.9,2.588c-.97,1.586-2.178,3.558-4.624,3.558s-3.654-1.973-4.623-3.558c-.982-1.6-1.646-2.588-2.9-2.588s-1.915.983-2.9,2.588c-.97,1.586-2.177,3.558-4.623,3.558S4.883,6.222,3.912,4.636c-.982-1.6-1.646-2.588-2.9-2.588A1.024,1.024,0,0,1,1.015,0C3.46,0,4.668,1.974,5.638,3.56c.981,1.6,1.646,2.587,2.9,2.587s1.915-.983,2.9-2.587C12.4,1.974,13.611,0,16.056,0s3.653,1.974,4.622,3.558c.982,1.6,1.646,2.588,2.9,2.588s1.916-.983,2.9-2.588C27.444,1.974,28.652,0,31.1,0s3.654,1.974,4.625,3.558c.981,1.6,1.646,2.588,2.9,2.588s1.916-.983,2.9-2.588C42.49,1.974,43.7,0,46.145,0S49.8,1.974,50.772,3.558c.983,1.6,1.649,2.588,2.9,2.588s1.919-.983,2.9-2.588C57.544,1.974,58.754,0,61.2,0a1.019,1.019,0,0,1,1.014,1.024A1.018,1.018,0,0,1,61.2,2.048c-1.253,0-1.919.983-2.9,2.588C57.329,6.222,56.121,8.195,53.672,8.195Z" transform="translate(62.215 17.71) rotate(180)" fill="#e6e3fe"/><path d="M53.672,8.195c-2.447,0-3.655-1.973-4.625-3.558-.983-1.6-1.649-2.588-2.9-2.588s-1.918.983-2.9,2.588c-.97,1.586-2.178,3.558-4.624,3.558S34.968,6.222,34,4.636c-.982-1.6-1.648-2.588-2.9-2.588s-1.916.983-2.9,2.588c-.97,1.586-2.178,3.558-4.624,3.558s-3.654-1.973-4.623-3.558c-.982-1.6-1.646-2.588-2.9-2.588s-1.915.983-2.9,2.588c-.97,1.586-2.177,3.558-4.623,3.558S4.883,6.222,3.912,4.636c-.982-1.6-1.646-2.588-2.9-2.588A1.024,1.024,0,0,1,1.015,0C3.46,0,4.668,1.974,5.638,3.56c.981,1.6,1.646,2.587,2.9,2.587s1.915-.983,2.9-2.587C12.4,1.974,13.611,0,16.056,0s3.653,1.974,4.622,3.558c.982,1.6,1.646,2.588,2.9,2.588s1.916-.983,2.9-2.588C27.444,1.974,28.652,0,31.1,0s3.654,1.974,4.625,3.558c.981,1.6,1.646,2.588,2.9,2.588s1.916-.983,2.9-2.588C42.49,1.974,43.7,0,46.145,0S49.8,1.974,50.772,3.558c.983,1.6,1.649,2.588,2.9,2.588s1.919-.983,2.9-2.588C57.544,1.974,58.754,0,61.2,0a1.019,1.019,0,0,1,1.014,1.024A1.018,1.018,0,0,1,61.2,2.048c-1.253,0-1.919.983-2.9,2.588C57.329,6.222,56.121,8.195,53.672,8.195Z" transform="translate(62.215 45.523) rotate(180)" fill="#e6e3fe"/><path d="M53.672,8.195c-2.447,0-3.655-1.973-4.625-3.558-.983-1.6-1.649-2.588-2.9-2.588s-1.918.983-2.9,2.588c-.97,1.586-2.178,3.558-4.624,3.558S34.968,6.222,34,4.636c-.982-1.6-1.648-2.588-2.9-2.588s-1.916.983-2.9,2.588c-.97,1.586-2.178,3.558-4.624,3.558s-3.654-1.973-4.623-3.558c-.982-1.6-1.646-2.588-2.9-2.588s-1.915.983-2.9,2.588c-.97,1.586-2.177,3.558-4.623,3.558S4.883,6.222,3.912,4.636c-.982-1.6-1.646-2.588-2.9-2.588A1.024,1.024,0,0,1,1.015,0C3.46,0,4.668,1.974,5.638,3.56c.981,1.6,1.646,2.587,2.9,2.587s1.915-.983,2.9-2.587C12.4,1.974,13.611,0,16.056,0s3.653,1.974,4.622,3.558c.982,1.6,1.646,2.588,2.9,2.588s1.916-.983,2.9-2.588C27.444,1.974,28.652,0,31.1,0s3.654,1.974,4.625,3.558c.981,1.6,1.646,2.588,2.9,2.588s1.916-.983,2.9-2.588C42.49,1.974,43.7,0,46.145,0S49.8,1.974,50.772,3.558c.983,1.6,1.649,2.588,2.9,2.588s1.919-.983,2.9-2.588C57.544,1.974,58.754,0,61.2,0a1.019,1.019,0,0,1,1.014,1.024A1.018,1.018,0,0,1,61.2,2.048c-1.253,0-1.919.983-2.9,2.588C57.329,6.222,56.121,8.195,53.672,8.195Z" transform="translate(62.215 27.225) rotate(180)" fill="#e6e3fe"/><path d="M53.672,8.195c-2.447,0-3.655-1.973-4.625-3.558-.983-1.6-1.649-2.588-2.9-2.588s-1.918.983-2.9,2.588c-.97,1.586-2.178,3.558-4.624,3.558S34.968,6.222,34,4.636c-.982-1.6-1.648-2.588-2.9-2.588s-1.916.983-2.9,2.588c-.97,1.586-2.178,3.558-4.624,3.558s-3.654-1.973-4.623-3.558c-.982-1.6-1.646-2.588-2.9-2.588s-1.915.983-2.9,2.588c-.97,1.586-2.177,3.558-4.623,3.558S4.883,6.222,3.912,4.636c-.982-1.6-1.646-2.588-2.9-2.588A1.024,1.024,0,0,1,1.015,0C3.46,0,4.668,1.974,5.638,3.56c.981,1.6,1.646,2.587,2.9,2.587s1.915-.983,2.9-2.587C12.4,1.974,13.611,0,16.056,0s3.653,1.974,4.622,3.558c.982,1.6,1.646,2.588,2.9,2.588s1.916-.983,2.9-2.588C27.444,1.974,28.652,0,31.1,0s3.654,1.974,4.625,3.558c.981,1.6,1.646,2.588,2.9,2.588s1.916-.983,2.9-2.588C42.49,1.974,43.7,0,46.145,0S49.8,1.974,50.772,3.558c.983,1.6,1.649,2.588,2.9,2.588s1.919-.983,2.9-2.588C57.544,1.974,58.754,0,61.2,0a1.019,1.019,0,0,1,1.014,1.024A1.018,1.018,0,0,1,61.2,2.048c-1.253,0-1.919.983-2.9,2.588C57.329,6.222,56.121,8.195,53.672,8.195Z" transform="translate(62.215 55.039) rotate(180)" fill="#e6e3fe"/><path d="M53.672,8.195c-2.447,0-3.655-1.973-4.625-3.558-.983-1.6-1.649-2.588-2.9-2.588s-1.918.983-2.9,2.588c-.97,1.586-2.178,3.558-4.624,3.558S34.968,6.222,34,4.636c-.982-1.6-1.648-2.588-2.9-2.588s-1.916.983-2.9,2.588c-.97,1.586-2.178,3.558-4.624,3.558s-3.654-1.973-4.623-3.558c-.982-1.6-1.646-2.588-2.9-2.588s-1.915.983-2.9,2.588c-.97,1.586-2.177,3.558-4.623,3.558S4.883,6.222,3.912,4.636c-.982-1.6-1.646-2.588-2.9-2.588A1.024,1.024,0,0,1,1.015,0C3.46,0,4.668,1.974,5.638,3.56c.981,1.6,1.646,2.587,2.9,2.587s1.915-.983,2.9-2.587C12.4,1.974,13.611,0,16.056,0s3.653,1.974,4.622,3.558c.982,1.6,1.646,2.588,2.9,2.588s1.916-.983,2.9-2.588C27.444,1.974,28.652,0,31.1,0s3.654,1.974,4.625,3.558c.981,1.6,1.646,2.588,2.9,2.588s1.916-.983,2.9-2.588C42.49,1.974,43.7,0,46.145,0S49.8,1.974,50.772,3.558c.983,1.6,1.649,2.588,2.9,2.588s1.919-.983,2.9-2.588C57.544,1.974,58.754,0,61.2,0a1.019,1.019,0,0,1,1.014,1.024A1.018,1.018,0,0,1,61.2,2.048c-1.253,0-1.919.983-2.9,2.588C57.329,6.222,56.121,8.195,53.672,8.195Z" transform="translate(62.215 8.195) rotate(180)" fill="#e6e3fe"/></g><g transform="translate(-810.051 -6595.313)"><g transform="translate(990.051 7602.368)"><g clip-path="url(#a)"><g clip-path="url(#a)"><path d="M295,326.68c0,1.6-66.038,2.9-147.5,2.9S0,328.282,0,326.68s66.038-2.9,147.5-2.9,147.5,1.3,147.5,2.9" transform="translate(0 -202.764)" fill="#e0dfe5"/><path d="M305.228,4.25V92.18a4.249,4.249,0,0,1-4.25,4.25H160.8a4.253,4.253,0,0,1-4.253-4.25V4.25A4.253,4.253,0,0,1,160.8,0H300.978a4.249,4.249,0,0,1,4.25,4.25" transform="translate(-98.039 0)" fill="#e0dfe5"/><path d="M305.228,4.25V5.98H156.551V4.25A4.253,4.253,0,0,1,160.8,0H300.978a4.249,4.249,0,0,1,4.25,4.25" transform="translate(-98.039 0)" fill="#c0bfc1"/><path d="M530.037,6.652a.131.131,0,0,1-.078-.237L533.7,3.674a.131.131,0,0,1,.156.212l-3.738,2.741a.131.131,0,0,1-.078.025" transform="translate(-331.85 -2.285)" fill="#304572"/><path d="M533.775,6.653a.131.131,0,0,1-.078-.025l-3.737-2.741a.131.131,0,1,1,.155-.212l3.738,2.741a.132.132,0,0,1-.078.237" transform="translate(-331.85 -2.285)" fill="#304572"/><path d="M513.9,6.652h-4.859a.131.131,0,0,1-.131-.132V3.78a.131.131,0,0,1,.131-.132H513.9a.132.132,0,0,1,.132.132V6.52a.132.132,0,0,1-.132.132m-4.727-.263h4.6V3.911h-4.6Z" transform="translate(-318.699 -2.285)" fill="#304572"/><path d="M495.128,7.578H491.2a.131.131,0,1,1,0-.263h3.924a.131.131,0,1,1,0,.263" transform="translate(-307.53 -4.581)" fill="#304572"/><path d="M259.306,52.589V86.448a5.506,5.506,0,0,1-5.505,5.505H190.071a5.5,5.5,0,0,1-5.505-5.505V52.589a5.506,5.506,0,0,1,5.505-5.505H253.8a5.508,5.508,0,0,1,5.505,5.505" transform="translate(-115.583 -29.486)" fill="#c1c1c1"/><rect width="74.74" height="0.374" transform="translate(68.983 24.886)" fill="#e0dfe5"/><path d="M259.306,87.254v.374H184.689a.182.182,0,0,1-.123-.049V87.3a.182.182,0,0,1,.123-.049Z" transform="translate(-115.583 -54.642)" fill="#e0dfe5"/><path d="M259.306,106.705v.351a.175.175,0,0,1-.064.011H184.566v-.374h74.677a.175.175,0,0,1,.064.011" transform="translate(-115.583 -66.816)" fill="#e0dfe5"/><path d="M259.306,127.364v.374h-74.68a.155.155,0,0,1-.06-.011v-.351a.156.156,0,0,1,.06-.011Z" transform="translate(-115.583 -79.761)" fill="#e0dfe5"/><path d="M259.306,148.035v.351a.175.175,0,0,1-.064.011H184.566v-.374h74.677a.174.174,0,0,1,.064.011" transform="translate(-115.583 -92.699)" fill="#e0dfe5"/><rect width="0.374" height="44.87" transform="translate(76.421 17.598)" fill="#e0dfe5"/><rect width="0.374" height="44.87" transform="translate(84.143 17.598)" fill="#e0dfe5"/><rect width="0.374" height="44.87" transform="translate(91.412 17.598)" fill="#e0dfe5"/><rect width="0.374" height="44.87" transform="translate(99.134 17.598)" fill="#e0dfe5"/><rect width="0.374" height="44.87" transform="translate(106.859 17.598)" fill="#e0dfe5"/><rect width="0.374" height="44.87" transform="translate(114.376 17.598)" fill="#e0dfe5"/><rect width="0.374" height="44.87" transform="translate(122.101 17.598)" fill="#e0dfe5"/><rect width="0.374" height="44.87" transform="translate(129.367 17.598)" fill="#e0dfe5"/><rect width="0.374" height="44.87" transform="translate(137.093 17.598)" fill="#e0dfe5"/><path d="M328.543,148.209H274.167a1.736,1.736,0,0,1-1.736-1.736v-30.53a1.736,1.736,0,0,1,1.736-1.736h54.376a1.736,1.736,0,0,1,1.736,1.736v30.53a1.736,1.736,0,0,1-1.736,1.736" transform="translate(-170.608 -71.521)" fill="#c0bfc1"/><rect width="3.403" height="9.339" transform="translate(113.234 61.4)" fill="#e0dfe5"/><rect width="3.403" height="9.339" transform="translate(144.359 61.4)" fill="#e0dfe5"/><rect width="3.403" height="14.114" transform="translate(121.016 56.592)" fill="#e0dfe5"/><rect width="3.403" height="18.176" transform="translate(128.797 52.53)" fill="#e0dfe5"/><rect width="3.403" height="22.189" transform="translate(136.578 48.593)" fill="#e0dfe5"/><path d="M223.906,84.725a1.807,1.807,0,1,1-1.807-1.807,1.807,1.807,0,0,1,1.807,1.807" transform="translate(-137.956 -51.927)" fill="#e29233"/><path d="M243.856,125.335a1.807,1.807,0,1,1-1.808-1.807,1.807,1.807,0,0,1,1.808,1.807" transform="translate(-150.449 -77.358)" fill="#373f51"/><path d="M325.966,85.225a1.807,1.807,0,1,1-1.808-1.808,1.807,1.807,0,0,1,1.808,1.808" transform="translate(-201.87 -52.24)" fill="#5573c6"/><path d="M468.108,56.822H435.545a1.744,1.744,0,1,1,0-3.488h32.563a1.744,1.744,0,1,1,0,3.488" transform="translate(-271.665 -33.4)" fill="#b0c0d2"/><path d="M468.108,74.155H435.545a1.744,1.744,0,1,1,0-3.488h32.563a1.744,1.744,0,1,1,0,3.488" transform="translate(-271.665 -44.255)" fill="#b0c0d2"/><path d="M468.108,91.411H435.545a1.744,1.744,0,1,1,0-3.488h32.563a1.744,1.744,0,1,1,0,3.488" transform="translate(-271.665 -55.061)" fill="#b0c0d2"/><path d="M484.05,123.166H461a1.744,1.744,0,1,1,0-3.488H484.05a1.744,1.744,0,1,1,0,3.488" transform="translate(-287.607 -74.947)" fill="#373f51"/><path d="M484.05,140.913H461a1.744,1.744,0,0,1,0-3.488H484.05a1.744,1.744,0,1,1,0,3.488" transform="translate(-287.607 -86.061)" fill="#373f51"/><path d="M484.05,172.668H461a1.744,1.744,0,0,1,0-3.488H484.05a1.744,1.744,0,1,1,0,3.488" transform="translate(-287.607 -105.948)" fill="#ff966d"/><path d="M484.05,190.415H461a1.744,1.744,0,0,1,0-3.488H484.05a1.744,1.744,0,1,1,0,3.488" transform="translate(-287.607 -117.062)" fill="#ff966d"/><path d="M631.361,21.3V48.153a1.442,1.442,0,0,1-1.44,1.44H584.759a1.379,1.379,0,0,1-.509-.1,1.115,1.115,0,0,1-.214-.1,1.436,1.436,0,0,1-.717-1.245V21.3a1.442,1.442,0,0,1,1.44-1.443H629.92a1.442,1.442,0,0,1,1.44,1.443" transform="translate(-365.299 -12.438)" fill="#e0dfe5"/><path d="M632.557,60.667v.81a1.441,1.441,0,0,1-1.44,1.44H586.062a1.991,1.991,0,0,1-.615-.1,1.634,1.634,0,0,1-.217-.081l0-.019.357-1.9,9.61-13.652,2.26,3.706,6.789-9.743,6.8,9.163,1.282-2.16,5.792,6.251,1.133-1.149,5.873,4.964,1.235-2.465,4.262,4.585.475-1.533Z" transform="translate(-366.496 -25.761)" fill="#373f51"/><path d="M628.185,58.579H584.759a1.409,1.409,0,0,1-.726-.2,1.432,1.432,0,0,1-.714-1.242V55.41l7.94-14.446,1.974,4.147,5.929-10.9L605.1,44.462l1.12-2.418,5.06,7,.99-1.285,5.131,5.553,1.077-2.759L622.2,55.68l.413-1.717Z" transform="translate(-365.299 -21.423)" fill="#c0bfc1"/><path d="M603.745,50.98a1.209,1.209,0,1,1-1.209-1.209,1.209,1.209,0,0,1,1.209,1.209" transform="translate(-376.576 -31.169)" fill="#fff"/><path d="M660.551,68.429a1.209,1.209,0,1,1-1.209-1.209,1.209,1.209,0,0,1,1.209,1.209" transform="translate(-412.15 -42.096)" fill="#fff"/><path d="M643.776,51.656a1.209,1.209,0,1,1-1.209-1.209,1.21,1.21,0,0,1,1.209,1.209" transform="translate(-401.645 -31.592)" fill="#fff"/><path d="M624.889,32.184a1.21,1.21,0,1,1-1.21-1.209,1.21,1.21,0,0,1,1.21,1.209" transform="translate(-389.817 -19.398)" fill="#fff"/><path d="M676.924,75.9a1.209,1.209,0,1,1-1.21-1.209,1.21,1.21,0,0,1,1.21,1.209" transform="translate(-422.404 -46.775)" fill="#fff"/><path d="M384.981,253.391a9.347,9.347,0,0,1-.538-12.533,8.754,8.754,0,0,1,.624-.688,9.3,9.3,0,0,1,6.291-2.686,8.507,8.507,0,0,1,.861.018,1,1,0,0,1,.121,0c.111.007.226.02.341.033.192.021.383.047.568.082s.366.07.546.109c.024.007.043.009.066.017.147.036.293.076.438.121.009,0,.019,0,.023.007.085.024.169.053.253.081a.26.26,0,0,1,.1.036c.2.066.4.146.6.231.125.053.245.1.37.162a2.04,2.04,0,0,1,.23.113c.074.037.152.075.225.117.146.079.292.163.433.252q.252.159.5.332a9.216,9.216,0,0,1,1.251,1.06,9.35,9.35,0,0,1,1.786,10.581,9.222,9.222,0,0,1-1.873,2.64,9.351,9.351,0,0,1-13.221-.087" transform="translate(-239.405 -148.72)" fill="#ff966d"/><path d="M415.734,252.079l-8.441-4.016,1.721-7.225,1.925-1.378a8.976,8.976,0,0,1,1.756.976,9.107,9.107,0,0,1,1.251,1.061,9.349,9.349,0,0,1,1.789,10.582" transform="translate(-255.064 -149.959)" fill="#373f51"/><path d="M395.244,246.821l-7.189-5.963a8.515,8.515,0,0,1,.624-.688,9.3,9.3,0,0,1,6.291-2.686,8.5,8.5,0,0,1,.861.018Z" transform="translate(-243.017 -148.72)" fill="#304572"/><path d="M406.83,246.821l-.274-9.337a8.5,8.5,0,0,1,.861.018.892.892,0,0,1,.121,0c.111.007.226.02.341.033.191.021.382.047.568.082s.366.07.545.109c.024.007.043.009.066.017.146.036.293.076.438.121a.038.038,0,0,1,.024.007c.084.024.168.053.252.081a.26.26,0,0,1,.1.036,8.162,8.162,0,0,1,.971.393,2.1,2.1,0,0,1,.23.113c.074.037.152.075.225.117.146.079.292.163.433.252q.252.159.5.332Z" transform="translate(-254.603 -148.72)" fill="#6662cc"/><path d="M544.928,295.667l1.938-2.817-6.738-4.544-2.953,2.545,4.522,5.271Z" transform="translate(-336.402 -180.55)" fill="#d8998b"/><path d="M592.83,300.918l-.092,4.907,8.676-.091-.369-5.271Z" transform="translate(-371.197 -188.163)" fill="#d8998b"/><path d="M560.553,315.915a.347.347,0,0,1-.283-.41c.158-.935.72-3.548,2.2-4.658,1.818-1.363,5.627-1.908,7.012-2.817s2.935-3.1,3.762-2.687,2.385,2.324,4.636,2.051,3.29-.818,3.9-.272.952,8.179.693,8.633-3.43.034-3.706.108-1.055-1.744-1.575-1.471-1.153,1.125-1.919,1.517c-.714.365-12.445.311-14.715.006" transform="translate(-350.862 -191.187)" fill="#373f51"/><path d="M577.992,193.229l1.059-20.811,12.971-.091a61.278,61.278,0,0,1,2.03,10.542c.441,5.18,1.589,38.077,1.412,38.532s-14.559,1-15.442.454-2.03-28.626-2.03-28.626" transform="translate(-361.963 -107.918)" fill="#ff966d"/><path d="M499.344,290.153a.343.343,0,0,1,0-.5c.665-.687,2.622-2.538,4.491-2.632,2.3-.116,5.792,1.555,7.468,1.574s4.221-.934,4.675-.129.672,3.254,2.71,4.282,3.217,1.156,3.413,1.945-3.859,7.3-4.335,7.536-2.888-1.883-3.161-1.976.11-2.032-.48-2.1-1.6.289-2.467.187c-.805-.1-10.585-6.678-12.31-8.194" transform="translate(-312.642 -179.743)" fill="#373f51"/><path d="M549.4,172.083s-15.265,41.349-15.089,42.258,11.824,7.361,12.53,7.361,5.824-9.36,5.824-9.36l.618-40.168Z" transform="translate(-334.61 -107.766)" fill="#ff966d"/><path d="M588.988,312.277a.135.135,0,0,1-.075-.023l-2.107-1.459a.131.131,0,1,1,.15-.216l2.107,1.459a.131.131,0,0,1-.075.24" transform="translate(-367.448 -194.483)" fill="#fff"/><path d="M584.107,314.9a.131.131,0,0,1-.079-.027l-1.656-1.255a.131.131,0,0,1,.159-.209l1.656,1.254a.131.131,0,0,1-.079.236" transform="translate(-364.673 -196.255)" fill="#fff"/><path d="M534.023,293.471a.133.133,0,0,1-.111-.06l-1.4-2.149a.131.131,0,0,1,.038-.182.133.133,0,0,1,.182.039l1.4,2.149a.131.131,0,0,1-.039.182.129.129,0,0,1-.071.021" transform="translate(-333.471 -182.274)" fill="#fff"/><path d="M527.1,292.409a.131.131,0,0,1-.113-.065l-1.056-1.788a.131.131,0,0,1,.227-.133l1.056,1.788a.131.131,0,0,1-.113.2" transform="translate(-329.347 -181.834)" fill="#fff"/><path d="M607.81,183.341c-2.353,0-3.79-2.922-3.805-2.955a.131.131,0,1,1,.237-.114c.017.034,1.643,3.329,4.189,2.732a.131.131,0,1,1,.061.255,2.942,2.942,0,0,1-.681.081" transform="translate(-378.246 -112.848)" fill="#304572"/><path d="M577.505,223.484a.134.134,0,0,1-.132-.138l1.606-33.769-3.516-2.321a.131.131,0,1,1,.145-.219l3.578,2.362a.13.13,0,0,1,.059.115l-1.609,33.843a.132.132,0,0,1-.131.125" transform="translate(-360.343 -117.117)" fill="#304572"/><path d="M579.9,112.794s-3.554.161-4.963,3.008-2.474,19.818-2.474,19.818a25.309,25.309,0,0,0,9.691,1.666c5.751-.075,7.7-1.565,7.7-1.565l1.106-10.466s-.461-11.03-1.9-11.8-6.781-1.271-9.16-.659" transform="translate(-358.503 -70.465)" fill="#7f7aff"/><path d="M591.044,81.772s-1.807-3.5-.1-4.126,3.582,1.344,3.582,1.344,3.7.549,4.995,2.624-2.384,5.359-2.384,5.359Z" transform="translate(-369.615 -48.548)"/><path d="M599.075,104.724l.01,3.439a3.349,3.349,0,0,1-2.628,1.16,3.565,3.565,0,0,1-2.026-.211l.2-1.742.2-1.7,3.63-.81Z" transform="translate(-372.258 -65.583)" fill="#d8998b"/><path d="M598.808,105.09a1.144,1.144,0,0,1-.1.332c-.764,1.72-2.867,2.1-3.732,2.176l.2-1.7Z" transform="translate(-372.6 -65.812)"/><path d="M591.318,84.143s-1.792,4.317-1.074,6.71,2.9,1.975,4.206,1.485a4.341,4.341,0,0,0,1.9-1.3,1.963,1.963,0,0,0,1.6-3.5,1.922,1.922,0,0,0-1.527.234l.629-1.257s-2.86-6.274-5.727-2.366" transform="translate(-369.53 -51.891)" fill="#d8998b"/><path d="M607.174,98.619a.131.131,0,0,1-.077-.238l1.546-1.119a.131.131,0,1,1,.154.213l-1.546,1.119a.131.131,0,0,1-.077.025" transform="translate(-380.156 -60.895)"/><path d="M609.24,100a.123.123,0,0,1-.033,0l-1.021-.26a.131.131,0,1,1,.065-.255l1.021.26a.131.131,0,0,1-.032.259" transform="translate(-380.811 -62.295)"/><path d="M593.505,96.113a.132.132,0,0,1-.13-.111,2.018,2.018,0,0,1,.616-1.85.131.131,0,0,1,.166.2,1.756,1.756,0,0,0-.522,1.606.132.132,0,0,1-.11.15l-.02,0" transform="translate(-371.579 -58.944)"/><path d="M592.03,93.062a.139.139,0,0,1-.034,0,.132.132,0,0,1-.093-.161l.213-.789a.13.13,0,0,1,.161-.093.132.132,0,0,1,.093.161l-.213.789a.132.132,0,0,1-.127.1" transform="translate(-370.672 -57.621)"/><path d="M597.852,93.454a.14.14,0,0,1-.034,0,.132.132,0,0,1-.093-.161l.213-.789a.13.13,0,0,1,.161-.093.131.131,0,0,1,.093.161l-.213.789a.132.132,0,0,1-.127.1" transform="translate(-374.318 -57.866)"/><path d="M591.906,83.555a1.452,1.452,0,0,1,1.229-.7,1.854,1.854,0,0,1,1.36.594,2.111,2.111,0,0,0,.8,2.21,2.849,2.849,0,0,0,2.071.546l.845-.3.617-1.238-2.455-2.631L593.2,80.369l-1.61,1.47Z" transform="translate(-370.477 -50.33)"/><path d="M601.756,79.3s.106-1.9,2.107-1.067,1.846,3.432,1.846,3.432Z" transform="translate(-376.845 -48.863)"/><path d="M591.8,88.784a.131.131,0,0,1-.012-.262l.653-.062a.129.129,0,0,1,.143.118.131.131,0,0,1-.118.143l-.653.062H591.8" transform="translate(-370.525 -55.397)"/><path d="M598.18,90.625a.131.131,0,0,1-.053-.011l-.881-.384a.131.131,0,1,1,.1-.241l.882.383a.131.131,0,0,1-.053.252" transform="translate(-373.971 -56.348)"/><path d="M591.854,100.848a.132.132,0,0,1-.111-.061l-.487-.763a.131.131,0,1,1,.221-.141l.487.763a.132.132,0,0,1-.04.182.134.134,0,0,1-.071.021" transform="translate(-370.257 -62.513)"/><path d="M575.713,103.234s2.209-7.248,3.13-7.138,2.751,1.951,3.124,2.626a1.96,1.96,0,0,1,0,1.534s.363.456,0,.749-1.406-.33-1.406-.33.92,4.612-1.779,5.164-3.069-2.605-3.069-2.605" transform="translate(-360.536 -60.179)" fill="#d8998b"/><path d="M566.153,126.716a21.7,21.7,0,0,0,1.615-4.6c.52-2.426,1.244-6.048,1.244-6.048l-4.774-3.551s-3.986,6.1-5.376,11.916-.359,7.6,2.608,7.239c3.514-.426,4.683-4.959,4.683-4.959" transform="translate(-349.601 -70.465)" fill="#7f7aff"/><path d="M565.3,148.133l-1.489,5.766c-1.185,0-4.378-.042-5.387-.506-1.248-.574-1.413-1.354-1.413-1.354s-.856-.814-.805-1.253.536-2.43.536-2.43-.692-1.637-.059-1.725,1.721-.236,1.721-.236,2.042-.894,2.923-.645a16.118,16.118,0,0,1,3.227,2.408Z" transform="translate(-348.319 -91.247)" fill="#d8998b"/><path d="M595.656,114.651a3.806,3.806,0,0,1-1.874-.327.131.131,0,1,1,.139-.222,4.537,4.537,0,0,0,2.382.264,3.413,3.413,0,0,0,2.523-1.269.131.131,0,1,1,.218.147,3.626,3.626,0,0,1-2.722,1.384c-.241.016-.463.024-.666.024" transform="translate(-371.813 -70.79)" fill="#373f51"/><path d="M566,147.38a.131.131,0,0,1-.037-.006l-2.228-.658a.131.131,0,1,1,.074-.252l2.229.658a.131.131,0,0,1-.037.257" transform="translate(-352.978 -91.719)"/><path d="M557.752,151.871a.131.131,0,0,1-.063-.016l-.785-.427a.131.131,0,0,1,.126-.231l.785.427a.131.131,0,0,1-.063.247" transform="translate(-348.714 -94.676)"/><path d="M588.841,103.48a.13.13,0,0,1-.081-.028l-2.02-1.583a.131.131,0,1,1,.162-.207l2.02,1.583a.132.132,0,0,1-.081.235" transform="translate(-367.41 -63.648)"/><path d="M588.54,100.035a.129.129,0,0,1-.071-.021L586.75,98.9a.131.131,0,1,1,.142-.221l1.718,1.111a.131.131,0,0,1-.071.242" transform="translate(-367.41 -61.786)"/><path d="M576.751,128.238l-1.038,7.018s15.324,4.444,18.563-3.364c3.252-7.837-.462-15.725-3.18-17.041s-5.412,11.061-5.412,11.061Z" transform="translate(-360.536 -71.864)" fill="#7f7aff"/><path d="M577.025,157.135l-1.878-.212a.6.6,0,0,1-.529-.663l.833-7.377a.6.6,0,0,1,.663-.529l1.879.212a.6.6,0,0,1,.529.663l-.833,7.377a.6.6,0,0,1-.663.529" transform="translate(-359.848 -92.903)" fill="#e6f4ff"/><path d="M577.13,116.351l-1.093,1.622a.567.567,0,0,1-.788.154l-5.4-3.636a.567.567,0,0,1-.153-.788l1.093-1.622a.567.567,0,0,1,.788-.154l5.4,3.636a.568.568,0,0,1,.154.788" transform="translate(-356.71 -70.034)" fill="#e6f4ff"/><path d="M591.419,145.164a.131.131,0,0,1-.058-.249,23.019,23.019,0,0,1,6.964-1.993.13.13,0,0,1,.142.12.132.132,0,0,1-.12.142,22.727,22.727,0,0,0-6.871,1.966.128.128,0,0,1-.058.013" transform="translate(-370.289 -89.504)" fill="#373f51"/><path d="M602.174,141.669a.131.131,0,0,1-.107-.207c.12-.172,1.2-1.679,2-1.754a.555.555,0,0,1,.459.157.408.408,0,0,1,.131.4c-.157.654-2.063,1.277-2.444,1.4a.139.139,0,0,1-.039.006m1.956-1.7-.039,0c-.46.043-1.145.789-1.559,1.31.8-.285,1.788-.737,1.868-1.073a.151.151,0,0,0-.06-.153.287.287,0,0,0-.211-.086" transform="translate(-377.025 -87.489)" fill="#373f51"/><path d="M581.818,296.028a.131.131,0,0,1-.005-.263l15.977-.622a.125.125,0,0,1,.137.126.132.132,0,0,1-.126.136l-15.977.622Z" transform="translate(-364.276 -184.831)" fill="#304572"/><path d="M549.842,284.923a.132.132,0,0,1-.062-.016l-13.479-7.25a.131.131,0,1,1,.124-.232l13.479,7.25a.131.131,0,0,1-.062.247" transform="translate(-335.811 -173.726)" fill="#304572"/><path d="M644.729,120.883s-7.027-8.876-7.465-8.284,6.345,8.852,6.345,8.852Z" transform="translate(-399.069 -70.497)" fill="#373f51"/><path d="M665.051,141.172s-2.561.042-3.689-.961,1.237-3.318,1.237-3.318l2.452,1.665Z" transform="translate(-413.982 -85.728)" fill="#d8998b"/><path d="M651.651,132.949a2.339,2.339,0,0,0-1.043-.38c-1.259-.165-4.869,0-5.312,1.266-.424,1.215,1.584,1.187,1.584,1.187s-1.613.346-1,1.365a1.6,1.6,0,0,0,1.563.676s-1.644.521-.445,1.5,4.9.491,6.034-.137-.46-1.716-.46-1.716,1.131-.838.779-1.522c-.373-.724-1.487-.5-1.487-.5a1.106,1.106,0,0,0-.211-1.738" transform="translate(-404.075 -82.987)" fill="#d8998b"/><path d="M659.43,128.843s-4.6-2.248-5.457-2.119-4.059,2.842-3.276,3.587,3.276-1.177,3.276-1.177,2.558,4.293,4.236,3.808,1.221-4.1,1.221-4.1" transform="translate(-407.418 -79.357)" fill="#d8998b"/><path d="M649.411,138.735a.131.131,0,0,1-.007-.263l4.575-.235a.121.121,0,0,1,.138.124.131.131,0,0,1-.124.138l-4.575.235h-.007" transform="translate(-406.606 -86.57)"/><path d="M650.914,144.1a.131.131,0,0,1-.008-.262l4.587-.293a.127.127,0,0,1,.139.123.131.131,0,0,1-.123.139l-4.587.293h-.009" transform="translate(-407.548 -89.895)"/><path d="M662.847,136.939a.13.13,0,0,1-.037-.005,5.423,5.423,0,0,1-3.492-3.945.131.131,0,1,1,.257-.055,5.154,5.154,0,0,0,3.31,3.748.132.132,0,0,1-.037.258" transform="translate(-412.891 -83.184)"/><path d="M694.432,298.648V303.2l-8.278-.321v-4.233Z" transform="translate(-429.699 -187.026)" fill="#e29233"/><path d="M746.6,297.275v4.555l-7.662-.321v-4.234Z" transform="translate(-462.755 -186.166)" fill="#e29233"/><path d="M691.459,160.82s-5.037,9.176-8.578,24.866a180.752,180.752,0,0,0-3.925,26.147h13.967s1.554-11.668,1.968-16.285a103.525,103.525,0,0,1,1.791-10.8s1.917,26.631,2.374,27.082,13.827.1,13.684-.512-5.076-45.106-5.438-48.018c-1.113-8.951-15.842-2.482-15.842-2.482" transform="translate(-425.191 -99.297)" fill="#727997"/><path d="M733.849,312.178c0,.8.261,1.723.795,1.955a32.4,32.4,0,0,0,8.636.373c3.62-.328,4.371-.6,4.638-.945.131-.173-.124-.977-.416-1.755-.019-.039-.031-.083-.05-.122-.149-.392-.3-.771-.416-1.042a4.526,4.526,0,0,0-.41-.74,12.989,12.989,0,0,1-1.366-2.315c-.261-.8-.658-2.521-.925-3.331a1.45,1.45,0,0,0-.919-.965s-7.443-.527-7.977-.064-.795,4.251-.795,4.823v.573a14.576,14.576,0,0,1-.583,2.463c-.062.219-.112.425-.149.611a2.6,2.6,0,0,0-.062.482" transform="translate(-459.567 -189.774)" fill="#5573c6"/><path d="M651.756,314.38c.472.212,20.554.81,21.021,0a7.455,7.455,0,0,0,.307-2.116c.165-2.456.165-6.109.165-6.109a15.875,15.875,0,0,0,.118-1.826c-.024-.572-9.684-.354-9.684-.354l-6.279,5.4a11.055,11.055,0,0,0-3.606,0c-1,.174-1.64,1.5-1.959,2.759-.283,1.113-.307,2.148-.083,2.251" transform="translate(-408.063 -190.337)" fill="#5573c6"/><path d="M717.41,204.762a.131.131,0,0,1-.131-.121c0-.058-.44-5.795-.566-8.339-.108-2.172-.128-3.379-.132-3.695l-4.449-2.052a.131.131,0,0,1-.064-.174.133.133,0,0,1,.174-.064l4.524,2.086a.131.131,0,0,1,.076.119c0,.012.006,1.228.132,3.766s.562,8.275.567,8.333a.132.132,0,0,1-.122.141h-.01" transform="translate(-445.92 -119.177)" fill="#e29233"/><path d="M748.721,310.385a.13.13,0,0,1-.035,0,14.05,14.05,0,0,0-4.4-.548l-1.508.268a.13.13,0,0,1-.141-.072.131.131,0,0,1,.031-.155c.111-.1,2.723-2.384,4.291-1.689a.131.131,0,1,1-.107.24c-1.082-.478-2.844.728-3.621,1.33l1.009-.179a13.923,13.923,0,0,1,4.513.554.131.131,0,0,1-.035.258" transform="translate(-465.065 -192.915)" fill="#373f51"/><path d="M670.43,311.575a.131.131,0,0,1-.014-.262l3.522-.376-1.159-1.413a.131.131,0,0,1,.2-.167l1.313,1.6a.132.132,0,0,1-.088.214l-3.764.4h-.014" transform="translate(-419.769 -193.703)" fill="#373f51"/><path d="M748.953,183.1a.131.131,0,0,1-.077-.025,10.646,10.646,0,0,1-3.4-4.808.131.131,0,0,1,.25-.08,10.363,10.363,0,0,0,3.306,4.674.131.131,0,0,1-.077.238" transform="translate(-466.843 -111.53)" fill="#e29233"/><path d="M718.39,106.954a13.761,13.761,0,0,1,7.452,3.077c3.317,2.855,6.7,12.321,4.837,15.293s-4.24,3.178-4.24,3.178l.138,3.455-18.127.169s1.493-21.99,2.222-23.62,7.718-1.551,7.718-1.551" transform="translate(-443.661 -66.979)" fill="#ff966d"/><path d="M720.326,80.112a3.513,3.513,0,0,0-.706,3.464c.777,1.832,1.71-3.285,1.71-3.285Z" transform="translate(-450.515 -50.17)"/><path d="M727.331,100.155l.01,3.277a3.192,3.192,0,0,1-2.505,1.105,3.4,3.4,0,0,1-1.931-.2l.194-1.661.192-1.619,3.46-.772Z" transform="translate(-452.714 -62.721)" fill="#d8998b"/><path d="M726.956,100.5c-.008.09.522.379.469.5-.728,1.639-3.368,2.431-4.193,2.508l.264-2.236Z" transform="translate(-452.919 -62.939)"/><path d="M720.28,79.8a3.09,3.09,0,0,0-.971,1.406c-.446,1.258-1.352,4.2-.811,6.017.7,2.363,2.83,1.952,4.1,1.471a4.217,4.217,0,0,0,1.846-1.285,1.783,1.783,0,0,0,1.977-.749,1.565,1.565,0,0,0-1.914-2.476l.611-1.239S722.8,77.811,720.28,79.8" transform="translate(-449.85 -49.689)" fill="#d8998b"/><path d="M735.04,94.332a.131.131,0,0,1-.077-.238l1.473-1.066a.131.131,0,1,1,.154.213l-1.473,1.066a.131.131,0,0,1-.077.025" transform="translate(-460.231 -58.243)"/><path d="M737.01,95.644a.124.124,0,0,1-.033,0l-.973-.247a.131.131,0,0,1,.065-.255l.973.248a.131.131,0,0,1-.032.259" transform="translate(-460.856 -59.576)"/><path d="M721.81,91.546a.131.131,0,0,1-.118-.074,2.152,2.152,0,0,1,.27-2.017.131.131,0,1,1,.214.153,1.924,1.924,0,0,0-.247,1.75.131.131,0,0,1-.061.175.129.129,0,0,1-.057.013" transform="translate(-451.854 -55.986)"/><path d="M720.607,89.036a.137.137,0,0,1-.034,0,.132.132,0,0,1-.093-.161l.2-.752a.13.13,0,0,1,.161-.093.132.132,0,0,1,.093.161l-.2.752a.131.131,0,0,1-.127.1" transform="translate(-451.192 -55.122)"/><path d="M689.113,110.974l-.5,22.04h-4.9l.581-9.635a47.571,47.571,0,0,1-7.891.715,28.374,28.374,0,0,1-6.2-.417l.76-7.726a23.754,23.754,0,0,0,9.846-2.981c4.472-2.713,6.136-5.507,8.965-5.439s-.655,3.443-.655,3.443" transform="translate(-419.705 -67.34)" fill="#ff966d"/><path d="M726.155,89.409a.139.139,0,0,1-.034,0,.132.132,0,0,1-.093-.161l.2-.752a.13.13,0,0,1,.161-.093.132.132,0,0,1,.093.161l-.2.752a.131.131,0,0,1-.127.1" transform="translate(-454.667 -55.356)"/><path d="M720.607,86.249a.131.131,0,0,1-.012-.262l.623-.058a.129.129,0,0,1,.143.118.131.131,0,0,1-.118.143l-.623.059h-.012" transform="translate(-451.192 -53.811)"/><path d="M726.469,86.712a.132.132,0,0,1-.053-.011l-.841-.366a.131.131,0,0,1,.106-.241l.84.366a.132.132,0,0,1-.053.252" transform="translate(-454.337 -53.909)"/><path d="M726.013,83.1s-.359,1.359-.618,1.189a5.748,5.748,0,0,1-.269-3.017c.208-.877.356-1.318.356-1.318s-3.575-.369-4.506-1.232,1.069-1.385,3.1-.97a5.905,5.905,0,0,1,2.826,1.192s1.28-.173,1.747.613-.661,3.731-.661,3.731-.312-.748-1.976-.188" transform="translate(-451.358 -48.601)"/><path d="M724.353,97.387a.131.131,0,0,1-.074-.24l.877-.594a.131.131,0,1,1,.148.218l-.877.594a.131.131,0,0,1-.074.023" transform="translate(-453.539 -60.451)"/><path d="M714.213,129.025a.131.131,0,0,1-.123-.084c-.9-2.352-2.4-6.337-2.341-6.589a16.841,16.841,0,0,1,1.592-2.069,9.854,9.854,0,0,1-1.9-1.859A42.214,42.214,0,0,1,714.1,113.1a.131.131,0,0,1,.23.127,55.57,55.57,0,0,0-2.632,5.158,13.106,13.106,0,0,0,1.915,1.778.131.131,0,0,1,.017.187A20.467,20.467,0,0,0,712,122.417c.013.279,1.4,4,2.331,6.43a.132.132,0,0,1-.076.17.13.13,0,0,1-.047.009" transform="translate(-445.531 -70.786)" fill="#373f51"/><path d="M719.416,139.2h6.307l-1.586-20.951h-4.359Z" transform="translate(-450.529 -74.05)" fill="#373f51"/><path d="M732.048,125.634s1.481,18.8,1.573,18.718,7.9-.217,7.9-.217l-.259-5.482Z" transform="translate(-458.44 -78.677)" fill="#ff966d"/><path d="M736.037,129.025a.13.13,0,0,1-.047-.009.132.132,0,0,1-.076-.17c.93-2.429,2.318-6.151,2.328-6.451a23.382,23.382,0,0,0-1.62-2.044.132.132,0,0,1,.017-.187,12.167,12.167,0,0,0,1.917-1.794c-.02-.292-1.626-3.311-2.634-5.142a.131.131,0,0,1,.23-.127,42.3,42.3,0,0,1,2.662,5.322,9.875,9.875,0,0,1-1.9,1.859,16.864,16.864,0,0,1,1.592,2.069c.063.252-1.44,4.237-2.341,6.589a.131.131,0,0,1-.122.084" transform="translate(-460.855 -70.786)" fill="#373f51"/><path d="M720.012,103.818s-4.983-3.119-5.541-2.758,2.162,2.638,2.162,2.638a10.967,10.967,0,0,0-1.3,1.245c-.066.2-.362.688-.589,1.221s-.127.889.39,1.445a15.955,15.955,0,0,0,4.618,2.229l.743.052,2.213-3.8s.122-3.324-.592-3.726-1.056,2.187-1.056,2.187Z" transform="translate(-447.385 -63.27)" fill="#d8998b"/><path d="M728.51,106.7a.131.131,0,0,1-.07-.02l-2.083-1.309a.131.131,0,1,1,.14-.222l1.919,1.206c.039-.2.113-.553.247-1.125.248-1.057.893-.981.921-.978a.132.132,0,0,1-.034.261c-.025,0-.442-.03-.631.777-.219.935-.278,1.3-.279,1.3a.132.132,0,0,1-.075.1.134.134,0,0,1-.055.012" transform="translate(-454.837 -65.286)"/><path d="M720.725,108.566a.132.132,0,0,1-.086-.032l-.561-.486a.131.131,0,1,1,.172-.2l.562.486a.131.131,0,0,1-.086.231" transform="translate(-450.915 -67.52)"/><path d="M695.064,127.037a.467.467,0,0,1-.321-.132c-.522-.474-.558-2.2-.561-2.392a.131.131,0,0,1,.241-.074c.205.313,1.214,1.9.963,2.412a.33.33,0,0,1-.284.184l-.039,0m-.594-2.026a3.284,3.284,0,0,0,.45,1.7.209.209,0,0,0,.162.062c.053,0,.063-.024.069-.037.112-.229-.276-1.041-.681-1.726" transform="translate(-434.727 -77.892)" fill="#373f51"/><path d="M707.686,147.561h-.019a.132.132,0,0,1-.111-.149l.2-1.364a.131.131,0,0,1,.26.039l-.2,1.364a.132.132,0,0,1-.13.112" transform="translate(-443.1 -91.391)" fill="#373f51"/><path d="M732.1,113.385l-3.26,5.108s2.848,12.449,9.7,13.882,5.39-6.444,5.39-6.444Z" transform="translate(-456.43 -71.007)" fill="#ff966d"/><path d="M749.209,123.7a.131.131,0,0,1-.109-.058,64.232,64.232,0,0,0-6.212-6.8.131.131,0,1,1,.182-.189,64.364,64.364,0,0,1,6.247,6.842.132.132,0,0,1-.109.205" transform="translate(-465.203 -73.031)" fill="#373f51"/><path d="M755.343,128.559c-.754,0-2.28-1.369-2.595-1.66a.131.131,0,0,1,.122-.224c.253.067,2.483.667,2.841,1.281a.36.36,0,0,1,.047.283.4.4,0,0,1-.279.3.478.478,0,0,1-.136.018m-1.978-1.467c.738.621,1.7,1.3,2.041,1.2.036-.011.076-.033.1-.117.007-.028.036-.291-1.254-.779-.311-.118-.628-.222-.886-.3" transform="translate(-471.376 -79.327)" fill="#373f51"/><path d="M148.8,304.768s6.859,3.522,8.861,5.519,2.07,3.322,1.815,3.966-14.615-.4-14.615-.4-.047-3.954-1.586-3.741-.8,3.774-.8,3.774l-4.346-.161a33.711,33.711,0,0,1,.266-5.464,38.4,38.4,0,0,1,1.408-4.216Z" transform="translate(-86.498 -190.406)" fill="#7f7aff"/><path d="M150.174,300.972s5.889,3.54,4.787,3.86-7.267.209-9.056-.5a8.932,8.932,0,0,1-3.275-2.9l4.181-1.556Z" transform="translate(-89.321 -187.799)" fill="#e29a8f"/><path d="M150.105,253.885s4.266-24.848,1.5-28.367-9.087,5.363-9.087,5.363l.041,23.47s5.621,1.924,7.544-.466" transform="translate(-89.252 -140.712)" fill="#e29a8f"/><path d="M126.315,234.843s-.847,23.594-1.983,26.089-7.341,0-7.341,0l-1.466-25.565Z" transform="translate(-72.347 -147.069)" fill="#d8998b"/><path d="M130.7,168.714a95.05,95.05,0,0,1,3.122,13.024c.846,5.932,1.052,15.48.321,15.786s-9.148.19-9.148.19a28.757,28.757,0,0,1-7.75.2,36.87,36.87,0,0,1-4.12-.549,1.032,1.032,0,0,1-.827-1.046c.123-4.025,1.005-22.923,3.516-26.312,2.229-3.008,14.886-1.292,14.886-1.292" transform="translate(-70.326 -105.351)" fill="#ff966d"/><path d="M123.571,301.308s2.211,7.627,1.758,9.219-5.1,3.436-6.654,3.352-4.3-2.755-4.678-3.718,1.535-10.161,3.714-9.576a34.132,34.132,0,0,0,5.86.723" transform="translate(-71.36 -188.222)" fill="#7f7aff"/><path d="M127.014,295.9s-1.08,5.029-3.637,5.029-3.929-4.251-3.929-4.251l1.036-4.757Z" transform="translate(-74.803 -182.812)" fill="#d8998b"/><path d="M158.679,130.274s-4.973-11.36-10.519-12.955.423,14.247.423,14.247Z" transform="translate(-91.307 -73.399)" fill="#5573c6"/><path d="M104.366,115.81s-10.8,2.254-12.222,11.071c-1.951,12.139,12.934,13.095,12.934,13.095Z" transform="translate(-57.594 -72.525)" fill="#5573c6"/><path d="M127.35,94.725s-5,.666-3.384-5.809,6.255-2.8,6.255-2.8Z" transform="translate(-77.431 -53.279)"/><path d="M133.417,138.112s.074-20.444-4-22.372c-5.1-2.417-12.494-1.3-13.843,1.156-1.54,2.81.659,19.764.659,19.764a23.712,23.712,0,0,0,17.182,1.452" transform="translate(-72.036 -71.638)" fill="#5573c6"/><path d="M130.509,106.276l-.287,3.48s.287,1.151,2.309,1.485a4.155,4.155,0,0,0,2.326-.149l-.066-1.78-.067-1.736-3.61-1.112Z" transform="translate(-81.551 -66.555)" fill="#d8998b"/><path d="M132.611,106.777a1.154,1.154,0,0,0,.073.344c.635,1.8,2.734,2.353,3.6,2.5l-.067-1.736Z" transform="translate(-83.047 -66.868)"/><path d="M132.771,86.245s1.466,4.514.546,6.879-3.1,1.765-4.378,1.164a4.409,4.409,0,0,1-1.815-1.474,1.994,1.994,0,0,1-1.334-3.673,1.953,1.953,0,0,1,1.528.36l-.536-1.323s3.4-6.121,5.988-1.933" transform="translate(-78.166 -53.093)" fill="#d8998b"/><path d="M170.29,122.688s3.534-7.345,3.013-7.442-3.733,6.9-3.733,6.9Z" transform="translate(-106.192 -72.171)"/><path d="M159.895,138.513a.135.135,0,0,1-.131-.147c.2-1.651-1.15-6.862-1.164-6.914a.131.131,0,1,1,.255-.066c.056.216,1.372,5.312,1.171,7.011a.131.131,0,0,1-.13.116" transform="translate(-99.319 -82.218)" fill="#fff"/><path d="M167.337,135.158s-2.263-4.759-3.559-5.426-4.653-.4-4.7,0,2.931,1.234,2.931,1.234a20.671,20.671,0,0,0-2.171,3.445c-.108.667,1.2,2.8,1.513,3.039s1.294-.751,1.294-.751a5.034,5.034,0,0,0,2.081,1.754c1.279.508,3.036-1.315,3.036-1.315Z" transform="translate(-99.621 -80.99)" fill="#d8998b"/><path d="M145.631,97.609a.132.132,0,0,1-.131-.121l-.064-.853a.13.13,0,0,1,.089-.135l.419-.139a.131.131,0,0,1,.083.249l-.322.107.057.751a.131.131,0,0,1-.121.141h-.01" transform="translate(-91.078 -60.342)"/><path d="M168.394,148.567a4.834,4.834,0,0,1-1.262-2.437c-.006-1.087,2.372-.936,2.372-.936l.29,2.114Z" transform="translate(-104.665 -90.922)" fill="#ff9c85"/><path d="M151.268,155.751H135.535a1.009,1.009,0,0,1-1.009-1.009V144.1a1.009,1.009,0,0,1,1.009-1.009h15.733a1.009,1.009,0,0,1,1.009,1.009v10.646a1.009,1.009,0,0,1-1.009,1.009" transform="translate(-84.246 -89.607)"/><path d="M148.255,155.751H132.588a1.007,1.007,0,0,1-1.007-1.007v-10.65a1.007,1.007,0,0,1,1.007-1.007h15.666a1.007,1.007,0,0,1,1.007,1.007v10.65a1.007,1.007,0,0,1-1.007,1.007" transform="translate(-82.402 -89.607)" fill="#304572"/><path d="M156.072,157.532a1.49,1.49,0,1,1-1.49-1.49,1.49,1.49,0,0,1,1.49,1.49" transform="translate(-95.873 -97.72)" fill="#fff"/><path d="M139.048,97.253a.132.132,0,0,1-.132-.128l-.021-.764a.131.131,0,0,1,.076-.123l.412-.189a.131.131,0,0,1,.11.239l-.333.153.019.677a.132.132,0,0,1-.128.135Z" transform="translate(-86.982 -60.143)"/><path d="M120.816,156.59s3.123-1.017,3.536-1.149a4.712,4.712,0,0,1-.093,1.323c-.137.2,6.013,1.146,6,1.741a.777.777,0,0,1-.587.726s1.231.264.9.858a1.163,1.163,0,0,1-.9.618s1.211.588,0,1.338-7.154,1.212-9.059-.689c-1.4-1.4.205-4.767.205-4.767" transform="translate(-75.172 -97.344)" fill="#d8998b"/><path d="M129.1,88.039a4.983,4.983,0,0,0,3.06-1.4,8.292,8.292,0,0,0,1.315-2.477,5.482,5.482,0,0,1,.912,1.219,11.357,11.357,0,0,1,.689,1.456s.936-2.826-1.6-3.988a4.336,4.336,0,0,0-5.641,2c-.774,1.578,1.262,3.2,1.262,3.2" transform="translate(-79.947 -51.631)"/><path d="M108.243,149.412l-.158,7.9s-2.959.48-7.041-2.247c-5.672-3.789-3.709-4.979-3.709-4.979l5.494-3.2Z" transform="translate(-60.75 -91.989)" fill="#5573c6"/><path d="M139.7,164.811l-3.532-.407a.131.131,0,0,1-.115-.146.134.134,0,0,1,.145-.116l3.517.407a.131.131,0,0,1-.015.262" transform="translate(-85.199 -102.792)"/><path d="M139.7,169.441H136.18a.131.131,0,0,1,0-.263H139.7a.131.131,0,1,1,0,.263" transform="translate(-85.2 -105.946)"/><path d="M117.459,148.46a.128.128,0,0,1-.059-.014c-.049-.024-4.905-2.452-7.315-2.624a.132.132,0,0,1-.121-.141.134.134,0,0,1,.14-.122c2.463.176,7.214,2.551,7.414,2.652a.131.131,0,0,1-.059.249" transform="translate(-68.864 -91.156)" fill="#fff"/><path d="M117.176,144.387a.129.129,0,0,1-.082-.029c-.656-.521-2.781-2.268-2.59-2.849.03-.091.116-.2.358-.21h.031c1.254,0,2.358,2.789,2.405,2.909a.132.132,0,0,1-.123.179m-2.282-2.826h-.022c-.09,0-.117.024-.118.03-.079.241.955,1.279,2.089,2.223-.421-.9-1.211-2.253-1.948-2.253" transform="translate(-71.7 -88.487)" fill="#fff"/><path d="M122.068,82.4s.6-3.768-2.619-4.149-2.812,5.988,1.327,5.906,1.292-1.758,1.292-1.758" transform="translate(-73.469 -48.994)"/><path d="M124.687,89.684a.12.12,0,0,1-.028,0,.131.131,0,0,1-.1-.156,4.134,4.134,0,0,1,1.391-2.549.132.132,0,0,1,.148.217,3.97,3.97,0,0,0-1.282,2.387.131.131,0,0,1-.128.1" transform="translate(-78.002 -54.454)" fill="#fff"/><path d="M138.122,93.8a.131.131,0,0,1-.019-.261l1.144-.17a.133.133,0,0,1,.149.111.131.131,0,0,1-.111.149l-1.144.169h-.019" transform="translate(-86.416 -58.47)"/><path d="M145.993,93.842l-.026,0-.765-.154a.131.131,0,1,1,.052-.258l.765.154a.131.131,0,0,1-.026.26" transform="translate(-90.865 -58.507)"/><path d="M143.041,99.842a.131.131,0,0,1-.089-.228c.5-.463,0-1.63-.008-1.642a.131.131,0,0,1,.068-.173.133.133,0,0,1,.173.067c.024.055.583,1.352-.055,1.941a.131.131,0,0,1-.089.035" transform="translate(-89.496 -61.239)"/><path d="M139.064,104.046a.132.132,0,0,1-.038-.006,1.216,1.216,0,0,1-.8-.944.131.131,0,0,1,.259-.046.954.954,0,0,0,.617.739.131.131,0,0,1-.039.257" transform="translate(-86.562 -64.467)"/><path d="M128.193,99.642a.13.13,0,0,1-.091-.037l-1.327-1.282a.131.131,0,1,1,.182-.189l1.327,1.282a.131.131,0,0,1-.091.225" transform="translate(-79.366 -61.433)"/><path d="M126.824,100.707a.131.131,0,0,1-.018-.262l.876-.121a.131.131,0,0,1,.036.26l-.877.121h-.018" transform="translate(-79.34 -62.826)"/><path d="M132.787,117.651a4.05,4.05,0,0,1-3.085-1.236.131.131,0,0,1,.194-.178c1.886,2.051,5.163.743,5.2.73a.131.131,0,0,1,.1.243,7.143,7.143,0,0,1-2.4.441" transform="translate(-81.203 -72.766)" fill="#fff"/><path d="M168.411,134.16a.131.131,0,0,1-.09-.035,3.873,3.873,0,0,0-1.636-.51.131.131,0,0,1-.115-.145.132.132,0,0,1,.145-.115,4.2,4.2,0,0,1,1.785.578.132.132,0,0,1-.09.228" transform="translate(-104.312 -83.512)"/><path d="M117.983,240.19a.131.131,0,0,1-.126-.095l-1.079-3.687-.758,3.384a.13.13,0,0,1-.157.1.131.131,0,0,1-.1-.157l.869-3.881a.131.131,0,0,1,.124-.1.137.137,0,0,1,.13.095l1.222,4.175a.13.13,0,0,1-.089.163.127.127,0,0,1-.037.006" transform="translate(-72.494 -147.638)" fill="#304572"/><path d="M133.879,255.939a.956.956,0,0,0,.956-.956V209.058h-1.912v45.925a.956.956,0,0,0,.956.956" transform="translate(-83.242 -130.921)" fill="#12171e"/><rect width="3.715" height="25.34" transform="translate(16.08 92.905)" fill="#c0bfc1"/><path d="M25.092,316.517H40.681a1.168,1.168,0,1,0,0-2.336H25.092a1.168,1.168,0,0,0,0,2.336" transform="translate(-14.982 -196.753)" fill="#c0bfc1"/><path d="M63.174,321.01a2.511,2.511,0,1,0,2.511-2.511,2.511,2.511,0,0,0-2.511,2.511" transform="translate(-39.562 -199.458)" fill="#c0bfc1"/><path d="M41.273,321.01a2.511,2.511,0,1,0,2.511-2.511,2.511,2.511,0,0,0-2.511,2.511" transform="translate(-25.847 -199.458)" fill="#c0bfc1"/><path d="M19.463,321.01a2.511,2.511,0,1,0,2.511-2.511,2.511,2.511,0,0,0-2.511,2.511" transform="translate(-12.189 -199.458)" fill="#c0bfc1"/><path d="M8.148,185.356a14.645,14.645,0,0,0-6.119,15.03c2.014,11.878,13.856,15.729,24.128,12.923s8.561-10.9,8.561-10.9Z" transform="translate(-1.112 -116.078)" fill="#e0dfe5"/><path d="M9.262,230.735a.132.132,0,0,1-.089-.035c-2.619-2.422-3.1-7-3.124-7.191a.131.131,0,0,1,.262-.026c0,.046.5,4.671,3.041,7.025a.131.131,0,0,1-.089.227" transform="translate(-3.788 -139.88)" fill="#fff"/><path d="M35.244,147.437s5.359.475,7.371,3.062-.647,18.81-.79,19.036-3.877,1.879-10.383,1.735-8.088-1.387-8.3-1.735-1.581-18.664,0-20.215,8.184-2.357,12.106-1.883" transform="translate(-14.018 -92.246)" fill="#283f65"/><path d="M60.778,290.814v6.9l-5.257,1.989-3.313-3.715-.545-6.385Z" transform="translate(-32.354 -181.363)" fill="#d8998b"/><path d="M86.1,286.985v6.9l-5.6,1.989-3.529-3.715-.58-6.385Z" transform="translate(-47.839 -178.965)" fill="#d8998b"/><path d="M58.846,203.425s13.391,6.737,15.034,9.474-.167,25.038-.167,25.038l-11.873.158L60.2,225.632l-9.024-20.994Z" transform="translate(-32.046 -127.393)" fill="#b0c0d2"/><path d="M27.517,207.221a73.222,73.222,0,0,0-.348,7.948c.193,1.964,6.389,6.591,6.389,6.591l.306,19.156,13.728.614s.3-21.891.07-23.953-9.362-9.56-9.362-9.56Z" transform="translate(-16.989 -129.771)" fill="#b0c0d2"/><path d="M48.248,140.176l.077,3.486a3.4,3.4,0,0,0,2.694,1.109,3.613,3.613,0,0,0,2.048-.266l-.251-1.761-.247-1.717-3.7-.728Z" transform="translate(-30.215 -87.784)" fill="#d8998b"/><path d="M49.909,140.505a1.146,1.146,0,0,0,.109.334c.819,1.724,2.96,2.052,3.839,2.111l-.247-1.717Z" transform="translate(-31.255 -87.99)"/><path d="M48.954,119.054s1.927,4.33,1.26,6.775-2.893,2.075-4.226,1.613a4.4,4.4,0,0,1-1.956-1.275,1.991,1.991,0,0,1-1.707-3.509,1.952,1.952,0,0,1,1.554.2l-.67-1.258s2.739-6.433,5.745-2.544" transform="translate(-25.999 -73.775)" fill="#d8998b"/><path d="M60.13,132.453a.129.129,0,0,1-.039-.006.132.132,0,0,1-.087-.164,2.231,2.231,0,0,0-.358-1.678.131.131,0,1,1,.215-.151,2.458,2.458,0,0,1,.394,1.907.132.132,0,0,1-.126.092" transform="translate(-37.338 -81.661)"/><path d="M45.148,134.215a.13.13,0,0,1-.1-.041l-1.18-1.25a.131.131,0,1,1,.191-.181l1.18,1.25a.131.131,0,0,1-.1.221" transform="translate(-27.453 -83.104)"/><path d="M43.783,135.207a.131.131,0,0,1-.019-.261l.816-.124a.132.132,0,0,1,.039.26l-.816.123h-.02" transform="translate(-27.337 -84.43)"/><path d="M55.323,129.766a.131.131,0,0,1-.13-.115l-.1-.809a.131.131,0,1,1,.261-.033l.1.809a.131.131,0,0,1-.114.147h-.017" transform="translate(-34.499 -80.594)"/><path d="M61.724,129.253a.131.131,0,0,1-.13-.112l-.119-.807a.131.131,0,1,1,.26-.039l.119.807a.131.131,0,0,1-.111.149h-.019" transform="translate(-38.498 -80.274)"/><path d="M54.013,126.582a.133.133,0,0,1-.063-.016.132.132,0,0,1-.052-.179A.966.966,0,0,1,54.952,126a.131.131,0,1,1-.062.255c-.022-.005-.551-.127-.761.255a.132.132,0,0,1-.115.068" transform="translate(-33.743 -78.891)"/><path d="M61,125.812a.131.131,0,0,1-.1-.051.629.629,0,0,0-.364-.227.365.365,0,0,0-.274.1.131.131,0,0,1-.173-.2.618.618,0,0,1,.475-.166.889.889,0,0,1,.545.329.131.131,0,0,1-.1.211" transform="translate(-37.601 -78.449)"/><path d="M43.218,120.921a2.552,2.552,0,0,0,1.107-2,2.855,2.855,0,0,0-.336-1.516,11.393,11.393,0,0,0,2.511-.441,3.432,3.432,0,0,0,1.058-.506l.318.374c.347-.016,1.14-2.119.618-2.493s-3.319.6-3.319.6-2.946-.693-4.666,1.4.207,4.562.207,4.562.509-1.08,2.5.023" transform="translate(-24.921 -71.547)"/><path d="M56.893,138.215a.908.908,0,0,1-.257-.037.554.554,0,0,1-.354-.274.744.744,0,0,1-.03-.525.131.131,0,0,1,.068-.077.128.128,0,0,1,.1,0l1.126.421a.131.131,0,0,1,.044.219,1.114,1.114,0,0,1-.7.277m-.413-.616a.368.368,0,0,0,.036.184.3.3,0,0,0,.194.142.705.705,0,0,0,.5-.052Z" transform="translate(-35.206 -85.976)"/><path d="M117.861,164.7l.123-.778a29.689,29.689,0,0,1,4.822-3.023c.773-.315,1.856-.052.942.971a4.327,4.327,0,0,0-.739,1.208,11.765,11.765,0,0,0,2.487-1.137c.648-.429,1.6-2.156,2.151-1.782.884.6-.132,2.281-.132,2.281s.459-2.135,1.331-1.3-1.5,5.023-2.635,6.024-7.1,2.167-7.1,2.167Z" transform="translate(-73.81 -100.265)" fill="#d8998b"/><path d="M134.457,167.837a.131.131,0,0,1-.013-.262,5.243,5.243,0,0,0,2.549-1.293.131.131,0,1,1,.18.191,5.41,5.41,0,0,1-2.7,1.363h-.013" transform="translate(-84.121 -104.11)"/><path d="M134.212,169.995a.131.131,0,0,1-.068-.019l-2.615-1.587a.131.131,0,0,1,.136-.225l2.54,1.541,1.176-.881a.131.131,0,0,1,.158.21l-1.247.934a.131.131,0,0,1-.079.026" transform="translate(-82.329 -105.299)"/><path d="M125.136,169.945a.131.131,0,0,1-.039-.257,5.8,5.8,0,0,0,2.355-1.5.132.132,0,0,1,.2.173,5.956,5.956,0,0,1-2.474,1.576.12.12,0,0,1-.039.006" transform="translate(-78.283 -105.299)"/><path d="M71.7,154.009s6.076,5.369,10.98,5.683a17.17,17.17,0,0,0,5.538-.977l2.818,7.375s-9.91,9.39-20.006,1.991c-2.9-2.126.67-14.071.67-14.071" transform="translate(-43.77 -96.447)" fill="#283f65"/><path d="M73.7,168.576a.132.132,0,0,1-.132-.132,49.721,49.721,0,0,0-1.617-5.788.131.131,0,0,1,.249-.083,47.722,47.722,0,0,1,1.631,5.871.132.132,0,0,1-.132.132" transform="translate(-45.056 -101.755)" fill="#e29233"/><path d="M73.876,310.159s.246-11.1,1.971-10.867a7.675,7.675,0,0,1,3.449,1.85s3.942-2.081,5.667-.925a9.09,9.09,0,0,1,2.715,3.7l9.6,6.243s1.161,1.85.827,2.774c-.261.722-14.866.317-21.273.1a2.969,2.969,0,0,1-2.959-2.879" transform="translate(-46.264 -187.427)" fill="#12263f"/><path d="M63.1,309.239s-2.407-5.893-3.963-6.91-5.444,2.212-5.444,2.212-3.257-3.429-4.058-1.63-1.189,8.241-.582,9.663,5.075,3.79,10.944,3.773c2.766-.007,6.755-.862,6.757-1.812,0-1.494-2.711-4.312-3.654-5.3" transform="translate(-30.531 -189.207)" fill="#12263f"/><path d="M72.9,315.6h-4.5a.131.131,0,1,1,0-.263h4.5a.131.131,0,1,1,0,.263" transform="translate(-42.749 -197.481)" fill="#fff"/><path d="M55.345,152.7l1.971,13.065H55.684l-1.45-13.334Z" transform="translate(-33.964 -95.459)" fill="#304572"/><path d="M117.127,174.736l1.434-.478a.356.356,0,0,0,.225-.45l-2.609-7.818a.356.356,0,0,0-.45-.225l-1.434.478a.356.356,0,0,0-.225.45l2.609,7.818a.356.356,0,0,0,.45.225" transform="translate(-71.423 -103.797)" fill="#304572"/><path d="M74.444,321.06H69.673a.131.131,0,1,1,0-.263h4.771a.131.131,0,1,1,0,.263" transform="translate(-43.55 -200.897)" fill="#fff"/><path d="M104.226,313.1a.131.131,0,0,1-.018-.262l2.871-.392a.131.131,0,1,1,.036.26l-2.871.392h-.018" transform="translate(-65.189 -195.668)" fill="#fff"/><path d="M106.154,317.836a.131.131,0,0,1-.019-.261l4.831-.735a.131.131,0,0,1,.039.26l-4.831.735h-.02" transform="translate(-66.396 -198.417)" fill="#fff"/><path d="M73.96,242.345a.132.132,0,0,1-.132-.135c.005-.2.5-20.439,0-22.813-.342-1.617-5.476-6.66-5.528-6.711a.132.132,0,0,1,.047-.217l3.7-1.359a.131.131,0,1,1,.09.247l-3.507,1.287c.87.863,5.125,5.145,5.453,6.7.508,2.4.024,22.039,0,22.873a.132.132,0,0,1-.132.128" transform="translate(-42.75 -132.201)" fill="#304572"/><path d="M47.649,190.918a19.747,19.747,0,0,0,3.858,1.214c.636-.087,2.931-.344,3.024-.827l-.863-1.479a3.016,3.016,0,0,0,2.153.087,4.7,4.7,0,0,0,2.125-2.049c.212-.693-.789-.553-.789-.553s1.133-.705-.306-1.309-7.66-1.5-10.25.125,1.049,4.79,1.049,4.79" transform="translate(-28.6 -115.984)" fill="#d8998b"/><path d="M70.876,190.172a.127.127,0,0,1-.042-.007,7.66,7.66,0,0,0-3.107-.288.131.131,0,1,1-.037-.26,7.78,7.78,0,0,1,3.229.3.131.131,0,0,1-.042.256" transform="translate(-42.319 -118.713)"/><path d="M44.384,244.3a.134.134,0,0,1-.072-.021.132.132,0,0,1-.059-.123c.008-.08.2-1.967,1.131-2.591a1.192,1.192,0,0,1,1.053-.136c.333.1.515.27.54.5.093.85-2.26,2.2-2.529,2.351a.131.131,0,0,1-.064.016m1.646-2.672a.878.878,0,0,0-.5.155,3.483,3.483,0,0,0-.98,2.137c.948-.563,2.217-1.488,2.166-1.96-.013-.118-.132-.213-.355-.28a1.13,1.13,0,0,0-.331-.053" transform="translate(-27.713 -151.153)" fill="#304572"/><path d="M67.846,184.485h16.6l4.74-10.721H73.24a1,1,0,0,0-.919.6Z" transform="translate(-42.488 -108.818)" fill="#fff"/><path d="M71.7,184.485H88.3l4.23-9.568a.821.821,0,0,0-.751-1.153H76.443Z" transform="translate(-44.903 -108.818)" fill="#b2b2b2"/><path d="M51.827,203.8H75.259a.677.677,0,1,0,0-1.354H51.827a.677.677,0,1,0,0,1.354" transform="translate(-32.032 -126.783)"/><path d="M11.1,152.7s-9.28,10.1-7.771,16.68,19.829,2.278,19.829,2.278l-.2-7.686-9.523-1.491Z" transform="translate(-1.981 -95.628)" fill="#283f65"/><path d="M20.091,177.876c-.608,0-1.1-.078-1.22-.306-.081-.15-.03-.326.154-.523,1.137-1.219,3.872.213,3.988.275a.132.132,0,0,1-.039.246,19.3,19.3,0,0,1-2.884.308m.253-1.056a1.483,1.483,0,0,0-1.127.406c-.109.117-.13.191-.115.219.15.276,1.814.182,3.415-.068a5.949,5.949,0,0,0-2.173-.557" transform="translate(-11.795 -110.568)" fill="#e29233"/><path d="M27.279,206.784h-.261a.153.153,0,0,1,0-.306h.26a37.255,37.255,0,0,0,8.194-.931.153.153,0,0,1,.076.3,37.564,37.564,0,0,1-8.271.941" transform="translate(-16.825 -128.718)" fill="#e29233"/><path d="M29.632,174.279a.131.131,0,0,1-.075-.24c.842-.582.109-2.539.1-2.559a.131.131,0,0,1,.246-.093c.034.088.813,2.169-.2,2.869a.131.131,0,0,1-.075.023" transform="translate(-18.475 -107.277)" fill="#e29233"/><path d="M3.095,207.934H55.181a1.219,1.219,0,1,0,0-2.438H3.095a1.219,1.219,0,1,0,0,2.438" transform="translate(-1.175 -128.69)" fill="#12171e"/><path d="M56.338,288.567,45.539,288a.131.131,0,0,1-.124-.138.124.124,0,0,1,.138-.124l10.792.565a.131.131,0,0,1-.007.262" transform="translate(-28.441 -180.193)" fill="#304572"/><path d="M93.056,288H83.425a.131.131,0,1,1,0-.263h9.631a.131.131,0,1,1,0,.263" transform="translate(-52.162 -180.196)" fill="#304572"/><path d="M51.615,189.776h1.511a.356.356,0,0,0,.356-.356v-8.241a.356.356,0,0,0-.356-.356H51.615a.356.356,0,0,0-.356.356v8.241a.356.356,0,0,0,.356.356" transform="translate(-32.101 -113.239)" fill="#304572"/><path d="M95.888,185.744a1.41,1.41,0,1,0,1.409-1.409,1.41,1.41,0,0,0-1.409,1.409" transform="translate(-60.049 -115.438)" fill="#fff"/><path d="M52.72,147.669s1.109,3.723.736,3.651a20.852,20.852,0,0,1-2.6-2.07s-1.62,2.056-2.151,2.07-.716-3.991-.716-3.991a3.115,3.115,0,0,0,2.513,1.535c1.964.281,2.215-1.195,2.215-1.195" transform="translate(-30.055 -92.264)" fill="#304572"/><path d="M12.55,255.654a.956.956,0,0,0,.956-.956V208.773H11.594V254.7a.956.956,0,0,0,.956.956" transform="translate(-7.261 -130.742)" fill="#12171e"/><path d="M110.157,41.021H83.667a3.133,3.133,0,0,1-3.13-3.129V26.2a3.133,3.133,0,0,1,3.13-3.129h26.49a3.133,3.133,0,0,1,3.13,3.129v11.69a3.133,3.133,0,0,1-3.13,3.129M83.667,23.335A2.87,2.87,0,0,0,80.8,26.2v11.69a2.87,2.87,0,0,0,2.867,2.867h26.49a2.87,2.87,0,0,0,2.867-2.867V26.2a2.87,2.87,0,0,0-2.867-2.867Z" transform="translate(-50.436 -14.449)" fill="#373f51"/><path d="M113.155,33.687H80.669a.131.131,0,1,1,0-.263h32.486a.131.131,0,1,1,0,.263" transform="translate(-50.436 -20.932)" fill="#373f51"/><path d="M87.187,28.515a.131.131,0,0,1-.09-.227l1.6-1.5a.131.131,0,1,1,.179.192l-1.6,1.5a.13.13,0,0,1-.09.036" transform="translate(-54.518 -16.756)" fill="#373f51"/><path d="M88.786,28.515a.13.13,0,0,1-.09-.036l-1.6-1.5a.131.131,0,1,1,.18-.192l1.6,1.5a.132.132,0,0,1,.006.186.133.133,0,0,1-.1.041" transform="translate(-54.518 -16.756)" fill="#373f51"/><g transform="translate(125.956 23.896)" opacity="0.56" style="mix-blend-mode:screen;isolation:isolate"><g clip-path="url(#c)"><path d="M369.816,80.344a16.409,16.409,0,1,1-16.409-16.409,16.409,16.409,0,0,1,16.409,16.409" transform="translate(-336.999 -63.935)" fill="#e0dfe5"/></g></g><path d="M353.094,96.426a17.69,17.69,0,0,1-2.284-.148,17.361,17.361,0,1,1,2.284.148m-.053-32.97a15.544,15.544,0,1,0,12.342,6.06,15.472,15.472,0,0,0-12.342-6.06" transform="translate(-210.194 -38.569)" fill="#3d5da3"/><path d="M322.609,144.947l-3.554,6.345a10.912,10.912,0,0,0,9.654-3.028c3.739-3.513-6.1-3.317-6.1-3.317" transform="translate(-199.806 -90.771)" fill="#d8998b"/><path d="M236.45,95.688c-.132-.129-4.21,1.648-5.032,7.074s3.552,6.414,3.552,6.414l6.017-3.388-2.318-10.339Z" transform="translate(-144.859 -59.774)"/><path d="M275.226,118.765a24.887,24.887,0,0,0,7.761,6.665c3.879,2.26,9.881,1.436,9.881,1.436l.512,8.146s-13.052,4.492-18.094-1.184c-6.5-7.319-.061-15.063-.061-15.063" transform="translate(-170.577 -74.376)" fill="#12263f"/><path d="M269.081,291.023s2.583,3.624,2.684,4.331-1.875,1.987-1.875,1.987l4.76,5.925H264.1l-.518-11.433Z" transform="translate(-165.066 -182.251)" fill="#3d5da3"/><path d="M249.007,82.056s-4.026-1.862-5.828,1.442c-1.75,3.209.841,6.189.841,6.189l4.446-4.627Z" transform="translate(-151.909 -51.059)"/><rect width="9.149" height="7.956" transform="matrix(0.023, -1, 1, 0.023, 92.533, 119.505)" fill="#d8998b"/><path d="M241.325,174.828s-1.461,5.2-1.545,15.409c-.072,8.815-1.7,28.376-1.036,29.3s14.188.4,14.719.133.663-6.365.663-6.365,9.017-15.116,10.21-17.636-6.63-24.481-6.63-24.481Z" transform="translate(-149.412 -107.208)" fill="#bed2af"/><path d="M242.138,114.284s-6.365,2.327-7.16,5.878,4.774,17.755,6.232,18.245,13.127-2.082,14.188-2.939-.133-9.674-.4-10.9-1.326-6.123-2.785-8.2-2.652-2.219-4.111-2.219-5.967.138-5.967.138" transform="translate(-147.104 -71.483)" fill="#12263f"/><path d="M248.5,113.075a3.711,3.711,0,0,0-1.566.953c-.409.627.355,2.278,2.53,3.563a12.171,12.171,0,0,0,2.93,1.27,12.154,12.154,0,0,0,1.649-3.076,4.4,4.4,0,0,0-.708-2.688Z" transform="translate(-154.574 -70.812)" fill="#e29233"/><path d="M250.991,107.634l.339,3.465a3.389,3.389,0,0,0,2.765.9,3.607,3.607,0,0,0,2.019-.418l-.382-1.734-.375-1.691-3.739-.447Z" transform="translate(-157.181 -67.405)" fill="#d8998b"/><path d="M252.67,107.837a1.143,1.143,0,0,0,.133.324c.945,1.655,3.1,1.821,3.98,1.813l-.375-1.691Z" transform="translate(-158.233 -67.532)"/><path d="M250.9,85.864s2.243,4.166,1.763,6.65-2.724,2.283-4.086,1.923a4.4,4.4,0,0,1-2.043-1.122,1.988,1.988,0,0,1-1.963-3.365,1.947,1.947,0,0,1,1.562.08l-.761-1.2s2.243-6.61,5.528-2.964" transform="translate(-152.721 -53.085)" fill="#d8998b"/><path d="M247.183,316.849a1.151,1.151,0,0,1-1.068-1.173c-.007-2.488.025-8.248.485-8.249.587,0,6.123,1.752,6.123,1.752s.158-3.448,2.591-2.836c1.867.47,4.034,2.657,4.941,3.649a2.112,2.112,0,0,0,1.057.632c1.739.423,6.522,1.818,6.6,4.349.092,3.094-1.166,2.744-1.753,2.745-.5,0-14.905-.678-18.974-.87" transform="translate(-154.127 -191.8)" fill="#304572"/><path d="M247.945,88.832a3.166,3.166,0,0,0,3.029-1.923c1.141-2.163.961-3,.961-3l1.442,2.043a3.944,3.944,0,0,0-.481-2.4c-.661-.9-1.262-.661-1.262-.661l-4.026,1.322-.841,3.365Z" transform="translate(-154.536 -51.887)"/><path d="M280.659,223.213a.132.132,0,0,1-.132-.132l.1-30.81a.133.133,0,0,1,.039-.092l3.026-3.036a.131.131,0,0,1,.186.185l-2.988,3-.1,30.756a.131.131,0,0,1-.131.131" transform="translate(-175.678 -118.425)" fill="#fff"/><path d="M247.415,195.688a.131.131,0,0,1-.018-.261,4.105,4.105,0,0,0,2.863-1.522,4.7,4.7,0,0,0,.754-3.165.132.132,0,0,1,.11-.15.134.134,0,0,1,.15.11,4.884,4.884,0,0,1-.8,3.36,4.354,4.354,0,0,1-3.039,1.627h-.018" transform="translate(-154.86 -119.355)" fill="#fff"/><path d="M263.259,90.874l-.022,0-.581-.1a.131.131,0,0,1,.045-.259l.58.1a.131.131,0,0,1-.022.261" transform="translate(-164.418 -56.682)"/><path d="M257.483,91.146a.131.131,0,0,1-.031-.259l.982-.239a.131.131,0,0,1,.062.255l-.982.239a.123.123,0,0,1-.031,0" transform="translate(-161.165 -56.765)"/><path d="M258.261,95.7a.132.132,0,0,1-.129-.109l-.121-.7a.13.13,0,0,1,.054-.13l.491-.345a.131.131,0,0,1,.151.215l-.423.3.108.621a.132.132,0,0,1-.107.152l-.023,0" transform="translate(-161.576 -59.11)"/><path d="M264.6,94.3a.132.132,0,0,1-.129-.109l-.122-.7a.13.13,0,0,1,.054-.13l.491-.345a.131.131,0,1,1,.151.215l-.423.3.108.621a.132.132,0,0,1-.107.152l-.022,0" transform="translate(-165.545 -58.232)"/><path d="M262.969,97.983a.129.129,0,0,1-.041-.007.131.131,0,0,1-.084-.166,2.739,2.739,0,0,0-.281-1.826.131.131,0,0,1,.23-.126,2.949,2.949,0,0,1,.3,2.034.131.131,0,0,1-.125.09" transform="translate(-164.419 -59.988)"/><path d="M260.2,104.834c-.612,0-.862-.7-.872-.726a.131.131,0,0,1,.124-.175h1.5a.131.131,0,0,1,.124.175c-.01.03-.26.726-.872.726m-.539-.638a.574.574,0,0,0,1.078,0Z" transform="translate(-162.399 -65.087)"/><path d="M247.5,101.787a.128.128,0,0,1-.078-.026l-1.563-1.158a.131.131,0,0,1,.156-.211l1.562,1.157a.131.131,0,0,1-.078.237" transform="translate(-153.931 -62.854)"/><path d="M245.933,103.238a.131.131,0,0,1-.064-.246l1.027-.571a.131.131,0,1,1,.128.229l-1.027.571a.127.127,0,0,1-.064.017" transform="translate(-153.932 -64.13)"/><path d="M249.451,113.255s1.9,1.724,3.27,1.737a1.22,1.22,0,0,0,1.33-1.26l.548,1.925-1.695,1.717-3.026-1.22-1.7-1.9Z" transform="translate(-155.42 -70.925)" fill="#e29233"/><path d="M256.1,124.193a7.843,7.843,0,0,0-1.235,3.607,10.023,10.023,0,0,0,1.07,4.678s2.05-2.325,2.322-4.08a10.525,10.525,0,0,0-.668-4.247,20.12,20.12,0,0,1,1.159,3.408c.229,1.294.547,2.956.547,2.956a6.33,6.33,0,0,0,1.17-3.608c-.074-1.958-2.177-3.244-2.177-3.244Z" transform="translate(-159.593 -77.443)" fill="#e29233"/><path d="M257.183,122.072a1.357,1.357,0,0,1-.369-.042c-.628-.182-.73-1.649-.608-2.246a.131.131,0,0,1,.258.053c-.127.615.039,1.829.423,1.941a3.893,3.893,0,0,0,1.473-.145c-.157-.412-.539-1.534-.23-2.042a.538.538,0,0,1,.435-.259.451.451,0,0,1,.434.179c.377.522-.267,2.086-.342,2.262a.128.128,0,0,1-.059.065l-.026.01a6.294,6.294,0,0,1-1.389.224m1.438-2.481h-.034a.276.276,0,0,0-.233.134c-.2.325.008,1.119.185,1.629.226-.618.433-1.435.247-1.692a.182.182,0,0,0-.165-.073" transform="translate(-160.419 -74.729)" fill="#304572"/><path d="M258.306,129.334a.4.4,0,0,1-.343-.176c-.41-.588.333-2.676.419-2.912a.133.133,0,0,1,.132-.086.131.131,0,0,1,.12.1c.053.234.5,2.308.029,2.9a.445.445,0,0,1-.356.174m.166-2.533c-.263.836-.5,1.908-.293,2.207a.139.139,0,0,0,.126.064.181.181,0,0,0,.152-.076c.267-.332.144-1.448.014-2.195" transform="translate(-161.471 -79.007)" fill="#304572"/><path d="M279.66,136.511a.131.131,0,0,1-.128-.1l-.628-2.882a.129.129,0,0,1,.01-.085,7.387,7.387,0,0,0,.6-3.314,9.644,9.644,0,0,0-1.658-3.951.132.132,0,1,1,.214-.153,9.72,9.72,0,0,1,1.706,4.087,7.547,7.547,0,0,1-.607,3.4l.619,2.839a.131.131,0,0,1-.1.156.12.12,0,0,1-.028,0" transform="translate(-173.991 -78.886)" fill="#e29233"/><path d="M284.583,157.01l-8.2,2.53s6.666,8.387,9.469,3.944-1.269-6.475-1.269-6.475" transform="translate(-173.083 -98.326)" fill="#d8998b"/><path d="M299.682,159.255s4.54,0,4.311,1.218-2.876.641-2.876.641Z" transform="translate(-187.674 -99.732)" fill="#d8998b"/><path d="M336.9,134.6s-1.253-4.363-.015-4.48,1.407,2.589,1.407,2.589Z" transform="translate(-210.632 -81.484)" fill="#d8998b"/><path d="M288.121,151.477l-.274-.355A.814.814,0,0,1,288,149.98l20.974-16.144a.814.814,0,0,1,1.141.148l.274.355a.814.814,0,0,1-.149,1.141l-20.974,16.144a.814.814,0,0,1-1.141-.149" transform="translate(-180.157 -83.708)" fill="#3d5da3"/><path d="M287.374,150.506l-.274-.355a.814.814,0,0,1,.149-1.141l20.974-16.144a.814.814,0,0,1,1.141.148l.274.355a.814.814,0,0,1-.149,1.141l-20.974,16.144a.814.814,0,0,1-1.141-.149" transform="translate(-179.689 -83.1)" fill="#373f51"/><path d="M351.747,96.426a17.689,17.689,0,0,1-2.284-.148,17.361,17.361,0,1,1,2.284.148m-.053-32.97a15.544,15.544,0,1,0,12.342,6.06,15.472,15.472,0,0,0-12.342-6.06" transform="translate(-209.351 -38.569)" fill="#373f51"/><path d="M344.234,83.96a.13.13,0,0,1-.1-.041.132.132,0,0,1,.006-.186l12.274-11.519a.131.131,0,0,1,.18.192L344.324,83.924a.133.133,0,0,1-.09.035" transform="translate(-215.492 -45.201)" fill="#fff"/><path d="M327.374,137.574a2.336,2.336,0,0,0,.209,1.091c.5,1.166,2.493,4.183,3.809,3.913,1.261-.258.207-1.968.207-1.968s1.124,1.208,1.686.16a1.6,1.6,0,0,0-.22-1.689s1.473,2.065,1.7.534-2.274-5.381-3.393-6.031-1.238,1.274-1.238,1.274-1.3-.542-1.706.111c-.431.692.333,1.533.333,1.533a1.106,1.106,0,0,0-1.385,1.072" transform="translate(-205.012 -83.572)" fill="#d8998b"/><path d="M334.2,146.137a.132.132,0,0,1-.109-.058l-2.546-3.808a.131.131,0,1,1,.218-.146l2.547,3.808a.131.131,0,0,1-.109.2" transform="translate(-207.612 -88.968)"/><path d="M338.026,142.079a.131.131,0,0,1-.108-.057l-2.6-3.79a.131.131,0,0,1,.216-.148l2.6,3.79a.131.131,0,0,1-.034.182.129.129,0,0,1-.074.023" transform="translate(-209.974 -86.438)"/><path d="M295.889,162.552a2.317,2.317,0,0,0-.2-1.083c-.49-1.164-2.443-4.193-3.754-3.958-1.257.225-.225,1.94-.225,1.94s-1.108-1.221-1.676-.2a1.584,1.584,0,0,0,.2,1.674s-1.273-1.162-1.511.345,2.039,4.459,3.147,5.128,1.244-1.23,1.244-1.23,1.288.567,1.7-.07c.435-.674-.317-1.523-.317-1.523a1.085,1.085,0,0,0,1.388-1.026" transform="translate(-180.803 -98.632)" fill="#d8998b"/><path d="M299.141,166.274a.132.132,0,0,1-.111-.06l-2.483-3.85a.131.131,0,0,1,.221-.142l2.483,3.85a.132.132,0,0,1-.11.2" transform="translate(-185.697 -101.553)"/><path d="M295.208,170.28a.133.133,0,0,1-.11-.059l-2.539-3.833a.131.131,0,0,1,.219-.145l2.539,3.832a.131.131,0,0,1-.037.182.128.128,0,0,1-.073.022" transform="translate(-183.2 -104.072)"/><path d="M230.076,126.5s-6.7,7.754-2.745,16.212c3.517,7.531,11.805,7.735,16.048,6.41a16.1,16.1,0,0,0,6.31-3.424l-1.192-7.025s-7.724-.032-11.968-.43-6.453-11.743-6.453-11.743" transform="translate(-141.583 -79.219)" fill="#12263f"/><path d="M245.061,157.133c-.549,0-.972-.073-1.077-.277-.12-.235.13-.473.213-.551,1.34-1.272,3.992.134,4.1.195a.131.131,0,0,1-.037.244,20.127,20.127,0,0,1-3.2.389m.636-1.093a1.856,1.856,0,0,0-1.319.455c-.157.148-.169.224-.16.241.135.261,1.9.123,3.6-.177a5.711,5.711,0,0,0-2.118-.519" transform="translate(-152.773 -97.552)" fill="#e29233"/><path d="M258.5,158.078l-3.576-.249a.131.131,0,0,1-.122-.14.134.134,0,0,1,.14-.122l3.567.249a.131.131,0,0,1-.009.262" transform="translate(-159.569 -98.675)" fill="#e29233"/><path d="M631.14,26.534H583.1a.131.131,0,1,1,0-.263H631.14a.131.131,0,1,1,0,.263" transform="translate(-365.079 -16.452)" fill="#fff"/><path d="M704.23,22.592a.131.131,0,0,1-.085-.231l1.245-1.059a.131.131,0,1,1,.17.2l-1.245,1.059a.13.13,0,0,1-.085.031" transform="translate(-440.936 -13.32)" fill="#fff"/><path d="M705.475,22.592a.13.13,0,0,1-.085-.031L704.144,21.5a.131.131,0,1,1,.17-.2l1.245,1.059a.131.131,0,0,1-.085.231" transform="translate(-440.936 -13.32)" fill="#fff"/><path d="M704.181,18.9h-21.6a2.579,2.579,0,0,1-2.576-2.576V6.793a2.579,2.579,0,0,1,2.576-2.576h21.6a2.579,2.579,0,0,1,2.576,2.576v9.532a2.579,2.579,0,0,1-2.576,2.576M682.581,4.48a2.316,2.316,0,0,0-2.314,2.313v9.532a2.316,2.316,0,0,0,2.314,2.313h21.6a2.316,2.316,0,0,0,2.313-2.313V6.793a2.316,2.316,0,0,0-2.313-2.313Z" transform="translate(-425.848 -2.641)" fill="#304572"/><path d="M706.626,12.921h-26.49a.131.131,0,0,1,0-.263h26.49a.131.131,0,1,1,0,.263" transform="translate(-425.848 -7.927)" fill="#304572"/><path d="M732.743,7.623a.54.54,0,1,1-.54-.54.54.54,0,0,1,.54.54" transform="translate(-458.199 -4.436)" fill="#304572"/><path d="M738.238,7.623a.54.54,0,1,1-.54-.54.54.54,0,0,1,.54.54" transform="translate(-461.64 -4.436)" fill="#304572"/><path d="M743.974,7.623a.54.54,0,1,1-.54-.54.54.54,0,0,1,.54.54" transform="translate(-465.232 -4.436)" fill="#304572"/></g></g></g><g transform="translate(1001.099 7580.985)"><g clip-path="url(#d)"><g transform="translate(0 0)"><g clip-path="url(#d)"><g transform="translate(33.928 20.59)" opacity="0.09" style="mix-blend-mode:multiply;isolation:isolate"><g clip-path="url(#f)"><path d="M114.613,42.274A14.457,14.457,0,0,0,92.382,56.058c-3.979.7-16.48,3.092-25.462,6.91a1.805,1.805,0,0,0-1.074,1.981c.083.462.19,1,.325,1.544a1.8,1.8,0,0,0,2.153,1.31A189.784,189.784,0,0,0,93.387,59.93a14.456,14.456,0,1,0,21.226-17.656" transform="translate(-65.817 -39.942)" fill="#17014e"/></g></g><path d="M90.914,64.745s-15.7,3.693-26.144,9.071a1.806,1.806,0,0,0-.926,2.055c.117.455.263.981.437,1.516a1.794,1.794,0,0,0,2.243,1.149,189.9,189.9,0,0,0,25.6-10.264Z" transform="translate(-30.906 -31.369)" fill="#7f7aff"/><path d="M84.727,78.5c1.732-.65,3.631-1.391,5.659-2.225a32.781,32.781,0,0,0-1.42-5.315c-1.851.593-3.807,1.258-5.774,1.984A28.944,28.944,0,0,0,84.727,78.5" transform="translate(-40.307 -34.382)" fill="#3a257a"/><path d="M140.6,53.465a14.457,14.457,0,1,0-19.63,5.714,14.457,14.457,0,0,0,19.63-5.714" transform="translate(-54.977 -15.527)" fill="#ff966d"/><path d="M140.8,54.9a11.33,11.33,0,1,0-15.384,4.478A11.33,11.33,0,0,0,140.8,54.9" transform="translate(-57.916 -18.466)" fill="#d6ceff"/><path d="M115.516,69.454a.5.5,0,0,1-.433-.25,14.945,14.945,0,0,1-1.909-5.726.5.5,0,1,1,.993-.119,13.951,13.951,0,0,0,1.781,5.345.5.5,0,0,1-.432.75Z" transform="translate(-55.074 -30.726)" fill="#17014e"/><path d="M143.524,54.9a11.329,11.329,0,0,0-18.366-13.017v.6h1.794v1.793h1.794v1.794h1.794v1.794h1.793v1.794h1.794v1.794h-1.794v1.793H130.54v1.794h-1.794V56.83h-1.794v1.794a11.478,11.478,0,0,0,1.187.754A11.33,11.33,0,0,0,143.524,54.9" transform="translate(-60.639 -18.467)" fill="#7f7aff"/><g transform="translate(64.525 21.389)" style="mix-blend-mode:soft-light;isolation:isolate"><g clip-path="url(#g)"><path d="M130.21,41.656c-2.875.759-5.345,3.648-5.009,5.648s2.286,1.883,3.127.4.672-2.639,2.5-3.345,2.689-3.581-.622-2.706" transform="translate(-125.17 -41.492)" fill="#fff"/></g></g><path d="M1.118-.5A1.618,1.618,0,1,1-.5,1.118,1.619,1.619,0,0,1,1.118-.5Zm0,2.235A.618.618,0,1,0,.5,1.118.618.618,0,0,0,1.118,1.735Z" transform="translate(76.383 30.894)" fill="#17014e"/><path d="M130.383,42.124a.5.5,0,0,1-.486-.619,14.8,14.8,0,0,0-.221-6.872,16.642,16.642,0,0,0-3.925-7.3,14.457,14.457,0,0,0-6.494-3.965,21.474,21.474,0,0,0-10.019-.266.5.5,0,0,1-.182-.983,22.456,22.456,0,0,1,10.485.291,15.444,15.444,0,0,1,6.937,4.237c4.217,4.469,5.4,10.975,4.39,15.092A.5.5,0,0,1,130.383,42.124Z" transform="translate(-52.882 -10.73)" fill="#17014e"/><g transform="translate(2.156 1.399)" opacity="0.09" style="mix-blend-mode:multiply;isolation:isolate"><g clip-path="url(#h)"><path d="M55.826,27.588a425.416,425.416,0,0,1-46.5-1.815,5.421,5.421,0,0,1-4.917-5A106.829,106.829,0,0,1,4.346,7.831,5.41,5.41,0,0,1,9.876,2.715c15.087.335,30.251.688,46.171,1.212a5.4,5.4,0,0,1,5.216,4.842,67.252,67.252,0,0,1-.123,14.039,5.416,5.416,0,0,1-5.315,4.781" transform="translate(-4.182 -2.714)" fill="#17014e"/></g></g><path d="M52.3,23.65a425.474,425.474,0,0,1-46.531.214A5.42,5.42,0,0,1,.635,19.088,106.981,106.981,0,0,1,0,6.155,5.411,5.411,0,0,1,5.306.8C20.393.48,35.558.171,51.487,0A5.4,5.4,0,0,1,56.909,4.61a67.231,67.231,0,0,1,.49,14.032,5.415,5.415,0,0,1-5.1,5.008" transform="translate(0 0)" fill="#fff"/><path d="M4.912,40.187a5.459,5.459,0,0,0,3.234,1.271,425.473,425.473,0,0,0,46.531-.214,5.416,5.416,0,0,0,5.093-4.929,7.3,7.3,0,0,1-4.01,2.956,19.961,19.961,0,0,1-6.3.6c-14.888-.159-29.776-.308-44.546.311" transform="translate(-2.38 -17.595)" fill="#7f7aff"/><path d="M9.4,43.811a.5.5,0,0,1-.018-1c14.2-.52,28.463-.368,42.258-.221a.5.5,0,0,1-.011,1c-13.784-.147-28.038-.3-42.211.22Z" transform="translate(-4.552 -20.81)" fill="#17014e"/><path d="M98.133,41.552a.5.5,0,0,1-.043-1,12.258,12.258,0,0,0,2.684-.506,7.432,7.432,0,0,0,2.7-1.519.5.5,0,1,1,.668.744A8.438,8.438,0,0,1,101.078,41a13.239,13.239,0,0,1-2.9.549Z" transform="translate(-47.546 -18.847)" fill="#17014e"/><path d="M27.167,10.54h-15.2a1.21,1.21,0,0,1,0-2.421h15.2a1.21,1.21,0,1,1,0,2.421" transform="translate(-5.212 -3.933)" fill="#ff966d"/><path d="M70.467,10.54H67.374a1.21,1.21,0,1,1,0-2.421h3.093a1.21,1.21,0,0,1,0,2.421" transform="translate(-32.057 -3.933)" fill="#ff966d"/><path d="M95.25,10.54H92.157a1.21,1.21,0,1,1,0-2.421H95.25a1.21,1.21,0,0,1,0,2.421" transform="translate(-44.064 -3.933)" fill="#ff966d"/><path d="M24.519.5H0A.5.5,0,0,1-.5,0,.5.5,0,0,1,0-.5H24.519a.5.5,0,0,1,.5.5A.5.5,0,0,1,24.519.5Z" transform="translate(5.546 11.543)" fill="#17014e"/><path d="M13.956.5H0A.5.5,0,0,1-.5,0,.5.5,0,0,1,0-.5H13.956a.5.5,0,0,1,.5.5A.5.5,0,0,1,13.956.5Z" transform="translate(5.546 15.173)" fill="#17014e"/><path d="M2.925.5H0A.5.5,0,0,1-.5,0,.5.5,0,0,1,0-.5H2.925a.5.5,0,0,1,.5.5A.5.5,0,0,1,2.925.5Z" transform="translate(41.902 13.333)" fill="#17014e"/><path d="M84.626,26.558a.5.5,0,0,1-.357-.85l.838-.854-.818-.746a.5.5,0,0,1,.674-.739l1.2,1.1a.5.5,0,0,1,.02.72l-1.2,1.224A.5.5,0,0,1,84.626,26.558Z" transform="translate(-41.002 -11.501)" fill="#17014e"/><path d="M71.666,21.306h-2.09V23.4h-2.09v2.09H66.164v.4A1.407,1.407,0,0,0,67.571,27.3h2.7a1.407,1.407,0,0,0,1.407-1.407V21.334c0-.041-.008-.079-.012-.119Z" transform="translate(-32.057 -10.279)" fill="#7f7aff"/><path d="M2.729-.5h.056A3.233,3.233,0,0,1,6.014,2.729V4.64A3.233,3.233,0,0,1,2.785,7.869H2.729A3.233,3.233,0,0,1-.5,4.64V2.729A3.233,3.233,0,0,1,2.729-.5Zm.056,7.369A2.232,2.232,0,0,0,5.014,4.64V2.729A2.232,2.232,0,0,0,2.785.5H2.729A2.232,2.232,0,0,0,.5,2.729V4.64A2.232,2.232,0,0,0,2.729,6.869Z" transform="translate(34.107 9.649)" fill="#17014e"/><path d="M96.461,21.006a1.4,1.4,0,0,0-.086-.469H95.143v1.556H93.587v1.555H92.031V25.2H90.947v.357a1.407,1.407,0,0,0,1.406,1.407h2.7a1.407,1.407,0,0,0,1.407-1.407Z" transform="translate(-44.064 -9.95)" fill="#7f7aff"/><path d="M2.729-.5h.056A3.233,3.233,0,0,1,6.014,2.729V4.64A3.233,3.233,0,0,1,2.785,7.869H2.729A3.233,3.233,0,0,1-.5,4.64V2.729A3.233,3.233,0,0,1,2.729-.5Zm.056,7.369A2.232,2.232,0,0,0,5.014,4.64V2.729A2.232,2.232,0,0,0,2.785.5H2.729A2.232,2.232,0,0,0,.5,2.729V4.64A2.232,2.232,0,0,0,2.729,6.869Z" transform="translate(46.883 9.649)" fill="#17014e"/></g></g></g></g><g transform="translate(1135.4 7580.985)"><g transform="translate(0 7.062)" opacity="0.51"><g transform="translate(0 0)" clip-path="url(#i)"><path d="M5.662,54.761H1.011A1.011,1.011,0,0,1,0,53.749V23.864a1.011,1.011,0,0,1,1.011-1.011H5.662a1.011,1.011,0,0,1,1.011,1.011V53.749a1.011,1.011,0,0,1-1.011,1.011" transform="translate(0 -12.575)" fill="#e2e2e2"/><path d="M34.272,60.291H29.621A1.011,1.011,0,0,1,28.61,59.28V33.915A1.011,1.011,0,0,1,29.621,32.9h4.651a1.011,1.011,0,0,1,1.011,1.011V59.28a1.011,1.011,0,0,1-1.011,1.011" transform="translate(-15.742 -18.105)" fill="#e2e2e2"/><path d="M62.882,49.356H58.231a1.011,1.011,0,0,1-1.011-1.011v-34.3a1.011,1.011,0,0,1,1.011-1.011h4.651a1.011,1.011,0,0,1,1.011,1.011v34.3a1.011,1.011,0,0,1-1.011,1.011" transform="translate(-31.485 -7.17)" fill="#e2e2e2"/><path d="M91.492,42.186H86.841a1.011,1.011,0,0,1-1.011-1.011V1.011A1.011,1.011,0,0,1,86.841,0h4.651A1.011,1.011,0,0,1,92.5,1.011V41.175a1.011,1.011,0,0,1-1.011,1.011" transform="translate(-47.227 0)" fill="#e2e2e2"/><path d="M120.1,64.342h-4.651a1.011,1.011,0,0,1-1.011-1.011V41.277a1.011,1.011,0,0,1,1.011-1.011H120.1a1.011,1.011,0,0,1,1.011,1.011V63.331a1.011,1.011,0,0,1-1.011,1.011" transform="translate(-62.97 -22.156)" fill="#e2e2e2"/><path d="M148.712,54.761h-4.651a1.011,1.011,0,0,1-1.011-1.011V23.864a1.011,1.011,0,0,1,1.011-1.011h4.651a1.011,1.011,0,0,1,1.011,1.011V53.749a1.011,1.011,0,0,1-1.011,1.011" transform="translate(-78.712 -12.575)" fill="#e2e2e2"/></g></g><g transform="translate(16.024)"><g clip-path="url(#j)"><g transform="translate(0.225 0.225)"><g clip-path="url(#k)"><rect width="60.407" height="60.407" transform="matrix(0.571, -0.821, 0.821, 0.571, -20.337, 29.273)" fill="#ff966d"/></g></g><g transform="translate(0 0)"><g clip-path="url(#j)"><path d="M.5,22.2h0A21.7,21.7,0,1,0,22.2.5,21.7,21.7,0,0,0,.5,22.2h0A21.7,21.7,0,1,1,22.2,43.9,21.7,21.7,0,0,1,.5,22.2Z" transform="translate(-0.275 -0.275)" fill="url(#m)"/></g></g><g transform="translate(5.966 5.966)"><g clip-path="url(#n)"><rect width="31.919" height="31.919" transform="translate(0 0)" fill="url(#o)"/></g></g><g transform="translate(11.708 11.708)"><g clip-path="url(#p)"><rect width="27.876" height="27.876" transform="translate(-8.795 15.419) rotate(-60.299)" fill="#5c8e2e"/></g></g><g transform="translate(17.45 17.45)"><g clip-path="url(#q)"><rect width="8.952" height="8.952" transform="translate(0 0)" fill="url(#r)"/></g></g><g transform="translate(0 0)"><g clip-path="url(#j)"><path d="M48.363,30.517,73.958,15.809a.225.225,0,1,1,.224.39L48.587,30.907a.225.225,0,0,1-.224-.39" transform="translate(-26.549 -8.683)" fill="#12263f"/></g></g><g transform="translate(44.229 1.402)"><g clip-path="url(#t)"><rect width="13.427" height="12.79" transform="translate(-3.78 2.188) rotate(-30.065)" fill="#12263f"/></g></g></g></g></g></g></g></svg>