<svg xmlns="http://www.w3.org/2000/svg" xmlns:xlink="http://www.w3.org/1999/xlink" width="91" height="91" viewBox="0 0 91 91"><defs><linearGradient id="a" x1="-0.79" y1="0.438" x2="1.168" y2="0.5" gradientUnits="objectBoundingBox"><stop offset="0" stop-color="#8477fc"/><stop offset="1" stop-color="#cdc8fd"/></linearGradient><clipPath id="b"><rect width="51.124" height="49.851" fill="#8477fc"/></clipPath></defs><g transform="translate(-792.051 -1355.8)"><g transform="translate(792.051 1355.8)"><path d="M45.5,0A45.5,45.5,0,1,1,0,45.5,45.5,45.5,0,0,1,45.5,0Z" transform="translate(0)" fill="url(#a)"/><circle cx="37.853" cy="37.853" r="37.853" transform="translate(7.647 7.647)" fill="#fff"/></g><g transform="translate(811.989 1373.998)"><g clip-path="url(#b)"><path d="M31.906,0c2.045.673,2.6,3.241,2.679,5.153l12.113,0a5.167,5.167,0,0,1,4.479,4.126V31.945c-.231.4-.292.879-.5,1.306a5.115,5.115,0,0,1-3.6,2.686l-13.926.038a7.577,7.577,0,0,1-15.067,0L4.247,35.952A5.007,5.007,0,0,1,.059,31.382V9.734A5.056,5.056,0,0,1,4.443,5.153l14.412-.015A18.153,18.153,0,0,1,19.907,3c2.3-3.236,5.935-1.71,9.152-2.183A8.925,8.925,0,0,0,31.6,0Zm-1.34,2.164a13.106,13.106,0,0,1-2.417.416c-2.345.136-5.49-.886-7,1.55a6.845,6.845,0,0,0-.781,2.31v1.7A2.206,2.206,0,0,0,22.2,6.935c.31-.495.5-1.479,1.205-1.479.521,0,1,.768,1.39,1.089a8.1,8.1,0,0,0,5.566,1.7c.878,0,1.058.147,1.646-.569a4.92,4.92,0,0,0,.33-5.168c-.6-1.136-.763-.6-1.77-.343M6.246,6.8h-1.8c-1.291,0-2.865,1.936-2.736,3.241l.006,21.335c-.057,1.128,1.542,2.938,2.627,2.938H6.246Zm12.469,0H7.895V34.315h4.843c.106-2.333-.192-4.729.116-7.046A10.489,10.489,0,0,1,21.3,18.485c-.073-.442.092-1.111-.027-1.513-.066-.224-.984-.974-1.213-1.26a7.285,7.285,0,0,1-1.342-3.192Zm16.9,0c-.44.007-.886-.02-1.326.014a6.131,6.131,0,0,1-1.348,2.311,2.869,2.869,0,0,1-.4.273c-.117.2.02,2.417-.024,2.914a6.977,6.977,0,0,1-1.3,3.342c-.253.321-1.118,1.01-1.226,1.247-.173.38.018,1.146-.06,1.584a10.773,10.773,0,0,1,6.584,4.151,12.3,12.3,0,0,1,1.563,3.022c.782,2.643.244,5.917.412,8.656h4.74V6.8c-2.54.028-5.087-.038-7.626,0m9.275,27.514H46.9c1.085,0,2.684-1.81,2.627-2.938l.006-21.335C49.662,8.737,48.088,6.8,46.8,6.8H44.891ZM29.433,9.893a12.36,12.36,0,0,1-3.325-.643,9.952,9.952,0,0,1-2.4-1.425c-.2,0-.62.717-.808.9a4.426,4.426,0,0,1-1.814,1.02c-.233.069-.631-.027-.712.215a9.961,9.961,0,0,0,.2,3.173,5.257,5.257,0,0,0,6.278,3.357.191.191,0,0,0,.1-.1c.032-.007.069,0,.1,0,1.755-.228,3.813-2.246,3.813-4.07V9.893c-.477-.024-.967.033-1.443,0M28.3,17.828a9.078,9.078,0,0,1-5.358,0c.027.277-.048.609,0,.874.083.442,2.28,1.887,2.715,2.313.4-.53,2.547-1.826,2.639-2.314.05-.264-.026-.6,0-.873m.1,3.091c-.234.179-1.373.922-1.332,1.171.034.2,1.363,1.07,1.59,1.293a11.352,11.352,0,0,0,1.288-1.845c.093-.131.968-.976.824-1.133-.375.015-1.05-.334-1.376-.28-.236.039-.77.623-.994.795M20.467,20.4c-.044.154.05.176.1.262a23.994,23.994,0,0,0,1.931,2.61,4.656,4.656,0,0,0,1.673-1.187c.024-.142-.206-.308-.3-.4-.2-.195-1.617-1.348-1.779-1.415-.565-.233-1.069.067-1.623.129m10.923,2.163A28.119,28.119,0,0,1,29.234,25.3a1.14,1.14,0,0,1-.805-.033l-2.754-2.084c-1.048.28-2.874,2.959-3.97,1.905l-2.7-3.845c-.285-.166-1.184.552-1.425.752-3.975,3.317-3.125,7.654-3.193,12.315H18.1a7.577,7.577,0,0,1,12.048-5.2A7.757,7.757,0,0,1,33.153,34.3c.579.025,1.163,0,1.742.011.651.007,1.307-.005,1.959,0-.16-3.065.5-6.455-.84-9.312a9.12,9.12,0,0,0-2.942-3.447c-.207-.13-.585-.456-.837-.309-.117.068-.7,1.118-.844,1.32m-7.729,7.11A5.8,5.8,0,0,0,23.456,40.6c6.465,2.517,10.952-5.869,5.923-9.993a5.6,5.6,0,0,0-5.716-.93" transform="translate(-0.053)" fill="#8477fc"/><path d="M51.124,419.881c-.21.205-.316.532-.665.52l-38.226-.011a3.454,3.454,0,0,1-6.331.967c-.157-.251-.283-.871-.5-.944l-4.824-.019a.842.842,0,0,1,.21-1.64c.692-.1,4.594.138,4.774-.019a3.452,3.452,0,0,1,6.675.017l37.912-.01a1.182,1.182,0,0,1,.974.521ZM8.873,421.324c.012,0,.057.076.134.071a1.75,1.75,0,0,0,.175-3.472c-.04-.008-.114-.1-.253-.111a1.756,1.756,0,1,0-.056,3.512" transform="translate(0 -373.2)" fill="#8477fc"/><path d="M259.572,158.775a.148.148,0,0,1,.1-.1.192.192,0,0,1-.1.1" transform="translate(-232.768 -142.287)" fill="#8477fc"/><path d="M446.893,160.449a.875.875,0,0,1,1.166.852,42.348,42.348,0,0,1-.012,6.279c-.154,1.1-1.591,1.209-1.741-.3a40.2,40.2,0,0,1,0-5.768c.037-.362.193-.946.587-1.062" transform="translate(-400.127 -143.837)" fill="#8477fc"/><path d="M28.758,160.386c.769-.229,1.1.273,1.168.954.185,1.989-.141,4.264-.01,6.284a.838.838,0,0,1-1.648.012c-.265-1.987.213-4.555,0-6.606a.868.868,0,0,1,.491-.643" transform="translate(-25.275 -143.774)" fill="#8477fc"/><path d="M222.415,303.337a26.149,26.149,0,0,1,3.712,2.214,1.412,1.412,0,0,1-.111,2.16,36.187,36.187,0,0,1-3.91,2.324c-.908.476-1.816.79-2.427-.3l-.048-6.036c.638-1.707,1.669-.963,2.785-.358m.824,2.37a11.206,11.206,0,0,0-1.958-1.03v3.813a9.854,9.854,0,0,0,1.855-1.03,8.6,8.6,0,0,0,1.442-.877c.081-.165-.078-.141-.132-.175-.394-.242-.808-.465-1.207-.7" transform="translate(-196.951 -271.393)" fill="#8477fc"/></g></g></g></svg>