<svg xmlns="http://www.w3.org/2000/svg" xmlns:xlink="http://www.w3.org/1999/xlink" width="51.332" height="51.332" viewBox="0 0 51.332 51.332"><defs><clipPath id="a"><path d="M0-682.665H51.332v51.332H0Z" transform="translate(0 682.665)"/></clipPath></defs><g transform="translate(0 682.665)"><g transform="translate(0 -682.665)"><g transform="translate(0 0)" clip-path="url(#a)"><g transform="translate(26.283 24.797)"><path d="M-274.493-317.1h-21.323a1,1,0,0,1-1-1V-341.89a1,1,0,0,1,1-1h21.323a1,1,0,0,1,1,1V-318.1a1,1,0,0,1-1,1" transform="translate(296.811 342.886)" fill="#f8e4cd"/></g><g transform="translate(34.167 24.797)"><path d="M-74.441-113.739v-9.248h-6.053v9.248a1,1,0,0,0,1,1h4.061a1,1,0,0,0,1-1" transform="translate(80.493 122.986)" fill="#f98824"/></g><g transform="translate(45.209 24.797)"><path d="M-12.248-12.248a1,1,0,0,0-1-1h3.393a1,1,0,0,1,1,1V11.543a1,1,0,0,1-1,1h-3.393a1,1,0,0,0,1-1" transform="translate(13.244 13.244)" fill="#f0c89b"/></g><g transform="translate(37.94 41.72)"><path d="M-93.746-70.434h-6.626a1,1,0,0,1-1-1v-3.735a1,1,0,0,1,1-1h6.626a1,1,0,0,1,1,1v3.735a1,1,0,0,1-1,1" transform="translate(101.368 76.161)" fill="#f0c89b"/></g><g transform="translate(42.928 41.719)"><path d="M-44.643-12.248v3.735a1,1,0,0,1-1,1h-2.634a1,1,0,0,0,1-1v-3.735a1,1,0,0,0-1-1h2.634a1,1,0,0,1,1,1" transform="translate(48.273 13.244)" fill="#d97706"/></g><g transform="translate(37.94 41.72)"><path d="M-93.746-69.934h-6.626a1.5,1.5,0,0,1-1.5-1.5v-3.735a1.5,1.5,0,0,1,1.5-1.5h6.626a1.5,1.5,0,0,1,1.5,1.5v3.735A1.5,1.5,0,0,1-93.746-69.934Zm-6.626-5.727a.5.5,0,0,0-.5.5v3.735a.5.5,0,0,0,.5.5h6.626a.5.5,0,0,0,.5-.5v-3.735a.5.5,0,0,0-.5-.5Z" transform="translate(101.368 76.161)"/></g><g transform="translate(34.167 24.797)"><path d="M-74.441-88.019v-7.157h-6.053v7.157a1,1,0,0,0,1,1h4.061a1,1,0,0,0,1-1" transform="translate(80.493 95.176)" fill="#fee7c9"/></g><g transform="translate(34.167 24.797)"><path d="M-75.436-86.523H-79.5a1.5,1.5,0,0,1-1.5-1.5v-7.157a.5.5,0,0,1,.5-.5h6.053a.5.5,0,0,1,.5.5v7.157A1.5,1.5,0,0,1-75.436-86.523Zm-4.557-8.152v6.657a.5.5,0,0,0,.5.5h4.061a.5.5,0,0,0,.5-.5v-6.657Z" transform="translate(80.493 95.176)"/></g><g transform="translate(26.283 24.797)"><path d="M-200.418,26.283h-21.323a1.5,1.5,0,0,1-1.5-1.5V1a1.5,1.5,0,0,1,1.5-1.5h15.753a.5.5,0,0,1,.5.5.5.5,0,0,1-.5.5h-15.753a.5.5,0,0,0-.5.5V24.787a.5.5,0,0,0,.5.5h21.323a.5.5,0,0,0,.5-.5V1a.5.5,0,0,0-.5-.5h-1.858a.5.5,0,0,1-.5-.5.5.5,0,0,1,.5-.5h1.858a1.5,1.5,0,0,1,1.5,1.5V24.787A1.5,1.5,0,0,1-200.418,26.283Z" transform="translate(222.737)"/></g><g transform="translate(41.055 38.993)"><path d="M-67.676.5h-5.5a.5.5,0,0,1-.5-.5.5.5,0,0,1,.5-.5h5.5a.5.5,0,0,1,.5.5A.5.5,0,0,1-67.676.5Z" transform="translate(73.178 0)"/></g><g transform="translate(45.45 36.747)"><path d="M-13.629.5h-1.108a.5.5,0,0,1-.5-.5.5.5,0,0,1,.5-.5h1.108a.5.5,0,0,1,.5.5A.5.5,0,0,1-13.629.5Z" transform="translate(14.737 0)"/></g><g transform="translate(1.735 1.701)"><path d="M-438.863-24.5V20.39a1.991,1.991,0,0,1-1.991,1.991h-31.7a1.992,1.992,0,0,1-1.992-1.991V-24.5a1.992,1.992,0,0,1,1.992-1.992h31.7a1.991,1.991,0,0,1,1.991,1.992" transform="translate(474.546 26.493)" fill="#b3dbf9"/></g><g transform="translate(17.567 36.747)"><path d="M-244.136,0V11.837a1.991,1.991,0,0,1-1.991,1.991H-263.08a1,1,0,0,1-.906-.992V1a1,1,0,0,1,1-1Z" transform="translate(263.986)" fill="#21c1f8"/></g><g transform="translate(31.889 1.705)"><path d="M-68-24.5V20.4a1.992,1.992,0,0,1-1.992,1.992h-3.537A1.991,1.991,0,0,0-71.536,20.4V-24.5a1.991,1.991,0,0,0-1.992-1.992h3.537A1.992,1.992,0,0,1-68-24.5" transform="translate(73.528 26.488)" fill="#44a6f1"/></g><g transform="translate(1.735 1.705)"><path d="M33.691-511.711H1.992A2.494,2.494,0,0,1-.5-514.2V-518.9a.5.5,0,0,1,.5-.5.5.5,0,0,1,.5.5v4.693a1.493,1.493,0,0,0,1.492,1.492h31.7a1.493,1.493,0,0,0,1.492-1.492v-44.892a1.493,1.493,0,0,0-1.492-1.492H1.992A1.493,1.493,0,0,0,.5-559.095v36.486a.5.5,0,0,1-.5.5.5.5,0,0,1-.5-.5v-36.486a2.494,2.494,0,0,1,2.492-2.492h31.7a2.494,2.494,0,0,1,2.492,2.492V-514.2A2.494,2.494,0,0,1,33.691-511.711Z" transform="translate(0 561.087)"/></g><g transform="translate(5.718 5.689)"><path d="M-340.883-12.244V26.673a1,1,0,0,1-1,1H-367.6a1,1,0,0,1-1-1V-12.244a1,1,0,0,1,1-1h25.724a1,1,0,0,1,1,1" transform="translate(368.599 13.24)" fill="#f2eff2"/></g><g transform="translate(10.466 5.689)"><path d="M-192.852-57.19a.243.243,0,0,1-.239.19h-12.663a.242.242,0,0,1-.238-.19l-.386-1.708h13.91Zm-15.68-4.65v1.946a1,1,0,0,0,.637.927.741.741,0,0,0,.015.234l.422,1.874a1.739,1.739,0,0,0,1.705,1.364h12.663a1.739,1.739,0,0,0,1.705-1.364l.422-1.874a.737.737,0,0,0,.015-.234,1,1,0,0,0,.637-.927V-61.84Z" transform="translate(208.533 61.84)" fill="#e1dde1"/></g><g transform="translate(17.567 36.747)"><path d="M-195.147,0V8.854a1,1,0,0,1-1,1h-14.871V1a1,1,0,0,1,1-1Z" transform="translate(211.014)" fill="#e1dde1"/></g><g transform="translate(10.466 37.626)"><path d="M-140-12.331v2.6a1,1,0,0,1-1,1h-9.378a1,1,0,0,1-1-1v-2.6a1,1,0,0,1,1-1h9.378a1,1,0,0,1,1,1" transform="translate(151.386 13.333)" fill="#d97706"/></g><g transform="translate(17.567 37.626)"><path d="M-52.665-12.331v2.6a1,1,0,0,1-1,1h-3.279v-4.486a.917.917,0,0,1,.007-.117h3.272a1,1,0,0,1,1,1" transform="translate(56.947 13.333)" fill="#f0c89b"/></g><g transform="translate(10.466 37.626)"><path d="M-127.672-56.105h-9.378a1.5,1.5,0,0,1-1.5-1.5v-2.6a1.5,1.5,0,0,1,1.5-1.5h9.378a1.5,1.5,0,0,1,1.5,1.5v2.6A1.5,1.5,0,0,1-127.672-56.105Zm-9.378-4.6a.5.5,0,0,0-.5.5v2.6a.5.5,0,0,0,.5.5h9.378a.5.5,0,0,0,.5-.5v-2.6a.5.5,0,0,0-.5-.5Z" transform="translate(138.053 61.208)"/></g><g transform="translate(29.201 5.688)"><path d="M-12.248-12.248a1,1,0,0,0-1-1h3.238a1,1,0,0,1,1,1V26.669a1,1,0,0,1-1,1h-3.238a1,1,0,0,0,1-1" transform="translate(13.244 13.244)" fill="#e1dde1"/></g><g transform="translate(5.718 5.688)"><path d="M-341.879-72.318H-367.6a1.5,1.5,0,0,1-1.5-1.5v-38.917a1.5,1.5,0,0,1,1.5-1.5h25.725a1.5,1.5,0,0,1,1.5,1.5v7.556a.5.5,0,0,1-.5.5.5.5,0,0,1-.5-.5v-7.556a.5.5,0,0,0-.5-.5H-367.6a.5.5,0,0,0-.5.5v38.917a.5.5,0,0,0,.5.5h25.725a.5.5,0,0,0,.5-.5v-27.649a.5.5,0,0,1,.5-.5.5.5,0,0,1,.5.5v27.649A1.5,1.5,0,0,1-341.879-72.318Z" transform="translate(368.599 113.726)"/></g><g transform="translate(10.466 0.752)"><path d="M-211.847-78.4h-16.229a1,1,0,0,1-1-1v-4.383a1,1,0,0,1,1-1h16.229a1,1,0,0,1,1,1v4.383a1,1,0,0,1-1,1" transform="translate(229.071 84.77)" fill="#d9ecfc"/></g><g transform="translate(24.443 0.752)"><path d="M-52.2-12.248v4.383a1,1,0,0,1-1,1h-3.248a1,1,0,0,0,1-1v-4.383a1,1,0,0,0-1-1H-53.2a1,1,0,0,1,1,1" transform="translate(56.444 13.244)" fill="#b3dbf9"/></g><g transform="translate(10.466 0.752)"><path d="M-211.847-77.9h-16.229a1.5,1.5,0,0,1-1.5-1.5v-4.383a1.5,1.5,0,0,1,1.5-1.5h16.229a1.5,1.5,0,0,1,1.5,1.5v4.383A1.5,1.5,0,0,1-211.847-77.9Zm-16.229-6.374a.5.5,0,0,0-.5.5v4.383a.5.5,0,0,0,.5.5h16.229a.5.5,0,0,0,.5-.5v-4.383a.5.5,0,0,0-.5-.5Z" transform="translate(229.071 84.77)"/></g><g transform="translate(11.851 7.126)"><path d="M-191.421,3.151h-12.663a1.488,1.488,0,0,1-1.459-1.167L-205.966.11a.5.5,0,0,1,.378-.6.5.5,0,0,1,.6.378l.422,1.874a.493.493,0,0,0,.484.387h12.663a.493.493,0,0,0,.484-.387l.423-1.874a.5.5,0,0,1,.6-.378.5.5,0,0,1,.378.6l-.422,1.874A1.487,1.487,0,0,1-191.421,3.151Z" transform="translate(205.478)"/></g><g transform="translate(20.554 36.747)"><path d="M-237.751-170.131h-18.335a1,1,0,0,1-1-1v-11.841a1,1,0,0,1,1-1h18.335a1,1,0,0,1,1,1v11.841a1,1,0,0,1-1,1" transform="translate(257.082 183.964)" fill="#f8e4cd"/></g><g transform="translate(28.438 36.747)"><path d="M-56.07-91.692v-7.455h-4.559v7.455a1,1,0,0,0,1,1h2.567a1,1,0,0,0,1-1" transform="translate(60.629 99.148)" fill="#d97706"/></g><g transform="translate(36.493 36.747)"><path d="M-53.975-12.248V-.407a1,1,0,0,1-1,1h-3.393a1,1,0,0,0,1-1V-12.248a1,1,0,0,0-1-1h3.393a1,1,0,0,1,1,1" transform="translate(58.364 13.244)" fill="#f0c89b"/></g><g transform="translate(28.438 36.747)"><path d="M-56.07-65.973v-5.364h-4.559v5.364a1,1,0,0,0,1,1h2.567a1,1,0,0,0,1-1" transform="translate(60.629 71.337)" fill="#fee7c9"/></g><g transform="translate(28.438 36.747)"><path d="M-57.066-64.477h-2.567a1.5,1.5,0,0,1-1.5-1.5v-5.364a.5.5,0,0,1,.5-.5h4.559a.5.5,0,0,1,.5.5v5.364A1.5,1.5,0,0,1-57.066-64.477Zm-3.063-6.36v4.864a.5.5,0,0,0,.5.5h2.567a.5.5,0,0,0,.5-.5v-4.864Z" transform="translate(60.629 71.337)"/></g><g transform="translate(20.554 36.747)"><path d="M-237.751-169.631h-18.335a1.5,1.5,0,0,1-1.5-1.5v-11.841a1.5,1.5,0,0,1,1.5-1.5h18.335a1.5,1.5,0,0,1,1.5,1.5v11.841A1.5,1.5,0,0,1-237.751-169.631Zm-18.335-13.833a.5.5,0,0,0-.5.5v11.841a.5.5,0,0,0,.5.5h18.335a.5.5,0,0,0,.5-.5v-11.841a.5.5,0,0,0-.5-.5Z" transform="translate(257.082 183.964)"/></g><g transform="translate(23.538 45.262)"><path d="M1.372.5H0A.5.5,0,0,1-.5,0,.5.5,0,0,1,0-.5H1.372a.5.5,0,0,1,.5.5A.5.5,0,0,1,1.372.5Z" transform="translate(0 0)"/></g><g transform="translate(23.538 47.682)"><path d="M5.63.5H0A.5.5,0,0,1-.5,0,.5.5,0,0,1,0-.5H5.63a.5.5,0,0,1,.5.5A.5.5,0,0,1,5.63.5Z" transform="translate(0 0)"/></g><g transform="translate(11.278 22.727)"><path d="M12.345.5H0A.5.5,0,0,1-.5,0,.5.5,0,0,1,0-.5H12.345a.5.5,0,0,1,.5.5A.5.5,0,0,1,12.345.5Z" transform="translate(0 0)"/></g><g transform="translate(27.173 21.856)"><path d="M.914-8.772a.5.5,0,0,1-.354-.146l-.914-.915a.5.5,0,0,1,0-.707.5.5,0,0,1,.707,0l.561.561L2.3-11.368a.5.5,0,0,1,.707,0,.5.5,0,0,1,0,.707L1.268-8.918A.5.5,0,0,1,.914-8.772Z" transform="translate(0 11.015)"/></g><g transform="translate(11.278 26.861)"><path d="M12.345.5H0A.5.5,0,0,1-.5,0,.5.5,0,0,1,0-.5H12.345a.5.5,0,0,1,.5.5A.5.5,0,0,1,12.345.5Z" transform="translate(0 0)"/></g><g transform="translate(27.173 25.989)"><path d="M.914-8.772a.5.5,0,0,1-.354-.146l-.914-.915a.5.5,0,0,1,0-.707.5.5,0,0,1,.707,0l.561.561L2.3-11.368a.5.5,0,0,1,.707,0,.5.5,0,0,1,0,.707L1.268-8.918A.5.5,0,0,1,.914-8.772Z" transform="translate(0 11.015)"/></g><g transform="translate(11.278 30.994)"><path d="M12.345.5H0A.5.5,0,0,1-.5,0,.5.5,0,0,1,0-.5H12.345a.5.5,0,0,1,.5.5A.5.5,0,0,1,12.345.5Z" transform="translate(0 0)"/></g><g transform="translate(27.173 30.123)"><path d="M.914-8.772a.5.5,0,0,1-.354-.146l-.914-.915a.5.5,0,0,1,0-.707.5.5,0,0,1,.707,0l.561.561L2.3-11.368a.5.5,0,0,1,.707,0,.5.5,0,0,1,0,.707L1.268-8.918A.5.5,0,0,1,.914-8.772Z" transform="translate(0 11.015)"/></g><g transform="translate(17.311 13.626)"><path d="M-57.864-40.571a2.892,2.892,0,0,1-2.889-2.889,2.892,2.892,0,0,1,2.889-2.889,2.874,2.874,0,0,1,2.011.815.5.5,0,0,1,.026.69l-1.67,1.886a.5.5,0,0,1-.706.043.5.5,0,0,1-.043-.706l1.313-1.483a1.88,1.88,0,0,0-.932-.245,1.891,1.891,0,0,0-1.889,1.889,1.891,1.891,0,0,0,1.889,1.889,1.879,1.879,0,0,0,1.694-1.052.5.5,0,0,1,.67-.226.5.5,0,0,1,.226.67A2.873,2.873,0,0,1-57.864-40.571Z" transform="translate(60.253 45.849)"/></g><g transform="translate(13.244 3.934)"><path d="M0,.372a.5.5,0,0,1-.5-.5v-.01a.5.5,0,0,1,.5-.5.5.5,0,0,1,.5.5v.01A.5.5,0,0,1,0,.372Z" transform="translate(0 0.139)"/></g><g transform="translate(25.908 3.934)"><path d="M0,.372a.5.5,0,0,1-.5-.5v-.01a.5.5,0,0,1,.5-.5.5.5,0,0,1,.5.5v.01A.5.5,0,0,1,0,.372Z" transform="translate(0 0.139)"/></g></g></g></g></svg>