<svg xmlns="http://www.w3.org/2000/svg" xmlns:xlink="http://www.w3.org/1999/xlink" width="119" height="119" viewBox="0 0 119 119"><defs><linearGradient id="a" x1="-0.79" y1="0.438" x2="1.168" y2="0.5" gradientUnits="objectBoundingBox"><stop offset="0" stop-color="#8477fc"/><stop offset="1" stop-color="#cdc8fd"/></linearGradient><clipPath id="b"><rect width="59.177" height="75.774" fill="#8477fc"/></clipPath></defs><g transform="translate(-792.051 -1355.8)"><g transform="translate(792.493 1355.8)"><path d="M59.5,0A59.5,59.5,0,1,1,0,59.5,59.5,59.5,0,0,1,59.5,0Z" transform="translate(-0.442)" fill="url(#a)"/><circle cx="49.5" cy="49.5" r="49.5" transform="translate(9.558 10)" fill="#fff"/></g><g transform="translate(820.608 1373.77)"><g clip-path="url(#b)"><path d="M113.534,17.056V31.4c2.911-.286,2.147,3.177,4.82,3.537,1.8.243,2.6-.2,4.31,1.014,1.221.868,1.205,1.629,1.963,2.622,1.465,1.917,4.78.794,6.868,1.119,1.308.2.942,1.444.713,2.322a18.854,18.854,0,0,1-2.479,5.36h-2.884a16.726,16.726,0,0,0,2.81-5.325h-3.624a7.25,7.25,0,0,1-2.51-1.187c-1.389-1.159-1.481-3.253-3.567-3.533-1.935-.259-3.26.117-4.873-1.487-.489-.486-.935-1.715-1.176-1.93-.385-.344-2.323-.065-2.94-.126a5.681,5.681,0,0,1-4.2,3.492c-1.139.153-2.01-.187-3.1.451-1.132.663-1.345,2.205-2.487,3.133a7.268,7.268,0,0,1-2.511,1.187H95.045a16.5,16.5,0,0,0,2.367,4.733H94.453a33.537,33.537,0,0,1-2.028-5c-.2-.855-.419-1.906.779-2.093,2.088-.325,5.4.8,6.868-1.119.758-.993.742-1.754,1.963-2.622,1.71-1.216,2.508-.771,4.311-1.014,2.673-.36,1.909-3.823,4.82-3.537V28c-3.346,2.08-7.445,3.2-11.081,1.1-3-1.73-5-5.6-5.967-8.823a13.834,13.834,0,0,1-.7-3.435c.151-.831,2.137-1.437,2.882-1.71,4.811-1.765,11.012-2.669,14.866,1.482-.195-2.075-1.068-3.99-1.188-6.132-.471-8.442,6.664-10.84,13.842-10.44a16.76,16.76,0,0,1,2.988.414c.819.327.883,2.1.931,2.914.221,3.735-.366,8.7-2.889,11.619-2.911,3.369-7.343,3.231-11.317,2.069M125.2,2.577c-4.368-.5-11.463-.212-12.664,5.129a13.765,13.765,0,0,0,.256,5.506c1.139-.669,4.171-4.639,5.135-4.852a1.2,1.2,0,0,1,1.408,1.709c-1.19,1.6-3.222,2.938-4.4,4.474-.114.148-.287.187-.22.444,1.976.309,3.714.745,5.7.156,4.754-1.41,5.344-8.466,4.785-12.564M111.166,24.008c-.16-9.38-8.6-9.077-15.229-6.2.936,3.907,3.12,9.577,7.779,10.029A10.313,10.313,0,0,0,109.835,26c-.96-.678-5.791-2.526-6.134-3.33a1.218,1.218,0,0,1,1.055-1.729c1.034-.051,5.115,2.692,6.409,3.063" transform="translate(-78.622 0.001)" fill="#8477fc"/><path d="M39.644,336.3l2.78-.034c.958-1.207,2.191-3.581,3.7-4.067a26.119,26.119,0,0,1,5.88-.2,1.774,1.774,0,0,1,1.778,2.234,55.556,55.556,0,0,1-3.059,7,11.507,11.507,0,0,1-1.093,1.57c-3.82,2.434-7.466,5.484-11.571,7.362l-18.275.066-1.253,1.073a3.907,3.907,0,0,1-.208,3.827,27.965,27.965,0,0,1-2.416,2.613,1.2,1.2,0,0,1-1.994-1.1c.175-1.361,4.158-2.982,2.064-4.89L4.517,339.406c-1.337-1.046-2.085,1.293-3.258,1.342A1.193,1.193,0,0,1,.117,339a10.826,10.826,0,0,1,1.762-1.639c1.535-1.077,2.93-.674,4.335.351l6.228-5.467a4.212,4.212,0,0,1,2.133-.825c2.308-.228,9.5-.262,11.577.252,1.585.393,2.818,1.2,4.562,1.354,2.01.176,4.6-.266,6.48.028a3.267,3.267,0,0,1,2.449,3.246m11.538-1.924H46.966c-1.247.763-2.27,3.392-3.335,4.061-.794.5-3.835.07-3.987.228a3.159,3.159,0,0,1-3.025,3.409c-3.815.343-8.126-.276-12,0a1.2,1.2,0,0,1-.4-2.345l12.611-.109a1.267,1.267,0,0,0,.37-.37,10.477,10.477,0,0,0-.106-3.659c-2.8-.52-5.776.2-8.575-.522-.9-.235-1.886-.827-2.783-1.063-1.794-.472-8.674-.424-10.726-.231a2.019,2.019,0,0,0-.843.193l-6.322,5.508,9.242,9.981c.6-.552,1.376-1.527,2.215-1.628l18.674-.11,10.028-6.685c1.321-2.067,2.033-4.487,3.175-6.661" transform="translate(0 -282.266)" fill="#8477fc"/><path d="M325.556,137.581a46.211,46.211,0,0,0,1.928-4.356,23.089,23.089,0,0,0-8.434-26.037l1.55-1.846c10.435,7.518,13.689,22.552,6.8,33.57-.557-.535-1.028-1.2-1.849-1.33" transform="translate(-271.86 -89.76)" fill="#8477fc"/><path d="M61.04,168.356l-2.122.729a25.031,25.031,0,0,1,2.12-26.759l.867,2.849a23.426,23.426,0,0,0-.865,23.181" transform="translate(-47.723 -121.275)" fill="#8477fc"/></g></g></g></svg>