<svg xmlns="http://www.w3.org/2000/svg" xmlns:xlink="http://www.w3.org/1999/xlink" width="190" height="118.539" viewBox="0 0 190 118.539"><defs><clipPath id="a"><rect width="190" height="118.539" rx="12" transform="translate(285 1948)" fill="#f7f0fe"/></clipPath><clipPath id="b"><rect width="152.769" height="225.98" fill="none"/></clipPath></defs><g transform="translate(-1127 -4189)"><g transform="translate(842 2241)" clip-path="url(#a)"><rect width="190" height="118.539" rx="12" transform="translate(285 1948)" fill="#f7f0fe"/><g transform="translate(303.616 1955.314)"><g clip-path="url(#b)"><path d="M98.157,36.189A29.481,29.481,0,0,1,69.836,65.653a29.482,29.482,0,0,1,0-58.918A29.475,29.475,0,0,1,98.157,36.189" transform="translate(46.838 7.6)" fill="#b671fc"/><path d="M70.055,66.238a29.863,29.863,0,0,1-.03-59.682,29.864,29.864,0,0,1,.03,59.682M70.025,7.32a29.1,29.1,0,0,0,.03,58.154,29.1,29.1,0,0,0-.03-58.154" transform="translate(46.636 7.398)" fill="#303030"/><path d="M50.682,26.959c1.626,7.3,9.87,11.57,17.417,9.891A13.782,13.782,0,0,0,78.82,20.582,13.781,13.781,0,0,0,62.214,10.393C52.24,6.941,40.654,18.969,50.682,26.959" transform="translate(52.845 11.043)" fill="#303030"/><path d="M52.034,18.4c-4.206,1.926-3.139,8.344,0,9.359a6.744,6.744,0,0,0-6.411,2.95c-2.988,4.553,2.039,13.535,19.939,13.535,11.087,0,15.246-.911,19.407-5.053s1.2-10.8-3.759-11.432a5.584,5.584,0,0,0-1.739-9.612Z" transform="translate(50.574 20.481)" fill="#303030"/><path d="M48.087,24.73a16.431,16.431,0,0,1,1.4-6.858,9.9,9.9,0,0,1,8.271-6.249c1.386,3.563,3.818,3.982,7,6.081C67.113,19.251,67.5,23,67.5,23c-.332,1.258.779,4.6.779,4.6l.2,5,1.443,7.856,3.252,1.056s-1.526,4.378-10.106,5-6.928-5.279-6.928-5.279l2.88-.564.113-4.253c-6,.217-11.049-3.263-11.045-11.685" transform="translate(54.265 13.116)" fill="#d48983"/><path d="M64.749,22.9h-.017c-2.358-.1-5.6-.856-7.635-2.675-3.584-3.21-4.159-7.877-3.448-9.376a.383.383,0,0,1,.692.328c-.553,1.166-.106,5.457,3.267,8.48,1.882,1.684,4.93,2.384,7.156,2.478a.383.383,0,0,1-.015.766" transform="translate(60.241 11.993)" fill="#303030"/><path d="M56.839,19.308a5.987,5.987,0,0,1,3.51-3.323,3.748,3.748,0,0,1,4.344,1.479,3.583,3.583,0,0,1-1.177,4.293,6.085,6.085,0,0,1-5.253,1.007" transform="translate(64.141 17.838)" fill="#d48983"/><path d="M60.068,23.555a6.794,6.794,0,0,1-1.7-.215.383.383,0,1,1,.192-.741,5.714,5.714,0,0,0,4.919-.937,3.22,3.22,0,0,0,1.079-3.814,3.384,3.384,0,0,0-3.9-1.292,5.56,5.56,0,0,0-3.274,3.116.383.383,0,1,1-.7-.319,6.328,6.328,0,0,1,3.744-3.529,4.119,4.119,0,0,1,4.8,1.664,3.931,3.931,0,0,1-1.275,4.772,6.262,6.262,0,0,1-3.891,1.294" transform="translate(63.939 17.633)" fill="#303030"/><path d="M57.94,20.18h-.019a.383.383,0,0,1-.364-.4,3.33,3.33,0,0,1,1.7-2.663,3.507,3.507,0,0,1,3.205-.074.383.383,0,0,1-.345.683,2.729,2.729,0,0,0-2.49.06,2.555,2.555,0,0,0-1.3,2.035.381.381,0,0,1-.381.362" transform="translate(64.951 18.833)" fill="#303030"/><path d="M58.076,18.423a.383.383,0,0,1-.136-.741,4.707,4.707,0,0,1,1.371-.332,2.6,2.6,0,0,1,1.469.311.383.383,0,0,1-.39.66,1.88,1.88,0,0,0-1.034-.206,4.033,4.033,0,0,0-1.143.283.386.386,0,0,1-.136.026" transform="translate(65.105 19.573)" fill="#303030"/><path d="M59.462,22.188c-.081,1.986-3.665,3.693-6.207,3.965l.045-1.66a12.265,12.265,0,0,0,6.162-2.305" transform="translate(60.097 25.038)" fill="#303030"/><path d="M52.7,21.505a3.821,3.821,0,0,1-1.494-.279.384.384,0,0,1,.3-.7,4.147,4.147,0,0,0,4.3-1.1.382.382,0,1,1,.617.451A4.846,4.846,0,0,1,52.7,21.505" transform="translate(57.526 21.739)" fill="#303030"/><path d="M49.206,15.743a3.012,3.012,0,0,1,1.139-.057,2.941,2.941,0,0,1,2.688,2.837,3.91,3.91,0,0,1-4.493.162,8.724,8.724,0,0,1,.666-2.942" transform="translate(54.776 17.667)" fill="#fff"/><path d="M49.158,18.45a1.6,1.6,0,0,0,2.139.121,1.543,1.543,0,0,0,.317-2.169,1.6,1.6,0,0,0-2.62,1.826,1.455,1.455,0,0,0,.164.221" transform="translate(55.066 17.883)" fill="#303030"/><path d="M50.885,16.077l-1.354,1.041,1.741-.255Z" transform="translate(55.895 18.143)" fill="#fff"/><path d="M52.971,18.992a.378.378,0,0,1-.366-.272,3.124,3.124,0,0,0-2.29-2.2,2.867,2.867,0,0,0-1.286-.151.386.386,0,0,1-.43-.33.382.382,0,0,1,.328-.43,3.709,3.709,0,0,1,1.624.181A3.906,3.906,0,0,1,53.335,18.5a.381.381,0,0,1-.255.477.4.4,0,0,1-.109.015" transform="translate(54.838 17.581)" fill="#303030"/><path d="M49.361,16.857a.44.44,0,0,1-.074-.006,1.676,1.676,0,0,1-1.273-1.2.382.382,0,1,1,.739-.2.913.913,0,0,0,.683.641.383.383,0,0,1-.074.758" transform="translate(54.167 17.122)" fill="#303030"/><path d="M49.386,15.744a.383.383,0,0,1-.179-.722,4.679,4.679,0,0,1,3.865-.277.382.382,0,1,1-.33.69,3.949,3.949,0,0,0-3.178.264.39.39,0,0,1-.179.045" transform="translate(55.299 16.302)" fill="#303030"/><path d="M58.431,17.588A3.064,3.064,0,0,0,55.6,15.81a2.94,2.94,0,0,0-3.031,2.467c.611,1.647,4.472,1.779,5.866-.69" transform="translate(59.318 17.841)" fill="#fff"/><path d="M53.879,18.713a1.681,1.681,0,0,0,2.363-.089,1.655,1.655,0,0,0,.017-2.348,1.679,1.679,0,0,0-2.36.089,1.653,1.653,0,0,0-.019,2.348" transform="translate(60.26 17.867)" fill="#303030"/><path d="M55.469,16l-1.286,1.3,1.811-.528Z" transform="translate(61.144 18.058)" fill="#fff"/><path d="M52.767,18.712a.373.373,0,0,1-.155-.034.38.38,0,0,1-.194-.5,3.854,3.854,0,0,1,3.112-2.333,3.5,3.5,0,0,1,3.384,1.115.382.382,0,1,1-.539.543,2.737,2.737,0,0,0-2.707-.9,3.121,3.121,0,0,0-2.552,1.89.38.38,0,0,1-.349.228" transform="translate(59.114 17.789)" fill="#303030"/><path d="M55.529,17.442a.383.383,0,0,1-.026-.764.907.907,0,0,0,.758-.547.383.383,0,0,1,.711.287,1.677,1.677,0,0,1-1.418,1.024h-.026" transform="translate(62.231 17.933)" fill="#303030"/><path d="M58.589,16.284a.386.386,0,0,1-.258-.1,4.978,4.978,0,0,0-5.032-.877.383.383,0,0,1-.23-.73,5.717,5.717,0,0,1,5.777,1.039.383.383,0,0,1-.258.666" transform="translate(59.586 16.062)" fill="#303030"/><path d="M52.207,22.725c-1.3-.513-2.067-1.652-1.39-2.912.607-1.128,2.007-1.822,2.265-4.487" transform="translate(57.062 17.295)" fill="#d48983"/><path d="M52.41,23.311a.367.367,0,0,1-.14-.028,2.963,2.963,0,0,1-1.758-1.63,2.183,2.183,0,0,1,.17-1.82,6.005,6.005,0,0,1,.734-1A5.4,5.4,0,0,0,52.9,15.491a.384.384,0,0,1,.764.074A6.146,6.146,0,0,1,52,19.32a5.307,5.307,0,0,0-.647.877,1.417,1.417,0,0,0-.126,1.192,2.211,2.211,0,0,0,1.32,1.183.383.383,0,0,1-.14.739" transform="translate(56.859 17.092)" fill="#303030"/><path d="M57.2,20.685a1.674,1.674,0,1,0,1.249-2.011A1.674,1.674,0,0,0,57.2,20.685" transform="translate(64.5 21.022)" fill="#00826f"/><path d="M58.99,19.59a1.076,1.076,0,1,0,.8-1.294,1.077,1.077,0,0,0-.8,1.294" transform="translate(66.536 20.615)" fill="#00826f"/><path d="M56.881,25.491,55.325,41.68a29.493,29.493,0,0,1-11.117-9.161c5.717-4.915,7.218-6.151,12.673-7.028" transform="translate(49.887 28.766)" fill="#d48983"/><path d="M85.088,34.936A29.387,29.387,0,0,1,64.137,44.9a29.372,29.372,0,0,1-17.579-6.688C48.386,31.384,54.229,25.9,54.229,25.9l5.57-.526S56.926,29.8,62.13,30.364c6.947.749,11.326-5.238,11.326-5.238a44.392,44.392,0,0,1,8.178,2.135c2.454,1.03,3.327,3.98,3.455,7.675" transform="translate(52.539 28.354)" fill="#fff"/><path d="M64.354,45.485a29.593,29.593,0,0,1-17.837-6.773.384.384,0,0,1-.126-.394c1.835-6.856,7.537-12.264,7.78-12.492a.387.387,0,0,1,.226-.1l5.568-.524a.377.377,0,0,1,.362.181.384.384,0,0,1,0,.407c-.013.019-1.16,1.82-.556,3.084.343.724,1.222,1.164,2.607,1.313,6.639.719,10.932-5.023,10.974-5.081a.383.383,0,0,1,.37-.153,44.045,44.045,0,0,1,8.263,2.16c2.331.977,3.538,3.6,3.691,8.016a.387.387,0,0,1-.1.266A29.962,29.962,0,0,1,64.354,45.485M47.2,38.278a28.825,28.825,0,0,0,17.158,6.443A29.19,29.19,0,0,0,84.9,35c-.162-3.991-1.215-6.343-3.216-7.184a42.916,42.916,0,0,0-7.867-2.071c-.839,1.03-5.162,5.894-11.528,5.2-1.669-.181-2.752-.768-3.218-1.747a3.891,3.891,0,0,1,.253-3.171l-4.725.447c-.739.724-5.689,5.734-7.4,11.8" transform="translate(52.337 28.151)" fill="#303030"/><path d="M71.561,29.636a29.609,29.609,0,0,1-9.87,9.889A18.348,18.348,0,0,1,63.978,26.1a16.176,16.176,0,0,1,7.584,3.54" transform="translate(69.162 29.449)" fill="#d48983"/><path d="M62.16,40.111a.384.384,0,0,1-.375-.3A18.178,18.178,0,0,1,63.831,26.1a.383.383,0,0,1,.651.4,17.427,17.427,0,0,0-1.948,13.148.384.384,0,0,1-.294.455.337.337,0,0,1-.081.009" transform="translate(69.155 29.245)" fill="#303030"/><path d="M33.355,51.07a4.849,4.849,0,0,1-4.346-4.425,2.085,2.085,0,0,1,.609-1.75L30.9,43.612l5.66,5.583-1.281,1.286a2.168,2.168,0,0,1-1.92.59" transform="translate(32.714 49.215)" fill="#f55571"/><path d="M33.952,51.692a2.821,2.821,0,0,1-.462-.04A5.224,5.224,0,0,1,28.833,46.9a2.475,2.475,0,0,1,.715-2.075l1.281-1.283a.382.382,0,0,1,.538,0l5.66,5.583a.377.377,0,0,1,.115.27.392.392,0,0,1-.111.272l-1.283,1.288a2.54,2.54,0,0,1-1.8.736M31.1,44.355l-1.011,1.013a1.7,1.7,0,0,0-.5,1.426,4.468,4.468,0,0,0,4.033,4.1,1.784,1.784,0,0,0,1.581-.481L36.217,49.4Z" transform="translate(32.511 49.012)" fill="#303030"/><path d="M54.9,39.519a6.955,6.955,0,0,0-5.066-5.044.747.747,0,0,0-.743.179L30.4,53.418a1.723,1.723,0,0,0-.451,1.59A5.426,5.426,0,0,0,34.3,59.428a1.823,1.823,0,0,0,1.752-.421L54.719,40.266a.762.762,0,0,0,.177-.747" transform="translate(33.747 38.866)" fill="#303030"/><path d="M35.017,60.079A2.616,2.616,0,0,1,34.408,60a5.814,5.814,0,0,1-4.636-4.712,2.118,2.118,0,0,1,.558-1.943L49.02,34.584a1.14,1.14,0,0,1,1.12-.277,7.342,7.342,0,0,1,5.325,5.308,1.139,1.139,0,0,1-.272,1.122L36.526,59.478a2.107,2.107,0,0,1-1.509.6M49.812,35.027a.345.345,0,0,0-.249.1L30.873,53.889a1.351,1.351,0,0,0-.351,1.243,5.036,5.036,0,0,0,4.07,4.127,1.45,1.45,0,0,0,1.392-.321L54.65,40.2a.37.37,0,0,0,.079-.368,6.536,6.536,0,0,0-4.8-4.785.445.445,0,0,0-.117-.017" transform="translate(33.543 38.663)" fill="#303030"/><path d="M55.02,34.258A3.518,3.518,0,0,0,52.455,31.7a.381.381,0,0,0-.377.092L35.006,48.914a.872.872,0,0,0-.23.807,2.75,2.75,0,0,0,2.2,2.239.925.925,0,0,0,.89-.215L54.931,34.635a.38.38,0,0,0,.089-.377" transform="translate(39.22 35.756)" fill="#303030"/><path d="M37.446,52.578a1.436,1.436,0,0,1-.353-.045A3.115,3.115,0,0,1,34.6,50a1.265,1.265,0,0,1,.332-1.158L52.011,31.725a.768.768,0,0,1,.753-.189,3.9,3.9,0,0,1,2.827,2.818.772.772,0,0,1-.185.753L38.342,52.218a1.254,1.254,0,0,1-.9.36M52.554,32.272,35.479,49.387a.5.5,0,0,0-.126.458,2.375,2.375,0,0,0,1.92,1.945.547.547,0,0,0,.528-.113L54.863,34.567l.36-.106-.368.106a3.132,3.132,0,0,0-2.3-2.294" transform="translate(39.017 35.553)" fill="#303030"/><path d="M32.135,50.557a.383.383,0,0,1-.27-.653l14.5-14.454a.382.382,0,1,1,.538.543l-14.5,14.454a.38.38,0,0,1-.27.111" transform="translate(35.831 39.877)" fill="#fff"/><path d="M72.595,4.336A34.56,34.56,0,1,0,107.149,38.9,34.561,34.561,0,0,0,72.595,4.336m0,64.048A29.485,29.485,0,1,1,102.076,38.9,29.486,29.486,0,0,1,72.595,68.384" transform="translate(42.921 4.893)" fill="#303030"/><path d="M72.8,74.041A34.942,34.942,0,1,1,107.735,39.1,34.982,34.982,0,0,1,72.8,74.041m0-69.12A34.177,34.177,0,1,0,106.968,39.1,34.217,34.217,0,0,0,72.8,4.921m0,64.048A29.868,29.868,0,1,1,102.663,39.1,29.9,29.9,0,0,1,72.8,68.969M72.8,10a29.1,29.1,0,1,0,29.1,29.1A29.135,29.135,0,0,0,72.8,10" transform="translate(42.718 4.691)" fill="#303030"/><path d="M73.683,4.336A34.56,34.56,0,1,0,108.237,38.9,34.561,34.561,0,0,0,73.683,4.336m0,64.048A29.485,29.485,0,1,1,103.164,38.9,29.486,29.486,0,0,1,73.683,68.384" transform="translate(44.149 4.893)" fill="#8477fc"/><path d="M73.886,74.041A34.942,34.942,0,1,1,108.823,39.1,34.982,34.982,0,0,1,73.886,74.041m0-69.12A34.177,34.177,0,1,0,108.057,39.1,34.217,34.217,0,0,0,73.886,4.921m0,64.048A29.868,29.868,0,1,1,103.751,39.1,29.9,29.9,0,0,1,73.886,68.969m0-58.969a29.1,29.1,0,1,0,29.1,29.1A29.135,29.135,0,0,0,73.886,10" transform="translate(43.946 4.691)" fill="#303030"/><path d="M63.734,35.037A13.565,13.565,0,0,1,59.726,30.8c4.666-3.135,7.667-8.012,7.667-13.492,0-9.461-8.931-17.13-19.948-17.13S27.5,7.85,27.5,17.311s8.931,17.13,19.95,17.13a23.073,23.073,0,0,0,5.521-.67,14.861,14.861,0,0,0,10.251,3.01.963.963,0,0,0,.517-1.743" transform="translate(31.027 0.204)" fill="#fff"/><path d="M62.342,37.4a14.972,14.972,0,0,1-9.265-3.012,23.39,23.39,0,0,1-5.43.636c-11.211,0-20.331-7.856-20.331-17.511S36.436,0,47.647,0,67.98,7.857,67.98,17.514a16.605,16.605,0,0,1-7.537,13.6,13.359,13.359,0,0,0,3.71,3.806,1.3,1.3,0,0,1,.524,1.439,1.358,1.358,0,0,1-1.235,1c-.368.021-.736.034-1.1.034m-9.174-3.81a.386.386,0,0,1,.241.085A14.421,14.421,0,0,0,63.4,36.6a.593.593,0,0,0,.543-.443.544.544,0,0,0-.217-.6A14.019,14.019,0,0,1,59.6,31.2a.382.382,0,0,1,.117-.511c4.766-3.2,7.5-8.005,7.5-13.175C67.214,8.279,58.436.765,47.647.765S28.08,8.279,28.08,17.514s8.778,16.747,19.567,16.747a22.609,22.609,0,0,0,5.43-.66.447.447,0,0,1,.092-.011" transform="translate(30.825 0.001)" fill="#303030"/><path d="M43.021,17.048a8.772,8.772,0,0,1-4.512-1.23c-.136-.083-.27-.168-.4-.255a5.15,5.15,0,0,1-.862.53,5.643,5.643,0,0,1-5.715-.428,1.021,1.021,0,0,1,1.211-1.645,3.644,3.644,0,0,0,3.635.226,2.094,2.094,0,0,0,.192-.1,6.883,6.883,0,0,1-1.52-4.374c0-2.237,1.047-4.5,3.386-4.5a2.783,2.783,0,0,1,2.154.966,4.873,4.873,0,0,1,.915,3.716,9.022,9.022,0,0,1-1.913,4.133,6.84,6.84,0,0,0,6.471.181c.068-.034.138-.072.209-.113a7.754,7.754,0,0,1-1.488-4.389c0-2.237,1.047-4.5,3.386-4.5a2.783,2.783,0,0,1,2.154.966,4.873,4.873,0,0,1,.915,3.716,9.1,9.1,0,0,1-2.05,4.3,4.274,4.274,0,0,0,.626.37,2.431,2.431,0,0,0,2.767-.294,1.02,1.02,0,1,1,1.29,1.581,4.49,4.49,0,0,1-4.932.556,6.223,6.223,0,0,1-1.254-.8,4.81,4.81,0,0,1-.707.419,8.488,8.488,0,0,1-3.961.956m5.151-9.733c-1.33,0-1.345,2.354-1.345,2.454a5.632,5.632,0,0,0,.954,2.99,6.968,6.968,0,0,0,1.437-3.074,2.889,2.889,0,0,0-.428-2.1.756.756,0,0,0-.617-.268m-9.733,0c-1.33,0-1.345,2.354-1.345,2.454a4.851,4.851,0,0,0,.971,2.976,7.009,7.009,0,0,0,1.42-3.059,2.889,2.889,0,0,0-.428-2.1.756.756,0,0,0-.617-.268" transform="translate(35.115 5.95)" fill="#ff966d"/><path d="M34.64,152.824c.121-1.682,3.391-38.713,5.2-51.679,2.463-17.634,2.822-43.3-2.1-61.179L12.43,39.592c-7.386,9.636-8.271,24.371,9.078,39.7l.573,34.26c.824,6.932-2.737,9.861-.854,23.988.69,5.179,1.745,14.7,1.962,15.28.368,5.4,10.989,6.434,11.451,0" transform="translate(8.387 44.678)" fill="#ffc4b0"/><path d="M15.474,91.783c-1.364.451-1.737,1.292-1.6,3.406a68.489,68.489,0,0,1-.126,7.35c-.074,1.743.03,2.888,4.472,3.4s5.655-.9,9.138.766,8.531,4.493,14.478,3.855,7.473-2.139,8.182-3.18-.47-4.2-2.942-5.038a30.8,30.8,0,0,1-8.4-3.88c-3.248-2.3-8.3-6.445-10.036-7.992s-4.964.424-6.145,2.876-2.386,4.2-4.585,2.871c-1.109-.668-2.277-3.086-2.277-3.086Z" transform="translate(15.504 101.47)" fill="#f55571"/><path d="M23.185,104.338l-.038,0a.383.383,0,0,1-.343-.419c.521-5.294,4.947-9.565,9.461-9.144a.383.383,0,1,1-.07.762c-4.038-.372-8.156,3.652-8.629,8.459a.383.383,0,0,1-.381.345" transform="translate(25.731 106.915)" fill="#303030"/><path d="M32.253,101.815a.389.389,0,0,1-.221-.07c-7.009-4.978-11.679-8.454-12.69-11.306a.383.383,0,0,1,.722-.255C21,92.816,25.8,96.376,32.474,101.121a.382.382,0,0,1-.221.694" transform="translate(21.802 101.482)" fill="#303030"/><path d="M22.8,98.464a.388.388,0,0,1-.153-.032.383.383,0,0,1-.2-.5,7.829,7.829,0,0,1,6.83-4.05.383.383,0,0,1-.049.764,7.061,7.061,0,0,0-6.079,3.595.385.385,0,0,1-.351.228" transform="translate(25.301 105.924)" fill="#303030"/><path d="M21.683,97.675a.388.388,0,0,1-.153-.032.38.38,0,0,1-.2-.5,7.814,7.814,0,0,1,6.828-4.05.383.383,0,1,1-.049.764,7.061,7.061,0,0,0-6.079,3.595.385.385,0,0,1-.351.228" transform="translate(24.037 105.034)" fill="#303030"/><path d="M20.569,96.812a.388.388,0,0,1-.153-.032.383.383,0,0,1-.2-.5,7.825,7.825,0,0,1,6.83-4.05.383.383,0,0,1-.049.764,7.066,7.066,0,0,0-6.079,3.595.385.385,0,0,1-.351.228" transform="translate(22.779 104.06)" fill="#303030"/><path d="M19.563,95.974a.388.388,0,0,1-.153-.032.383.383,0,0,1-.2-.5,7.825,7.825,0,0,1,6.83-4.05.383.383,0,1,1-.049.764,7.052,7.052,0,0,0-6.079,3.595.385.385,0,0,1-.351.228" transform="translate(21.644 103.114)" fill="#303030"/><path d="M14.548,100.851c1.3,1.26,4.123,1.141,6.564,1.141,3.133,0,4.983-.351,7.873,1.456a24.267,24.267,0,0,0,10.872,3.114c4.87.292,8.656-1.3,9.608-2.412s1.19-2.365.845-4.525l-.049-.006a1.243,1.243,0,0,1-.185.556c-.711,1.039-2.239,2.541-8.186,3.18s-11-2.19-14.474-3.855-4.693-.249-9.135-.766c-3.561-.411-4.338-1.224-4.468-2.433,0,0-.566,3.291.734,4.551" transform="translate(15.45 108.672)" fill="#fff"/><path d="M41.245,107.181c-.394,0-.8-.011-1.207-.036a24.651,24.651,0,0,1-11.053-3.169c-2.371-1.484-3.959-1.456-6.362-1.413-.413.006-.847.015-1.309.015h-.585c-2.429.013-4.936.019-6.245-1.249-1.428-1.386-.868-4.746-.843-4.889a.378.378,0,0,1,.39-.317.384.384,0,0,1,.368.341c.092.862.477,1.671,4.129,2.092a18.625,18.625,0,0,0,4.076.013,8.548,8.548,0,0,1,5.179.79c.321.153.656.317,1,.485,3.369,1.647,7.984,3.9,13.267,3.335,5.6-.6,7.167-1.928,7.912-3.016a.866.866,0,0,0,.119-.383.392.392,0,0,1,.145-.26.374.374,0,0,1,.287-.077l.051.006a.384.384,0,0,1,.328.319c.362,2.28.1,3.635-.937,4.834-.947,1.107-4.285,2.58-8.712,2.58m-17.539-5.4a9.475,9.475,0,0,1,5.685,1.543,23.838,23.838,0,0,0,10.693,3.054c4.932.3,8.486-1.337,9.293-2.277a3.911,3.911,0,0,0,.89-3.08c-.96,1.124-2.905,2.352-8.133,2.914-5.506.592-10.234-1.72-13.686-3.408q-.517-.252-1-.483a7.841,7.841,0,0,0-4.785-.715,19.62,19.62,0,0,1-4.227-.015c-2.158-.249-3.463-.653-4.163-1.354a4.114,4.114,0,0,0,.741,2.816c1.086,1.051,3.54,1.041,5.709,1.034l.587,0c.458,0,.885-.009,1.3-.015.379-.006.743-.013,1.1-.013" transform="translate(15.247 108.469)" fill="#303030"/><path d="M43.124,39.562l-24.769.064c-2.72,14.188-8.814,34.588-9.391,51.652-.287,8.516-.873,14.65-2.422,20.982-2.65,10.836-3.8,13.488-4.289,24.094-.158,3.42-.006,18.252,0,21.119,7.671,11.023,11.553,0,11.553,0s2.844-10.527,3.689-13.854c2.761-10.872,4.38-20.291,7.311-27.093,5.645-13.109,10.817-38.08,10.817-38.08s8.354-25.965,7.5-38.883" transform="translate(2.462 44.644)" fill="#ffc4b0"/><path d="M17.379,105.489c.481,1.95,1.49,4.127,1.643,6.13s.074,3.889-1.558,5.057a6.728,6.728,0,0,1-2.993,1.034,17.75,17.75,0,0,1-9.276-.96,6.938,6.938,0,0,1-2.639-2.009c-1.158-1.424-1-3.363-.973-5.2.03-1.66.366-3.748.485-5.4a68.809,68.809,0,0,1,.858-9.77c.132,1.254.438,2.767,1.141,2.758.611-.009.873-1.609,1.918-2.631a6.362,6.362,0,0,1,3.68-1.639c2.182-.126,3.818.162,5.272,1.432,1.349,1.183,1.19,2.705,1.273,4.319a27.562,27.562,0,0,0,1.169,6.879" transform="translate(1.76 104.757)" fill="#f55571"/><path d="M13.418,100.21a.382.382,0,0,1-.128-.021,15.832,15.832,0,0,0-9.416-.33.383.383,0,1,1-.2-.739,16.6,16.6,0,0,1,9.876.347.381.381,0,0,1,.234.487.386.386,0,0,1-.362.255" transform="translate(3.823 111.19)" fill="#303030"/><path d="M19.248,105.324a.382.382,0,0,1-.375-.311c-.617-3.167-5.055-4.563-8.929-4.527-3.544.034-7.324,1.254-7.784,3.9a.382.382,0,0,1-.753-.132c.534-3.076,4.668-4.493,8.529-4.532,4.3-.043,8.984,1.53,9.689,5.149a.384.384,0,0,1-.3.449.458.458,0,0,1-.074.006" transform="translate(1.581 112.529)" fill="#303030"/><path d="M6.207,108.1a.383.383,0,0,1-.381-.355c0-.047-.362-4.878-.321-8.241.036-3,.247-6.311.249-6.343a.383.383,0,0,1,.764.049c0,.032-.211,3.325-.247,6.3-.04,3.331.315,8.129.319,8.178a.385.385,0,0,1-.353.411h-.03" transform="translate(6.208 104.724)" fill="#303030"/><path d="M13.192,99.083a.4.4,0,0,1-.119-.019,16.681,16.681,0,0,0-9.208-.3.382.382,0,0,1-.189-.741,17.452,17.452,0,0,1,9.636.311.383.383,0,0,1-.119.747" transform="translate(3.823 110.018)" fill="#303030"/><path d="M12.966,97.955a.334.334,0,0,1-.111-.017,17.729,17.729,0,0,0-9-.266.383.383,0,0,1-.175-.745,18.533,18.533,0,0,1,9.393.279.383.383,0,0,1-.111.749" transform="translate(3.823 108.845)" fill="#303030"/><path d="M12.741,96.829a.4.4,0,0,1-.1-.013A19.1,19.1,0,0,0,3.85,96.58a.383.383,0,1,1-.158-.749,19.914,19.914,0,0,1,9.148.247.382.382,0,0,1-.1.751" transform="translate(3.823 107.672)" fill="#303030"/><path d="M1.386,107.029c.023,1.011.917,3.763,6.388,4.883,4.348.89,8.065.223,10.029-1.226,1.356-1.007,1.63-3.646,1.507-6.488l-.032-.013a4.363,4.363,0,0,1-1.607,3.961,6.7,6.7,0,0,1-2.995,1.037,17.761,17.761,0,0,1-9.272-.96,6.944,6.944,0,0,1-2.639-2.011c-1.16-1.424-1.007-3.365-.971-5.2,0-.2.011-.411.023-.626a43.809,43.809,0,0,0-.432,6.639" transform="translate(1.553 113.287)" fill="#fff"/><path d="M11.806,112.9a19.543,19.543,0,0,1-3.906-.409c-6.419-1.313-6.686-4.849-6.694-5.249a44.434,44.434,0,0,1,.434-6.688.383.383,0,0,1,.762.066c-.013.206-.019.409-.021.6l-.011.449c-.04,1.624-.081,3.3.9,4.5a6.573,6.573,0,0,0,2.488,1.9,17.271,17.271,0,0,0,9.072.934,6.194,6.194,0,0,0,2.824-.968c1.043-.747,1.475-1.835,1.447-3.644a.385.385,0,0,1,.53-.36.437.437,0,0,1,.266.351c.16,3.635-.383,5.864-1.66,6.811a11.021,11.021,0,0,1-6.428,1.7m-9.827-7.458c-.019.57-.021,1.147-.006,1.784.006.336.243,3.32,6.081,4.517,3.938.8,7.665.362,9.727-1.16a4.136,4.136,0,0,0,1.245-2.837,4.044,4.044,0,0,1-.928.917,7.09,7.09,0,0,1-3.163,1.1,18.033,18.033,0,0,1-9.474-.985,7.271,7.271,0,0,1-2.79-2.122,4.309,4.309,0,0,1-.692-1.217" transform="translate(1.35 113.084)" fill="#303030"/><path d="M43.8,40l-26.2-.438C4.22,53.308,9.656,76.623,8.149,95.834c-.856,10.9-2.665,15.44-4.308,24.286a105.592,105.592,0,0,0-1.52,27.027c3.45,2.465,10.057,3.08,14.014,1.381,2.588-9.751,8.237-28.147,8.674-29.443.717-2.135,1.407-4.021,2.075-5.858-.656,1.8-.632,3.32-.839,6.232-.324,4.51.839,19.627,1.869,24.8,4.287,1.311,10.762.709,13.337,0,1.2-9.2,2.888-21.525,4.106-30.267a198.062,198.062,0,0,0,2.184-19.729C49.342,70.633,50.4,53.729,43.8,40" transform="translate(2.333 44.644)" fill="#303030"/><path d="M11.166,150.079A16,16,0,0,1,2.3,147.664a.373.373,0,0,1-.16-.287,106.806,106.806,0,0,1,1.526-27.121c.532-2.863,1.077-5.268,1.609-7.594A103.118,103.118,0,0,0,7.969,96.008c.4-5.155.307-10.723.211-16.108-.266-14.867-.543-30.241,9.342-40.4a.381.381,0,0,1,.281-.117l26.2.441a.379.379,0,0,1,.338.217C51.064,54.024,49.914,71,48.324,94.49c-.6,8.884-1.1,12.273-1.728,16.559-.145.992-.3,2.031-.46,3.2-1.181,8.488-2.882,20.9-4.1,30.265a.384.384,0,0,1-.279.319c-2.405.662-9.063,1.369-13.55,0a.377.377,0,0,1-.264-.289c-1.056-5.3-2.2-20.425-1.877-24.9.038-.524.068-1,.1-1.445q.019-.31.038-.6c-.206.59-.415,1.194-.624,1.82-.46,1.362-6.124,19.835-8.667,29.418a.369.369,0,0,1-.219.253,14.273,14.273,0,0,1-5.521,1m-8.271-2.935c3.286,2.233,9.516,2.846,13.32,1.307,2.569-9.644,8.175-27.926,8.633-29.283.685-2.039,1.345-3.855,1.984-5.609l.094-.255a.382.382,0,1,1,.719.26v0h0a15.578,15.578,0,0,0-.719,4.676c-.028.445-.057.924-.1,1.449-.313,4.374.783,19.02,1.82,24.469,4.189,1.2,10.191.609,12.66,0,1.22-9.338,2.9-21.6,4.072-30.016.162-1.166.315-2.207.46-3.2.628-4.272,1.124-7.645,1.722-16.5,1.575-23.256,2.714-40.092-3.806-53.855l-25.8-.434C8.409,50.084,8.684,65.234,8.941,79.887c.1,5.4.2,10.989-.211,16.181a103.006,103.006,0,0,1-2.707,16.762c-.53,2.32-1.075,4.719-1.6,7.567a105.683,105.683,0,0,0-1.526,26.748" transform="translate(2.131 44.441)" fill="#303030"/><path d="M19.884,116.681l-.034,0a.382.382,0,0,1-.347-.415c.5-5.557,1.043-10.685,1.571-15.644,1.379-12.979,2.684-25.237,3.116-43.949a.374.374,0,0,1,.392-.372.382.382,0,0,1,.375.392c-.434,18.741-1.739,31.016-3.12,44.01-.528,4.955-1.073,10.08-1.571,15.631a.384.384,0,0,1-.381.349" transform="translate(22.007 63.53)" fill="#acda53"/><path d="M8.438,117.012l-.053,0a.38.38,0,0,1-.326-.43c.643-4.674,2.461-11.86,4.216-18.807,1.051-4.155,2.043-8.08,2.69-11.115.892-4.185,1.584-8.482,2.254-12.639.438-2.731.885-5.894,1.318-8.954s.881-6.232,1.322-8.971a.383.383,0,1,1,.756.123c-.438,2.729-.888,5.894-1.32,8.954s-.879,6.232-1.32,8.969c-.67,4.165-1.364,8.473-2.26,12.677-.651,3.05-1.645,6.981-2.7,11.143-1.752,6.928-3.563,14.093-4.2,18.724a.383.383,0,0,1-.379.33" transform="translate(9.09 62.933)" fill="#acda53"/><path d="M13.434,118.21a.342.342,0,0,1-.111-.017.379.379,0,0,1-.255-.475c.03-.1,3.129-10.5,4.04-13.724a109.136,109.136,0,0,0,3.167-17.962c.607-5.3,1.181-10.3,2.769-14.912A33.731,33.731,0,0,0,24.9,61.288c.1-5.179.1-19.15.036-20.555a.383.383,0,0,1,.366-.4.376.376,0,0,1,.4.364c.062,1.411.064,15.416-.038,20.6a34.452,34.452,0,0,1-1.892,10.066c-1.562,4.534-2.131,9.5-2.733,14.75A109.6,109.6,0,0,1,17.844,104.2c-.913,3.225-4.012,13.629-4.044,13.735a.382.382,0,0,1-.366.272" transform="translate(14.728 45.517)" fill="#acda53"/><path d="M32.563,21.845c.4,5.715-5.868,10.527-11.864,10.623a10.623,10.623,0,0,1-11.021-10.2c-.092-5.728,5.032-10.478,11.013-10.911,6.126-.443,11.289,2.092,11.873,10.485" transform="translate(10.92 12.766)" fill="#303030"/><path d="M32.557,16.511c0,8.25-2.137,9.548.017,12.132-3,2.712-10.37,3.52-15.687,1.965a10.007,10.007,0,0,1-7.2-9.6v-4.5Z" transform="translate(10.928 18.632)" fill="#303030"/><path d="M17.243,13.223c.226,7.154-3.425,8.761-3.425,8.761a12.657,12.657,0,0,1,1.126,2.895,4.791,4.791,0,0,0-3.35-1.933,3,3,0,0,0-3.105,1.96A2.866,2.866,0,0,0,10.2,28.029a4.864,4.864,0,0,0,4.276-.194l0,0a6.993,6.993,0,0,0,3.431,3.214l-.2,5.562-5.87,1.264s7.52,8.646,16.038,7.6,4-7.6,4-7.6l-5.966-1.207-.56-4.476c2.248-.26,8.757-2.4,7.533-10.947a12.339,12.339,0,0,0-1.656-4.634c-2.424-2.1-6.932-4.591-13.995-3.386" transform="translate(9.501 14.566)" fill="#ffc4b0"/><path d="M12.863,20.7a.382.382,0,0,1-.366-.275,1.962,1.962,0,0,0-1.343-1.288,2.112,2.112,0,0,0-1.513.1.383.383,0,1,1-.432-.632A2.8,2.8,0,0,1,11.36,18.4a2.743,2.743,0,0,1,1.871,1.809.382.382,0,0,1-.368.492" transform="translate(10.203 20.636)" fill="#303030"/><path d="M10.034,19.735a.383.383,0,0,1-.215-.7,2.188,2.188,0,0,1,2.207-.136.383.383,0,1,1-.37.67,1.452,1.452,0,0,0-1.407.1.381.381,0,0,1-.215.066" transform="translate(10.891 21.054)" fill="#303030"/><path d="M14.16,21.792a10.641,10.641,0,0,0,4.723.372l.158,1.254a7.213,7.213,0,0,1-4.881-1.626" transform="translate(15.979 24.592)" fill="#303030"/><path d="M16.861,21.3a.382.382,0,0,1-.228-.69,2.448,2.448,0,0,0,.534-.487.62.62,0,0,0,.136-.481,1.2,1.2,0,0,0-.179-.341,6.444,6.444,0,0,1-1.213-3.21.383.383,0,0,1,.764-.053,5.649,5.649,0,0,0,1.068,2.81,1.91,1.91,0,0,1,.3.619,1.375,1.375,0,0,1-.26,1.1,3.089,3.089,0,0,1-.7.653.379.379,0,0,1-.228.074" transform="translate(17.955 17.702)" fill="#303030"/><path d="M21.36,16.86A2.235,2.235,0,0,0,19.2,15.732a2.143,2.143,0,0,0-2.062,1.962c.539,1.162,3.348,1.041,4.221-.834" transform="translate(19.341 17.742)" fill="#fff"/><path d="M20.154,17.271a1.224,1.224,0,0,1-1.539.773,1.205,1.205,0,0,1-.834-1.492,1.224,1.224,0,0,1,1.539-.773,1.2,1.2,0,0,1,.834,1.492" transform="translate(20.008 17.743)" fill="#303030"/><path d="M17.746,16.1l1.277.379-1.341.3Z" transform="translate(19.954 18.17)" fill="#fff"/><path d="M17.342,18.186a.382.382,0,0,1-.362-.511,2.945,2.945,0,0,1,2.2-1.935,2.64,2.64,0,0,1,2.616.639.382.382,0,1,1-.494.583,1.881,1.881,0,0,0-1.924-.481A2.169,2.169,0,0,0,17.7,17.93a.386.386,0,0,1-.362.255" transform="translate(19.137 17.634)" fill="#303030"/><path d="M19.317,17.029a.383.383,0,0,1-.055-.762A.55.55,0,0,0,19.7,15.9a.383.383,0,0,1,.73.232,1.328,1.328,0,0,1-1.056.894l-.055,0" transform="translate(21.367 17.64)" fill="#303030"/><path d="M20.949,15.976a.374.374,0,0,1-.223-.072,3.922,3.922,0,0,0-3.142-.673.383.383,0,0,1-.158-.749,4.687,4.687,0,0,1,3.748.8.383.383,0,0,1-.226.694" transform="translate(19.322 16.226)" fill="#303030"/><path d="M13.211,17.433a2.237,2.237,0,0,1,2.011-1.375A2.143,2.143,0,0,1,17.5,17.767c-.4,1.215-3.2,1.424-4.289-.334" transform="translate(14.908 18.121)" fill="#fff"/><path d="M16.35,17.691a1.224,1.224,0,0,1-1.554.741,1.206,1.206,0,0,1-.8-1.509,1.224,1.224,0,0,1,1.554-.741,1.2,1.2,0,0,1,.8,1.509" transform="translate(15.724 18.189)" fill="#303030"/><path d="M13.961,16.486l1.269.407-1.347.272Z" transform="translate(15.666 18.604)" fill="#fff"/><path d="M17.714,18.234a.383.383,0,0,1-.343-.213,2.178,2.178,0,0,0-1.833-1.245,1.875,1.875,0,0,0-1.854.7.383.383,0,0,1-.56-.521,2.636,2.636,0,0,1,2.522-.941,2.936,2.936,0,0,1,2.409,1.664.381.381,0,0,1-.175.511.363.363,0,0,1-.168.04" transform="translate(14.694 18.035)" fill="#303030"/><path d="M13.835,17.426h-.011a1.322,1.322,0,0,1-1.152-.762.382.382,0,0,1,.7-.317.557.557,0,0,0,.475.315.382.382,0,0,1-.009.764" transform="translate(14.263 18.194)" fill="#303030"/><path d="M13.214,16.557a.377.377,0,0,1-.272-.115.381.381,0,0,1,0-.541,4.416,4.416,0,0,1,3.916-1.3.382.382,0,0,1,.351.411.389.389,0,0,1-.413.351,3.662,3.662,0,0,0-3.318,1.09.386.386,0,0,1-.268.109" transform="translate(14.48 16.441)" fill="#303030"/><path d="M15.784,19.375c.694.07,1.535.245,1.756.862a1.886,1.886,0,0,1,.939-.9,2.642,2.642,0,0,0-1.366-.351,3.41,3.41,0,0,0-1.328.394" transform="translate(17.812 21.415)" fill="#303030"/><path d="M15.234,19.441a2.652,2.652,0,0,0,2.488,1.028c.309-.04.33-.232.438-.443-.038-.294-.5-.864-1.756-.862a2.467,2.467,0,0,1-1.171.277" transform="translate(17.191 21.626)" fill="#fff"/><path d="M15.924,20.192a1.514,1.514,0,0,1-1.02-.351.383.383,0,0,1,.5-.579c.334.289.928.123,1.169.036.132-.047.264-.1.394-.155a3.6,3.6,0,0,1,1.273-.343,3.368,3.368,0,0,1,1.164.217,3.739,3.739,0,0,0,.885.185h0a.383.383,0,1,1,0,.766,3.788,3.788,0,0,1-1.111-.219,2.919,2.919,0,0,0-.917-.185,2.965,2.965,0,0,0-1,.287c-.143.06-.285.117-.428.168a2.739,2.739,0,0,1-.909.172" transform="translate(16.671 21.213)" fill="#303030"/><path d="M17.664,21.087A3.092,3.092,0,0,1,15.1,19.813a.383.383,0,0,1,.653-.4,2.365,2.365,0,0,0,2.118.892c.055-.011.055-.011.081-.068a2.485,2.485,0,0,1,1.26-1.226.383.383,0,1,1,.332.69,1.731,1.731,0,0,0-.883.828.826.826,0,0,1-.651.53,2.038,2.038,0,0,1-.345.028" transform="translate(16.975 21.412)" fill="#303030"/><path d="M33.1,47.353c5.74,1,7.456,1.292,8.829.639s2.329-2.78,3.08-4.672c1.581-3.987,2.914-8.542,3.563-10.08.047-.109.1-.2.147-.3.57-1.009,1.477-1.039,2.592-2.316A8.891,8.891,0,0,0,52.384,28.9a.635.635,0,0,0,.409.16.712.712,0,0,0,.711-.009,1.429,1.429,0,0,0,.56-.687,3.635,3.635,0,0,0,.328-1.65,1.914,1.914,0,0,0-.3-1.051.678.678,0,0,0-.619-.332,1.715,1.715,0,0,0-.4-1.447c-.332-.355-.577-.566-.956-.5a1.111,1.111,0,0,0-.392-1.117,1.4,1.4,0,0,0-1.545-.077,13.657,13.657,0,0,1,1.758-2.407c.317-.347.819-1.026.445-1.5-.249-.315-.579-.5-1.407-.077a7.5,7.5,0,0,0-1.99,1.711,17.865,17.865,0,0,0-1.592,2.09c-.5.736-.781,1.262-1.217,1.816-.421.536-.7.27-.794-.313a8.634,8.634,0,0,0-.272-2.339c-.06-.123-.217-.436-.387-.5A.741.741,0,0,0,44,20.7c-.57.364-.575,1.494-.681,2.016a15.2,15.2,0,0,0-.353,2.071,15.157,15.157,0,0,0,.175,2.976,5.875,5.875,0,0,1-.971,3.316,74.234,74.234,0,0,1-4.959,7.809s-4.787-1.7-8.718-3.061-6.179-2.045-8.5-2.639l.358,11.841s9,1.671,12.758,2.322" transform="translate(22.557 20.266)" fill="#ffc4b0"/><path d="M34.526,24.949a1.1,1.1,0,0,1-.539-.132A1.334,1.334,0,0,1,33.5,23.1c.03-.074.057-.147.085-.221a3.636,3.636,0,0,1,.219-.5,4.322,4.322,0,0,0,.394-1.079.383.383,0,1,1,.743.183,5.1,5.1,0,0,1-.466,1.264,3.08,3.08,0,0,0-.172.4c-.032.081-.062.164-.1.245-.079.189-.149.592.151.758a.881.881,0,0,0,.758-.166,2.5,2.5,0,0,0,.734-.866,6.38,6.38,0,0,0,.809-2.558.384.384,0,0,1,.764.07,7.21,7.21,0,0,1-.907,2.867,3.224,3.224,0,0,1-.983,1.128,1.933,1.933,0,0,1-1.007.328" transform="translate(37.661 22.803)" fill="#303030"/><path d="M35.154,25.145a1.1,1.1,0,0,1-.538-.132,1.108,1.108,0,0,1-.432-1.567c.032-.079.055-.145.077-.209a2.345,2.345,0,0,1,.172-.409.383.383,0,0,1,.673.368,1.617,1.617,0,0,0-.121.287c-.026.077-.053.16-.094.255-.187.447-.03.532.1.6a.886.886,0,0,0,.758-.166,2.5,2.5,0,0,0,.734-.866,6.828,6.828,0,0,0,.76-1.773.383.383,0,0,1,.745.179,7.6,7.6,0,0,1-.839,1.973,3.2,3.2,0,0,1-.983,1.128,1.933,1.933,0,0,1-1.007.328" transform="translate(38.412 23.974)" fill="#303030"/><path d="M32.824,26.682a.382.382,0,0,1-.16-.73,4.03,4.03,0,0,0,2.175-2.595,1.351,1.351,0,0,0,.019-.8.382.382,0,1,1,.713-.277,2.025,2.025,0,0,1,.009,1.273,4.746,4.746,0,0,1-2.6,3.1.392.392,0,0,1-.16.034" transform="translate(36.609 24.861)" fill="#303030"/><path d="M19.765,24.637a36.073,36.073,0,0,1,8.214,2.571c3.574,1.441,9.465,3.693,9.465,3.693s-1.515,4.129,0,7.218c1.711,3.486,3.64,3.371,3.64,3.371a9.082,9.082,0,0,1-5.279.521c-2.5-.466-6.739-1.909-8.393-2.077s-5.855-1.183-6.952,1.279Z" transform="translate(22.304 27.802)" fill="#acda53"/><path d="M26.52,34.3a.384.384,0,0,1-.383-.366,7.091,7.091,0,0,1,3.293-6.53.383.383,0,0,1,.358.677A6.3,6.3,0,0,0,26.9,33.9a.383.383,0,0,1-.368.4H26.52" transform="translate(29.487 30.872)" fill="#303030"/><path d="M29.989,27.3c-1.275,3.953.817,10.01,4.663,9.663.181,1.137-2.635,3.114-5.259,2.065C26.443,37.85,26.62,30.5,28.386,28a1.394,1.394,0,0,1,1.6-.7" transform="translate(30.589 30.757)" fill="#acda53"/><path d="M28.707,37.879a.382.382,0,0,1-.341-.206,10.978,10.978,0,0,1-.155-10.091.382.382,0,1,1,.694.321,10.124,10.124,0,0,0,.143,9.418.383.383,0,0,1-.166.515.365.365,0,0,1-.175.043" transform="translate(30.537 30.873)" fill="#303030"/><path d="M33.54,25.124l-4.05-.919c.875,1.045,3.5,5.764-1.941,6.3-8.09.794-11.594-6.3-11.594-6.3s-3.384.7-4.881,1.062c0,0,3.657,6.89-3.516,16.076.781,5.07,3.842,15.548,3.842,15.548s5.179,2.395,15.406,2.324c6.888-.045,10.691-1.692,10.8-1.886l1.137-11a9.257,9.257,0,0,0,2.5-6.392c-.2-7.5-7.7-14.818-7.7-14.818" transform="translate(8.529 27.315)" fill="#acda53"/><path d="M24.082,40.534a.4.4,0,0,1-.177-.043.384.384,0,0,1-.162-.517C26.085,35.5,22.965,29.622,22,28.293a.383.383,0,0,1,.619-.449c1.581,2.177,4.1,8.1,1.8,12.486a.381.381,0,0,1-.338.2" transform="translate(24.745 31.242)" fill="#303030"/><path d="M19.6,24.7c-4.063.964-6.515,1.852-9.074,6.051C6.969,36.6,2.78,43.479,1.992,44.831c-2.461,1.8-2.524,4.225-.836,6.2A14.426,14.426,0,0,0,4,53.138l9-.892a2.121,2.121,0,0,0,.758-2.741L19,41.987a16.506,16.506,0,0,0,2.937-8.4c.2-3.269-.694-7.218-2.337-8.882" transform="translate(0 27.878)" fill="#acda53"/><path d="M6.671,45.38a.381.381,0,0,1-.219-.068.387.387,0,0,1-.1-.534l5.236-7.516a16.091,16.091,0,0,0,2.869-8.207.38.38,0,0,1,.4-.358.386.386,0,0,1,.362.4,16.874,16.874,0,0,1-3.008,8.6L6.984,45.216a.38.38,0,0,1-.313.164" transform="translate(7.096 32.383)" fill="#303030"/><path d="M12.841,40.721c-1.166-3.414-3.665-4.9-7.658-5.3-3.912-.4-5.268,1.447-4.351,4.732.747,2.682,9.7,12.562,10.868,13.646s2.933,2.009,4.391.564c.345-.341.69-.651,1.064-.962a1.746,1.746,0,0,1,.434-.292,1.385,1.385,0,0,1,1.254.221c.253.166.481.375.749.519a1.047,1.047,0,0,0,.875.106.978.978,0,0,0,.424-1.228,2.824,2.824,0,0,0-.892-1.1,5.13,5.13,0,0,1,1.415.834c.668.407,1.647.979,2.286.26a1.178,1.178,0,0,0,.1-1.2c.434-.013.964-.292.973-.728a2.38,2.38,0,0,0-.426-1.217,8.15,8.15,0,0,0-1.671-2.122,3.774,3.774,0,0,0-2.469-.971,3.37,3.37,0,0,1,2.42-1.5,3.9,3.9,0,0,0,1.777-.913,1.171,1.171,0,0,0,.355-1.151.476.476,0,0,0-.164-.226.542.542,0,0,0-.285-.057,15.892,15.892,0,0,0-2.9.353,5.29,5.29,0,0,0-2.856,1.232c-.813.751-1.484,1.637-2.241,2.439-.585.619-.83.183-1.158-.394a19.007,19.007,0,0,1-.871-1.743c-.551-1.237-1.009-2.516-1.447-3.8" transform="translate(0.628 39.906)" fill="#ffc4b0"/><path d="M13.212,45.048a.384.384,0,0,1-.311-.157,5.576,5.576,0,0,0-2.269-1.745,1.86,1.86,0,0,0-1.19-.062,6.193,6.193,0,0,0-1.235.592.383.383,0,0,1-.4-.651,7.127,7.127,0,0,1,1.373-.66,2.586,2.586,0,0,1,1.65.04,6.214,6.214,0,0,1,2.695,2.037.382.382,0,0,1-.087.534.378.378,0,0,1-.223.072" transform="translate(8.605 47.67)" fill="#303030"/><path d="M14.967,45.77a.385.385,0,0,1-.3-.143,30.783,30.783,0,0,0-2.688-2.835,4.713,4.713,0,0,0-.779-.647,2.265,2.265,0,0,0-2.062-.138.383.383,0,1,1-.309-.7,3.034,3.034,0,0,1,2.769.185,5.447,5.447,0,0,1,.911.747,31.586,31.586,0,0,1,2.754,2.907.384.384,0,0,1-.057.538.378.378,0,0,1-.241.085" transform="translate(9.706 46.331)" fill="#303030"/><path d="M7.13,43.744a1.568,1.568,0,0,1-.994-.347.383.383,0,0,1,.485-.594c.424.349,1.1.162,1.711-.479.66-.683,1-1.1,1.573-1.79l.243-.292a.38.38,0,0,1,.539-.051.384.384,0,0,1,.051.538l-.241.292c-.583.7-.932,1.128-1.613,1.833a2.471,2.471,0,0,1-1.754.89" transform="translate(6.766 45.255)" fill="#303030"/><path d="M10.613,39.9a.384.384,0,0,1-.355-.238,9.348,9.348,0,0,0-7.152-5.342.383.383,0,1,1,.145-.751,10.106,10.106,0,0,1,7.716,5.806.382.382,0,0,1-.353.526" transform="translate(3.154 37.868)" fill="#303030"/></g></g></g></g></svg>