<svg xmlns="http://www.w3.org/2000/svg" width="48" height="47" viewBox="0 0 48 47"><g transform="translate(-1144.465 -5630.311)"><ellipse cx="24" cy="23.5" rx="24" ry="23.5" transform="translate(1144.465 5630.311)" fill="#8477fc"/><g transform="translate(1154.805 5643.165)"><path d="M13.764,29.068a1.249,1.249,0,0,1-2.047.962l-6.83-5.66H1.249A1.249,1.249,0,0,1,0,23.121V18.143a1.25,1.25,0,0,1,1.249-1.25H4.887l6.83-5.66a1.25,1.25,0,0,1,2.047.962V29.068Zm4.8-1.952c-.03,0-.06,0-.09,0a1.248,1.248,0,0,1-.883-.366l-.167-.168a1.249,1.249,0,0,1-.121-1.628,7.265,7.265,0,0,0-.192-8.9,1.248,1.248,0,0,1,.086-1.671l.167-.167a1.222,1.222,0,0,1,.946-.364,1.251,1.251,0,0,1,.905.457,10.005,10.005,0,0,1,.261,12.307A1.25,1.25,0,0,1,18.565,27.116Zm5.165,3.861a1.251,1.251,0,0,1-.9.442h-.052a1.248,1.248,0,0,1-.884-.366l-.164-.164a1.25,1.25,0,0,1-.073-1.688,13.314,13.314,0,0,0-.221-17.4,1.25,1.25,0,0,1,.05-1.71l.164-.164a1.216,1.216,0,0,1,.921-.367,1.249,1.249,0,0,1,.9.419,16.041,16.041,0,0,1,.263,20.992Z" transform="translate(0 -9.565)" fill="#fff"/></g></g></svg>