<svg xmlns="http://www.w3.org/2000/svg" xmlns:xlink="http://www.w3.org/1999/xlink" width="268.225" height="161.566" viewBox="0 0 268.225 161.566"><defs><clipPath id="a"><rect width="268.225" height="161.566" fill="none"/></clipPath><clipPath id="b"><rect width="268.225" height="161.566" fill="none" stroke="#707070" stroke-width="1"/></clipPath><clipPath id="c"><rect width="18.163" height="32.37" fill="none"/></clipPath><clipPath id="d"><rect width="14.663" height="32.37" fill="none"/></clipPath><clipPath id="e"><rect width="18.697" height="32.37" fill="none"/></clipPath><clipPath id="f"><rect width="15.969" height="32.37" fill="none"/></clipPath></defs><g clip-path="url(#a)"><path d="M775.411,10.1V9.477l3.622-1.96v.958l-2.419,1.315,2.419,1.316v.958Z" transform="translate(-581.379 -5.636)" fill="#e5f0f8"/><path d="M1057.437,208.742l2.42,1.315-2.42,1.316v.958l3.622-1.96v-.628l-3.622-1.96Z" transform="translate(-792.834 -155.79)" fill="#e5f0f8"/><rect width="14.404" height="1.48" transform="translate(198.997 3.415)" fill="#e5f0f8"/><rect width="14.404" height="1.48" transform="translate(194.031 9.133)" fill="#e5f0f8"/><rect width="14.404" height="1.48" transform="translate(197.1 13.117)" fill="#e5f0f8"/><rect width="14.404" height="1.48" transform="translate(197.1 24.081)" fill="#e5f0f8"/><rect width="14.404" height="1.48" transform="translate(197.1 27.473)" fill="#e5f0f8"/><rect width="43.439" height="1.48" transform="translate(202.049 16.911)" fill="#e5f0f8"/><rect width="58.031" height="1.48" transform="translate(202.049 31.076)" fill="#e5f0f8"/><rect width="58.031" height="1.48" transform="translate(202.049 42.422)" fill="#e5f0f8"/><rect width="55.596" height="1.48" transform="translate(207.507 53.528)" fill="#e5f0f8"/><rect width="12.429" height="1.48" transform="translate(202.049 46.276)" fill="#e5f0f8"/><rect width="12.429" height="1.48" transform="translate(202.049 49.943)" fill="#e5f0f8"/><rect width="58.031" height="1.48" transform="translate(202.049 34.698)" fill="#e5f0f8"/><rect width="31.397" height="1.48" transform="translate(202.049 38.32)" fill="#e5f0f8"/><rect width="13.32" height="1.48" transform="translate(202.049 20.321)" fill="#e5f0f8"/><g clip-path="url(#b)"><path d="M90.889,158.968S19.417-9.643,150.576,1.77c56.176,4.888,45.689,34.545,70.5,62.293,16.082,17.986,47.012,3.272,58.6,18.989s-2.03,60.531-6.808,75.916Z" transform="translate(-53.572 -0.911)" fill="#e5f0f8"/><path d="M.909,4.6-.909,3.686,1.17-.456,2.987.456Z" transform="translate(36.149 135.16)" fill="#373f51"/><rect width="184.116" height="134.69" transform="translate(36.194 12.48)" fill="#373f51"/><rect width="180.7" height="131.274" transform="translate(37.902 14.188)" fill="#fff"/><rect width="181.861" height="13.193" transform="translate(37.322 13.367)" fill="#373f51"/><path d="M0,9.4A2.273,2.273,0,0,1-1.613,8.73a2.28,2.28,0,0,1,0-3.225L5.5-1.613a2.28,2.28,0,0,1,3.225,0,2.28,2.28,0,0,1,0,3.225L1.613,8.73A2.273,2.273,0,0,1,0,9.4Z" transform="translate(207.18 16.815)" fill="#fff"/><path d="M7.117,9.4A2.273,2.273,0,0,1,5.5,8.73L-1.613,1.613a2.281,2.281,0,0,1,0-3.225,2.28,2.28,0,0,1,3.225,0L8.73,5.5A2.281,2.281,0,0,1,7.117,9.4Z" transform="translate(207.18 16.815)" fill="#fff"/><rect width="2.231" height="118.902" transform="translate(68.573 26.56)" fill="#bbdbf3"/><rect width="2.231" height="118.902" transform="translate(149.15 26.56)" fill="#bbdbf3"/><path d="M294.561,123.864v-.613l3.541-1.917v.937l-2.365,1.286,2.365,1.286v.937Z" transform="translate(-220.853 -90.973)" fill="#50ccc0"/><path d="M570.292,554.317v-.937l2.365-1.286-2.365-1.286v-.937l3.541,1.916v.613Z" transform="translate(-427.588 -412.276)" fill="#50ccc0"/><rect width="14.082" height="1.447" transform="translate(78.563 31.861)" fill="#50ccc0"/><rect width="14.082" height="1.447" transform="translate(73.708 37.452)" fill="#50ccc0"/><rect width="14.082" height="1.447" transform="translate(76.708 41.347)" fill="#50ccc0"/><rect width="14.082" height="1.447" transform="translate(76.708 52.066)" fill="#50ccc0"/><rect width="14.082" height="1.447" transform="translate(76.708 55.382)" fill="#50ccc0"/><rect width="42.469" height="1.447" transform="translate(81.547 45.056)" fill="#50ccc0"/><rect width="56.736" height="1.447" transform="translate(81.547 58.905)" fill="#50ccc0"/><rect width="56.736" height="1.447" transform="translate(81.547 69.997)" fill="#50ccc0"/><rect width="54.355" height="1.447" transform="translate(86.883 80.855)" fill="#50ccc0"/><rect width="12.152" height="1.447" transform="translate(81.547 73.766)" fill="#50ccc0"/><rect width="12.152" height="1.447" transform="translate(81.547 77.351)" fill="#50ccc0"/><rect width="56.736" height="1.447" transform="translate(81.547 62.446)" fill="#50ccc0"/><rect width="30.697" height="1.447" transform="translate(81.547 65.987)" fill="#50ccc0"/><rect width="12.684" height="1.447" transform="translate(76.708 84.997)" fill="#50ccc0"/><rect width="12.684" height="1.447" transform="translate(76.708 88.313)" fill="#50ccc0"/><rect width="51.103" height="1.447" transform="translate(81.066 91.836)" fill="#50ccc0"/><rect width="51.103" height="1.447" transform="translate(81.066 102.928)" fill="#50ccc0"/><rect width="48.959" height="1.447" transform="translate(85.873 113.786)" fill="#50ccc0"/><rect width="10.946" height="1.447" transform="translate(81.066 106.697)" fill="#50ccc0"/><rect width="10.946" height="1.447" transform="translate(81.066 110.282)" fill="#50ccc0"/><rect width="51.103" height="1.447" transform="translate(81.066 95.377)" fill="#50ccc0"/><rect width="27.649" height="1.447" transform="translate(81.066 98.917)" fill="#50ccc0"/><rect width="12.684" height="1.447" transform="translate(85.902 117.394)" fill="#50ccc0"/><rect width="12.684" height="1.447" transform="translate(85.902 120.71)" fill="#50ccc0"/><rect width="51.103" height="1.447" transform="translate(90.261 124.233)" fill="#50ccc0"/><rect width="40.666" height="1.447" transform="translate(90.26 135.325)" fill="#50ccc0"/><rect width="50.924" height="1.447" transform="translate(90.261 139.094)" fill="#50ccc0"/><rect width="51.103" height="1.447" transform="translate(90.261 127.774)" fill="#50ccc0"/><rect width="27.649" height="1.447" transform="translate(90.261 131.315)" fill="#50ccc0"/><rect width="13.022" height="1.447" transform="translate(81.547 48.39)" fill="#50ccc0"/><path d="M611.241,123.864v-.613l3.129-1.917v.937l-2.09,1.286,2.09,1.286v.937Z" transform="translate(-458.29 -90.973)" fill="#e5f0f8"/><path d="M854.88,554.317v-.937l2.09-1.286-2.09-1.286v-.937l3.129,1.916v.613Z" transform="translate(-640.963 -412.276)" fill="#e5f0f8"/><rect width="12.443" height="1.447" transform="translate(157.241 31.861)" fill="#e5f0f8"/><rect width="12.443" height="1.447" transform="translate(152.951 37.452)" fill="#e5f0f8"/><rect width="12.443" height="1.447" transform="translate(155.602 41.347)" fill="#e5f0f8"/><rect width="12.443" height="1.447" transform="translate(155.602 52.066)" fill="#e5f0f8"/><rect width="12.443" height="1.447" transform="translate(155.602 55.382)" fill="#e5f0f8"/><rect width="37.526" height="1.447" transform="translate(159.878 45.056)" fill="#e5f0f8"/><rect width="50.132" height="1.447" transform="translate(159.878 58.905)" fill="#e5f0f8"/><rect width="50.132" height="1.447" transform="translate(159.878 69.997)" fill="#e5f0f8"/><rect width="48.029" height="1.447" transform="translate(164.593 80.855)" fill="#e5f0f8"/><rect width="10.738" height="1.447" transform="translate(159.878 73.766)" fill="#e5f0f8"/><rect width="10.738" height="1.447" transform="translate(159.878 77.351)" fill="#e5f0f8"/><rect width="50.132" height="1.447" transform="translate(159.878 62.446)" fill="#e5f0f8"/><rect width="27.124" height="1.447" transform="translate(159.878 65.987)" fill="#e5f0f8"/><rect width="11.208" height="1.447" transform="translate(155.602 84.997)" fill="#e5f0f8"/><rect width="11.208" height="1.447" transform="translate(155.602 88.313)" fill="#e5f0f8"/><rect width="45.155" height="1.447" transform="translate(159.453 91.836)" fill="#e5f0f8"/><rect width="45.155" height="1.447" transform="translate(159.453 102.928)" fill="#e5f0f8"/><rect width="43.261" height="1.447" transform="translate(163.7 113.786)" fill="#e5f0f8"/><rect width="9.672" height="1.447" transform="translate(159.453 106.697)" fill="#e5f0f8"/><rect width="9.672" height="1.447" transform="translate(159.453 110.282)" fill="#e5f0f8"/><rect width="45.155" height="1.447" transform="translate(159.453 95.377)" fill="#e5f0f8"/><rect width="24.431" height="1.447" transform="translate(159.453 98.917)" fill="#e5f0f8"/><rect width="11.208" height="1.447" transform="translate(163.726 117.394)" fill="#e5f0f8"/><rect width="11.208" height="1.447" transform="translate(163.726 120.71)" fill="#e5f0f8"/><rect width="45.155" height="1.447" transform="translate(167.577 124.233)" fill="#e5f0f8"/><rect width="35.933" height="1.447" transform="translate(167.577 135.325)" fill="#e5f0f8"/><rect width="44.997" height="1.447" transform="translate(167.577 139.094)" fill="#e5f0f8"/><rect width="45.155" height="1.447" transform="translate(167.577 127.774)" fill="#e5f0f8"/><rect width="24.431" height="1.447" transform="translate(167.577 131.315)" fill="#e5f0f8"/><rect width="11.507" height="1.447" transform="translate(159.878 48.39)" fill="#e5f0f8"/><rect width="23.801" height="1.447" transform="translate(40.929 31.861)" fill="#e5f0f8"/><rect width="23.801" height="1.447" transform="translate(40.929 35.255)" fill="#e5f0f8"/><rect width="23.801" height="1.447" transform="translate(40.929 38.648)" fill="#e5f0f8"/><rect width="23.801" height="1.447" transform="translate(40.929 42.042)" fill="#e5f0f8"/><rect width="23.801" height="1.447" transform="translate(40.929 45.435)" fill="#e5f0f8"/><rect width="23.801" height="1.447" transform="translate(40.929 48.829)" fill="#e5f0f8"/><rect width="23.801" height="1.447" transform="translate(40.929 52.222)" fill="#e5f0f8"/><rect width="23.801" height="1.447" transform="translate(40.929 55.616)" fill="#e5f0f8"/><rect width="23.801" height="1.447" transform="translate(40.929 59.009)" fill="#e5f0f8"/><rect width="23.801" height="1.447" transform="translate(40.929 62.403)" fill="#e5f0f8"/><rect width="23.801" height="1.447" transform="translate(40.929 65.796)" fill="#e5f0f8"/><rect width="23.801" height="1.447" transform="translate(40.929 69.19)" fill="#e5f0f8"/><rect width="23.801" height="1.447" transform="translate(40.929 72.584)" fill="#e5f0f8"/><rect width="23.801" height="1.447" transform="translate(40.929 75.977)" fill="#e5f0f8"/><rect width="23.801" height="1.447" transform="translate(40.929 79.371)" fill="#e5f0f8"/><rect width="23.801" height="1.447" transform="translate(40.929 82.764)" fill="#e5f0f8"/><rect width="23.801" height="1.447" transform="translate(40.929 86.158)" fill="#e5f0f8"/><rect width="23.801" height="1.447" transform="translate(40.929 89.551)" fill="#e5f0f8"/><rect width="23.801" height="1.447" transform="translate(40.929 92.945)" fill="#e5f0f8"/><rect width="23.801" height="1.447" transform="translate(40.929 96.338)" fill="#e5f0f8"/><rect width="23.801" height="1.447" transform="translate(40.929 99.732)" fill="#e5f0f8"/><rect width="23.801" height="1.447" transform="translate(40.929 103.125)" fill="#e5f0f8"/><rect width="23.801" height="1.447" transform="translate(40.929 106.519)" fill="#e5f0f8"/><rect width="23.801" height="1.447" transform="translate(40.929 109.912)" fill="#e5f0f8"/><rect width="23.801" height="1.447" transform="translate(40.929 113.306)" fill="#e5f0f8"/><rect width="23.801" height="1.447" transform="translate(40.929 116.7)" fill="#e5f0f8"/><rect width="23.801" height="1.447" transform="translate(40.929 120.093)" fill="#e5f0f8"/><rect width="23.801" height="1.447" transform="translate(40.929 123.487)" fill="#e5f0f8"/><rect width="23.801" height="1.447" transform="translate(40.929 126.88)" fill="#e5f0f8"/><rect width="23.801" height="1.447" transform="translate(40.929 130.274)" fill="#e5f0f8"/><rect width="23.801" height="1.447" transform="translate(40.929 133.667)" fill="#e5f0f8"/><path d="M161.025,387.667c0,3.777,5.593,10.479,5.336,17.937s-1.607,12.569,2.057,12.762,19.962,0,19.962,0h7.233s1.382-7.249-3.343-7.779-9.873.156-10.753-2.748c-.964-3.182-.337-8.968-.193-12.537s1.495-10.849-3.134-13.646-10.058-1.962-13.453-.386c-2.7,1.254-3.713,3.086-3.713,6.4" transform="translate(-120.732 -284.777)" fill="#373f51"/><path d="M263.785,622.187h0a.518.518,0,0,1-.518-.518v-.579a.518.518,0,0,1,1.036,0v.579a.518.518,0,0,1-.518.518" transform="translate(-197.39 -465.286)" fill="#bbdbf3"/><path d="M242.983,611.326l5.594,2.313-5.594-.963Z" transform="translate(-182.182 -458.354)" fill="#586773"/><rect width="1.421" height="37.41" transform="translate(82.029 119.664)" fill="#586773"/><path d="M327.4,592.32l4.6.053-.937-6.914-5.377,1.858Z" transform="translate(-244.192 -438.959)" fill="#a06753"/><path d="M331.906,616.42l2.172-.01.133-1.4,1.189,1.4,5.124-.024-3.86-3.446-4.6-.053Z" transform="translate(-248.853 -459.518)" fill="#322a28"/><path d="M0,.592,0-.559,2.044-.575,2.053.575Z" transform="translate(86.524 154.289)" fill="#d1ddff"/><path d="M0,.592,0-.559,2.044-.575,2.053.575Z" transform="translate(87.023 154.993)" fill="#d1ddff"/><path d="M299.523,483.377a4.68,4.68,0,0,0-2.824,5.986l6.121,22.03,7.543-1.173-4.587-22.711h0a4.674,4.674,0,0,0-6.252-4.133" transform="translate(-222.249 -362.214)" fill="#2bbfb1"/><path d="M258.922,426.539h0a2.9,2.9,0,0,1-3.982-.953l-6.261-10.2a2.895,2.895,0,1,1,4.934-3.029l6.261,10.2a2.9,2.9,0,0,1-.953,3.982" transform="translate(-186.134 -308.14)" fill="#ff966d"/><path d="M210.743,482.556a8.389,8.389,0,0,0-1.179,1.741c-.336.782,3.671.351,3.671.351l-.437-3.756Z" transform="translate(-157.11 -360.557)" fill="#4463aa"/><path d="M248.64,487.983h0a4.9,4.9,0,0,1-4.882,4.882H225a4.882,4.882,0,1,1,0-9.763h18.754a4.9,4.9,0,0,1,4.882,4.882" transform="translate(-165.041 -362.214)" fill="#2bbfb1"/><path d="M253.821,372.9s1.239-2.522-.385-2.449.385,2.449.385,2.449" transform="translate(-189.543 -277.748)" fill="#322a28"/><path d="M235.742,490.876h0a4.9,4.9,0,0,1-5.322,4.4L211.75,493.5a4.882,4.882,0,0,1,.924-9.72l18.67,1.775a4.9,4.9,0,0,1,4.4,5.322" transform="translate(-155.45 -362.706)" fill="#4adbd1"/><path d="M215.715,406.242l-5.066,2.386s1.126,12.95,1.243,14.377a16.253,16.253,0,0,1-.32,3.581h12.141s-.146-6.988.67-8.938a5.254,5.254,0,0,0,.611-3.64c-.32-1.514-1.4-3.785-1.019-6.405l-3.115-1.252Z" transform="translate(-157.938 -304.588)" fill="#ff966d"/><path d="M236.041,383.142v5.891a1.659,1.659,0,0,1-.015.187,1.824,1.824,0,0,1-1.972,1.7,3.937,3.937,0,0,1-2.919-1.656,3.341,3.341,0,0,1-.239-.34l.737-5.781Z" transform="translate(-173.119 -287.268)" fill="#a06753"/><path d="M264.115,602.543l4.6.053.977-3.12-5.027-.383Z" transform="translate(-198.025 -449.182)" fill="#a06753"/><path d="M243.6,395.149l-2.619-3.344,2.619-.5Z" transform="translate(-180.684 -293.385)" fill="#824c3a"/><path d="M236.047,371.308a3.6,3.6,0,0,1-3.512-1.148c-1.023-1.074-3.321-5.1-.253-6.97s4.885,1.228,4.964,1.708c0,0,.03,1.692.049,2.884.007.3.012.573.015.776,0,.033,0,.063,0,.093.015.934-.223,2.322-1.265,2.658" transform="translate(-173.005 -271.862)" fill="#a06753"/><path d="M178.159,429.091h0a2.9,2.9,0,0,1-.691-4.035l6.914-9.769a2.895,2.895,0,1,1,4.726,3.345l-6.914,9.769a2.9,2.9,0,0,1-4.035.691" transform="translate(-132.664 -310.455)" fill="#ff966d"/><path d="M263.488,616.42l2.172-.01.133-1.4,1.189,1.4,5.124-.024-3.86-3.446-4.6-.053Z" transform="translate(-197.555 -459.518)" fill="#322a28"/><path d="M235.843,363.588c.045.66-.328,1.585-2.313,1.512s-2.331.893-2.131,1.694a1.266,1.266,0,0,1-.31-1.007,1.881,1.881,0,0,0-.419,1.649s-.507-.8-.818-.211.1,1.055-.3,2.389a2.7,2.7,0,0,0-.495-2.025c-.7-.7-1.415-7.406,3.694-5.765,0,0,2.911-.957,3.1,1.765" transform="translate(-171.37 -271.091)" fill="#322a28"/><path d="M272.276,491.885a4.68,4.68,0,0,0-5.422,3.8l-5.793,23.5,7.225,1.395,7.369-22h0a4.674,4.674,0,0,0-3.377-6.69" transform="translate(-195.736 -368.746)" fill="#4adbd1"/><path d="M0,.592,0-.559,2.044-.575,2.053.575Z" transform="translate(69.404 154.289)" fill="#d1ddff"/><path d="M0,.592,0-.559,2.044-.575,2.053.575Z" transform="translate(69.902 154.993)" fill="#d1ddff"/><path d="M231.336,381.977c.181.551.177.9-.256,1.047a.994.994,0,0,1-1.212-.641.958.958,0,0,1,.455-1.254c.432-.142.832.3,1.013.849" transform="translate(-172.299 -285.738)" fill="#a06753"/><path d="M232.307,384.12a.144.144,0,0,1-.1-.038.563.563,0,0,0-.451-.111.144.144,0,1,1-.05-.284.855.855,0,0,1,.287,0,.756.756,0,0,0-.434-.118.144.144,0,1,1-.014-.288.814.814,0,0,1,.9.683.144.144,0,0,1-.143.159Z" transform="translate(-173.612 -287.478)" fill="#724638"/><path d="M246.168,380.213c0,.224.115.406.26.407s.264-.18.265-.4-.115-.406-.26-.407-.263.18-.265.4" transform="translate(-184.569 -284.769)" fill="#322a28"/><path d="M253.818,379.564c0,.224.115.406.26.407s.263-.18.265-.4-.115-.406-.259-.407-.264.18-.265.4" transform="translate(-190.305 -284.283)" fill="#322a28"/><path d="M247.978,389.882a.507.507,0,0,0,.644-.312l-.957-.332a.506.506,0,0,0,.312.644" transform="translate(-185.671 -291.839)" fill="#fff"/><path d="M244.306,378.562l-.331-.27a1.162,1.162,0,0,1,1.219-.414l-.156.4C244.671,378.132,244.31,378.558,244.306,378.562Z" transform="translate(-183.049 -283.437)" fill="#2c3447"/><path transform="translate(-190.435 -283.289)" fill="#2c3447"/><path d="M251.374,382.6l-.119-.41a.83.83,0,0,0,.109-.041,1.973,1.973,0,0,1-.464-1.263l.427-.008h0c0,.021.035.944.5,1.044l.409.088-.311.28A1.593,1.593,0,0,1,251.374,382.6Z" transform="translate(-188.277 -285.577)" fill="#2c3447"/><path d="M243.275,384.474c-.055.213-.419.3-.814.2s-.671-.356-.617-.569.419-.3.814-.2.671.356.617.569" transform="translate(-181.322 -287.809)" fill="#c18592"/><path d="M255.524,384.1c-.238.009-.428-.065-.476-.21-.062-.189.138-.424.461-.566.007.3.012.573.015.776" transform="translate(-191.219 -287.404)" fill="#c18592"/><path d="M273.047,434.834a3.013,3.013,0,0,1,1.305-4.025l12.881-3.662a9.441,9.441,0,0,0,1.2-.747c.808-.616,3.2-2.031,3.4-1.686s-1.24,1.648-1.037,1.724a6.82,6.82,0,0,0,2.006-.977c.522-.345,1.522-1.265,1.866-1.14s.3.663.3.663.339-.4.546-.139-.169,1.007-.169,1.007.166-.241.324.1-.785,1.262-.785,1.262a.236.236,0,0,1,.327.172c.084.277-1.288,1.348-2.483,1.779-1.067.385-3.7,1.018-4.257,1.149l-11.589,6.313a3.013,3.013,0,0,1-3.832-1.8" transform="translate(-204.503 -318.134)" fill="#a06753"/><path d="M.267,3.724l-.533-.255,1.718-3.6.533.255Z" transform="translate(53.718 110.438)" fill="#2c3447"/><path d="M232.432,388.9h0a.67.67,0,0,1,.005-1.339h.005a.67.67,0,0,1-.005,1.339Z" transform="translate(-173.951 -290.761)" fill="#fff"/><path d="M176.564,454.006a3.013,3.013,0,0,0,2.67,3.282l13.335-1.235a9.736,9.736,0,0,0,3.581-.626,1.512,1.512,0,0,1,1.533-.034c.629.327,1.173.552,1.378.354.263-.254-1.29-.93-1.25-1.052s.854.309,1.247.509c.439.224.935.255,1.018.1.207-.388-.694-.931-.694-.931s1.243.684,1.387.335c.083-.2-.491-.64-.962-.89-.322-.171-1.514-.611-1.456-.77.037-.1,1.145.417,1.376.49.443.139,1.121.132,1.108-.053a5.738,5.738,0,0,0-4-1.209c-1.436.3-3.677.45-4.241.528l-13.1-1.857a3.013,3.013,0,0,0-2.925,3.057" transform="translate(-132.38 -338.106)" fill="#a06753"/><path d="M264.722,430.123l-.534-.254a6.778,6.778,0,0,0,.739-2.746c-.072-.486-.314-1.414-.548-2.311-.239-.917-.465-1.783-.52-2.212l.586-.076c.051.392.282,1.28.506,2.139.238.912.484,1.855.561,2.373A7.458,7.458,0,0,1,264.722,430.123Z" transform="translate(-198.053 -316.824)" fill="#2c3447"/><path d="M225.23,348.449c.37,1.338-.122,2.641-1.1,2.911s-2.066-.6-2.436-1.935.122-2.641,1.1-2.911,2.066.6,2.436,1.935" transform="translate(-166.129 -259.769)" fill="#322a28"/><rect width="1.543" height="20.38" transform="translate(56.173 133.942)" fill="#586773"/><rect width="7.715" height="1.35" transform="translate(53.087 152.972)" fill="#586773"/><rect width="4.468" height="1.318" transform="translate(54.71 133.649)" fill="#586773"/><path d="M188.245,622.187h0a.518.518,0,0,0,.518-.518v-.579a.518.518,0,0,0-1.036,0v.579a.518.518,0,0,0,.518.518" transform="translate(-140.752 -465.286)" fill="#586773"/><path d="M195.391,611.326,189.8,613.64l5.594-.963Z" transform="translate(-142.304 -458.354)" fill="#586773"/><rect width="1.421" height="37.41" transform="translate(41.348 119.664)" fill="#bbdbf3"/><path d="M181.257,499.337s17.962-2.271,21.618,1.007c3.217,2.885.675,7.058.675,7.058l-17.744.06Z" transform="translate(-135.901 -373.813)" fill="#373f51"/><rect width="1.421" height="37.41" transform="translate(58.232 119.664)" fill="#bbdbf3"/><rect width="1.421" height="37.41" transform="translate(98.913 119.664)" fill="#586773"/><path d="M296.864,417.276h19.8a.748.748,0,0,0,.747-.7l.82-12.22a.749.749,0,0,0-.747-.8h-19.8a.748.748,0,0,0-.747.7l-.82,12.22a.749.749,0,0,0,.747.8" transform="translate(-222.018 -302.576)" fill="#93acbf"/><path d="M296.7,453.977l.554.533.96-1.477-1.381-.117Z" transform="translate(-222.457 -339.582)" fill="#93acbf"/><path d="M379.721,404.208l.489.454-1.027.71-.677-.722.767-.442Z" transform="translate(-283.792 -303.063)" fill="#93acbf"/><path d="M298.639,418.936h19.8a.748.748,0,0,0,.747-.7l.82-12.22a.749.749,0,0,0-.747-.8h-19.8a.748.748,0,0,0-.746.7l-.82,12.221a.748.748,0,0,0,.747.8" transform="translate(-223.349 -303.821)" fill="#586773"/><path d="M333.022,438.707l.592,5.753h4.762l-.92-8.941h-4.142Z" transform="translate(-249.69 -326.539)" fill="#586773"/><path d="M335.1,444.457h4.765l-.92-8.944h-4.765Z" transform="translate(-250.559 -326.535)" fill="#93acbf"/><path d="M320.982,472.419h10.559v-.636a.528.528,0,0,0-.528-.528h-9.5a.528.528,0,0,0-.528.528Z" transform="translate(-240.662 -353.333)" fill="#586773"/><path d="M328.447,472.419h10.559v-.636a.528.528,0,0,0-.528-.528h-9.5a.528.528,0,0,0-.528.528Z" transform="translate(-246.259 -353.333)" fill="#93acbf"/><rect width="50.038" height="1.538" transform="translate(52.196 119.086)" fill="#586773"/><rect width="20.746" height="1.538" transform="translate(39.396 119.086)" fill="#bbdbf3"/><path d="M268.045,473.381h-14.7v-.474a.369.369,0,0,1,.369-.369h13.96a.369.369,0,0,1,.369.369Z" transform="translate(-189.952 -354.295)" fill="#fff"/><path d="M299.924,631.734H99.983a2.2,2.2,0,0,1-2.2-2.2v-.258a2.2,2.2,0,0,1,2.2-2.2H299.924a2.2,2.2,0,0,1,2.2,2.2v.258a2.2,2.2,0,0,1-2.2,2.2" transform="translate(-73.318 -470.168)" fill="#3c64bc"/><path d="M642.015,497.384V460.045a.953.953,0,0,1,.953-.954h55.815a.953.953,0,0,1,.953.954v37.339a.954.954,0,0,1-.953.953H642.968a.953.953,0,0,1-.953-.953" transform="translate(-481.363 -344.212)" fill="#fff"/><rect width="53.139" height="17.039" transform="translate(162.943 117.17)" fill="#93acbf"/><path d="M664.888,491.745h-7a1.1,1.1,0,0,1-1.1-1.1v-7.46a1.1,1.1,0,0,1,1.1-1.1h7a1.1,1.1,0,0,1,1.1,1.1v7.46a1.1,1.1,0,0,1-1.1,1.1" transform="translate(-492.444 -361.459)" fill="#bbdbf3"/><rect width="2.077" height="1.196" transform="translate(165.609 122.124)" fill="#93acbf"/><rect width="2.077" height="1.196" transform="translate(165.609 123.95)" fill="#93acbf"/><rect width="2.077" height="1.196" transform="translate(165.609 125.775)" fill="#93acbf"/><rect width="2.077" height="1.196" transform="translate(165.609 127.601)" fill="#93acbf"/><rect width="4.049" height="1.825" transform="translate(168.504 122.722)" fill="#5573c6"/><rect width="4.049" height="1.825" transform="translate(168.504 126.373)" fill="#5573c6"/><path d="M658.136,525.164a.671.671,0,1,1-.671-.671.671.671,0,0,1,.671.671" transform="translate(-492.443 -393.249)" fill="#373f51"/><path d="M668.589,525.164a.671.671,0,1,1-.671-.671.671.671,0,0,1,.671.671" transform="translate(-500.281 -393.249)" fill="#f4a338"/><path d="M679.043,525.164a.671.671,0,1,1-.671-.671.671.671,0,0,1,.671.671" transform="translate(-508.119 -393.249)" fill="#4adbd1"/><path d="M689.5,525.164a.671.671,0,1,1-.671-.671.671.671,0,0,1,.671.671" transform="translate(-515.956 -393.249)" fill="#bbdbf3"/><path d="M658.136,475.109a.671.671,0,1,1-.671-.671.671.671,0,0,1,.671.671" transform="translate(-492.443 -355.719)" fill="#373f51"/><path d="M668.589,475.109a.671.671,0,1,1-.671-.671.671.671,0,0,1,.671.671" transform="translate(-500.281 -355.719)" fill="#f4a338"/><path d="M679.043,475.109a.671.671,0,1,1-.671-.671.671.671,0,0,1,.671.671" transform="translate(-508.119 -355.719)" fill="#4adbd1"/><path d="M689.5,475.109a.671.671,0,1,1-.671-.671.671.671,0,0,1,.671.671" transform="translate(-515.956 -355.719)" fill="#bbdbf3"/><path d="M719.685,491.745h-7a1.1,1.1,0,0,1-1.1-1.1v-7.46a1.1,1.1,0,0,1,1.1-1.1h7a1.1,1.1,0,0,1,1.1,1.1v7.46a1.1,1.1,0,0,1-1.1,1.1" transform="translate(-533.529 -361.459)" fill="#bbdbf3"/><rect width="2.077" height="1.196" transform="translate(179.32 122.124)" fill="#93acbf"/><rect width="2.077" height="1.196" transform="translate(179.32 123.95)" fill="#93acbf"/><rect width="2.077" height="1.196" transform="translate(179.32 125.775)" fill="#93acbf"/><rect width="2.077" height="1.196" transform="translate(179.32 127.601)" fill="#93acbf"/><rect width="4.049" height="1.825" transform="translate(182.216 122.722)" fill="#5573c6"/><rect width="4.049" height="1.825" transform="translate(182.216 126.373)" fill="#5573c6"/><path d="M712.934,525.164a.671.671,0,1,1-.671-.671.671.671,0,0,1,.671.671" transform="translate(-533.529 -393.249)" fill="#373f51"/><path d="M723.387,525.164a.671.671,0,1,1-.671-.671.671.671,0,0,1,.671.671" transform="translate(-541.367 -393.249)" fill="#f4a338"/><path d="M733.84,525.164a.671.671,0,1,1-.671-.671.671.671,0,0,1,.671.671" transform="translate(-549.204 -393.249)" fill="#4adbd1"/><path d="M744.293,525.164a.671.671,0,1,1-.671-.671.671.671,0,0,1,.671.671" transform="translate(-557.041 -393.249)" fill="#bbdbf3"/><path d="M712.934,475.109a.671.671,0,1,1-.671-.671.671.671,0,0,1,.671.671" transform="translate(-533.529 -355.719)" fill="#373f51"/><path d="M723.387,475.109a.671.671,0,1,1-.671-.671.671.671,0,0,1,.671.671" transform="translate(-541.367 -355.719)" fill="#f4a338"/><path d="M733.84,475.109a.671.671,0,1,1-.671-.671.671.671,0,0,1,.671.671" transform="translate(-549.204 -355.719)" fill="#4adbd1"/><path d="M744.293,475.109a.671.671,0,1,1-.671-.671.671.671,0,0,1,.671.671" transform="translate(-557.041 -355.719)" fill="#bbdbf3"/><path d="M774.482,491.745h-7a1.1,1.1,0,0,1-1.1-1.1v-7.46a1.1,1.1,0,0,1,1.1-1.1h7a1.1,1.1,0,0,1,1.1,1.1v7.46a1.1,1.1,0,0,1-1.1,1.1" transform="translate(-574.614 -361.459)" fill="#bbdbf3"/><rect width="2.077" height="1.196" transform="translate(193.033 122.124)" fill="#93acbf"/><rect width="2.077" height="1.196" transform="translate(193.033 123.95)" fill="#93acbf"/><rect width="2.077" height="1.196" transform="translate(193.033 125.775)" fill="#93acbf"/><rect width="2.077" height="1.196" transform="translate(193.033 127.601)" fill="#93acbf"/><rect width="4.049" height="1.825" transform="translate(195.928 122.722)" fill="#5573c6"/><rect width="4.049" height="1.825" transform="translate(195.928 126.373)" fill="#5573c6"/><path d="M767.731,525.164a.671.671,0,1,1-.671-.671.671.671,0,0,1,.671.671" transform="translate(-574.614 -393.249)" fill="#373f51"/><path d="M778.184,525.164a.671.671,0,1,1-.671-.671.671.671,0,0,1,.671.671" transform="translate(-582.452 -393.249)" fill="#f4a338"/><path d="M788.637,525.164a.671.671,0,1,1-.671-.671.671.671,0,0,1,.671.671" transform="translate(-590.289 -393.249)" fill="#4adbd1"/><path d="M799.09,525.164a.671.671,0,1,1-.671-.671.671.671,0,0,1,.671.671" transform="translate(-598.126 -393.249)" fill="#bbdbf3"/><path d="M767.731,475.109a.671.671,0,1,1-.671-.671.671.671,0,0,1,.671.671" transform="translate(-574.614 -355.719)" fill="#373f51"/><path d="M778.184,475.109a.671.671,0,1,1-.671-.671.671.671,0,0,1,.671.671" transform="translate(-582.452 -355.719)" fill="#f4a338"/><path d="M788.637,475.109a.671.671,0,1,1-.671-.671.671.671,0,0,1,.671.671" transform="translate(-590.289 -355.719)" fill="#4adbd1"/><path d="M799.09,475.109a.671.671,0,1,1-.671-.671.671.671,0,0,1,.671.671" transform="translate(-598.126 -355.719)" fill="#bbdbf3"/><path d="M829.279,491.745h-7a1.1,1.1,0,0,1-1.1-1.1v-7.46a1.1,1.1,0,0,1,1.1-1.1h7a1.1,1.1,0,0,1,1.1,1.1v7.46a1.1,1.1,0,0,1-1.1,1.1" transform="translate(-615.699 -361.459)" fill="#bbdbf3"/><rect width="2.077" height="1.196" transform="translate(206.744 122.124)" fill="#93acbf"/><rect width="2.077" height="1.196" transform="translate(206.744 123.95)" fill="#93acbf"/><rect width="2.077" height="1.196" transform="translate(206.744 125.775)" fill="#93acbf"/><rect width="2.077" height="1.196" transform="translate(206.744 127.601)" fill="#93acbf"/><rect width="4.049" height="1.825" transform="translate(209.64 122.722)" fill="#5573c6"/><rect width="4.049" height="1.825" transform="translate(209.64 126.373)" fill="#5573c6"/><path d="M822.528,525.164a.671.671,0,1,1-.672-.671.671.671,0,0,1,.672.671" transform="translate(-615.699 -393.249)" fill="#373f51"/><path d="M832.981,525.164a.671.671,0,1,1-.671-.671.671.671,0,0,1,.671.671" transform="translate(-623.537 -393.249)" fill="#f4a338"/><path d="M843.434,525.164a.671.671,0,1,1-.671-.671.671.671,0,0,1,.671.671" transform="translate(-631.374 -393.249)" fill="#4adbd1"/><path d="M853.887,525.164a.671.671,0,1,1-.672-.671.671.671,0,0,1,.672.671" transform="translate(-639.212 -393.249)" fill="#bbdbf3"/><path d="M822.528,475.109a.671.671,0,1,1-.672-.671.672.672,0,0,1,.672.671" transform="translate(-615.699 -355.719)" fill="#373f51"/><path d="M832.981,475.109a.671.671,0,1,1-.671-.671.671.671,0,0,1,.671.671" transform="translate(-623.537 -355.719)" fill="#f4a338"/><path d="M843.434,475.109a.671.671,0,1,1-.671-.671.671.671,0,0,1,.671.671" transform="translate(-631.374 -355.719)" fill="#4adbd1"/><path d="M853.887,475.109a.671.671,0,1,1-.672-.671.671.671,0,0,1,.672.671" transform="translate(-639.212 -355.719)" fill="#bbdbf3"/><rect width="53.139" height="17.698" transform="translate(162.943 134.136)" fill="#586773"/><rect width="15.055" height="1.511" transform="translate(164.35 136.04)" fill="#373f51"/><rect width="15.055" height="1.511" transform="translate(164.35 138.516)" fill="#f4a338"/><rect width="15.055" height="1.511" transform="translate(164.35 140.991)" fill="#f4a338"/><rect width="15.055" height="1.511" transform="translate(164.35 143.467)" fill="#4adbd1"/><rect width="15.055" height="1.511" transform="translate(164.35 145.943)" fill="#373f51"/><rect width="15.055" height="1.511" transform="translate(164.35 148.419)" fill="#5573c6"/><path d="M729.354,544.329a.671.671,0,1,1-.671-.671.671.671,0,0,1,.671.671" transform="translate(-545.84 -407.618)" fill="#373f51"/><path d="M739.807,544.329a.671.671,0,1,1-.671-.671.671.671,0,0,1,.671.671" transform="translate(-553.678 -407.618)" fill="#373f51"/><path d="M750.26,544.329a.671.671,0,1,1-.671-.671.671.671,0,0,1,.671.671" transform="translate(-561.515 -407.618)" fill="#373f51"/><path d="M760.713,544.329a.671.671,0,1,1-.672-.671.671.671,0,0,1,.672.671" transform="translate(-569.352 -407.618)" fill="#f4a338"/><path d="M771.015,544.329a.671.671,0,1,1-.671-.671.671.671,0,0,1,.671.671" transform="translate(-577.077 -407.618)" fill="#f4a338"/><path d="M781.468,544.329a.671.671,0,1,1-.671-.671.671.671,0,0,1,.671.671" transform="translate(-584.914 -407.618)" fill="#f4a338"/><path d="M791.921,544.329a.671.671,0,1,1-.671-.671.671.671,0,0,1,.671.671" transform="translate(-592.751 -407.618)" fill="#4adbd1"/><path d="M802.374,544.329a.671.671,0,1,1-.671-.671.671.671,0,0,1,.671.671" transform="translate(-600.589 -407.618)" fill="#4adbd1"/><path d="M729.354,552.945a.671.671,0,1,1-.671-.671.671.671,0,0,1,.671.671" transform="translate(-545.84 -414.078)" fill="#373f51"/><path d="M739.807,552.945a.671.671,0,1,1-.671-.671.671.671,0,0,1,.671.671" transform="translate(-553.678 -414.078)" fill="#373f51"/><path d="M750.26,552.945a.671.671,0,1,1-.671-.671.671.671,0,0,1,.671.671" transform="translate(-561.515 -414.078)" fill="#373f51"/><path d="M760.713,552.945a.671.671,0,1,1-.672-.671.671.671,0,0,1,.672.671" transform="translate(-569.352 -414.078)" fill="#f4a338"/><path d="M771.015,552.945a.671.671,0,1,1-.671-.671.671.671,0,0,1,.671.671" transform="translate(-577.077 -414.078)" fill="#f4a338"/><path d="M781.468,552.945a.671.671,0,1,1-.671-.671.671.671,0,0,1,.671.671" transform="translate(-584.914 -414.078)" fill="#f4a338"/><path d="M791.921,552.945a.671.671,0,1,1-.671-.671.671.671,0,0,1,.671.671" transform="translate(-592.751 -414.078)" fill="#4adbd1"/><path d="M802.374,552.945a.671.671,0,1,1-.671-.671.671.671,0,0,1,.671.671" transform="translate(-600.589 -414.078)" fill="#4adbd1"/><path d="M729.354,565.092a.671.671,0,1,1-.671-.671.671.671,0,0,1,.671.671" transform="translate(-545.84 -423.186)" fill="#373f51"/><path d="M739.807,565.092a.671.671,0,1,1-.671-.671.671.671,0,0,1,.671.671" transform="translate(-553.678 -423.186)" fill="#373f51"/><path d="M750.26,565.092a.671.671,0,1,1-.671-.671.671.671,0,0,1,.671.671" transform="translate(-561.515 -423.186)" fill="#f4a338"/><path d="M760.713,565.092a.671.671,0,1,1-.672-.671.671.671,0,0,1,.672.671" transform="translate(-569.352 -423.186)" fill="#f4a338"/><path d="M771.015,565.092a.671.671,0,1,1-.671-.671.671.671,0,0,1,.671.671" transform="translate(-577.077 -423.186)" fill="#4adbd1"/><path d="M781.468,565.092a.671.671,0,1,1-.671-.671.671.671,0,0,1,.671.671" transform="translate(-584.914 -423.186)" fill="#4adbd1"/><path d="M791.921,565.092a.671.671,0,1,1-.671-.671.671.671,0,0,1,.671.671" transform="translate(-592.751 -423.186)" fill="#4adbd1"/><path d="M802.374,565.092a.671.671,0,1,1-.671-.671.671.671,0,0,1,.671.671" transform="translate(-600.589 -423.186)" fill="#4adbd1"/><path d="M729.354,573.708a.671.671,0,1,1-.671-.671.671.671,0,0,1,.671.671" transform="translate(-545.84 -429.646)" fill="#373f51"/><path d="M739.807,573.708a.671.671,0,1,1-.671-.671.671.671,0,0,1,.671.671" transform="translate(-553.678 -429.646)" fill="#f4a338"/><path d="M750.26,573.708a.671.671,0,1,1-.671-.671.671.671,0,0,1,.671.671" transform="translate(-561.515 -429.646)" fill="#f4a338"/><path d="M760.713,573.708a.671.671,0,1,1-.672-.671.671.671,0,0,1,.672.671" transform="translate(-569.352 -429.646)" fill="#f4a338"/><path d="M771.015,573.708a.671.671,0,1,1-.671-.671.671.671,0,0,1,.671.671" transform="translate(-577.077 -429.646)" fill="#f4a338"/><path d="M781.468,573.708a.671.671,0,1,1-.671-.671.671.671,0,0,1,.671.671" transform="translate(-584.914 -429.646)" fill="#f4a338"/><path d="M791.921,573.708a.671.671,0,1,1-.671-.671.671.671,0,0,1,.671.671" transform="translate(-592.751 -429.646)" fill="#4adbd1"/><path d="M802.374,573.708a.671.671,0,1,1-.671-.671.671.671,0,0,1,.671.671" transform="translate(-600.589 -429.646)" fill="#4adbd1"/><path d="M729.354,585.854a.671.671,0,1,1-.671-.671.671.671,0,0,1,.671.671" transform="translate(-545.84 -438.752)" fill="#4adbd1"/><path d="M739.807,585.854a.671.671,0,1,1-.671-.671.671.671,0,0,1,.671.671" transform="translate(-553.678 -438.752)" fill="#4adbd1"/><path d="M750.26,585.854a.671.671,0,1,1-.671-.671.671.671,0,0,1,.671.671" transform="translate(-561.515 -438.752)" fill="#f4a338"/><path d="M760.713,585.854a.671.671,0,1,1-.672-.671.671.671,0,0,1,.672.671" transform="translate(-569.352 -438.752)" fill="#f4a338"/><path d="M771.015,585.854a.671.671,0,1,1-.671-.671.671.671,0,0,1,.671.671" transform="translate(-577.077 -438.752)" fill="#f4a338"/><path d="M781.468,585.854a.671.671,0,1,1-.671-.671.671.671,0,0,1,.671.671" transform="translate(-584.914 -438.752)" fill="#bbdbf3"/><path d="M791.921,585.854a.671.671,0,1,1-.671-.671.671.671,0,0,1,.671.671" transform="translate(-592.751 -438.752)" fill="#bbdbf3"/><path d="M802.374,585.854a.671.671,0,1,1-.671-.671.671.671,0,0,1,.671.671" transform="translate(-600.589 -438.752)" fill="#bbdbf3"/><path d="M729.354,594.47a.671.671,0,1,1-.671-.671.671.671,0,0,1,.671.671" transform="translate(-545.84 -445.212)" fill="#4adbd1"/><path d="M739.807,594.47a.671.671,0,1,1-.671-.671.671.671,0,0,1,.671.671" transform="translate(-553.678 -445.212)" fill="#4adbd1"/><path d="M750.26,594.47a.671.671,0,1,1-.671-.671.671.671,0,0,1,.671.671" transform="translate(-561.515 -445.212)" fill="#f4a338"/><path d="M760.713,594.47a.671.671,0,1,1-.672-.671.671.671,0,0,1,.672.671" transform="translate(-569.352 -445.212)" fill="#f4a338"/><path d="M771.015,594.47a.671.671,0,1,1-.671-.671.671.671,0,0,1,.671.671" transform="translate(-577.077 -445.212)" fill="#bbdbf3"/><path d="M781.468,594.47a.671.671,0,1,1-.671-.671.671.671,0,0,1,.671.671" transform="translate(-584.914 -445.212)" fill="#bbdbf3"/><path d="M791.921,594.47a.671.671,0,1,1-.671-.671.671.671,0,0,1,.671.671" transform="translate(-592.751 -445.212)" fill="#bbdbf3"/><path d="M802.374,594.47a.671.671,0,1,1-.671-.671.671.671,0,0,1,.671.671" transform="translate(-600.589 -445.212)" fill="#bbdbf3"/><path d="M829.279,560.879h-7a1.1,1.1,0,0,1-1.1-1.1v-7.46a1.1,1.1,0,0,1,1.1-1.1h7a1.1,1.1,0,0,1,1.1,1.1v7.46a1.1,1.1,0,0,1-1.1,1.1" transform="translate(-615.699 -413.294)" fill="#bbdbf3"/><rect width="2.077" height="1.196" transform="translate(206.744 139.424)" fill="#89a5c7"/><rect width="2.077" height="1.196" transform="translate(206.744 141.249)" fill="#89a5c7"/><rect width="2.077" height="1.196" transform="translate(206.744 143.075)" fill="#89a5c7"/><rect width="2.077" height="1.196" transform="translate(206.744 144.9)" fill="#89a5c7"/><rect width="4.049" height="1.825" transform="translate(209.64 140.022)" fill="#5573c6"/><rect width="4.049" height="1.825" transform="translate(209.64 143.672)" fill="#5573c6"/><path d="M822.528,594.3a.671.671,0,1,1-.672-.671.671.671,0,0,1,.672.671" transform="translate(-615.699 -445.083)" fill="#373f51"/><path d="M832.981,594.3a.671.671,0,1,1-.671-.671.671.671,0,0,1,.671.671" transform="translate(-623.537 -445.083)" fill="#f4a338"/><path d="M843.434,594.3a.671.671,0,1,1-.671-.671.671.671,0,0,1,.671.671" transform="translate(-631.374 -445.083)" fill="#4adbd1"/><path d="M853.887,594.3a.671.671,0,1,1-.672-.671.671.671,0,0,1,.672.671" transform="translate(-639.212 -445.083)" fill="#bbdbf3"/><path d="M822.528,544.243a.671.671,0,1,1-.672-.671.671.671,0,0,1,.672.671" transform="translate(-615.699 -407.554)" fill="#373f51"/><path d="M832.981,544.243a.671.671,0,1,1-.671-.671.671.671,0,0,1,.671.671" transform="translate(-623.537 -407.554)" fill="#f4a338"/><path d="M843.434,544.243a.671.671,0,1,1-.671-.671.671.671,0,0,1,.671.671" transform="translate(-631.374 -407.554)" fill="#4adbd1"/><path d="M853.887,544.243a.671.671,0,1,1-.672-.671.671.671,0,0,1,.672.671" transform="translate(-639.212 -407.554)" fill="#bbdbf3"/><rect width="5.372" height="2.791" transform="translate(163.573 154.125)" fill="#fff"/><rect width="5.372" height="2.791" transform="translate(210.081 154.125)" fill="#fff"/><g transform="translate(164.395 118.317)" opacity="0.4"><g clip-path="url(#c)"><path d="M675.136,472.833,663.965,505.2h-6.992l11.171-32.37Z" transform="translate(-656.973 -472.833)" fill="#fff"/></g></g><g transform="translate(173.565 118.317)" opacity="0.4"><g clip-path="url(#d)"><path d="M708.285,472.833,697.118,505.2h-3.5l11.171-32.37Z" transform="translate(-693.622 -472.833)" fill="#fff"/></g></g><g transform="translate(196.239 118.317)" opacity="0.4"><g clip-path="url(#e)"><path d="M802.931,472.833v6l-9.1,26.372h-9.6l11.171-32.37Z" transform="translate(-784.234 -472.833)" fill="#fff"/></g></g><g transform="translate(188.794 118.317)" opacity="0.4"><g clip-path="url(#f)"><path d="M770.451,472.833,759.28,505.2h-4.8l11.171-32.37Z" transform="translate(-754.482 -472.833)" fill="#fff"/></g></g><path d="M743.724,164.475l5.8-.1-.3-6.087-.145-2.911-.008-.145-4.536-1.907-.148,2.057-.109,1.5Z" transform="translate(-557.622 -114.96)" fill="#fdae97"/><path d="M756.428,266.836l2.438,20.179a4.638,4.638,0,0,1-5.479,5.251c-2.52-.49-3.484-2.435-3.937-5.328-.869-5.554-3.9-22.216-3.9-22.216Z" transform="translate(-558.989 -198.48)" fill="#5573c6"/><path d="M719.264,269.113l8.955.6-.045,9.921-1.063,1.572-.985,9.564-9.064-.724Z" transform="translate(-537.631 -201.773)" fill="#5573c6"/><path d="M783.1,202.486l-.03.02a2.926,2.926,0,0,1-4.045-.813l-7.242-10.884a2.925,2.925,0,0,1,.813-4.045l.03-.02a2.926,2.926,0,0,1,4.045.813l7.242,10.884a2.926,2.926,0,0,1-.813,4.045" transform="translate(-578.294 -139.651)" fill="#373f51"/><path d="M661.495,190.511l3.075,3.01,3.107-1.891-2-3.112-4.051.131Z" transform="translate(-495.968 -141.344)" fill="#e89780"/><path d="M678.4,208.307a2.9,2.9,0,0,1-3.987-.8l-3.658-6.685-1.29-2.37-1.35-2.466,2.245-1.552,1.594-1.1.154-.109,1.638,2.431,1.505,2.227,4.428,6.558a2.9,2.9,0,0,1-1.279,3.862" transform="translate(-500.928 -144.877)" fill="#373f51"/><path d="M745.1,181.563a3.619,3.619,0,0,1-3.306-1.426l.8-.359,5.26-.265.632.2a3.763,3.763,0,0,1-3.381,1.847" transform="translate(-556.175 -134.593)" fill="#fdae97"/><path d="M723.49,194.86l-.126,8.7h16.373l-.194-21.929-5.619-2.03c-.063.115-.131.236-.215.362l-.021.026c-.3.388-.887.755-2.518.792a4.261,4.261,0,0,1-2.4-.4l-.005-.005a1.439,1.439,0,0,1-.419-.446l-5.3,1.17.357,11.07Z" transform="translate(-542.113 -134.658)" fill="#373f51"/><path d="M772.635,361.531l-8.423-.006-2.539-19.6a4.648,4.648,0,1,1,9.245-.973,4.514,4.514,0,0,1,.019.658l1.466,17.2Z" transform="translate(-571.06 -252.514)" fill="#5573c6"/><path d="M692.65,202.26h0a2.971,2.971,0,0,0,3.985-1.294l5.947-11.667a2.963,2.963,0,0,0-5.279-2.691l-5.947,11.667a2.971,2.971,0,0,0,1.294,3.985" transform="translate(-518.116 -138.702)" fill="#373f51"/><path d="M745.933,181.539l2.4,3.8,2.518-4.187c-.3.388-.887.756-2.518.792a4.257,4.257,0,0,1-2.4-.4" transform="translate(-559.278 -135.821)" fill="#d6eaff"/><path d="M649.715,163.244c-1.247-.717-4.173-2.017-5.736-2.783-2.266-1.111-3.628-5.388.17-8.748,3.083-2.727,7.874,1.038,9.633,2.319a.386.386,0,0,0,.609-.369,8.814,8.814,0,0,0-2.45-4.653c-3.194-3.358-6.112-3.983-8.387-3.7a6.848,6.848,0,0,1-1.466.007,9.482,9.482,0,0,1-5.152-2.21l-34.667-28.939c-4.643-4.3-2.121-8.513-5.989-12.38-2.87-2.87-8.281-2.664-10.555-2.449a.356.356,0,0,0-.147.662c1.247.717,3.406,1.469,4.969,2.236,2.266,1.111,3.3,5.969-.495,9.328-3.083,2.727-7.219-.58-8.978-1.86a.386.386,0,0,0-.609.369,8.3,8.3,0,0,0,2.416,4.448,10.133,10.133,0,0,0,8.857,3.419,6.619,6.619,0,0,1,2.9.427,10.743,10.743,0,0,1,3.3,1.912L633.7,150.122a6.243,6.243,0,0,1,1.749,2.333c1.331,3.119.225,6.084,3.074,8.932,2.87,2.87,8.773,2.734,11.047,2.519a.356.356,0,0,0,.147-.662" transform="translate(-435.212 -74.393)" fill="#93acbf"/><path d="M685.931,193.435l-38.605-32.227A1.308,1.308,0,0,1,649,159.2l38.606,32.227a1.308,1.308,0,0,1-1.676,2.008" transform="translate(-484.993 -119.137)" fill="#586773"/><path d="M733.248,245.752c.035.255,1.561.583,2.694.462.96-.1,3.15-.573,3.794-.716l-.242-3.063a7.939,7.939,0,0,1-1.175-.129c-.892-.179-3.372-.389-3.4-.028s1.643.843,1.508.984a6.089,6.089,0,0,1-2-.006c-.558-.073-1.722-.424-1.949-.189s.021.65.021.65-.43-.186-.5.1.53.746.53.746-.225-.13-.22.207,1.127.713,1.127.713a.208.208,0,0,0-.194.266" transform="translate(-548.831 -181.505)" fill="#fdae97"/><path d="M722.14,339.1l-2.163,20.372H711.7l1.327-20.484a5.6,5.6,0,0,1,.068-.68,4.469,4.469,0,0,1,4.818-4.246,4.653,4.653,0,0,1,4.224,5.038" transform="translate(-533.612 -250.46)" fill="#5573c6"/><path d="M759.927,231.878l2.929-.59,2.652-.531,7.076-1.423a3.07,3.07,0,0,1,.81,6.04l-7.385.545-2.684.2-2.774.205Z" transform="translate(-569.77 -171.932)" fill="#373f51"/><path d="M745.272,169.285l3.259-2.376-3.1.158Z" transform="translate(-558.782 -125.144)" fill="#ea9d85"/><path d="M743.149,135.325l-.882,3.211-.3,1.1c-.239.87-.35,2.228.547,2.8a3.494,3.494,0,0,0,3.569-.231c1.218-.763,4.563-4.79,2.136-7.283s-4.877-.024-5.068.407" transform="translate(-556.175 -100.334)" fill="#fdae97"/><path d="M750.153,138.19s-1.574-2.42-.716-3.8,0-1.724-.6-1.619a5.188,5.188,0,0,1-2.073-.09,4.714,4.714,0,0,0,1.817-.286s-2.515.206-3.063-.469l-.135.491s-.906-2.134.456-2.631,1.929.066,1.929.066-.433-.873.19-1.038,1.195,1.1,1.195,1.1a1.092,1.092,0,0,1,1.776-.015,2.126,2.126,0,0,1,.527,2.047,2.035,2.035,0,0,1,.542,2.242c-.511,1.369-1.727,2.662-1.842,4" transform="translate(-558.643 -96.571)" fill="#322a28"/><path d="M760.855,157.915c-.486.439-.68.788-.335,1.17a1.123,1.123,0,0,0,1.548.05,1.081,1.081,0,0,0,.256-1.485c-.344-.382-.983-.173-1.469.266" transform="translate(-570.084 -118.051)" fill="#fdae97"/><path d="M753.441,151.153c-.056.2-.206.337-.337.3s-.191-.229-.136-.43.207-.337.337-.3.191.228.136.43" transform="translate(-564.537 -113.003)" fill="#332b27"/><path d="M745.1,148.861c-.056.2.005.395.136.43s.281-.1.337-.3-.006-.394-.136-.43-.281.1-.337.3" transform="translate(-558.638 -111.382)" fill="#332b27"/><path d="M751.952,156.148c.011.2.347.349.749.327s.72-.2.709-.407-.347-.349-.749-.327-.72.2-.709.407" transform="translate(-563.79 -116.768)" fill="#e89780"/><path d="M743.091,152.67l-.2.716c.292.118.562.1.647-.043.1-.174-.1-.474-.45-.673" transform="translate(-556.999 -114.467)" fill="#e89780"/><path transform="translate(-572.345 -120.117)" fill="#ea9d85"/><path d="M746.849,161.971a1.532,1.532,0,0,1-.666-.159l.167-.349a.987.987,0,0,0,1.157-.139l.285.262A1.322,1.322,0,0,1,746.849,161.971Z" transform="translate(-559.528 -121.054)" fill="#332b27"/><path d="M747.57,153.93l-.3-.336a.5.5,0,0,1-.039-.621l.8-1.166.319.219-.8,1.167a.118.118,0,0,0,.009.145l.3.336Z" transform="translate(-560.331 -113.902)" fill="#332b27"/><path d="M753.819,149.6a.931.931,0,0,0-.691-.451v-.387a1.305,1.305,0,0,1,1.025.644l-.335.193.168-.1Z" transform="translate(-564.673 -111.685)" fill="#332b27"/><path d="M745.7,147.071a.586.586,0,0,0-.634-.094l-.181-.342a.97.97,0,0,1,1.066.141Z" transform="translate(-558.558 -110.013)" fill="#332b27"/><path d="M744.05,179.828l2.63,1.125-1.382,1.679-1.573-2.481Z" transform="translate(-557.622 -134.83)" fill="#fff"/><path d="M758.142,178.833l-2.609,1.374,1.244,1.608,1.6-2.756Z" transform="translate(-566.476 -134.084)" fill="#fff"/><path d="M721.362,438.849l.222-3.184h-6.2l-.242,3.184Z" transform="translate(-536.192 -326.649)" fill="#fdae97"/><path d="M715.671,437.108l6.309-1.442h-6.2Z" transform="translate(-536.589 -326.649)" fill="#ea9d85"/><path d="M776.062,438.834l-.238-3.189,6.35.005.108,3.184Z" transform="translate(-581.689 -326.634)" fill="#fdae97"/><path d="M660.4,186.838l.9.022a.571.571,0,0,1,.526.422l.566,1.894a.631.631,0,0,1-.542.825l-.978.034a.572.572,0,0,1-.565-.45l-.489-1.95a.626.626,0,0,1,.581-.8" transform="translate(-494.694 -140.086)" fill="#fdae97"/><path d="M775.956,437.424l6.218-1.774-6.35-.005Z" transform="translate(-581.689 -326.634)" fill="#ea9d85"/><path d="M769.47,140.642a1.363,1.363,0,0,1,1.474.226s-1.264-.361-1.474.12,0-.346,0-.346" transform="translate(-576.855 -105.357)" fill="#322a28"/><path d="M746.221,187.528a.157.157,0,0,1-.131-.071l-3.108-4.739a.157.157,0,1,1,.263-.172l2.973,4.534,3.02-4.858a.157.157,0,0,1,.267.166l-3.15,5.066A.156.156,0,0,1,746.221,187.528Z" transform="translate(-557.163 -136.686)" fill="#fff"/><path d="M0,.376A.157.157,0,0,1-.154.247.157.157,0,0,1-.028.064l1.2-.219a.157.157,0,0,1,.183.126.157.157,0,0,1-.126.183L.028.373Z" transform="translate(198.239 58.081)" fill="#322a28"/><path d="M.734,1.259A.157.157,0,0,1,.6,1.189L-.131.087A.157.157,0,0,1-.087-.131a.157.157,0,0,1,.218.044l.733,1.1a.157.157,0,0,1-.131.244Z" transform="translate(196.788 56.119)" fill="#322a28"/><path d="M702.933,450.583h9.155l.016-.373.112-2.467h-6.229a3.269,3.269,0,0,0-2.03.925,3.117,3.117,0,0,0-.944,1.542,2.263,2.263,0,0,0-.079.373" transform="translate(-527.038 -335.704)" fill="#322a28"/><path d="M702.933,457.975h9.155l.016-.372h-9.092a2.262,2.262,0,0,0-.079.372" transform="translate(-527.038 -343.097)" fill="#fff1f0"/><path d="M714.385,447.109a.24.24,0,0,1-.208-.358c.1-.182.651-1.089,1.252-1.089a.623.623,0,0,1,.452.2.475.475,0,0,1,.141.5c-.157.47-1.171.677-1.6.744Zm1.044-.968c-.135,0-.322.161-.494.363a1.5,1.5,0,0,0,.625-.281.222.222,0,0,0-.022-.026A.145.145,0,0,0,715.429,446.141Z" transform="translate(-535.624 -334.324)" fill="#fff1f0"/><path d="M710.409,447.387a.239.239,0,0,1-.169-.07l-.224-.222c-.462-.079-1.375-.288-1.523-.732a.475.475,0,0,1,.141-.5.614.614,0,0,1,.532-.2c.541.069,1.027.836,1.156,1.055l.256.254a.239.239,0,0,1-.169.409Zm-1.453-1.163a1.5,1.5,0,0,0,.626.281.975.975,0,0,0-.475-.362.139.139,0,0,0-.128.054A.23.23,0,0,0,708.955,446.224Z" transform="translate(-531.369 -334.324)" fill="#fff1f0"/><path d="M0,.516A.238.238,0,0,1-.146.466.24.24,0,0,1-.19.13L.023-.146A.24.24,0,0,1,.359-.19.24.24,0,0,1,.4.146L.19.423A.239.239,0,0,1,0,.516Z" transform="translate(178.548 112.547)" fill="#fff1f0"/><path d="M785.836,450.583h-9.155l-.016-.373-.112-2.467h6.229a3.269,3.269,0,0,1,2.03.925,3.116,3.116,0,0,1,.944,1.542,2.276,2.276,0,0,1,.078.373" transform="translate(-582.236 -335.704)" fill="#322a28"/><path d="M786.172,457.975h-9.155L777,457.6h9.092a2.261,2.261,0,0,1,.078.372" transform="translate(-582.572 -343.097)" fill="#fff1f0"/><path d="M797.942,447.445l-.037,0c-.429-.067-1.443-.274-1.6-.744a.475.475,0,0,1,.141-.5.623.623,0,0,1,.452-.2c.6,0,1.149.907,1.252,1.089a.239.239,0,0,1-.208.358Zm-1.175-.886a1.529,1.529,0,0,0,.624.28c-.172-.2-.358-.362-.494-.362a.145.145,0,0,0-.109.056A.222.222,0,0,0,796.767,446.559Z" transform="translate(-597.207 -334.575)" fill="#fff1f0"/><path d="M801.084,447.722a.239.239,0,0,1-.169-.409l.256-.254c.128-.219.614-.986,1.155-1.055a.613.613,0,0,1,.532.2.475.475,0,0,1,.141.5c-.148.444-1.061.653-1.523.732l-.224.223A.239.239,0,0,1,801.084,447.722Zm1.323-1.245h-.02a.975.975,0,0,0-.475.362,1.5,1.5,0,0,0,.625-.281.222.222,0,0,0-.022-.026A.147.147,0,0,0,802.407,446.477Z" transform="translate(-600.628 -334.575)" fill="#fff1f0"/><path d="M.213.516A.239.239,0,0,1,.023.423L-.19.146A.24.24,0,0,1-.146-.19.24.24,0,0,1,.19-.146L.4.13a.24.24,0,0,1-.19.386Z" transform="translate(200.734 112.631)" fill="#fff1f0"/><path d="M746.948,301.054l-.279-2.284-1.477-1.019-1.248-5.083.673-.165,1.185,4.827,1.517,1.047.317,2.594Z" transform="translate(-558.039 -219.372)" fill="#fff"/><path d="M5.888.347H0V-.347H5.888Z" transform="translate(178.95 106.521)" fill="#fff"/><path d="M5.888.347H0V-.347H5.888Z" transform="translate(194.704 106.521)" fill="#fff"/><path d="M912.109,279.6a5.513,5.513,0,0,0-4.846-2.349l-.183.013a5.518,5.518,0,0,0-3.5,9.3h0a5.634,5.634,0,0,0,.838.72,3.141,3.141,0,0,1,1.3,2.208l-.255,0a.271.271,0,0,0-.188.081c-.009.009-.016.019-.025.03a.269.269,0,0,0,.221.426.27.27,0,0,0-.188.081l-.014.015a.269.269,0,0,0,.21.44.265.265,0,0,0-.188.082l-.022.026a.277.277,0,0,0-.053.165.192.192,0,1,1,.083.346.058.058,0,0,0-.009.01.265.265,0,0,0-.067.18.268.268,0,0,0,.272.263l.276,0a1.935,1.935,0,0,0,.02.2,1.79,1.79,0,0,0,.225.619h0q.031.053.066.1c.011.017.024.033.036.049s.032.044.05.065l.038.046c.021.024.042.047.064.07l.03.032c.032.031.065.062.1.091l.036.03c.025.02.051.04.077.059l.04.029c.031.021.063.042.1.061l.024.015c.04.023.081.045.123.065l.039.018c.031.014.063.027.1.04l.043.016c.041.014.082.027.124.039l.014,0c.046.012.094.022.142.031l.042.007.109.014.044,0c.05,0,.1.005.151,0l.3,0a1.809,1.809,0,0,0,1.764-1.563c0-.034.007-.068.009-.1s0-.062,0-.092h0l.251,0a.27.27,0,0,0,.265-.272.273.273,0,0,0-.273-.265.271.271,0,0,0,.188-.081.269.269,0,0,1-.008-.538.264.264,0,0,0,.008-.364.269.269,0,0,0-.2-.09.268.268,0,0,0,.208-.432.268.268,0,0,0-.216-.1l-.254,0a3.151,3.151,0,0,1,1.236-2.247,5.519,5.519,0,0,0,1.227-7.589" transform="translate(-676.339 -207.87)" fill="#e5f0f8"/><path d="M88,68.4a5.251,5.251,0,0,1-4.746,5.137,22.605,22.605,0,0,0,2.756,7.056A5.254,5.254,0,0,1,93.262,88.1a23.024,23.024,0,0,0,4.4,2.23c.692.258,1.4.487,2.107.677.139.044.286.077.424.112a5.258,5.258,0,0,1,10.444.18,22.494,22.494,0,0,0,7.037-2.754A5.257,5.257,0,0,1,125.2,81.3a22.66,22.66,0,0,0,3.008-6.938,5.255,5.255,0,0,1,.2-10.438,22.542,22.542,0,0,0-2.755-7.046,5.237,5.237,0,0,1-6.366.015,3.857,3.857,0,0,1-.613-.535,5.242,5.242,0,0,1-.266-7,22.891,22.891,0,0,0-4.14-2.138c-.692-.259-1.39-.5-2.1-.7-.237-.066-.474-.133-.709-.19a5.235,5.235,0,0,1-5.3,4.555,5.4,5.4,0,0,1-1.411-.211,5.258,5.258,0,0,1-3.724-4.525,22.5,22.5,0,0,0-7.037,2.753,5.257,5.257,0,0,1-7.526,7.246A22.905,22.905,0,0,0,83.443,63.1,5.243,5.243,0,0,1,88,68.4m10.076-7.705a11.007,11.007,0,0,1,4.21-2.552,11.162,11.162,0,0,1,6.127-.27,10.125,10.125,0,0,1,2.1.726,11.158,11.158,0,0,1,5.977,6.783,11.162,11.162,0,0,1-2.908,11.394,10.228,10.228,0,0,1-1.193.99,11.1,11.1,0,0,1-10.968,1.223,10.962,10.962,0,0,1-3.622-2.5A11.628,11.628,0,0,1,96.661,75.1a11.166,11.166,0,0,1,1.412-14.413" transform="translate(-62.42 -34.609)" fill="#3c64bc"/><path d="M195.973,40.109l2.585-2.262-.674,5.924Z" transform="translate(-146.935 -28.377)" fill="#3c64bc"/><path d="M128.733,48.124l-2.585,2.262,3.823,1.79,1.14-3.645Z" transform="translate(-94.582 -36.082)" fill="#3c64bc"/><path d="M85.837,146.52l-2.585,2.262,2.05,1.649,2.328-1.9Z" transform="translate(-62.42 -109.857)" fill="#3c64bc"/><path d="M98.658,77.081l-2.585,2.262.968,2.574.671-2.8Z" transform="translate(-72.032 -57.793)" fill="#3c64bc"/><path d="M148.89,212.445l-2.585,2.262-1.55-1.839,1.5-1.88Z" transform="translate(-108.533 -158.192)" fill="#3c64bc"/><path d="M258.4,102.593l-2.585,2.262-2.632-2.164,1.41-1.947Z" transform="translate(-189.832 -75.534)" fill="#3c64bc"/><path d="M212.043,204.775l-2.585,2.262-3.789-.632,2.666-2.216Z" transform="translate(-154.204 -153.094)" fill="#3c64bc"/><path d="M251.576,171.424l-2.585,2.262-.633-4.314,2.316.47Z" transform="translate(-186.211 -126.99)" fill="#3c64bc"/><path d="M98.329,59.359A5.251,5.251,0,0,1,93.583,64.5a22.605,22.605,0,0,0,2.756,7.056,5.254,5.254,0,0,1,7.254,7.515,23.025,23.025,0,0,0,4.4,2.23c.692.258,1.4.487,2.107.677.139.044.286.077.424.112a5.258,5.258,0,0,1,10.444.18A22.487,22.487,0,0,0,128,79.512a5.257,5.257,0,0,1,7.525-7.246,22.659,22.659,0,0,0,3.008-6.938,5.255,5.255,0,0,1,.2-10.438,22.545,22.545,0,0,0-2.755-7.047,5.237,5.237,0,0,1-6.366.015,3.857,3.857,0,0,1-.613-.535,5.242,5.242,0,0,1-.266-7,22.909,22.909,0,0,0-4.14-2.139c-.692-.258-1.39-.5-2.1-.7-.237-.066-.474-.133-.709-.19a5.235,5.235,0,0,1-5.3,4.555,5.4,5.4,0,0,1-1.411-.211,5.258,5.258,0,0,1-3.724-4.525,22.5,22.5,0,0,0-7.037,2.753,5.257,5.257,0,0,1-7.526,7.246,22.9,22.9,0,0,0-3.017,6.939,5.243,5.243,0,0,1,4.554,5.3M108.4,51.654a11.007,11.007,0,0,1,4.21-2.552,11.162,11.162,0,0,1,6.127-.27,10.139,10.139,0,0,1,2.1.725,11.16,11.16,0,0,1,5.977,6.783,11.162,11.162,0,0,1-2.908,11.394,10.231,10.231,0,0,1-1.193.99,11.1,11.1,0,0,1-10.968,1.223,10.961,10.961,0,0,1-3.622-2.5,11.627,11.627,0,0,1-1.133-1.378A11.166,11.166,0,0,1,108.4,51.654" transform="translate(-70.166 -27.832)" fill="#5573c6"/><path d="M285.137,20.736a2.882,2.882,0,0,1-1.917,3.324,12.4,12.4,0,0,0,2.33,3.442,2.883,2.883,0,0,1,4.793,3.142,12.632,12.632,0,0,0,2.625.66c.4.055.807.091,1.21.107.08.007.162.007.24.009a2.885,2.885,0,0,1,5.611-1.169,12.347,12.347,0,0,0,3.432-2.327,2.885,2.885,0,0,1,3.149-4.79,12.426,12.426,0,0,0,.769-4.078,2.884,2.884,0,0,1-1.158-5.61,12.371,12.371,0,0,0-2.328-3.437,2.873,2.873,0,0,1-3.4.78,2.124,2.124,0,0,1-.393-.212,2.876,2.876,0,0,1-.99-3.712,12.552,12.552,0,0,0-2.475-.643c-.4-.055-.8-.1-1.209-.118-.135-.007-.27-.014-.4-.016a2.872,2.872,0,0,1-2.284,3.08,2.967,2.967,0,0,1-.78.058,2.885,2.885,0,0,1-2.542-1.97,12.343,12.343,0,0,0-3.432,2.326,2.885,2.885,0,0,1-3.149,4.79,12.561,12.561,0,0,0-.773,4.079,2.877,2.877,0,0,1,3.08,2.284m4.458-5.345a6.04,6.04,0,0,1,1.944-1.876,6.126,6.126,0,0,1,3.246-.887,5.555,5.555,0,0,1,1.21.134,6.123,6.123,0,0,1,4.021,2.905,6.124,6.124,0,0,1-.175,6.45,5.58,5.58,0,0,1-.518.675,6.079,6.079,0,0,1-4.507,2.089,6.172,6.172,0,0,1-3.456-1.005,6.376,6.376,0,0,1-.773-.6,6.127,6.127,0,0,1-.991-7.884" transform="translate(-211.478 -4.565)" fill="#3c64bc"/><path d="M333.855,1.524,334.964,0l.358,3.252Z" transform="translate(-250.314 0)" fill="#3c64bc"/><path d="M298.842,13.752l-1.109,1.524,2.263.495.168-2.089Z" transform="translate(-223.231 -10.258)" fill="#3c64bc"/><path d="M287.813,71.821,286.7,73.345l1.3.634,1.015-1.3Z" transform="translate(-214.962 -53.849)" fill="#3c64bc"/><path d="M286.257,33.106l-1.109,1.524.83,1.26.02-1.578Z" transform="translate(-213.795 -24.822)" fill="#3c64bc"/><path d="M329.409,99.852l-1.109,1.524-1.052-.8.575-1.188Z" transform="translate(-245.36 -74.521)" fill="#3c64bc"/><path d="M374.725,27.821l-1.109,1.524-1.671-.839.518-1.213Z" transform="translate(-278.873 -20.464)" fill="#3c64bc"/><path d="M362.4,87.261l-1.109,1.524-2.1.121,1.158-1.509Z" transform="translate(-269.305 -65.426)" fill="#3c64bc"/><path d="M378.707,65.909,377.6,67.433l-.862-2.232,1.3-.029Z" transform="translate(-282.465 -48.864)" fill="#3c64bc"/><path d="M289.57,14.647a2.882,2.882,0,0,1-1.917,3.324,12.4,12.4,0,0,0,2.33,3.442,2.883,2.883,0,0,1,4.793,3.142,12.632,12.632,0,0,0,2.625.66c.4.055.807.091,1.21.107.08.007.162.007.24.009a2.885,2.885,0,0,1,5.611-1.169,12.346,12.346,0,0,0,3.432-2.327,2.885,2.885,0,0,1,3.149-4.79,12.428,12.428,0,0,0,.769-4.078,2.884,2.884,0,0,1-1.158-5.61,12.369,12.369,0,0,0-2.328-3.437,2.873,2.873,0,0,1-3.4.78,2.1,2.1,0,0,1-.393-.212,2.876,2.876,0,0,1-.99-3.712,12.552,12.552,0,0,0-2.475-.643c-.4-.055-.8-.1-1.209-.118-.135-.007-.27-.014-.4-.016a2.873,2.873,0,0,1-2.284,3.08,2.967,2.967,0,0,1-.78.058,2.885,2.885,0,0,1-2.542-1.97,12.344,12.344,0,0,0-3.432,2.326,2.885,2.885,0,0,1-3.149,4.79,12.562,12.562,0,0,0-.773,4.079,2.877,2.877,0,0,1,3.08,2.284M294.028,9.3a6.04,6.04,0,0,1,1.944-1.876,6.126,6.126,0,0,1,3.246-.887,5.571,5.571,0,0,1,1.21.134,6.123,6.123,0,0,1,4.021,2.905,6.124,6.124,0,0,1-.175,6.45,5.606,5.606,0,0,1-.518.675,6.092,6.092,0,0,1-5.721,1.984,6.016,6.016,0,0,1-2.242-.9,6.388,6.388,0,0,1-.773-.6,6.127,6.127,0,0,1-.991-7.884" transform="translate(-214.801)" fill="#5573c6"/><path d="M403.515,69.868a3.546,3.546,0,0,1-3.088,3.573,15.259,15.259,0,0,0,2.018,4.7,3.548,3.548,0,0,1,5.064,4.909,15.563,15.563,0,0,0,3.019,1.406c.473.159.954.3,1.437.409.095.027.194.046.288.066a3.551,3.551,0,0,1,7.053-.112,15.182,15.182,0,0,0,4.688-2.016,3.55,3.55,0,0,1,4.917-5.059,15.308,15.308,0,0,0,1.874-4.75,3.549,3.549,0,0,1-.1-7.049,15.226,15.226,0,0,0-2.017-4.694,3.536,3.536,0,0,1-4.3.153,2.593,2.593,0,0,1-.426-.348,3.54,3.54,0,0,1-.336-4.716,15.468,15.468,0,0,0-2.842-1.35c-.473-.159-.949-.3-1.434-.423-.161-.04-.323-.079-.483-.112a3.534,3.534,0,0,1-3.475,3.192,3.639,3.639,0,0,1-.957-.111,3.55,3.55,0,0,1-2.615-2.97,15.187,15.187,0,0,0-4.688,2.016,3.55,3.55,0,0,1-4.917,5.059,15.47,15.47,0,0,0-1.881,4.751,3.541,3.541,0,0,1,3.193,3.475m6.627-5.426a7.431,7.431,0,0,1,2.784-1.817,7.538,7.538,0,0,1,4.129-.32,6.844,6.844,0,0,1,1.431.443,7.536,7.536,0,0,1,4.186,4.444,7.537,7.537,0,0,1-1.707,7.755,6.9,6.9,0,0,1-.783.7,7.5,7.5,0,0,1-7.375,1.071,7.4,7.4,0,0,1-2.5-1.608,7.837,7.837,0,0,1-.8-.9,7.54,7.54,0,0,1,.63-9.759" transform="translate(-300.149 -40.829)" fill="#3c64bc"/><path d="M474.381,49.709l1.694-1.584-.322,4.013Z" transform="translate(-355.676 -36.082)" fill="#3c64bc"/><path d="M429.181,56.625l-1.694,1.584,2.62,1.123.688-2.486Z" transform="translate(-320.517 -42.456)" fill="#3c64bc"/><path d="M402.436,123.994l-1.694,1.584,1.421,1.067,1.528-1.336Z" transform="translate(-300.465 -92.967)" fill="#3c64bc"/><path d="M409.532,76.842l-1.694,1.584.711,1.715.39-1.9Z" transform="translate(-305.785 -57.614)" fill="#3c64bc"/><path d="M446.442,167.145l-1.694,1.584-1.088-1.207.97-1.3Z" transform="translate(-332.644 -124.627)" fill="#3c64bc"/><path d="M517.9,90.558,516.2,92.142l-1.825-1.4.908-1.346Z" transform="translate(-385.663 -67.025)" fill="#3c64bc"/><path d="M488.914,160.474l-1.694,1.584-2.572-.341,1.749-1.555Z" transform="translate(-363.375 -120.085)" fill="#3c64bc"/><path d="M514.7,137.259,513,138.843l-.524-2.9,1.574.265Z" transform="translate(-384.242 -101.928)" fill="#3c64bc"/><path d="M410.285,63.537A3.546,3.546,0,0,1,407.2,67.11a15.26,15.26,0,0,0,2.018,4.7,3.548,3.548,0,0,1,5.064,4.909,15.566,15.566,0,0,0,3.019,1.406c.473.159.954.3,1.437.409.1.027.195.046.289.066a3.551,3.551,0,0,1,7.053-.112,15.183,15.183,0,0,0,4.688-2.016,3.55,3.55,0,0,1,4.917-5.059,15.3,15.3,0,0,0,1.875-4.75,3.549,3.549,0,0,1-.1-7.049,15.229,15.229,0,0,0-2.017-4.694,3.536,3.536,0,0,1-4.3.153,2.6,2.6,0,0,1-.426-.348,3.539,3.539,0,0,1-.336-4.716,15.448,15.448,0,0,0-2.842-1.351c-.473-.159-.949-.3-1.433-.423-.161-.04-.323-.079-.483-.112a3.534,3.534,0,0,1-3.475,3.192,3.639,3.639,0,0,1-.957-.111,3.55,3.55,0,0,1-2.615-2.97,15.186,15.186,0,0,0-4.688,2.016,3.55,3.55,0,0,1-4.917,5.059,15.469,15.469,0,0,0-1.881,4.751,3.541,3.541,0,0,1,3.193,3.475m6.627-5.426a7.431,7.431,0,0,1,2.784-1.817,7.538,7.538,0,0,1,4.129-.32,6.843,6.843,0,0,1,1.431.443,7.536,7.536,0,0,1,4.186,4.444,7.537,7.537,0,0,1-1.707,7.755,6.9,6.9,0,0,1-.783.7,7.5,7.5,0,0,1-7.375,1.071,7.406,7.406,0,0,1-2.5-1.608,7.837,7.837,0,0,1-.8-.9,7.54,7.54,0,0,1,.63-9.759" transform="translate(-305.225 -36.083)" fill="#5573c6"/><path d="M517.439,465.272h-30.08a1.6,1.6,0,0,1-1.6-1.6V446.39a1.6,1.6,0,0,1,1.6-1.6h30.08a1.6,1.6,0,0,1,1.6,1.6v17.286a1.6,1.6,0,0,1-1.6,1.6" transform="translate(-364.21 -333.493)" fill="#5573c6"/><path d="M511.1,467.561a2.942,2.942,0,0,0-1.052-.78,2.847,2.847,0,0,0-1.024-.2,3.417,3.417,0,0,0-1.387.272,3.169,3.169,0,0,0-1.066.753,3.417,3.417,0,0,0-.69,1.122,3.841,3.841,0,0,0-.244,1.379,4.243,4.243,0,0,0,.244,1.464,3.438,3.438,0,0,0,.69,1.156,3.206,3.206,0,0,0,1.066.766,3.339,3.339,0,0,0,1.387.279,2.544,2.544,0,0,0,1.164-.286,3.173,3.173,0,0,0,1.052-.913l1.449,1.031a3.947,3.947,0,0,1-1.63,1.338,5.083,5.083,0,0,1-2.048.418,5.771,5.771,0,0,1-2.1-.369,4.7,4.7,0,0,1-2.724-2.668,5.477,5.477,0,0,1-.39-2.1,5.71,5.71,0,0,1,.39-2.153,4.824,4.824,0,0,1,1.08-1.651,4.733,4.733,0,0,1,1.644-1.052,5.769,5.769,0,0,1,2.1-.369,4.8,4.8,0,0,1,1.86.355,4.334,4.334,0,0,1,1.6,1.2Z" transform="translate(-377.732 -348.641)" fill="#fff"/><path d="M546.89,467.365a1.619,1.619,0,0,0-.745-.592,2.606,2.606,0,0,0-.982-.188,2.5,2.5,0,0,0-.592.07,1.606,1.606,0,0,0-.516.223,1.167,1.167,0,0,0-.369.4,1.143,1.143,0,0,0-.14.578.9.9,0,0,0,.349.766,3.424,3.424,0,0,0,.864.46q.515.195,1.129.376a4.585,4.585,0,0,1,1.128.5,2.8,2.8,0,0,1,.864.85,2.526,2.526,0,0,1,.349,1.407,3.09,3.09,0,0,1-.293,1.386,2.825,2.825,0,0,1-.787.982,3.407,3.407,0,0,1-1.15.585,4.806,4.806,0,0,1-1.379.195,5.182,5.182,0,0,1-1.77-.306,3.405,3.405,0,0,1-1.463-1.031l1.324-1.282a2.215,2.215,0,0,0,.843.759,2.369,2.369,0,0,0,1.108.272,2.329,2.329,0,0,0,.613-.083,1.9,1.9,0,0,0,.557-.251,1.3,1.3,0,0,0,.4-.425,1.137,1.137,0,0,0,.153-.592,1.031,1.031,0,0,0-.348-.836,3.08,3.08,0,0,0-.864-.495q-.515-.2-1.128-.383a4.744,4.744,0,0,1-1.129-.495,2.743,2.743,0,0,1-.864-.836,2.49,2.49,0,0,1-.349-1.4,2.659,2.659,0,0,1,.314-1.324,2.872,2.872,0,0,1,.822-.927,3.587,3.587,0,0,1,1.164-.55,5,5,0,0,1,1.338-.181,4.886,4.886,0,0,1,1.512.237,3.509,3.509,0,0,1,1.317.78Z" transform="translate(-405.915 -348.64)" fill="#fff"/><path d="M578.854,467.365a1.619,1.619,0,0,0-.745-.592,2.605,2.605,0,0,0-.982-.188,2.5,2.5,0,0,0-.592.07,1.606,1.606,0,0,0-.516.223,1.168,1.168,0,0,0-.369.4,1.145,1.145,0,0,0-.14.578.9.9,0,0,0,.349.766,3.426,3.426,0,0,0,.864.46q.515.195,1.129.376a4.593,4.593,0,0,1,1.128.5,2.8,2.8,0,0,1,.864.85,2.525,2.525,0,0,1,.349,1.407,3.093,3.093,0,0,1-.293,1.386,2.826,2.826,0,0,1-.787.982,3.408,3.408,0,0,1-1.15.585,4.805,4.805,0,0,1-1.379.195,5.18,5.18,0,0,1-1.77-.306,3.405,3.405,0,0,1-1.463-1.031l1.324-1.282a2.215,2.215,0,0,0,.843.759,2.369,2.369,0,0,0,1.108.272,2.331,2.331,0,0,0,.613-.083,1.9,1.9,0,0,0,.557-.251,1.305,1.305,0,0,0,.4-.425,1.137,1.137,0,0,0,.153-.592,1.031,1.031,0,0,0-.348-.836,3.076,3.076,0,0,0-.864-.495q-.515-.2-1.128-.383a4.749,4.749,0,0,1-1.129-.495,2.742,2.742,0,0,1-.864-.836,2.488,2.488,0,0,1-.349-1.4,2.661,2.661,0,0,1,.313-1.324,2.874,2.874,0,0,1,.822-.927,3.591,3.591,0,0,1,1.164-.55,5,5,0,0,1,1.338-.181,4.885,4.885,0,0,1,1.512.237,3.509,3.509,0,0,1,1.317.78Z" transform="translate(-429.88 -348.64)" fill="#fff"/><path d="M635.415,22.673H610.2a1.487,1.487,0,0,1-1.487-1.487V3.175A1.487,1.487,0,0,1,610.2,1.688h25.211A1.487,1.487,0,0,1,636.9,3.175V21.186a1.487,1.487,0,0,1-1.487,1.487" transform="translate(-456.397 -1.266)" fill="#ff966d"/><path d="M633.005,25.675a4.917,4.917,0,0,1-.268,1.61,3.976,3.976,0,0,1-.8,1.363,3.785,3.785,0,0,1-1.322.933,4.592,4.592,0,0,1-1.849.348,4.527,4.527,0,0,1-2.733-.775,3.831,3.831,0,0,1-1.4-2.466l2.346-.557a1.913,1.913,0,0,0,.568,1.113,1.554,1.554,0,0,0,1.1.417,1.5,1.5,0,0,0,1.461-.725,4.275,4.275,0,0,0,.387-2V15.495h2.506Z" transform="translate(-468.332 -11.618)" fill="#fff"/><path d="M674.282,17.446a2.3,2.3,0,0,0-1.065-.845,3.7,3.7,0,0,0-1.4-.268,3.548,3.548,0,0,0-.844.1,2.3,2.3,0,0,0-.736.319,1.669,1.669,0,0,0-.527.566,1.631,1.631,0,0,0-.2.825,1.29,1.29,0,0,0,.5,1.094,4.784,4.784,0,0,0,1.233.655c.491.186,1.026.366,1.61.537a6.614,6.614,0,0,1,1.61.715,4.009,4.009,0,0,1,1.233,1.213,3.6,3.6,0,0,1,.5,2.008,4.416,4.416,0,0,1-.417,1.979,4.019,4.019,0,0,1-1.123,1.4,4.856,4.856,0,0,1-1.641.835,6.838,6.838,0,0,1-1.967.278,7.4,7.4,0,0,1-2.526-.437,4.854,4.854,0,0,1-2.087-1.471l1.888-1.83a3.171,3.171,0,0,0,1.2,1.084,3.392,3.392,0,0,0,1.581.387,3.312,3.312,0,0,0,.874-.118,2.734,2.734,0,0,0,.8-.359,1.875,1.875,0,0,0,.576-.605,1.627,1.627,0,0,0,.218-.846,1.47,1.47,0,0,0-.5-1.192,4.411,4.411,0,0,0-1.233-.705q-.735-.289-1.61-.547a6.736,6.736,0,0,1-1.61-.705,3.888,3.888,0,0,1-1.233-1.194,3.546,3.546,0,0,1-.5-2,3.8,3.8,0,0,1,.447-1.89,4.1,4.1,0,0,1,1.173-1.322,5.108,5.108,0,0,1,1.66-.784,7.093,7.093,0,0,1,1.909-.259,6.982,6.982,0,0,1,2.157.338,4.983,4.983,0,0,1,1.878,1.113Z" transform="translate(-499.667 -10.546)" fill="#fff"/><path d="M870.551,203.29H843.2a1.544,1.544,0,0,1-1.544-1.544V183.869a1.544,1.544,0,0,1,1.544-1.544h27.353a1.544,1.544,0,0,1,1.544,1.544v17.876a1.544,1.544,0,0,1-1.544,1.544" transform="translate(-631.047 -136.702)" fill="#5573c6"/><path d="M848.16,212.808v-1.526l8.812-4.769v2.332l-5.886,3.2,5.886,3.2v2.332Z" transform="translate(-635.924 -154.836)" fill="#fff"/><path d="M889.763,207.162l-1.445-.636,5.433-16.45,1.445.679Z" transform="translate(-666.034 -142.513)" fill="#fff"/><path d="M930.4,211.281v1.526l-8.812,4.769v-2.332l5.887-3.2-5.887-3.2v-2.332Z" transform="translate(-690.977 -154.836)" fill="#fff"/><path d="M100.92,277.113H61.073a1.831,1.831,0,0,1-1.831-1.83V258.335a1.83,1.83,0,0,1,1.831-1.83H100.92a1.831,1.831,0,0,1,1.831,1.83v16.947a1.831,1.831,0,0,1-1.831,1.83" transform="translate(-44.418 -192.32)" fill="#ff966d"/><path d="M73.64,278.434h1.714v3.838h4.5v-3.838h1.715v9.634H79.858v-4.245h-4.5v4.245H73.64Z" transform="translate(-55.213 -208.761)" fill="#fff"/><path d="M112.969,279.985h-2.953v-1.551h7.62v1.551h-2.952v8.082h-1.714Z" transform="translate(-82.486 -208.761)" fill="#fff"/><path d="M145.311,278.434h2.612l2.571,6.749,2.6-6.749h2.586v9.634h-1.632v-8h-.028l-2.926,8h-1.2l-2.926-8h-.028v8h-1.632Z" transform="translate(-108.95 -208.761)" fill="#fff"/><path d="M195.5,278.434h1.714v8.082h4.1v1.551H195.5Z" transform="translate(-146.578 -208.761)" fill="#fff"/></g></g></svg>